G75*
%MOIN*%
%OFA0B0*%
%FSLAX25Y25*%
%IPPOS*%
%LPD*%
%AMOC8*
5,1,8,0,0,1.08239X$1,22.5*
%
%ADD10C,0.00000*%
%ADD11R,0.07087X0.01772*%
%ADD12R,0.11811X0.11811*%
%ADD13C,0.06000*%
%ADD14R,0.04331X0.03937*%
%ADD15R,0.05906X0.03937*%
%ADD16R,0.03937X0.04331*%
%ADD17C,0.01600*%
%ADD18C,0.04000*%
%ADD19C,0.03200*%
%ADD20C,0.03562*%
%ADD21C,0.01000*%
%ADD22C,0.01200*%
D10*
X0003143Y0003929D02*
X0003143Y0072827D01*
X0125190Y0072827D01*
X0125190Y0003929D01*
X0003143Y0003929D01*
D11*
X0050033Y0026685D03*
X0050033Y0029244D03*
X0050033Y0031803D03*
X0050033Y0034362D03*
X0050033Y0036921D03*
X0050033Y0039480D03*
X0050033Y0042039D03*
X0050033Y0044598D03*
X0073064Y0044598D03*
X0073064Y0042039D03*
X0073064Y0039480D03*
X0073064Y0036921D03*
X0073064Y0034362D03*
X0073064Y0031803D03*
X0073064Y0029244D03*
X0073064Y0026685D03*
D12*
X0062041Y0035543D03*
D13*
X0017167Y0034008D02*
X0011167Y0034008D01*
X0011167Y0024008D02*
X0017167Y0024008D01*
X0017167Y0014008D02*
X0011167Y0014008D01*
X0011560Y0045110D02*
X0017560Y0045110D01*
X0017560Y0055110D02*
X0011560Y0055110D01*
X0011560Y0065110D02*
X0017560Y0065110D01*
X0110198Y0058000D02*
X0116198Y0058000D01*
X0116198Y0048000D02*
X0110198Y0048000D01*
X0110198Y0038000D02*
X0116198Y0038000D01*
X0116198Y0028000D02*
X0110198Y0028000D01*
X0110198Y0018000D02*
X0116198Y0018000D01*
X0116198Y0008000D02*
X0110198Y0008000D01*
D14*
X0081686Y0057866D03*
X0074993Y0057866D03*
D15*
X0085976Y0041362D03*
X0094263Y0041362D03*
X0090999Y0023929D03*
X0099287Y0023929D03*
D16*
X0062395Y0057866D03*
X0055702Y0057866D03*
X0048222Y0057866D03*
X0041529Y0057866D03*
D17*
X0073064Y0044598D02*
X0075812Y0044598D01*
X0078143Y0047929D01*
X0083143Y0046929D02*
X0078253Y0042039D01*
X0073064Y0042039D01*
X0073064Y0039480D02*
X0084094Y0039480D01*
X0085976Y0041362D01*
X0073064Y0036921D02*
X0102135Y0036921D01*
X0104143Y0038929D01*
X0104710Y0034362D02*
X0073064Y0034362D01*
X0073064Y0031803D02*
X0084125Y0031803D01*
X0090999Y0023929D01*
X0083143Y0022929D02*
X0078828Y0029244D01*
X0073064Y0029244D01*
X0073064Y0026685D02*
X0076387Y0026685D01*
X0078143Y0022929D01*
D18*
X0083143Y0022929D02*
X0098072Y0008000D01*
X0113198Y0008000D01*
X0113127Y0017929D02*
X0111143Y0017929D01*
X0109143Y0017929D01*
X0113127Y0017929D02*
X0113198Y0018000D01*
X0086143Y0046929D02*
X0083143Y0046929D01*
X0086143Y0046929D02*
X0100143Y0057929D01*
D19*
X0113127Y0057929D01*
X0113198Y0058000D01*
X0113198Y0048000D02*
X0105214Y0048000D01*
X0105143Y0047929D01*
X0105143Y0039929D01*
X0104143Y0038929D01*
X0100143Y0040929D02*
X0098576Y0041362D01*
X0094263Y0041362D01*
X0104710Y0034362D02*
X0104749Y0034323D01*
X0104749Y0018323D01*
X0111143Y0017929D01*
X0099287Y0023929D02*
X0095356Y0029142D01*
D20*
X0095356Y0029142D03*
X0099600Y0030701D03*
X0100143Y0040929D03*
X0097631Y0047630D03*
X0090151Y0059047D03*
X0078143Y0047929D03*
X0066923Y0040937D03*
X0062592Y0036213D03*
X0066923Y0035819D03*
X0062198Y0031882D03*
X0066529Y0031488D03*
X0078143Y0022929D03*
X0099206Y0016134D03*
X0087001Y0009835D03*
X0048025Y0009835D03*
X0047143Y0017929D03*
X0048025Y0022827D03*
X0034143Y0013929D03*
X0028734Y0022827D03*
X0025584Y0029126D03*
X0047238Y0049205D03*
X0040151Y0053142D03*
X0052356Y0053535D03*
X0068104Y0057866D03*
X0042513Y0064559D03*
D21*
X0039924Y0065837D02*
X0005143Y0065837D01*
X0005143Y0066835D02*
X0040715Y0066835D01*
X0040881Y0067002D02*
X0040071Y0066191D01*
X0039632Y0065132D01*
X0039632Y0063986D01*
X0040071Y0062927D01*
X0040881Y0062117D01*
X0041940Y0061678D01*
X0043086Y0061678D01*
X0044145Y0062117D01*
X0044888Y0062859D01*
X0055702Y0062859D01*
X0056676Y0062763D01*
X0058476Y0062018D01*
X0059666Y0060827D01*
X0059327Y0060487D01*
X0059327Y0055245D01*
X0059971Y0054601D01*
X0064819Y0054601D01*
X0065463Y0055245D01*
X0065463Y0056166D01*
X0065729Y0056166D01*
X0066472Y0055424D01*
X0067531Y0054985D01*
X0068677Y0054985D01*
X0069736Y0055424D01*
X0070478Y0056166D01*
X0071728Y0056166D01*
X0071728Y0055442D01*
X0072372Y0054798D01*
X0077614Y0054798D01*
X0078259Y0055442D01*
X0078259Y0060290D01*
X0077614Y0060935D01*
X0072372Y0060935D01*
X0071728Y0060290D01*
X0071728Y0059566D01*
X0070478Y0059566D01*
X0069736Y0060309D01*
X0068677Y0060747D01*
X0067531Y0060747D01*
X0066472Y0060309D01*
X0065729Y0059566D01*
X0065463Y0059566D01*
X0065463Y0060487D01*
X0064819Y0061131D01*
X0063434Y0061131D01*
X0062817Y0062620D01*
X0062817Y0062620D01*
X0060456Y0064981D01*
X0057372Y0066259D01*
X0044888Y0066259D01*
X0044145Y0067002D01*
X0043086Y0067440D01*
X0041940Y0067440D01*
X0040881Y0067002D01*
X0044311Y0066835D02*
X0121143Y0066835D01*
X0121143Y0065837D02*
X0058391Y0065837D01*
X0060456Y0064981D02*
X0060456Y0064981D01*
X0060599Y0064838D02*
X0121143Y0064838D01*
X0121143Y0063840D02*
X0061598Y0063840D01*
X0062596Y0062841D02*
X0121143Y0062841D01*
X0121143Y0061843D02*
X0117635Y0061843D01*
X0117014Y0062100D02*
X0118521Y0061476D01*
X0119674Y0060322D01*
X0120298Y0058816D01*
X0120298Y0057184D01*
X0119674Y0055678D01*
X0118521Y0054524D01*
X0117014Y0053900D01*
X0109383Y0053900D01*
X0107876Y0054524D01*
X0107171Y0055229D01*
X0101724Y0055229D01*
X0088204Y0044606D01*
X0088029Y0044431D01*
X0089384Y0044431D01*
X0090028Y0043786D01*
X0090028Y0038938D01*
X0089912Y0038821D01*
X0101348Y0038821D01*
X0101443Y0038916D01*
X0101443Y0039466D01*
X0101854Y0040459D01*
X0102443Y0041048D01*
X0102443Y0048466D01*
X0102854Y0049459D01*
X0102925Y0049529D01*
X0103684Y0050289D01*
X0104677Y0050700D01*
X0107100Y0050700D01*
X0107876Y0051476D01*
X0109383Y0052100D01*
X0117014Y0052100D01*
X0118521Y0051476D01*
X0119674Y0050322D01*
X0120298Y0048816D01*
X0120298Y0047184D01*
X0119674Y0045678D01*
X0118521Y0044524D01*
X0117014Y0043900D01*
X0109383Y0043900D01*
X0107876Y0044524D01*
X0107843Y0044557D01*
X0107843Y0039392D01*
X0107432Y0038400D01*
X0106672Y0037640D01*
X0105846Y0036814D01*
X0106239Y0036651D01*
X0106279Y0036612D01*
X0107038Y0035852D01*
X0107449Y0034860D01*
X0107449Y0031049D01*
X0107876Y0031476D01*
X0109383Y0032100D01*
X0117014Y0032100D01*
X0118521Y0031476D01*
X0119674Y0030322D01*
X0120298Y0028816D01*
X0120298Y0027184D01*
X0119674Y0025678D01*
X0118521Y0024524D01*
X0117014Y0023900D01*
X0109383Y0023900D01*
X0107876Y0024524D01*
X0107449Y0024951D01*
X0107449Y0021049D01*
X0107876Y0021476D01*
X0109383Y0022100D01*
X0117014Y0022100D01*
X0118521Y0021476D01*
X0119674Y0020322D01*
X0120298Y0018816D01*
X0120298Y0017184D01*
X0119674Y0015678D01*
X0118521Y0014524D01*
X0117014Y0013900D01*
X0109383Y0013900D01*
X0107876Y0014524D01*
X0106916Y0015484D01*
X0104666Y0015623D01*
X0104212Y0015623D01*
X0104133Y0015656D01*
X0104047Y0015661D01*
X0103639Y0015860D01*
X0103220Y0016034D01*
X0103159Y0016095D01*
X0103082Y0016132D01*
X0102781Y0016472D01*
X0102460Y0016793D01*
X0102428Y0016873D01*
X0102371Y0016937D01*
X0102223Y0017366D01*
X0102049Y0017786D01*
X0102049Y0017872D01*
X0102021Y0017953D01*
X0102049Y0018406D01*
X0102049Y0032462D01*
X0086072Y0032462D01*
X0090843Y0026998D01*
X0094408Y0026998D01*
X0095052Y0026353D01*
X0095052Y0021505D01*
X0094408Y0020861D01*
X0089596Y0020861D01*
X0099356Y0011100D01*
X0107500Y0011100D01*
X0107876Y0011476D01*
X0109383Y0012100D01*
X0117014Y0012100D01*
X0118521Y0011476D01*
X0119674Y0010322D01*
X0120298Y0008816D01*
X0120298Y0007184D01*
X0119674Y0005678D01*
X0119426Y0005429D01*
X0121143Y0005429D01*
X0121143Y0068890D01*
X0005143Y0068890D01*
X0005143Y0005429D01*
X0096259Y0005429D01*
X0095444Y0006244D01*
X0080515Y0021173D01*
X0080499Y0021211D01*
X0079775Y0020487D01*
X0078716Y0020048D01*
X0077570Y0020048D01*
X0076511Y0020487D01*
X0075701Y0021297D01*
X0075262Y0022356D01*
X0075262Y0023502D01*
X0075504Y0024087D01*
X0075218Y0024699D01*
X0069065Y0024699D01*
X0068421Y0025344D01*
X0068421Y0045940D01*
X0069065Y0046584D01*
X0074883Y0046584D01*
X0075322Y0047211D01*
X0075262Y0047356D01*
X0075262Y0048502D01*
X0075701Y0049561D01*
X0076511Y0050372D01*
X0077570Y0050810D01*
X0078716Y0050810D01*
X0079775Y0050372D01*
X0080586Y0049561D01*
X0080821Y0048992D01*
X0081387Y0049557D01*
X0082526Y0050029D01*
X0085071Y0050029D01*
X0098713Y0060748D01*
X0099900Y0061081D01*
X0101125Y0060934D01*
X0101666Y0060629D01*
X0107029Y0060629D01*
X0107876Y0061476D01*
X0109383Y0062100D01*
X0117014Y0062100D01*
X0119152Y0060844D02*
X0121143Y0060844D01*
X0121143Y0059846D02*
X0119871Y0059846D01*
X0120285Y0058847D02*
X0121143Y0058847D01*
X0121143Y0057849D02*
X0120298Y0057849D01*
X0120160Y0056850D02*
X0121143Y0056850D01*
X0121143Y0055852D02*
X0119746Y0055852D01*
X0118850Y0054853D02*
X0121143Y0054853D01*
X0121143Y0053855D02*
X0099975Y0053855D01*
X0098704Y0052856D02*
X0121143Y0052856D01*
X0121143Y0051858D02*
X0117599Y0051858D01*
X0119137Y0050859D02*
X0121143Y0050859D01*
X0121143Y0049861D02*
X0119865Y0049861D01*
X0120279Y0048862D02*
X0121143Y0048862D01*
X0121143Y0047864D02*
X0120298Y0047864D01*
X0120166Y0046865D02*
X0121143Y0046865D01*
X0121143Y0045867D02*
X0119752Y0045867D01*
X0118865Y0044868D02*
X0121143Y0044868D01*
X0121143Y0043870D02*
X0107843Y0043870D01*
X0107843Y0042871D02*
X0121143Y0042871D01*
X0121143Y0041873D02*
X0107843Y0041873D01*
X0107843Y0040874D02*
X0121143Y0040874D01*
X0121143Y0039876D02*
X0107843Y0039876D01*
X0107630Y0038877D02*
X0121143Y0038877D01*
X0121143Y0037879D02*
X0106911Y0037879D01*
X0105912Y0036880D02*
X0121143Y0036880D01*
X0121143Y0035881D02*
X0107009Y0035881D01*
X0107440Y0034883D02*
X0121143Y0034883D01*
X0121143Y0033884D02*
X0107449Y0033884D01*
X0107449Y0032886D02*
X0121143Y0032886D01*
X0121143Y0031887D02*
X0117527Y0031887D01*
X0119107Y0030889D02*
X0121143Y0030889D01*
X0121143Y0029890D02*
X0119853Y0029890D01*
X0120267Y0028892D02*
X0121143Y0028892D01*
X0121143Y0027893D02*
X0120298Y0027893D01*
X0120178Y0026895D02*
X0121143Y0026895D01*
X0121143Y0025896D02*
X0119765Y0025896D01*
X0118894Y0024898D02*
X0121143Y0024898D01*
X0121143Y0023899D02*
X0107449Y0023899D01*
X0107449Y0022901D02*
X0121143Y0022901D01*
X0121143Y0021902D02*
X0117491Y0021902D01*
X0119093Y0020904D02*
X0121143Y0020904D01*
X0121143Y0019905D02*
X0119847Y0019905D01*
X0120260Y0018907D02*
X0121143Y0018907D01*
X0121143Y0017908D02*
X0120298Y0017908D01*
X0120184Y0016910D02*
X0121143Y0016910D01*
X0121143Y0015911D02*
X0119771Y0015911D01*
X0118909Y0014913D02*
X0121143Y0014913D01*
X0121143Y0013914D02*
X0117048Y0013914D01*
X0117455Y0011917D02*
X0121143Y0011917D01*
X0121143Y0012916D02*
X0097540Y0012916D01*
X0096542Y0013914D02*
X0109348Y0013914D01*
X0108941Y0011917D02*
X0098539Y0011917D01*
X0095543Y0014913D02*
X0107487Y0014913D01*
X0103516Y0015911D02*
X0094545Y0015911D01*
X0093546Y0016910D02*
X0102395Y0016910D01*
X0102037Y0017908D02*
X0092548Y0017908D01*
X0091549Y0018907D02*
X0102049Y0018907D01*
X0102049Y0019905D02*
X0090551Y0019905D01*
X0094451Y0020904D02*
X0102049Y0020904D01*
X0102049Y0021902D02*
X0095052Y0021902D01*
X0095052Y0022901D02*
X0102049Y0022901D01*
X0102049Y0023899D02*
X0095052Y0023899D01*
X0095052Y0024898D02*
X0102049Y0024898D01*
X0102049Y0025896D02*
X0095052Y0025896D01*
X0094510Y0026895D02*
X0102049Y0026895D01*
X0102049Y0027893D02*
X0090061Y0027893D01*
X0089189Y0028892D02*
X0102049Y0028892D01*
X0102049Y0029890D02*
X0088317Y0029890D01*
X0087446Y0030889D02*
X0102049Y0030889D01*
X0102049Y0031887D02*
X0086574Y0031887D01*
X0089967Y0038877D02*
X0101404Y0038877D01*
X0101613Y0039876D02*
X0090028Y0039876D01*
X0090028Y0040874D02*
X0102270Y0040874D01*
X0102443Y0041873D02*
X0090028Y0041873D01*
X0090028Y0042871D02*
X0102443Y0042871D01*
X0102443Y0043870D02*
X0089945Y0043870D01*
X0088538Y0044868D02*
X0102443Y0044868D01*
X0102443Y0045867D02*
X0089808Y0045867D01*
X0091079Y0046865D02*
X0102443Y0046865D01*
X0102443Y0047864D02*
X0092350Y0047864D01*
X0093621Y0048862D02*
X0102607Y0048862D01*
X0103256Y0049861D02*
X0094892Y0049861D01*
X0096163Y0050859D02*
X0107259Y0050859D01*
X0108798Y0051858D02*
X0097433Y0051858D01*
X0101246Y0054853D02*
X0107547Y0054853D01*
X0107244Y0060844D02*
X0101283Y0060844D01*
X0099057Y0060844D02*
X0077705Y0060844D01*
X0078259Y0059846D02*
X0097565Y0059846D01*
X0096294Y0058847D02*
X0078259Y0058847D01*
X0078259Y0057849D02*
X0095023Y0057849D01*
X0093752Y0056850D02*
X0078259Y0056850D01*
X0078259Y0055852D02*
X0092481Y0055852D01*
X0091211Y0054853D02*
X0077670Y0054853D01*
X0072317Y0054853D02*
X0065072Y0054853D01*
X0065463Y0055852D02*
X0066044Y0055852D01*
X0070164Y0055852D02*
X0071728Y0055852D01*
X0071728Y0059846D02*
X0070199Y0059846D01*
X0072282Y0060844D02*
X0065106Y0060844D01*
X0065463Y0059846D02*
X0066009Y0059846D01*
X0063139Y0061843D02*
X0108762Y0061843D01*
X0121143Y0067834D02*
X0005143Y0067834D01*
X0005143Y0068832D02*
X0121143Y0068832D01*
X0089940Y0053855D02*
X0049922Y0053855D01*
X0049922Y0054601D02*
X0050646Y0054601D01*
X0051290Y0055245D01*
X0051290Y0056166D01*
X0052634Y0056166D01*
X0052634Y0055245D01*
X0053278Y0054601D01*
X0058126Y0054601D01*
X0058771Y0055245D01*
X0058771Y0060487D01*
X0058126Y0061131D01*
X0053278Y0061131D01*
X0052634Y0060487D01*
X0052634Y0059566D01*
X0051290Y0059566D01*
X0051290Y0060487D01*
X0050646Y0061131D01*
X0045798Y0061131D01*
X0045153Y0060487D01*
X0045153Y0055245D01*
X0045798Y0054601D01*
X0046522Y0054601D01*
X0046522Y0052027D01*
X0045606Y0051647D01*
X0044795Y0050837D01*
X0044572Y0050297D01*
X0043821Y0049987D01*
X0042125Y0048290D01*
X0041207Y0046074D01*
X0041207Y0043659D01*
X0042422Y0041554D01*
X0043070Y0041180D01*
X0034029Y0041180D01*
X0030398Y0040000D01*
X0030398Y0040000D01*
X0027308Y0037756D01*
X0025064Y0034667D01*
X0025064Y0034667D01*
X0024074Y0031619D01*
X0023952Y0031568D01*
X0023141Y0030758D01*
X0022703Y0029699D01*
X0022703Y0028553D01*
X0023141Y0027494D01*
X0023952Y0026684D01*
X0025011Y0026245D01*
X0026157Y0026245D01*
X0027216Y0026684D01*
X0027617Y0027085D01*
X0027135Y0025283D01*
X0027102Y0025269D01*
X0026291Y0024459D01*
X0025852Y0023400D01*
X0025852Y0022254D01*
X0026291Y0021195D01*
X0027102Y0020384D01*
X0028160Y0019946D01*
X0029307Y0019946D01*
X0030366Y0020384D01*
X0031176Y0021195D01*
X0031615Y0022254D01*
X0031615Y0023400D01*
X0031176Y0024459D01*
X0030677Y0024958D01*
X0031377Y0027570D01*
X0032995Y0030372D01*
X0035283Y0032660D01*
X0038085Y0034278D01*
X0041210Y0035115D01*
X0041800Y0035154D01*
X0040012Y0034573D01*
X0040012Y0034573D01*
X0036422Y0031965D01*
X0033814Y0028375D01*
X0032443Y0024156D01*
X0032443Y0016304D01*
X0031701Y0015561D01*
X0031262Y0014502D01*
X0031262Y0013356D01*
X0031701Y0012297D01*
X0032511Y0011487D01*
X0033570Y0011048D01*
X0034716Y0011048D01*
X0035775Y0011487D01*
X0036586Y0012297D01*
X0037024Y0013356D01*
X0037024Y0014502D01*
X0036586Y0015561D01*
X0035843Y0016304D01*
X0035843Y0021937D01*
X0035974Y0023596D01*
X0036999Y0026753D01*
X0038950Y0029437D01*
X0040037Y0030227D01*
X0039447Y0029637D01*
X0038451Y0028641D01*
X0038451Y0020225D01*
X0039447Y0019229D01*
X0043580Y0019229D01*
X0044275Y0018534D01*
X0044262Y0018502D01*
X0044262Y0017356D01*
X0044701Y0016297D01*
X0045511Y0015487D01*
X0046570Y0015048D01*
X0047716Y0015048D01*
X0048775Y0015487D01*
X0049586Y0016297D01*
X0050024Y0017356D01*
X0050024Y0018502D01*
X0049586Y0019561D01*
X0049024Y0020122D01*
X0049657Y0020384D01*
X0050467Y0021195D01*
X0050906Y0022254D01*
X0050906Y0023400D01*
X0050467Y0024459D01*
X0049657Y0025269D01*
X0048598Y0025708D01*
X0047452Y0025708D01*
X0046393Y0025269D01*
X0045751Y0024627D01*
X0045588Y0024721D01*
X0045417Y0025018D01*
X0045394Y0025189D01*
X0045443Y0025669D01*
X0045826Y0026550D01*
X0046527Y0027207D01*
X0046671Y0027258D01*
X0054032Y0027258D01*
X0054676Y0027903D01*
X0054676Y0043381D01*
X0054032Y0044025D01*
X0046034Y0044025D01*
X0045748Y0043739D01*
X0045741Y0043739D01*
X0045448Y0043778D01*
X0044939Y0044072D01*
X0044645Y0044580D01*
X0044607Y0044874D01*
X0044657Y0045387D01*
X0045050Y0046336D01*
X0045541Y0046827D01*
X0045606Y0046762D01*
X0046664Y0046324D01*
X0047811Y0046324D01*
X0048870Y0046762D01*
X0049218Y0047111D01*
X0049317Y0047136D01*
X0049429Y0047321D01*
X0049680Y0047573D01*
X0049748Y0047736D01*
X0049922Y0047910D01*
X0049922Y0048143D01*
X0050042Y0048343D01*
X0050026Y0048407D01*
X0050119Y0048632D01*
X0050119Y0049778D01*
X0049922Y0050253D01*
X0049922Y0054601D01*
X0050898Y0054853D02*
X0053026Y0054853D01*
X0052634Y0055852D02*
X0051290Y0055852D01*
X0049922Y0052856D02*
X0088669Y0052856D01*
X0087398Y0051858D02*
X0049922Y0051858D01*
X0049922Y0050859D02*
X0086127Y0050859D01*
X0082120Y0049861D02*
X0080286Y0049861D01*
X0076000Y0049861D02*
X0050084Y0049861D01*
X0050119Y0048862D02*
X0075411Y0048862D01*
X0075262Y0047864D02*
X0049875Y0047864D01*
X0048972Y0046865D02*
X0075080Y0046865D01*
X0068421Y0045867D02*
X0044856Y0045867D01*
X0044607Y0044874D02*
X0044607Y0044874D01*
X0044608Y0044868D02*
X0068421Y0044868D01*
X0068421Y0043870D02*
X0054187Y0043870D01*
X0054676Y0042871D02*
X0068421Y0042871D01*
X0068421Y0041873D02*
X0054676Y0041873D01*
X0054676Y0040874D02*
X0068421Y0040874D01*
X0068421Y0039876D02*
X0054676Y0039876D01*
X0054676Y0038877D02*
X0068421Y0038877D01*
X0068421Y0037879D02*
X0054676Y0037879D01*
X0054676Y0036880D02*
X0068421Y0036880D01*
X0068421Y0035881D02*
X0054676Y0035881D01*
X0054676Y0034883D02*
X0068421Y0034883D01*
X0068421Y0033884D02*
X0054676Y0033884D01*
X0054676Y0032886D02*
X0068421Y0032886D01*
X0068421Y0031887D02*
X0054676Y0031887D01*
X0054676Y0030889D02*
X0068421Y0030889D01*
X0068421Y0029890D02*
X0054676Y0029890D01*
X0054676Y0028892D02*
X0068421Y0028892D01*
X0068421Y0027893D02*
X0054667Y0027893D01*
X0050028Y0024898D02*
X0068867Y0024898D01*
X0068421Y0025896D02*
X0045542Y0025896D01*
X0045826Y0026550D02*
X0045826Y0026550D01*
X0046194Y0026895D02*
X0068421Y0026895D01*
X0075262Y0022901D02*
X0050906Y0022901D01*
X0050699Y0023899D02*
X0075426Y0023899D01*
X0075450Y0021902D02*
X0050760Y0021902D01*
X0050176Y0020904D02*
X0076094Y0020904D01*
X0080192Y0020904D02*
X0080784Y0020904D01*
X0081783Y0019905D02*
X0049241Y0019905D01*
X0049857Y0018907D02*
X0082781Y0018907D01*
X0083780Y0017908D02*
X0050024Y0017908D01*
X0049839Y0016910D02*
X0084778Y0016910D01*
X0085777Y0015911D02*
X0049200Y0015911D01*
X0047143Y0017929D02*
X0044143Y0020929D01*
X0043903Y0018907D02*
X0035843Y0018907D01*
X0035843Y0019905D02*
X0038771Y0019905D01*
X0038451Y0020904D02*
X0035843Y0020904D01*
X0035843Y0021902D02*
X0038451Y0021902D01*
X0038451Y0022901D02*
X0035919Y0022901D01*
X0036072Y0023899D02*
X0038451Y0023899D01*
X0038451Y0024898D02*
X0036397Y0024898D01*
X0036721Y0025896D02*
X0038451Y0025896D01*
X0038451Y0026895D02*
X0037103Y0026895D01*
X0036999Y0026753D02*
X0036999Y0026753D01*
X0037828Y0027893D02*
X0038451Y0027893D01*
X0038553Y0028892D02*
X0038702Y0028892D01*
X0039573Y0029890D02*
X0039700Y0029890D01*
X0036422Y0031965D02*
X0036422Y0031965D01*
X0036422Y0031965D01*
X0036366Y0031887D02*
X0034510Y0031887D01*
X0035674Y0032886D02*
X0037690Y0032886D01*
X0037404Y0033884D02*
X0039064Y0033884D01*
X0040344Y0034883D02*
X0040966Y0034883D01*
X0044143Y0031929D02*
X0044269Y0031803D01*
X0050033Y0031803D01*
X0045394Y0025189D02*
X0045394Y0025189D01*
X0045486Y0024898D02*
X0046022Y0024898D01*
X0044262Y0017908D02*
X0035843Y0017908D01*
X0035843Y0016910D02*
X0044447Y0016910D01*
X0045086Y0015911D02*
X0036235Y0015911D01*
X0036854Y0014913D02*
X0086775Y0014913D01*
X0087774Y0013914D02*
X0037024Y0013914D01*
X0036842Y0012916D02*
X0088772Y0012916D01*
X0089771Y0011917D02*
X0036206Y0011917D01*
X0032080Y0011917D02*
X0020738Y0011917D01*
X0020642Y0011685D02*
X0021267Y0013192D01*
X0021267Y0014823D01*
X0020642Y0016330D01*
X0019489Y0017484D01*
X0017982Y0018108D01*
X0010351Y0018108D01*
X0008844Y0017484D01*
X0007691Y0016330D01*
X0007067Y0014823D01*
X0007067Y0013192D01*
X0007691Y0011685D01*
X0008844Y0010532D01*
X0010351Y0009908D01*
X0017982Y0009908D01*
X0019489Y0010532D01*
X0020642Y0011685D01*
X0019876Y0010919D02*
X0090769Y0010919D01*
X0091768Y0009920D02*
X0018012Y0009920D01*
X0021152Y0012916D02*
X0031444Y0012916D01*
X0031262Y0013914D02*
X0021267Y0013914D01*
X0021230Y0014913D02*
X0031432Y0014913D01*
X0032051Y0015911D02*
X0020816Y0015911D01*
X0020063Y0016910D02*
X0032443Y0016910D01*
X0032443Y0017908D02*
X0018464Y0017908D01*
X0017982Y0019908D02*
X0019489Y0020532D01*
X0020642Y0021685D01*
X0021267Y0023192D01*
X0021267Y0024823D01*
X0020642Y0026330D01*
X0019489Y0027484D01*
X0017982Y0028108D01*
X0010351Y0028108D01*
X0008844Y0027484D01*
X0007691Y0026330D01*
X0007067Y0024823D01*
X0007067Y0023192D01*
X0007691Y0021685D01*
X0008844Y0020532D01*
X0010351Y0019908D01*
X0017982Y0019908D01*
X0019861Y0020904D02*
X0026582Y0020904D01*
X0025998Y0021902D02*
X0020732Y0021902D01*
X0021146Y0022901D02*
X0025852Y0022901D01*
X0026059Y0023899D02*
X0021267Y0023899D01*
X0021236Y0024898D02*
X0026730Y0024898D01*
X0027299Y0025896D02*
X0020822Y0025896D01*
X0020078Y0026895D02*
X0023741Y0026895D01*
X0022976Y0027893D02*
X0018500Y0027893D01*
X0022703Y0028892D02*
X0005143Y0028892D01*
X0005143Y0029890D02*
X0022782Y0029890D01*
X0023272Y0030889D02*
X0005143Y0030889D01*
X0005143Y0031887D02*
X0024161Y0031887D01*
X0024485Y0032886D02*
X0005143Y0032886D01*
X0005143Y0033884D02*
X0024810Y0033884D01*
X0025221Y0034883D02*
X0005143Y0034883D01*
X0005143Y0035881D02*
X0025947Y0035881D01*
X0026672Y0036880D02*
X0005143Y0036880D01*
X0005143Y0037879D02*
X0027477Y0037879D01*
X0027308Y0037756D02*
X0027308Y0037756D01*
X0028851Y0038877D02*
X0005143Y0038877D01*
X0005143Y0039876D02*
X0030226Y0039876D01*
X0033087Y0040874D02*
X0005143Y0040874D01*
X0005143Y0041873D02*
X0009000Y0041873D01*
X0009238Y0041634D02*
X0010745Y0041010D01*
X0018376Y0041010D01*
X0019883Y0041634D01*
X0021036Y0042788D01*
X0021660Y0044295D01*
X0021660Y0045926D01*
X0021036Y0047433D01*
X0019883Y0048586D01*
X0018376Y0049210D01*
X0010745Y0049210D01*
X0009238Y0048586D01*
X0008085Y0047433D01*
X0007460Y0045926D01*
X0007460Y0044295D01*
X0008085Y0042788D01*
X0009238Y0041634D01*
X0008050Y0042871D02*
X0005143Y0042871D01*
X0005143Y0043870D02*
X0007636Y0043870D01*
X0007460Y0044868D02*
X0005143Y0044868D01*
X0005143Y0045867D02*
X0007460Y0045867D01*
X0007849Y0046865D02*
X0005143Y0046865D01*
X0005143Y0047864D02*
X0008515Y0047864D01*
X0009904Y0048862D02*
X0005143Y0048862D01*
X0005143Y0049861D02*
X0043695Y0049861D01*
X0043821Y0049987D02*
X0043821Y0049987D01*
X0044817Y0050859D02*
X0005143Y0050859D01*
X0005143Y0051858D02*
X0009015Y0051858D01*
X0009238Y0051634D02*
X0008085Y0052788D01*
X0007460Y0054295D01*
X0007460Y0055926D01*
X0008085Y0057433D01*
X0009238Y0058586D01*
X0010745Y0059210D01*
X0018376Y0059210D01*
X0019883Y0058586D01*
X0021036Y0057433D01*
X0021660Y0055926D01*
X0021660Y0054295D01*
X0021036Y0052788D01*
X0019883Y0051634D01*
X0018376Y0051010D01*
X0010745Y0051010D01*
X0009238Y0051634D01*
X0008056Y0052856D02*
X0005143Y0052856D01*
X0005143Y0053855D02*
X0007643Y0053855D01*
X0007460Y0054853D02*
X0005143Y0054853D01*
X0005143Y0055852D02*
X0007460Y0055852D01*
X0007843Y0056850D02*
X0005143Y0056850D01*
X0005143Y0057849D02*
X0008501Y0057849D01*
X0009869Y0058847D02*
X0005143Y0058847D01*
X0005143Y0059846D02*
X0045153Y0059846D01*
X0045510Y0060844D02*
X0005143Y0060844D01*
X0005143Y0061843D02*
X0041542Y0061843D01*
X0040156Y0062841D02*
X0005143Y0062841D01*
X0005143Y0063840D02*
X0039693Y0063840D01*
X0039632Y0064838D02*
X0005143Y0064838D01*
X0019252Y0058847D02*
X0045153Y0058847D01*
X0045153Y0057849D02*
X0020620Y0057849D01*
X0021277Y0056850D02*
X0045153Y0056850D01*
X0045153Y0055852D02*
X0021660Y0055852D01*
X0021660Y0054853D02*
X0045545Y0054853D01*
X0046522Y0053855D02*
X0021478Y0053855D01*
X0021064Y0052856D02*
X0046522Y0052856D01*
X0046114Y0051858D02*
X0020106Y0051858D01*
X0019216Y0048862D02*
X0042697Y0048862D01*
X0042125Y0048290D02*
X0042125Y0048290D01*
X0041948Y0047864D02*
X0020605Y0047864D01*
X0021271Y0046865D02*
X0041535Y0046865D01*
X0041207Y0045867D02*
X0021660Y0045867D01*
X0021660Y0044868D02*
X0041207Y0044868D01*
X0041207Y0043870D02*
X0021484Y0043870D01*
X0021071Y0042871D02*
X0041662Y0042871D01*
X0042238Y0041873D02*
X0020121Y0041873D01*
X0033512Y0030889D02*
X0035640Y0030889D01*
X0034915Y0029890D02*
X0032717Y0029890D01*
X0032140Y0028892D02*
X0034189Y0028892D01*
X0033658Y0027893D02*
X0031564Y0027893D01*
X0031196Y0026895D02*
X0033333Y0026895D01*
X0033009Y0025896D02*
X0030929Y0025896D01*
X0030737Y0024898D02*
X0032684Y0024898D01*
X0032443Y0023899D02*
X0031408Y0023899D01*
X0031615Y0022901D02*
X0032443Y0022901D01*
X0032443Y0021902D02*
X0031469Y0021902D01*
X0030885Y0020904D02*
X0032443Y0020904D01*
X0032443Y0019905D02*
X0005143Y0019905D01*
X0005143Y0018907D02*
X0032443Y0018907D01*
X0027566Y0026895D02*
X0027427Y0026895D01*
X0009833Y0027893D02*
X0005143Y0027893D01*
X0005143Y0026895D02*
X0008255Y0026895D01*
X0007511Y0025896D02*
X0005143Y0025896D01*
X0005143Y0024898D02*
X0007098Y0024898D01*
X0007067Y0023899D02*
X0005143Y0023899D01*
X0005143Y0022901D02*
X0007187Y0022901D01*
X0007601Y0021902D02*
X0005143Y0021902D01*
X0005143Y0020904D02*
X0008472Y0020904D01*
X0009869Y0017908D02*
X0005143Y0017908D01*
X0005143Y0016910D02*
X0008270Y0016910D01*
X0007517Y0015911D02*
X0005143Y0015911D01*
X0005143Y0014913D02*
X0007104Y0014913D01*
X0007067Y0013914D02*
X0005143Y0013914D01*
X0005143Y0012916D02*
X0007181Y0012916D01*
X0007595Y0011917D02*
X0005143Y0011917D01*
X0005143Y0010919D02*
X0008458Y0010919D01*
X0010321Y0009920D02*
X0005143Y0009920D01*
X0005143Y0008922D02*
X0092766Y0008922D01*
X0093765Y0007923D02*
X0005143Y0007923D01*
X0005143Y0006925D02*
X0094763Y0006925D01*
X0095762Y0005926D02*
X0005143Y0005926D01*
X0042422Y0041554D02*
X0042422Y0041554D01*
X0042422Y0041554D01*
X0045289Y0043870D02*
X0045878Y0043870D01*
X0058379Y0054853D02*
X0059718Y0054853D01*
X0059327Y0055852D02*
X0058771Y0055852D01*
X0058771Y0056850D02*
X0059327Y0056850D01*
X0059327Y0057849D02*
X0058771Y0057849D01*
X0058771Y0058847D02*
X0059327Y0058847D01*
X0059327Y0059846D02*
X0058771Y0059846D01*
X0058413Y0060844D02*
X0059649Y0060844D01*
X0058651Y0061843D02*
X0043484Y0061843D01*
X0044870Y0062841D02*
X0055882Y0062841D01*
X0052991Y0060844D02*
X0050933Y0060844D01*
X0051290Y0059846D02*
X0052634Y0059846D01*
X0107449Y0031887D02*
X0108870Y0031887D01*
X0107502Y0024898D02*
X0107449Y0024898D01*
X0107449Y0021902D02*
X0108905Y0021902D01*
X0119078Y0010919D02*
X0121143Y0010919D01*
X0121143Y0009920D02*
X0119841Y0009920D01*
X0120254Y0008922D02*
X0121143Y0008922D01*
X0121143Y0007923D02*
X0120298Y0007923D01*
X0120191Y0006925D02*
X0121143Y0006925D01*
X0121143Y0005926D02*
X0119777Y0005926D01*
D22*
X0050033Y0029244D02*
X0048025Y0029244D01*
X0044143Y0031929D02*
X0040151Y0027937D01*
X0040151Y0020929D01*
X0044143Y0020929D01*
X0028734Y0022827D02*
X0028738Y0023168D01*
X0028750Y0023508D01*
X0028771Y0023848D01*
X0028800Y0024187D01*
X0028837Y0024526D01*
X0028882Y0024863D01*
X0028935Y0025200D01*
X0028997Y0025535D01*
X0029066Y0025868D01*
X0029144Y0026200D01*
X0029229Y0026530D01*
X0029322Y0026857D01*
X0029424Y0027182D01*
X0029533Y0027505D01*
X0029650Y0027825D01*
X0029774Y0028142D01*
X0029907Y0028456D01*
X0030047Y0028766D01*
X0030194Y0029073D01*
X0030348Y0029377D01*
X0030510Y0029676D01*
X0030679Y0029972D01*
X0030856Y0030264D01*
X0031039Y0030551D01*
X0031229Y0030833D01*
X0031426Y0031111D01*
X0031629Y0031384D01*
X0031839Y0031652D01*
X0032056Y0031915D01*
X0032278Y0032173D01*
X0032507Y0032425D01*
X0032742Y0032672D01*
X0032983Y0032913D01*
X0033230Y0033148D01*
X0033482Y0033377D01*
X0033740Y0033599D01*
X0034003Y0033816D01*
X0034271Y0034026D01*
X0034544Y0034229D01*
X0034822Y0034426D01*
X0035104Y0034616D01*
X0035391Y0034799D01*
X0035683Y0034976D01*
X0035979Y0035145D01*
X0036278Y0035307D01*
X0036582Y0035461D01*
X0036889Y0035608D01*
X0037199Y0035748D01*
X0037513Y0035881D01*
X0037830Y0036005D01*
X0038150Y0036122D01*
X0038473Y0036231D01*
X0038798Y0036333D01*
X0039125Y0036426D01*
X0039455Y0036511D01*
X0039787Y0036589D01*
X0040120Y0036658D01*
X0040455Y0036720D01*
X0040792Y0036773D01*
X0041129Y0036818D01*
X0041468Y0036855D01*
X0041807Y0036884D01*
X0042147Y0036905D01*
X0042487Y0036917D01*
X0042828Y0036921D01*
X0050033Y0036921D01*
X0050033Y0039480D02*
X0035938Y0039480D01*
X0045741Y0042039D02*
X0050033Y0042039D01*
X0042907Y0044874D02*
X0042909Y0045005D01*
X0042915Y0045135D01*
X0042925Y0045266D01*
X0042939Y0045396D01*
X0042956Y0045526D01*
X0042978Y0045655D01*
X0043003Y0045783D01*
X0043033Y0045910D01*
X0043066Y0046037D01*
X0043103Y0046162D01*
X0043144Y0046287D01*
X0043188Y0046410D01*
X0043237Y0046531D01*
X0043289Y0046651D01*
X0043344Y0046770D01*
X0043403Y0046887D01*
X0043466Y0047002D01*
X0043532Y0047115D01*
X0043601Y0047226D01*
X0043674Y0047334D01*
X0043750Y0047441D01*
X0043829Y0047545D01*
X0043911Y0047647D01*
X0043996Y0047746D01*
X0044084Y0047843D01*
X0044176Y0047936D01*
X0044269Y0048028D01*
X0044366Y0048116D01*
X0044465Y0048201D01*
X0044567Y0048283D01*
X0044671Y0048362D01*
X0044778Y0048438D01*
X0044886Y0048511D01*
X0044997Y0048580D01*
X0045110Y0048646D01*
X0045225Y0048709D01*
X0045342Y0048768D01*
X0045461Y0048823D01*
X0045581Y0048875D01*
X0045702Y0048924D01*
X0045825Y0048968D01*
X0045950Y0049009D01*
X0046075Y0049046D01*
X0046202Y0049079D01*
X0046329Y0049109D01*
X0046457Y0049134D01*
X0046586Y0049156D01*
X0046716Y0049173D01*
X0046846Y0049187D01*
X0046977Y0049197D01*
X0047107Y0049203D01*
X0047238Y0049205D01*
X0047237Y0049205D02*
X0047253Y0049152D01*
X0047271Y0049100D01*
X0047294Y0049049D01*
X0047320Y0049000D01*
X0047349Y0048953D01*
X0047381Y0048908D01*
X0047416Y0048865D01*
X0047454Y0048824D01*
X0047495Y0048787D01*
X0047538Y0048752D01*
X0047584Y0048720D01*
X0047631Y0048692D01*
X0047681Y0048667D01*
X0047732Y0048645D01*
X0047784Y0048627D01*
X0047837Y0048612D01*
X0047892Y0048601D01*
X0047947Y0048594D01*
X0048002Y0048590D01*
X0048058Y0048591D01*
X0048113Y0048595D01*
X0048168Y0048603D01*
X0048222Y0048614D01*
X0048222Y0057866D01*
X0055702Y0057866D01*
X0062395Y0057866D02*
X0062393Y0058028D01*
X0062387Y0058189D01*
X0062377Y0058351D01*
X0062364Y0058512D01*
X0062346Y0058673D01*
X0062325Y0058833D01*
X0062299Y0058993D01*
X0062270Y0059152D01*
X0062237Y0059310D01*
X0062201Y0059468D01*
X0062160Y0059624D01*
X0062116Y0059780D01*
X0062067Y0059934D01*
X0062016Y0060087D01*
X0061960Y0060239D01*
X0061901Y0060390D01*
X0061838Y0060539D01*
X0061772Y0060686D01*
X0061702Y0060832D01*
X0061628Y0060976D01*
X0061551Y0061119D01*
X0061471Y0061259D01*
X0061387Y0061397D01*
X0061300Y0061534D01*
X0061210Y0061668D01*
X0061117Y0061800D01*
X0061020Y0061930D01*
X0060920Y0062057D01*
X0060818Y0062182D01*
X0060712Y0062304D01*
X0060603Y0062424D01*
X0060492Y0062541D01*
X0060377Y0062656D01*
X0060260Y0062767D01*
X0060140Y0062876D01*
X0060018Y0062982D01*
X0059893Y0063084D01*
X0059766Y0063184D01*
X0059636Y0063281D01*
X0059504Y0063374D01*
X0059370Y0063464D01*
X0059233Y0063551D01*
X0059095Y0063635D01*
X0058955Y0063715D01*
X0058812Y0063792D01*
X0058668Y0063866D01*
X0058522Y0063936D01*
X0058375Y0064002D01*
X0058226Y0064065D01*
X0058075Y0064124D01*
X0057923Y0064180D01*
X0057770Y0064231D01*
X0057616Y0064280D01*
X0057460Y0064324D01*
X0057304Y0064365D01*
X0057146Y0064401D01*
X0056988Y0064434D01*
X0056829Y0064463D01*
X0056669Y0064489D01*
X0056509Y0064510D01*
X0056348Y0064528D01*
X0056187Y0064541D01*
X0056025Y0064551D01*
X0055864Y0064557D01*
X0055702Y0064559D01*
X0042513Y0064559D01*
X0062395Y0057866D02*
X0068104Y0057866D01*
X0074993Y0057866D01*
X0045741Y0042039D02*
X0045637Y0042041D01*
X0045534Y0042047D01*
X0045431Y0042056D01*
X0045328Y0042069D01*
X0045226Y0042086D01*
X0045125Y0042107D01*
X0045024Y0042131D01*
X0044924Y0042159D01*
X0044826Y0042191D01*
X0044728Y0042226D01*
X0044632Y0042265D01*
X0044538Y0042307D01*
X0044445Y0042353D01*
X0044354Y0042402D01*
X0044264Y0042454D01*
X0044177Y0042510D01*
X0044091Y0042568D01*
X0044008Y0042630D01*
X0043928Y0042695D01*
X0043849Y0042763D01*
X0043773Y0042833D01*
X0043700Y0042906D01*
X0043630Y0042982D01*
X0043562Y0043061D01*
X0043497Y0043141D01*
X0043435Y0043224D01*
X0043377Y0043310D01*
X0043321Y0043397D01*
X0043269Y0043487D01*
X0043220Y0043578D01*
X0043174Y0043671D01*
X0043132Y0043765D01*
X0043093Y0043861D01*
X0043058Y0043959D01*
X0043026Y0044057D01*
X0042998Y0044157D01*
X0042974Y0044258D01*
X0042953Y0044359D01*
X0042936Y0044461D01*
X0042923Y0044564D01*
X0042914Y0044667D01*
X0042908Y0044770D01*
X0042906Y0044874D01*
X0046450Y0034244D02*
X0049915Y0034244D01*
X0049935Y0034246D01*
X0049955Y0034251D01*
X0049974Y0034260D01*
X0049991Y0034272D01*
X0050005Y0034286D01*
X0050017Y0034303D01*
X0050026Y0034322D01*
X0050031Y0034342D01*
X0050033Y0034362D01*
X0035938Y0039480D02*
X0035688Y0039477D01*
X0035438Y0039468D01*
X0035188Y0039453D01*
X0034939Y0039432D01*
X0034690Y0039405D01*
X0034442Y0039371D01*
X0034195Y0039332D01*
X0033949Y0039287D01*
X0033704Y0039236D01*
X0033460Y0039179D01*
X0033218Y0039116D01*
X0032977Y0039048D01*
X0032738Y0038973D01*
X0032501Y0038893D01*
X0032266Y0038807D01*
X0032034Y0038716D01*
X0031803Y0038618D01*
X0031575Y0038516D01*
X0031349Y0038408D01*
X0031126Y0038294D01*
X0030906Y0038175D01*
X0030689Y0038051D01*
X0030475Y0037921D01*
X0030264Y0037787D01*
X0030056Y0037647D01*
X0029852Y0037503D01*
X0029651Y0037353D01*
X0029454Y0037199D01*
X0029261Y0037040D01*
X0029072Y0036876D01*
X0028887Y0036708D01*
X0028706Y0036535D01*
X0028529Y0036358D01*
X0028356Y0036177D01*
X0028188Y0035992D01*
X0028024Y0035803D01*
X0027865Y0035610D01*
X0027711Y0035413D01*
X0027561Y0035212D01*
X0027417Y0035008D01*
X0027277Y0034800D01*
X0027143Y0034589D01*
X0027013Y0034375D01*
X0026889Y0034158D01*
X0026770Y0033938D01*
X0026656Y0033715D01*
X0026548Y0033489D01*
X0026446Y0033261D01*
X0026348Y0033030D01*
X0026257Y0032798D01*
X0026171Y0032563D01*
X0026091Y0032326D01*
X0026016Y0032087D01*
X0025948Y0031846D01*
X0025885Y0031604D01*
X0025828Y0031360D01*
X0025777Y0031115D01*
X0025732Y0030869D01*
X0025693Y0030622D01*
X0025659Y0030374D01*
X0025632Y0030125D01*
X0025611Y0029876D01*
X0025596Y0029626D01*
X0025587Y0029376D01*
X0025584Y0029126D01*
X0034143Y0021937D02*
X0034143Y0013929D01*
X0034143Y0021937D02*
X0034147Y0022239D01*
X0034158Y0022541D01*
X0034176Y0022842D01*
X0034202Y0023143D01*
X0034236Y0023444D01*
X0034276Y0023743D01*
X0034324Y0024041D01*
X0034379Y0024338D01*
X0034442Y0024633D01*
X0034512Y0024927D01*
X0034589Y0025219D01*
X0034673Y0025510D01*
X0034764Y0025797D01*
X0034862Y0026083D01*
X0034968Y0026366D01*
X0035080Y0026647D01*
X0035199Y0026924D01*
X0035325Y0027199D01*
X0035457Y0027470D01*
X0035596Y0027738D01*
X0035742Y0028003D01*
X0035894Y0028264D01*
X0036052Y0028521D01*
X0036217Y0028774D01*
X0036388Y0029023D01*
X0036565Y0029268D01*
X0036748Y0029509D01*
X0036937Y0029744D01*
X0037131Y0029976D01*
X0037331Y0030202D01*
X0037537Y0030423D01*
X0037748Y0030639D01*
X0037964Y0030850D01*
X0038185Y0031056D01*
X0038411Y0031256D01*
X0038643Y0031450D01*
X0038878Y0031639D01*
X0039119Y0031822D01*
X0039364Y0031999D01*
X0039613Y0032170D01*
X0039866Y0032335D01*
X0040123Y0032493D01*
X0040384Y0032645D01*
X0040649Y0032791D01*
X0040917Y0032930D01*
X0041188Y0033062D01*
X0041463Y0033188D01*
X0041740Y0033307D01*
X0042021Y0033419D01*
X0042304Y0033525D01*
X0042590Y0033623D01*
X0042877Y0033714D01*
X0043168Y0033798D01*
X0043460Y0033875D01*
X0043754Y0033945D01*
X0044049Y0034008D01*
X0044346Y0034063D01*
X0044644Y0034111D01*
X0044943Y0034151D01*
X0045244Y0034185D01*
X0045545Y0034211D01*
X0045846Y0034229D01*
X0046148Y0034240D01*
X0046450Y0034244D01*
X0043694Y0025189D02*
X0043696Y0025094D01*
X0043702Y0024999D01*
X0043711Y0024904D01*
X0043725Y0024810D01*
X0043742Y0024717D01*
X0043763Y0024624D01*
X0043787Y0024532D01*
X0043816Y0024441D01*
X0043847Y0024351D01*
X0043883Y0024263D01*
X0043922Y0024176D01*
X0043965Y0024091D01*
X0044010Y0024008D01*
X0044060Y0023927D01*
X0044112Y0023847D01*
X0044168Y0023770D01*
X0044226Y0023695D01*
X0044288Y0023623D01*
X0044353Y0023553D01*
X0044420Y0023486D01*
X0044490Y0023421D01*
X0044562Y0023359D01*
X0044637Y0023301D01*
X0044714Y0023245D01*
X0044794Y0023193D01*
X0044875Y0023143D01*
X0044958Y0023098D01*
X0045043Y0023055D01*
X0045130Y0023016D01*
X0045218Y0022980D01*
X0045308Y0022949D01*
X0045399Y0022920D01*
X0045491Y0022896D01*
X0045584Y0022875D01*
X0045677Y0022858D01*
X0045771Y0022844D01*
X0045866Y0022835D01*
X0045961Y0022829D01*
X0046056Y0022827D01*
X0048025Y0022827D01*
X0043694Y0025189D02*
X0043696Y0025314D01*
X0043702Y0025440D01*
X0043711Y0025565D01*
X0043725Y0025690D01*
X0043742Y0025814D01*
X0043764Y0025938D01*
X0043789Y0026061D01*
X0043817Y0026183D01*
X0043850Y0026304D01*
X0043886Y0026424D01*
X0043926Y0026543D01*
X0043970Y0026661D01*
X0044017Y0026777D01*
X0044068Y0026892D01*
X0044122Y0027005D01*
X0044180Y0027116D01*
X0044241Y0027226D01*
X0044306Y0027333D01*
X0044374Y0027439D01*
X0044445Y0027542D01*
X0044519Y0027643D01*
X0044596Y0027742D01*
X0044676Y0027839D01*
X0044760Y0027932D01*
X0044846Y0028024D01*
X0044935Y0028112D01*
X0045026Y0028198D01*
X0045121Y0028281D01*
X0045217Y0028361D01*
X0045316Y0028438D01*
X0045418Y0028512D01*
X0045522Y0028582D01*
X0045627Y0028650D01*
X0045735Y0028714D01*
X0045845Y0028775D01*
X0045957Y0028832D01*
X0046070Y0028886D01*
X0046185Y0028936D01*
X0046301Y0028983D01*
X0046419Y0029026D01*
X0046538Y0029066D01*
X0046659Y0029101D01*
X0046780Y0029134D01*
X0046902Y0029162D01*
X0047025Y0029186D01*
X0047149Y0029207D01*
X0047273Y0029224D01*
X0047398Y0029237D01*
X0047523Y0029246D01*
X0047649Y0029252D01*
X0047774Y0029253D01*
X0047900Y0029251D01*
X0048025Y0029244D01*
M02*
