G75*
%MOIN*%
%OFA0B0*%
%FSLAX25Y25*%
%IPPOS*%
%LPD*%
%AMOC8*
5,1,8,0,0,1.08239X$1,22.5*
%
%ADD10C,0.00000*%
%ADD11R,0.07480X0.01575*%
%ADD12C,0.06000*%
%ADD13R,0.06299X0.07087*%
%ADD14R,0.03937X0.04331*%
%ADD15R,0.03150X0.03150*%
%ADD16R,0.04331X0.03937*%
%ADD17C,0.03562*%
%ADD18C,0.01200*%
%ADD19C,0.01000*%
%ADD20C,0.01600*%
D10*
X0002167Y0003000D02*
X0002167Y0071898D01*
X0118777Y0071898D01*
X0118777Y0003000D01*
X0002167Y0003000D01*
D11*
X0030663Y0016756D03*
X0030663Y0021756D03*
X0030663Y0026756D03*
X0030663Y0031756D03*
X0030663Y0036756D03*
X0030663Y0041756D03*
X0030663Y0046756D03*
X0050663Y0046756D03*
X0050663Y0041756D03*
X0050663Y0036756D03*
X0050663Y0031756D03*
X0050663Y0026756D03*
X0050663Y0021756D03*
X0050663Y0016756D03*
D12*
X0017167Y0013000D02*
X0011167Y0013000D01*
X0011167Y0023000D02*
X0017167Y0023000D01*
X0017167Y0033000D02*
X0011167Y0033000D01*
X0011167Y0043000D02*
X0017167Y0043000D01*
X0017167Y0053000D02*
X0011167Y0053000D01*
X0011167Y0063000D02*
X0017167Y0063000D01*
X0105167Y0063000D02*
X0111167Y0063000D01*
X0111167Y0053000D02*
X0105167Y0053000D01*
X0105167Y0043000D02*
X0111167Y0043000D01*
X0111167Y0033000D02*
X0105167Y0033000D01*
X0105167Y0023000D02*
X0111167Y0023000D01*
X0111167Y0013000D02*
X0105167Y0013000D01*
D13*
X0085678Y0029000D03*
X0074655Y0029000D03*
X0074655Y0038500D03*
X0085678Y0038500D03*
D14*
X0050470Y0059787D03*
X0043777Y0059787D03*
X0061320Y0009000D03*
X0068013Y0009000D03*
D15*
X0078214Y0008000D03*
X0084119Y0008000D03*
X0084119Y0013500D03*
X0078214Y0013500D03*
D16*
X0066167Y0015654D03*
X0066167Y0022346D03*
X0057423Y0054783D03*
X0057423Y0061476D03*
D17*
X0063667Y0063500D03*
X0047442Y0052606D03*
X0034844Y0052213D03*
X0037100Y0062130D03*
X0038387Y0042476D03*
X0023167Y0039500D03*
X0038781Y0025441D03*
X0023820Y0021898D03*
X0029230Y0013000D03*
X0042667Y0015500D03*
X0043112Y0008906D03*
X0072836Y0018394D03*
X0072836Y0022394D03*
X0061615Y0029772D03*
X0057285Y0029772D03*
X0057285Y0034890D03*
X0061615Y0034890D03*
X0061615Y0039614D03*
X0057285Y0039614D03*
X0073230Y0047000D03*
X0073230Y0051000D03*
X0084238Y0056118D03*
X0099588Y0066906D03*
X0094686Y0043945D03*
X0094836Y0039606D03*
X0094686Y0029272D03*
X0094686Y0024835D03*
X0097155Y0008811D03*
D18*
X0094321Y0013873D02*
X0089573Y0013772D01*
X0086894Y0013985D01*
X0086894Y0015572D01*
X0086191Y0016275D01*
X0082048Y0016275D01*
X0081345Y0015572D01*
X0081345Y0014785D01*
X0080989Y0014850D01*
X0080989Y0015572D01*
X0080286Y0016275D01*
X0076142Y0016275D01*
X0075439Y0015572D01*
X0075439Y0015361D01*
X0072624Y0015824D01*
X0071843Y0016582D01*
X0071167Y0017500D01*
X0070506Y0020160D01*
X0070174Y0022880D01*
X0070174Y0025620D01*
X0070506Y0028340D01*
X0071167Y0031000D01*
X0072211Y0034063D01*
X0072878Y0037230D01*
X0073158Y0040454D01*
X0073047Y0043689D01*
X0072548Y0046886D01*
X0071667Y0050000D01*
X0071769Y0050535D01*
X0071982Y0051037D01*
X0072297Y0051482D01*
X0072699Y0051849D01*
X0073170Y0052124D01*
X0073689Y0052292D01*
X0074231Y0052346D01*
X0074772Y0052284D01*
X0075288Y0052108D01*
X0075755Y0051827D01*
X0076152Y0051454D01*
X0076461Y0051005D01*
X0076667Y0050500D01*
X0077651Y0045759D01*
X0078196Y0040948D01*
X0078297Y0036107D01*
X0077953Y0031278D01*
X0077167Y0026500D01*
X0077243Y0025632D01*
X0077468Y0024790D01*
X0077837Y0024000D01*
X0078336Y0023286D01*
X0078953Y0022670D01*
X0079667Y0022170D01*
X0080457Y0021802D01*
X0081298Y0021576D01*
X0082167Y0021500D01*
X0084120Y0022089D01*
X0086130Y0022445D01*
X0088167Y0022565D01*
X0090204Y0022445D01*
X0092213Y0022089D01*
X0094167Y0021500D01*
X0094664Y0021450D01*
X0095161Y0021499D01*
X0095640Y0021644D01*
X0096081Y0021879D01*
X0096468Y0022195D01*
X0096785Y0022581D01*
X0096942Y0022874D01*
X0097214Y0023146D01*
X0097667Y0024242D01*
X0097667Y0025428D01*
X0097214Y0026523D01*
X0097167Y0026570D01*
X0097167Y0027536D01*
X0097214Y0027583D01*
X0097667Y0028679D01*
X0097667Y0029865D01*
X0097214Y0030960D01*
X0097167Y0031007D01*
X0097167Y0031500D01*
X0097304Y0032537D01*
X0097606Y0033538D01*
X0098064Y0034479D01*
X0098667Y0035333D01*
X0099399Y0036080D01*
X0100241Y0036701D01*
X0101172Y0037178D01*
X0102167Y0037500D01*
X0111167Y0037500D01*
X0112143Y0037518D01*
X0113108Y0037367D01*
X0114032Y0037052D01*
X0114889Y0036583D01*
X0115651Y0035973D01*
X0116297Y0035241D01*
X0116808Y0034408D01*
X0117167Y0033500D01*
X0117177Y0033470D01*
X0117177Y0022016D01*
X0117092Y0021780D01*
X0116167Y0020000D01*
X0114354Y0018651D01*
X0112395Y0017524D01*
X0111637Y0017200D01*
X0104331Y0017200D01*
X0102788Y0016561D01*
X0101606Y0015379D01*
X0101448Y0014997D01*
X0099035Y0014451D01*
X0094321Y0013873D01*
X0090278Y0013787D02*
X0089385Y0013787D01*
X0086894Y0014985D02*
X0101394Y0014985D01*
X0102411Y0016184D02*
X0086282Y0016184D01*
X0081956Y0016184D02*
X0080377Y0016184D01*
X0080989Y0014985D02*
X0081345Y0014985D01*
X0076051Y0016184D02*
X0072253Y0016184D01*
X0071253Y0017382D02*
X0112063Y0017382D01*
X0112002Y0018800D02*
X0113546Y0019439D01*
X0114727Y0020621D01*
X0115367Y0022165D01*
X0115367Y0023835D01*
X0114727Y0025379D01*
X0113546Y0026561D01*
X0112002Y0027200D01*
X0104331Y0027200D01*
X0102788Y0026561D01*
X0101606Y0025379D01*
X0100967Y0023835D01*
X0100967Y0022165D01*
X0101606Y0020621D01*
X0102788Y0019439D01*
X0104331Y0018800D01*
X0112002Y0018800D01*
X0113886Y0019779D02*
X0115870Y0019779D01*
X0116675Y0020978D02*
X0114875Y0020978D01*
X0115367Y0022176D02*
X0117177Y0022176D01*
X0117177Y0023375D02*
X0115367Y0023375D01*
X0115061Y0024573D02*
X0117177Y0024573D01*
X0117177Y0025772D02*
X0114335Y0025772D01*
X0112557Y0026970D02*
X0117177Y0026970D01*
X0117177Y0028169D02*
X0097456Y0028169D01*
X0097167Y0026970D02*
X0103777Y0026970D01*
X0101999Y0025772D02*
X0097525Y0025772D01*
X0097667Y0024573D02*
X0101272Y0024573D01*
X0100967Y0023375D02*
X0097308Y0023375D01*
X0096444Y0022176D02*
X0100967Y0022176D01*
X0101458Y0020978D02*
X0070406Y0020978D01*
X0070260Y0022176D02*
X0079658Y0022176D01*
X0078274Y0023375D02*
X0070174Y0023375D01*
X0070174Y0024573D02*
X0077569Y0024573D01*
X0077230Y0025772D02*
X0070192Y0025772D01*
X0070339Y0026970D02*
X0077244Y0026970D01*
X0077441Y0028169D02*
X0070485Y0028169D01*
X0070761Y0029367D02*
X0077638Y0029367D01*
X0077836Y0030566D02*
X0071059Y0030566D01*
X0071427Y0031764D02*
X0077988Y0031764D01*
X0078073Y0032963D02*
X0071836Y0032963D01*
X0072231Y0034161D02*
X0078158Y0034161D01*
X0078244Y0035360D02*
X0072484Y0035360D01*
X0072736Y0036558D02*
X0078288Y0036558D01*
X0078263Y0037757D02*
X0072923Y0037757D01*
X0073028Y0038955D02*
X0078238Y0038955D01*
X0078213Y0040154D02*
X0073132Y0040154D01*
X0073127Y0041352D02*
X0078150Y0041352D01*
X0078015Y0042551D02*
X0073086Y0042551D01*
X0073038Y0043749D02*
X0077879Y0043749D01*
X0077743Y0044948D02*
X0072851Y0044948D01*
X0072664Y0046146D02*
X0077571Y0046146D01*
X0077322Y0047345D02*
X0072418Y0047345D01*
X0072079Y0048543D02*
X0077073Y0048543D01*
X0076824Y0049742D02*
X0071740Y0049742D01*
X0071941Y0050940D02*
X0076487Y0050940D01*
X0075198Y0052139D02*
X0073217Y0052139D01*
X0063667Y0063500D02*
X0063577Y0063580D01*
X0063484Y0063658D01*
X0063389Y0063733D01*
X0063292Y0063804D01*
X0063192Y0063873D01*
X0063090Y0063938D01*
X0062987Y0064000D01*
X0062881Y0064058D01*
X0062773Y0064113D01*
X0062664Y0064165D01*
X0062553Y0064213D01*
X0062441Y0064257D01*
X0062327Y0064298D01*
X0062212Y0064336D01*
X0062096Y0064369D01*
X0061979Y0064399D01*
X0061861Y0064425D01*
X0061742Y0064447D01*
X0061623Y0064465D01*
X0061503Y0064480D01*
X0061383Y0064490D01*
X0061262Y0064497D01*
X0061141Y0064500D01*
X0061020Y0064499D01*
X0060900Y0064494D01*
X0060779Y0064485D01*
X0060659Y0064473D01*
X0060539Y0064456D01*
X0060420Y0064436D01*
X0060302Y0064412D01*
X0060184Y0064384D01*
X0060068Y0064352D01*
X0059952Y0064317D01*
X0059838Y0064278D01*
X0059725Y0064235D01*
X0059613Y0064189D01*
X0059503Y0064139D01*
X0059395Y0064085D01*
X0059288Y0064028D01*
X0059184Y0063968D01*
X0059081Y0063905D01*
X0058980Y0063838D01*
X0058882Y0063768D01*
X0058786Y0063694D01*
X0058692Y0063618D01*
X0058601Y0063539D01*
X0058512Y0063457D01*
X0058426Y0063372D01*
X0058343Y0063284D01*
X0058263Y0063194D01*
X0058185Y0063101D01*
X0058111Y0063006D01*
X0058039Y0062909D01*
X0057971Y0062809D01*
X0057906Y0062707D01*
X0057845Y0062603D01*
X0057787Y0062497D01*
X0057732Y0062389D01*
X0057681Y0062280D01*
X0057633Y0062169D01*
X0057589Y0062057D01*
X0057548Y0061943D01*
X0057511Y0061828D01*
X0057478Y0061712D01*
X0057449Y0061594D01*
X0057423Y0061476D01*
X0057666Y0055001D02*
X0057516Y0054969D01*
X0057365Y0054942D01*
X0057214Y0054918D01*
X0057062Y0054899D01*
X0056910Y0054883D01*
X0056757Y0054871D01*
X0056604Y0054863D01*
X0056451Y0054859D01*
X0056297Y0054858D01*
X0056144Y0054862D01*
X0055991Y0054870D01*
X0055838Y0054881D01*
X0055686Y0054897D01*
X0055534Y0054916D01*
X0055382Y0054939D01*
X0055232Y0054966D01*
X0055081Y0054997D01*
X0054932Y0055032D01*
X0054784Y0055071D01*
X0054637Y0055113D01*
X0054490Y0055159D01*
X0054346Y0055209D01*
X0054202Y0055262D01*
X0054060Y0055320D01*
X0053919Y0055380D01*
X0053780Y0055445D01*
X0053643Y0055513D01*
X0053507Y0055584D01*
X0053373Y0055659D01*
X0053242Y0055737D01*
X0053112Y0055819D01*
X0052984Y0055904D01*
X0052859Y0055992D01*
X0052736Y0056083D01*
X0052615Y0056177D01*
X0052497Y0056275D01*
X0052381Y0056375D01*
X0052268Y0056479D01*
X0052158Y0056585D01*
X0052050Y0056694D01*
X0051945Y0056806D01*
X0051843Y0056920D01*
X0051744Y0057037D01*
X0051648Y0057157D01*
X0051555Y0057278D01*
X0051465Y0057403D01*
X0051379Y0057529D01*
X0051296Y0057658D01*
X0051216Y0057789D01*
X0051139Y0057921D01*
X0051066Y0058056D01*
X0050996Y0058192D01*
X0050930Y0058331D01*
X0050867Y0058470D01*
X0050808Y0058612D01*
X0050753Y0058755D01*
X0050701Y0058899D01*
X0050653Y0059044D01*
X0050609Y0059191D01*
X0050568Y0059339D01*
X0050532Y0059488D01*
X0050499Y0059637D01*
X0050470Y0059788D01*
X0057423Y0054783D02*
X0057667Y0055000D01*
X0057423Y0054783D02*
X0057543Y0054608D01*
X0057660Y0054430D01*
X0057772Y0054249D01*
X0057880Y0054066D01*
X0057983Y0053880D01*
X0058081Y0053691D01*
X0058175Y0053500D01*
X0058265Y0053307D01*
X0058349Y0053112D01*
X0058429Y0052915D01*
X0058504Y0052716D01*
X0058574Y0052515D01*
X0058638Y0052312D01*
X0058698Y0052108D01*
X0058753Y0051903D01*
X0058803Y0051696D01*
X0058848Y0051488D01*
X0058888Y0051279D01*
X0058923Y0051069D01*
X0058952Y0050858D01*
X0058977Y0050647D01*
X0058996Y0050435D01*
X0059010Y0050223D01*
X0059018Y0050010D01*
X0059022Y0049798D01*
X0059020Y0049585D01*
X0059013Y0049372D01*
X0059001Y0049160D01*
X0058984Y0048948D01*
X0058962Y0048736D01*
X0058934Y0048525D01*
X0058901Y0048315D01*
X0058863Y0048106D01*
X0058820Y0047897D01*
X0058772Y0047690D01*
X0058719Y0047484D01*
X0058661Y0047280D01*
X0058598Y0047076D01*
X0058530Y0046875D01*
X0058456Y0046675D01*
X0058379Y0046477D01*
X0058296Y0046281D01*
X0058208Y0046087D01*
X0058116Y0045896D01*
X0058019Y0045706D01*
X0057918Y0045519D01*
X0057812Y0045335D01*
X0057701Y0045153D01*
X0057586Y0044974D01*
X0057467Y0044798D01*
X0057343Y0044625D01*
X0057216Y0044455D01*
X0057084Y0044288D01*
X0056948Y0044124D01*
X0056808Y0043964D01*
X0056664Y0043807D01*
X0056516Y0043654D01*
X0056365Y0043504D01*
X0056210Y0043358D01*
X0056052Y0043216D01*
X0055890Y0043078D01*
X0055725Y0042944D01*
X0055556Y0042814D01*
X0055385Y0042689D01*
X0055210Y0042567D01*
X0055033Y0042450D01*
X0054853Y0042337D01*
X0054669Y0042228D01*
X0054484Y0042124D01*
X0054296Y0042025D01*
X0054105Y0041930D01*
X0053913Y0041840D01*
X0053718Y0041755D01*
X0053718Y0041756D02*
X0050663Y0041756D01*
X0045182Y0036756D02*
X0045071Y0036753D01*
X0044960Y0036754D01*
X0044849Y0036760D01*
X0044738Y0036769D01*
X0044628Y0036782D01*
X0044518Y0036799D01*
X0044409Y0036820D01*
X0044301Y0036845D01*
X0044193Y0036874D01*
X0044087Y0036906D01*
X0043982Y0036942D01*
X0043878Y0036982D01*
X0043776Y0037026D01*
X0043676Y0037073D01*
X0043577Y0037124D01*
X0043480Y0037178D01*
X0043385Y0037235D01*
X0043292Y0037296D01*
X0043201Y0037360D01*
X0043112Y0037427D01*
X0043026Y0037498D01*
X0042943Y0037571D01*
X0042862Y0037647D01*
X0042784Y0037726D01*
X0042709Y0037808D01*
X0042637Y0037893D01*
X0042567Y0037979D01*
X0042501Y0038069D01*
X0042438Y0038160D01*
X0042379Y0038254D01*
X0042322Y0038350D01*
X0042270Y0038448D01*
X0042220Y0038547D01*
X0042175Y0038648D01*
X0042132Y0038751D01*
X0042094Y0038855D01*
X0042059Y0038961D01*
X0042028Y0039068D01*
X0042001Y0039175D01*
X0041977Y0039284D01*
X0041958Y0039393D01*
X0041942Y0039503D01*
X0041930Y0039614D01*
X0041930Y0043551D01*
X0041930Y0043552D02*
X0041926Y0043659D01*
X0041918Y0043766D01*
X0041907Y0043873D01*
X0041891Y0043979D01*
X0041872Y0044085D01*
X0041848Y0044190D01*
X0041821Y0044294D01*
X0041791Y0044397D01*
X0041757Y0044499D01*
X0041719Y0044599D01*
X0041677Y0044699D01*
X0041632Y0044796D01*
X0041584Y0044892D01*
X0041532Y0044986D01*
X0041476Y0045078D01*
X0041418Y0045169D01*
X0041356Y0045257D01*
X0041291Y0045342D01*
X0041224Y0045426D01*
X0041153Y0045507D01*
X0041079Y0045585D01*
X0041003Y0045660D01*
X0040924Y0045733D01*
X0040842Y0045803D01*
X0040758Y0045870D01*
X0040672Y0045934D01*
X0040583Y0045995D01*
X0040492Y0046052D01*
X0040399Y0046107D01*
X0040305Y0046157D01*
X0040208Y0046205D01*
X0040110Y0046249D01*
X0040011Y0046289D01*
X0039910Y0046326D01*
X0039807Y0046359D01*
X0039704Y0046389D01*
X0039600Y0046415D01*
X0039495Y0046437D01*
X0039389Y0046455D01*
X0039282Y0046469D01*
X0039175Y0046480D01*
X0039068Y0046487D01*
X0038961Y0046490D01*
X0038853Y0046489D01*
X0038746Y0046484D01*
X0038639Y0046476D01*
X0038532Y0046463D01*
X0038426Y0046447D01*
X0038320Y0046427D01*
X0038215Y0046403D01*
X0038111Y0046376D01*
X0038008Y0046344D01*
X0037907Y0046309D01*
X0037806Y0046271D01*
X0037708Y0046229D01*
X0037610Y0046183D01*
X0037515Y0046134D01*
X0037421Y0046081D01*
X0037329Y0046026D01*
X0037239Y0045967D01*
X0037152Y0045904D01*
X0037066Y0045839D01*
X0036983Y0045771D01*
X0036903Y0045699D01*
X0036825Y0045625D01*
X0036750Y0045548D01*
X0036678Y0045469D01*
X0036608Y0045387D01*
X0036542Y0045302D01*
X0036478Y0045216D01*
X0036418Y0045126D01*
X0034686Y0044181D02*
X0026986Y0044181D01*
X0030663Y0046756D02*
X0030658Y0046915D01*
X0030649Y0047073D01*
X0030636Y0047232D01*
X0030619Y0047390D01*
X0030598Y0047547D01*
X0030573Y0047704D01*
X0030544Y0047860D01*
X0030511Y0048016D01*
X0030475Y0048170D01*
X0030435Y0048324D01*
X0030391Y0048476D01*
X0030343Y0048628D01*
X0030291Y0048778D01*
X0030236Y0048927D01*
X0030176Y0049074D01*
X0030114Y0049220D01*
X0030047Y0049365D01*
X0029977Y0049507D01*
X0029904Y0049648D01*
X0029827Y0049787D01*
X0029746Y0049924D01*
X0029663Y0050059D01*
X0029575Y0050192D01*
X0029485Y0050322D01*
X0029391Y0050451D01*
X0029294Y0050577D01*
X0029195Y0050700D01*
X0029092Y0050821D01*
X0028986Y0050939D01*
X0028877Y0051055D01*
X0028765Y0051168D01*
X0028650Y0051278D01*
X0028533Y0051385D01*
X0028413Y0051489D01*
X0028291Y0051590D01*
X0028166Y0051689D01*
X0028039Y0051784D01*
X0027909Y0051875D01*
X0027777Y0051964D01*
X0027643Y0052049D01*
X0027507Y0052131D01*
X0027369Y0052209D01*
X0027229Y0052284D01*
X0027087Y0052356D01*
X0026943Y0052424D01*
X0026798Y0052488D01*
X0026651Y0052549D01*
X0026503Y0052605D01*
X0026353Y0052659D01*
X0026202Y0052708D01*
X0026050Y0052754D01*
X0025897Y0052796D01*
X0025743Y0052834D01*
X0025588Y0052868D01*
X0025432Y0052898D01*
X0025275Y0052925D01*
X0025118Y0052947D01*
X0024960Y0052966D01*
X0024802Y0052981D01*
X0024643Y0052991D01*
X0024485Y0052998D01*
X0024326Y0053001D01*
X0024167Y0053000D01*
X0014167Y0053000D01*
X0011285Y0053000D01*
X0011148Y0052995D01*
X0011012Y0052986D01*
X0010876Y0052974D01*
X0010741Y0052957D01*
X0010606Y0052937D01*
X0010472Y0052913D01*
X0010338Y0052886D01*
X0010206Y0052854D01*
X0010074Y0052819D01*
X0009943Y0052780D01*
X0009813Y0052738D01*
X0009685Y0052692D01*
X0009558Y0052642D01*
X0009432Y0052589D01*
X0009308Y0052532D01*
X0009186Y0052472D01*
X0009065Y0052409D01*
X0008946Y0052342D01*
X0008829Y0052272D01*
X0008714Y0052198D01*
X0008602Y0052121D01*
X0008491Y0052042D01*
X0008383Y0051959D01*
X0008277Y0051873D01*
X0008173Y0051784D01*
X0008072Y0051692D01*
X0007974Y0051598D01*
X0007878Y0051501D01*
X0007785Y0051401D01*
X0007695Y0051298D01*
X0007608Y0051194D01*
X0007524Y0051086D01*
X0007442Y0050977D01*
X0007364Y0050865D01*
X0007289Y0050751D01*
X0007218Y0050635D01*
X0007149Y0050517D01*
X0007084Y0050397D01*
X0007023Y0050275D01*
X0006965Y0050152D01*
X0006910Y0050027D01*
X0006859Y0049900D01*
X0006811Y0049773D01*
X0006767Y0049643D01*
X0006726Y0049513D01*
X0006690Y0049382D01*
X0006657Y0049249D01*
X0006627Y0049116D01*
X0006602Y0048982D01*
X0006580Y0048848D01*
X0006562Y0048712D01*
X0006548Y0048577D01*
X0006537Y0048441D01*
X0006531Y0048304D01*
X0006528Y0048168D01*
X0006529Y0048032D01*
X0006529Y0048031D02*
X0006529Y0028740D01*
X0006554Y0028576D01*
X0006584Y0028413D01*
X0006617Y0028251D01*
X0006654Y0028089D01*
X0006695Y0027928D01*
X0006741Y0027769D01*
X0006790Y0027611D01*
X0006843Y0027453D01*
X0006899Y0027298D01*
X0006960Y0027143D01*
X0007024Y0026990D01*
X0007092Y0026839D01*
X0007164Y0026690D01*
X0007240Y0026542D01*
X0007319Y0026396D01*
X0007401Y0026253D01*
X0007487Y0026111D01*
X0007577Y0025971D01*
X0007670Y0025834D01*
X0007766Y0025699D01*
X0007866Y0025566D01*
X0007968Y0025436D01*
X0008074Y0025309D01*
X0008183Y0025184D01*
X0008295Y0025062D01*
X0008411Y0024942D01*
X0008528Y0024826D01*
X0008649Y0024712D01*
X0008773Y0024601D01*
X0008899Y0024494D01*
X0009028Y0024389D01*
X0009159Y0024288D01*
X0009293Y0024190D01*
X0009429Y0024096D01*
X0009567Y0024004D01*
X0009708Y0023916D01*
X0009851Y0023832D01*
X0009995Y0023751D01*
X0010142Y0023674D01*
X0010291Y0023600D01*
X0010441Y0023530D01*
X0010593Y0023464D01*
X0010747Y0023401D01*
X0010902Y0023343D01*
X0011058Y0023288D01*
X0011216Y0023237D01*
X0011375Y0023189D01*
X0011535Y0023146D01*
X0011696Y0023107D01*
X0011858Y0023071D01*
X0012021Y0023040D01*
X0012184Y0023013D01*
X0012348Y0022989D01*
X0012513Y0022970D01*
X0012678Y0022955D01*
X0012844Y0022943D01*
X0013009Y0022936D01*
X0013175Y0022933D01*
X0013341Y0022934D01*
X0013507Y0022939D01*
X0013672Y0022948D01*
X0013837Y0022961D01*
X0014002Y0022979D01*
X0014167Y0023000D01*
X0023820Y0021898D02*
X0023822Y0021876D01*
X0023827Y0021854D01*
X0023835Y0021834D01*
X0023847Y0021815D01*
X0023862Y0021798D01*
X0023879Y0021783D01*
X0023898Y0021771D01*
X0023918Y0021763D01*
X0023940Y0021758D01*
X0023962Y0021756D01*
X0030663Y0021756D01*
X0030529Y0026622D02*
X0026576Y0026622D01*
X0030529Y0026622D02*
X0030550Y0026624D01*
X0030570Y0026629D01*
X0030590Y0026637D01*
X0030608Y0026648D01*
X0030624Y0026661D01*
X0030637Y0026677D01*
X0030648Y0026695D01*
X0030656Y0026715D01*
X0030661Y0026735D01*
X0030663Y0026756D01*
X0039167Y0025500D02*
X0039269Y0025629D01*
X0039368Y0025760D01*
X0039463Y0025894D01*
X0039555Y0026029D01*
X0039644Y0026168D01*
X0039729Y0026308D01*
X0039811Y0026450D01*
X0039890Y0026594D01*
X0039964Y0026740D01*
X0040036Y0026888D01*
X0040104Y0027038D01*
X0040168Y0027189D01*
X0040228Y0027342D01*
X0040285Y0027496D01*
X0040338Y0027651D01*
X0040387Y0027808D01*
X0040432Y0027966D01*
X0040473Y0028124D01*
X0040511Y0028284D01*
X0040545Y0028445D01*
X0040574Y0028606D01*
X0040600Y0028768D01*
X0040622Y0028931D01*
X0040640Y0029094D01*
X0040654Y0029258D01*
X0040664Y0029422D01*
X0040670Y0029586D01*
X0040672Y0029750D01*
X0040670Y0029914D01*
X0040664Y0030078D01*
X0040654Y0030242D01*
X0040640Y0030406D01*
X0040622Y0030569D01*
X0040600Y0030732D01*
X0040574Y0030894D01*
X0040545Y0031055D01*
X0040511Y0031216D01*
X0040473Y0031376D01*
X0040432Y0031534D01*
X0040387Y0031692D01*
X0040338Y0031849D01*
X0040285Y0032004D01*
X0040228Y0032158D01*
X0040168Y0032311D01*
X0040104Y0032462D01*
X0040036Y0032612D01*
X0039964Y0032760D01*
X0039890Y0032906D01*
X0039811Y0033050D01*
X0039729Y0033192D01*
X0039644Y0033332D01*
X0039555Y0033471D01*
X0039463Y0033606D01*
X0039368Y0033740D01*
X0039269Y0033871D01*
X0039167Y0034000D01*
X0039100Y0034067D01*
X0045182Y0036756D02*
X0050663Y0036756D01*
X0039100Y0034067D02*
X0038988Y0034211D01*
X0038880Y0034359D01*
X0038775Y0034508D01*
X0038674Y0034661D01*
X0038577Y0034815D01*
X0038483Y0034973D01*
X0038393Y0035132D01*
X0038307Y0035293D01*
X0038225Y0035456D01*
X0038147Y0035622D01*
X0038073Y0035789D01*
X0038003Y0035958D01*
X0037937Y0036128D01*
X0037875Y0036300D01*
X0037817Y0036474D01*
X0037764Y0036648D01*
X0037714Y0036824D01*
X0037669Y0037002D01*
X0037628Y0037180D01*
X0037592Y0037359D01*
X0037559Y0037539D01*
X0037532Y0037719D01*
X0037508Y0037901D01*
X0037489Y0038083D01*
X0037474Y0038265D01*
X0037464Y0038447D01*
X0037458Y0038630D01*
X0037456Y0038813D01*
X0037459Y0038996D01*
X0037466Y0039178D01*
X0037478Y0039361D01*
X0037493Y0039543D01*
X0037514Y0039725D01*
X0037538Y0039906D01*
X0037567Y0040086D01*
X0037601Y0040266D01*
X0037638Y0040445D01*
X0037680Y0040623D01*
X0037727Y0040800D01*
X0037777Y0040975D01*
X0037832Y0041150D01*
X0037891Y0041323D01*
X0037954Y0041494D01*
X0038021Y0041665D01*
X0038092Y0041833D01*
X0038167Y0042000D01*
X0038387Y0042476D01*
X0038781Y0041976D01*
X0036418Y0045126D02*
X0036367Y0045053D01*
X0036312Y0044983D01*
X0036254Y0044915D01*
X0036194Y0044850D01*
X0036131Y0044787D01*
X0036066Y0044726D01*
X0035998Y0044669D01*
X0035928Y0044614D01*
X0035855Y0044562D01*
X0035781Y0044513D01*
X0035704Y0044467D01*
X0035626Y0044425D01*
X0035546Y0044385D01*
X0035465Y0044349D01*
X0035382Y0044316D01*
X0035298Y0044287D01*
X0035213Y0044261D01*
X0035127Y0044239D01*
X0035040Y0044220D01*
X0034952Y0044205D01*
X0034864Y0044193D01*
X0034775Y0044185D01*
X0034686Y0044181D01*
X0026985Y0044182D02*
X0026846Y0044171D01*
X0026707Y0044163D01*
X0026568Y0044160D01*
X0026428Y0044161D01*
X0026289Y0044165D01*
X0026150Y0044174D01*
X0026011Y0044186D01*
X0025872Y0044203D01*
X0025734Y0044223D01*
X0025597Y0044247D01*
X0025460Y0044275D01*
X0025325Y0044307D01*
X0025190Y0044342D01*
X0025056Y0044382D01*
X0024923Y0044425D01*
X0024792Y0044472D01*
X0024662Y0044522D01*
X0024534Y0044576D01*
X0024407Y0044634D01*
X0024281Y0044695D01*
X0024158Y0044760D01*
X0024036Y0044828D01*
X0023917Y0044900D01*
X0023799Y0044975D01*
X0023684Y0045053D01*
X0023570Y0045134D01*
X0023459Y0045219D01*
X0023351Y0045307D01*
X0023245Y0045397D01*
X0023142Y0045491D01*
X0023041Y0045587D01*
X0022943Y0045687D01*
X0022848Y0045789D01*
X0022756Y0045893D01*
X0022667Y0046001D01*
X0022605Y0046073D01*
X0022540Y0046143D01*
X0022473Y0046211D01*
X0022402Y0046275D01*
X0022329Y0046336D01*
X0022254Y0046395D01*
X0022176Y0046450D01*
X0022096Y0046502D01*
X0022013Y0046550D01*
X0021929Y0046596D01*
X0021843Y0046637D01*
X0021756Y0046675D01*
X0021667Y0046709D01*
X0021576Y0046740D01*
X0021485Y0046767D01*
X0021392Y0046790D01*
X0021298Y0046809D01*
X0021204Y0046824D01*
X0021109Y0046836D01*
X0021014Y0046843D01*
X0020919Y0046847D01*
X0020823Y0046846D01*
X0020728Y0046842D01*
X0020633Y0046833D01*
X0020538Y0046821D01*
X0020444Y0046805D01*
X0020351Y0046785D01*
X0020258Y0046761D01*
X0020167Y0046733D01*
X0020077Y0046702D01*
X0019988Y0046667D01*
X0019901Y0046628D01*
X0019815Y0046585D01*
X0019732Y0046540D01*
X0019650Y0046490D01*
X0019570Y0046438D01*
X0019493Y0046382D01*
X0019418Y0046323D01*
X0019345Y0046260D01*
X0019276Y0046195D01*
X0019208Y0046127D01*
X0019144Y0046057D01*
X0019083Y0045984D01*
X0019025Y0045908D01*
X0018970Y0045830D01*
X0018918Y0045750D01*
X0018870Y0045667D01*
X0018825Y0045583D01*
X0018783Y0045497D01*
X0018746Y0045409D01*
X0018712Y0045320D01*
X0018681Y0045230D01*
X0018655Y0045138D01*
X0018632Y0045045D01*
X0018613Y0044952D01*
X0018598Y0044857D01*
X0018587Y0044762D01*
X0018579Y0044667D01*
X0018576Y0044572D01*
X0018577Y0044476D01*
X0018582Y0044381D01*
X0018590Y0044286D01*
X0018603Y0044191D01*
X0018619Y0044097D01*
X0018639Y0044004D01*
X0018664Y0043912D01*
X0018692Y0043820D01*
X0018723Y0043730D01*
X0018759Y0043642D01*
X0018798Y0043555D01*
X0018840Y0043469D01*
X0018886Y0043385D01*
X0018936Y0043304D01*
X0018989Y0043224D01*
X0019045Y0043147D01*
X0019104Y0043072D01*
X0019167Y0043000D01*
X0014167Y0043000D01*
X0023167Y0039500D02*
X0023167Y0031000D01*
X0023172Y0030865D01*
X0023181Y0030730D01*
X0023193Y0030596D01*
X0023210Y0030462D01*
X0023230Y0030328D01*
X0023255Y0030195D01*
X0023283Y0030063D01*
X0023315Y0029932D01*
X0023351Y0029801D01*
X0023390Y0029672D01*
X0023434Y0029544D01*
X0023481Y0029417D01*
X0023532Y0029292D01*
X0023586Y0029168D01*
X0023644Y0029046D01*
X0023706Y0028926D01*
X0023771Y0028807D01*
X0023839Y0028691D01*
X0023911Y0028576D01*
X0023986Y0028464D01*
X0024064Y0028354D01*
X0024146Y0028246D01*
X0024230Y0028140D01*
X0024318Y0028037D01*
X0024408Y0027937D01*
X0024502Y0027840D01*
X0024598Y0027745D01*
X0024697Y0027653D01*
X0024799Y0027564D01*
X0024903Y0027477D01*
X0025010Y0027394D01*
X0025119Y0027314D01*
X0025230Y0027238D01*
X0025343Y0027164D01*
X0025459Y0027094D01*
X0025577Y0027028D01*
X0025696Y0026964D01*
X0025817Y0026905D01*
X0025940Y0026848D01*
X0026065Y0026796D01*
X0026191Y0026747D01*
X0026318Y0026702D01*
X0026447Y0026660D01*
X0026576Y0026622D01*
X0038781Y0025441D02*
X0039167Y0025500D01*
X0040167Y0021000D02*
X0040278Y0020993D01*
X0040389Y0020990D01*
X0040501Y0020991D01*
X0040612Y0020996D01*
X0040723Y0021004D01*
X0040834Y0021017D01*
X0040944Y0021033D01*
X0041053Y0021053D01*
X0041162Y0021076D01*
X0041270Y0021104D01*
X0041377Y0021135D01*
X0041483Y0021169D01*
X0041587Y0021207D01*
X0041690Y0021249D01*
X0041792Y0021294D01*
X0041892Y0021343D01*
X0041991Y0021395D01*
X0042087Y0021450D01*
X0042182Y0021509D01*
X0042274Y0021571D01*
X0042365Y0021636D01*
X0042453Y0021704D01*
X0042539Y0021775D01*
X0042622Y0021849D01*
X0042703Y0021925D01*
X0042781Y0022005D01*
X0042856Y0022087D01*
X0042928Y0022171D01*
X0042998Y0022258D01*
X0043064Y0022348D01*
X0043128Y0022439D01*
X0043188Y0022533D01*
X0043245Y0022628D01*
X0043299Y0022726D01*
X0043349Y0022825D01*
X0043396Y0022926D01*
X0043439Y0023028D01*
X0043479Y0023132D01*
X0043516Y0023238D01*
X0043549Y0023344D01*
X0043578Y0023451D01*
X0043603Y0023560D01*
X0043625Y0023669D01*
X0043643Y0023779D01*
X0043657Y0023889D01*
X0043667Y0024000D01*
X0043667Y0027500D01*
X0043641Y0027612D01*
X0043619Y0027724D01*
X0043600Y0027838D01*
X0043585Y0027952D01*
X0043574Y0028067D01*
X0043567Y0028181D01*
X0043563Y0028297D01*
X0043564Y0028412D01*
X0043568Y0028527D01*
X0043576Y0028641D01*
X0043588Y0028756D01*
X0043604Y0028870D01*
X0043624Y0028983D01*
X0043647Y0029096D01*
X0043674Y0029208D01*
X0043705Y0029318D01*
X0043740Y0029428D01*
X0043778Y0029537D01*
X0043820Y0029644D01*
X0043865Y0029750D01*
X0043914Y0029854D01*
X0043966Y0029956D01*
X0044022Y0030057D01*
X0044081Y0030156D01*
X0044143Y0030252D01*
X0044209Y0030347D01*
X0044278Y0030439D01*
X0044349Y0030529D01*
X0044424Y0030617D01*
X0044502Y0030702D01*
X0044582Y0030784D01*
X0044665Y0030864D01*
X0044751Y0030941D01*
X0044839Y0031015D01*
X0044930Y0031085D01*
X0045023Y0031153D01*
X0045118Y0031218D01*
X0045215Y0031279D01*
X0045314Y0031338D01*
X0045415Y0031392D01*
X0045518Y0031444D01*
X0045623Y0031492D01*
X0045729Y0031536D01*
X0045837Y0031577D01*
X0045946Y0031614D01*
X0046056Y0031648D01*
X0046167Y0031678D01*
X0046279Y0031704D01*
X0046392Y0031726D01*
X0046505Y0031745D01*
X0046619Y0031759D01*
X0046734Y0031770D01*
X0046849Y0031777D01*
X0046964Y0031781D01*
X0047079Y0031780D01*
X0047194Y0031776D01*
X0047309Y0031767D01*
X0047423Y0031755D01*
X0047423Y0031756D02*
X0050663Y0031756D01*
X0050663Y0026756D02*
X0050665Y0026735D01*
X0050670Y0026715D01*
X0050678Y0026695D01*
X0050689Y0026677D01*
X0050702Y0026661D01*
X0050718Y0026648D01*
X0050736Y0026637D01*
X0050756Y0026629D01*
X0050776Y0026624D01*
X0050797Y0026622D01*
X0054029Y0026622D01*
X0053411Y0021756D02*
X0050663Y0021756D01*
X0053411Y0021756D02*
X0053524Y0021754D01*
X0053637Y0021748D01*
X0053749Y0021738D01*
X0053862Y0021724D01*
X0053973Y0021707D01*
X0054084Y0021685D01*
X0054195Y0021660D01*
X0054304Y0021632D01*
X0054412Y0021599D01*
X0054519Y0021563D01*
X0054625Y0021523D01*
X0054729Y0021479D01*
X0054832Y0021432D01*
X0054933Y0021382D01*
X0055033Y0021328D01*
X0055130Y0021271D01*
X0055226Y0021210D01*
X0055319Y0021146D01*
X0055410Y0021079D01*
X0055499Y0021009D01*
X0055585Y0020936D01*
X0055669Y0020860D01*
X0055750Y0020781D01*
X0055828Y0020700D01*
X0055904Y0020616D01*
X0055976Y0020529D01*
X0056046Y0020440D01*
X0056113Y0020349D01*
X0056176Y0020255D01*
X0056236Y0020159D01*
X0056293Y0020061D01*
X0056346Y0019962D01*
X0056396Y0019860D01*
X0056443Y0019757D01*
X0056486Y0019653D01*
X0056525Y0019547D01*
X0056561Y0019440D01*
X0056593Y0019331D01*
X0056621Y0019222D01*
X0056646Y0019111D01*
X0056667Y0019000D01*
X0056667Y0012000D01*
X0056666Y0012000D02*
X0056665Y0011898D01*
X0056668Y0011795D01*
X0056674Y0011692D01*
X0056685Y0011590D01*
X0056699Y0011489D01*
X0056718Y0011388D01*
X0056740Y0011287D01*
X0056766Y0011188D01*
X0056796Y0011090D01*
X0056830Y0010993D01*
X0056868Y0010897D01*
X0056909Y0010803D01*
X0056954Y0010711D01*
X0057002Y0010620D01*
X0057054Y0010531D01*
X0057109Y0010445D01*
X0057168Y0010360D01*
X0057229Y0010278D01*
X0057294Y0010199D01*
X0057362Y0010122D01*
X0057433Y0010047D01*
X0057507Y0009976D01*
X0057583Y0009907D01*
X0057662Y0009841D01*
X0057743Y0009779D01*
X0057827Y0009719D01*
X0057913Y0009663D01*
X0058002Y0009611D01*
X0058092Y0009561D01*
X0058184Y0009516D01*
X0058277Y0009474D01*
X0058373Y0009435D01*
X0058469Y0009400D01*
X0058567Y0009369D01*
X0058666Y0009342D01*
X0058766Y0009319D01*
X0058867Y0009300D01*
X0058867Y0009299D02*
X0061320Y0009000D01*
X0066537Y0008906D02*
X0066580Y0008952D01*
X0066626Y0008996D01*
X0066674Y0009036D01*
X0066725Y0009074D01*
X0066778Y0009108D01*
X0066833Y0009139D01*
X0066889Y0009167D01*
X0066948Y0009192D01*
X0067007Y0009213D01*
X0067068Y0009230D01*
X0067130Y0009243D01*
X0067192Y0009253D01*
X0067255Y0009259D01*
X0067318Y0009261D01*
X0067382Y0009259D01*
X0067444Y0009254D01*
X0067507Y0009245D01*
X0067569Y0009231D01*
X0067630Y0009215D01*
X0067689Y0009194D01*
X0067748Y0009170D01*
X0067805Y0009143D01*
X0067860Y0009112D01*
X0067913Y0009078D01*
X0067964Y0009041D01*
X0068013Y0009000D01*
X0068396Y0015118D02*
X0068327Y0015078D01*
X0068256Y0015041D01*
X0068184Y0015008D01*
X0068110Y0014979D01*
X0068034Y0014953D01*
X0067958Y0014931D01*
X0067881Y0014913D01*
X0067802Y0014899D01*
X0067723Y0014888D01*
X0067644Y0014882D01*
X0067565Y0014879D01*
X0067485Y0014880D01*
X0067406Y0014885D01*
X0067327Y0014894D01*
X0067248Y0014907D01*
X0067170Y0014924D01*
X0067093Y0014944D01*
X0067018Y0014969D01*
X0066943Y0014996D01*
X0066870Y0015028D01*
X0066799Y0015063D01*
X0066729Y0015102D01*
X0066661Y0015144D01*
X0066596Y0015189D01*
X0066533Y0015237D01*
X0066472Y0015288D01*
X0066414Y0015343D01*
X0066358Y0015400D01*
X0066306Y0015460D01*
X0066256Y0015522D01*
X0066210Y0015586D01*
X0066167Y0015653D01*
X0070898Y0018581D02*
X0114231Y0018581D01*
X0102448Y0019779D02*
X0070601Y0019779D01*
X0084613Y0022176D02*
X0091720Y0022176D01*
X0097667Y0029367D02*
X0117177Y0029367D01*
X0117177Y0030566D02*
X0097377Y0030566D01*
X0097202Y0031764D02*
X0117177Y0031764D01*
X0117177Y0032963D02*
X0097432Y0032963D01*
X0097909Y0034161D02*
X0116905Y0034161D01*
X0116192Y0035360D02*
X0098693Y0035360D01*
X0100048Y0036558D02*
X0114920Y0036558D01*
X0078214Y0013500D02*
X0077657Y0013477D01*
X0077100Y0013467D01*
X0076543Y0013471D01*
X0075986Y0013489D01*
X0075429Y0013519D01*
X0074874Y0013563D01*
X0074320Y0013621D01*
X0073767Y0013691D01*
X0073216Y0013775D01*
X0072668Y0013873D01*
X0072122Y0013983D01*
X0071578Y0014106D01*
X0071038Y0014243D01*
X0070501Y0014392D01*
X0069968Y0014555D01*
X0069439Y0014730D01*
X0068915Y0014917D01*
X0068395Y0015118D01*
X0060064Y0024086D02*
X0059907Y0024235D01*
X0059747Y0024381D01*
X0059583Y0024522D01*
X0059416Y0024659D01*
X0059246Y0024793D01*
X0059073Y0024922D01*
X0058896Y0025047D01*
X0058717Y0025167D01*
X0058534Y0025283D01*
X0058349Y0025395D01*
X0058162Y0025502D01*
X0057971Y0025605D01*
X0057779Y0025703D01*
X0057584Y0025796D01*
X0057386Y0025885D01*
X0057187Y0025968D01*
X0056986Y0026047D01*
X0056782Y0026121D01*
X0056578Y0026190D01*
X0056371Y0026254D01*
X0056163Y0026313D01*
X0055954Y0026367D01*
X0055743Y0026416D01*
X0055531Y0026460D01*
X0055319Y0026499D01*
X0055105Y0026532D01*
X0054891Y0026561D01*
X0054676Y0026584D01*
X0054460Y0026602D01*
X0054244Y0026614D01*
X0054028Y0026622D01*
X0060064Y0024087D02*
X0060208Y0023969D01*
X0060356Y0023854D01*
X0060505Y0023742D01*
X0060658Y0023634D01*
X0060813Y0023530D01*
X0060971Y0023430D01*
X0061131Y0023334D01*
X0061293Y0023241D01*
X0061457Y0023152D01*
X0061624Y0023068D01*
X0061792Y0022987D01*
X0061962Y0022910D01*
X0062135Y0022838D01*
X0062309Y0022770D01*
X0062484Y0022706D01*
X0062661Y0022646D01*
X0062839Y0022590D01*
X0063019Y0022539D01*
X0063200Y0022492D01*
X0063382Y0022450D01*
X0063564Y0022412D01*
X0063748Y0022378D01*
X0063933Y0022349D01*
X0064118Y0022324D01*
X0064303Y0022304D01*
X0064489Y0022288D01*
X0064676Y0022276D01*
X0064863Y0022269D01*
X0065049Y0022267D01*
X0065236Y0022269D01*
X0065423Y0022276D01*
X0065609Y0022287D01*
X0065795Y0022302D01*
X0065981Y0022323D01*
X0066166Y0022347D01*
X0040167Y0021000D02*
X0040057Y0020972D01*
X0039947Y0020941D01*
X0039839Y0020906D01*
X0039732Y0020867D01*
X0039626Y0020825D01*
X0039522Y0020779D01*
X0039419Y0020730D01*
X0039318Y0020677D01*
X0039219Y0020620D01*
X0039122Y0020561D01*
X0039027Y0020498D01*
X0038935Y0020432D01*
X0038844Y0020363D01*
X0038756Y0020290D01*
X0038671Y0020215D01*
X0038588Y0020137D01*
X0038508Y0020056D01*
X0038430Y0019972D01*
X0038356Y0019886D01*
X0038285Y0019797D01*
X0038216Y0019706D01*
X0038151Y0019613D01*
X0038089Y0019518D01*
X0038030Y0019420D01*
X0037975Y0019320D01*
X0037923Y0019219D01*
X0037875Y0019116D01*
X0037830Y0019011D01*
X0037788Y0018905D01*
X0037751Y0018798D01*
X0037717Y0018689D01*
X0037687Y0018579D01*
X0037660Y0018468D01*
X0037638Y0018357D01*
X0037619Y0018245D01*
X0037604Y0018132D01*
X0037593Y0018018D01*
X0037586Y0017905D01*
X0037582Y0017791D01*
X0037583Y0017677D01*
X0037587Y0017563D01*
X0037596Y0017450D01*
X0037608Y0017336D01*
X0037624Y0017224D01*
X0037644Y0017111D01*
X0037667Y0017000D01*
X0037667Y0014000D01*
X0037622Y0013807D01*
X0037572Y0013616D01*
X0037517Y0013425D01*
X0037458Y0013236D01*
X0037394Y0013048D01*
X0037325Y0012862D01*
X0037252Y0012678D01*
X0037175Y0012496D01*
X0037093Y0012315D01*
X0037007Y0012137D01*
X0036916Y0011960D01*
X0036822Y0011786D01*
X0036723Y0011614D01*
X0036620Y0011445D01*
X0036512Y0011278D01*
X0036401Y0011114D01*
X0036286Y0010953D01*
X0036167Y0010795D01*
X0036044Y0010639D01*
X0035917Y0010487D01*
X0035787Y0010337D01*
X0035653Y0010191D01*
X0035516Y0010048D01*
X0035375Y0009909D01*
X0035230Y0009773D01*
X0035083Y0009641D01*
X0034932Y0009512D01*
X0034778Y0009387D01*
X0034622Y0009266D01*
X0034462Y0009148D01*
X0034300Y0009035D01*
X0034134Y0008925D01*
X0033967Y0008820D01*
X0033796Y0008718D01*
X0033623Y0008621D01*
X0033448Y0008528D01*
X0033271Y0008439D01*
X0033092Y0008355D01*
X0032910Y0008275D01*
X0032727Y0008200D01*
X0032542Y0008129D01*
X0032355Y0008062D01*
X0032167Y0008000D01*
X0026167Y0008000D02*
X0026013Y0008049D01*
X0025859Y0008102D01*
X0025708Y0008159D01*
X0025557Y0008220D01*
X0025408Y0008284D01*
X0025261Y0008351D01*
X0025115Y0008422D01*
X0024971Y0008497D01*
X0024829Y0008574D01*
X0024689Y0008656D01*
X0024551Y0008740D01*
X0024414Y0008828D01*
X0024280Y0008919D01*
X0024148Y0009013D01*
X0024019Y0009111D01*
X0023891Y0009211D01*
X0023767Y0009314D01*
X0023644Y0009421D01*
X0023525Y0009530D01*
X0023407Y0009642D01*
X0023293Y0009757D01*
X0023181Y0009874D01*
X0023073Y0009994D01*
X0022967Y0010117D01*
X0022864Y0010242D01*
X0022764Y0010370D01*
X0022667Y0010500D01*
X0022666Y0010499D02*
X0022565Y0010641D01*
X0022460Y0010779D01*
X0022352Y0010916D01*
X0022240Y0011049D01*
X0022125Y0011180D01*
X0022007Y0011308D01*
X0021886Y0011433D01*
X0021762Y0011555D01*
X0021635Y0011674D01*
X0021505Y0011789D01*
X0021373Y0011902D01*
X0021237Y0012011D01*
X0021099Y0012117D01*
X0020958Y0012219D01*
X0020815Y0012318D01*
X0020670Y0012414D01*
X0020522Y0012506D01*
X0020372Y0012594D01*
X0020220Y0012678D01*
X0020066Y0012759D01*
X0019910Y0012836D01*
X0019752Y0012909D01*
X0019592Y0012978D01*
X0019431Y0013043D01*
X0019268Y0013104D01*
X0019104Y0013162D01*
X0018938Y0013215D01*
X0018771Y0013264D01*
X0018603Y0013309D01*
X0018434Y0013350D01*
X0018264Y0013386D01*
X0018093Y0013419D01*
X0017921Y0013447D01*
X0017749Y0013471D01*
X0017576Y0013491D01*
X0017403Y0013507D01*
X0017229Y0013518D01*
X0017056Y0013525D01*
X0016882Y0013528D01*
X0016708Y0013526D01*
X0016534Y0013521D01*
X0016360Y0013511D01*
X0016187Y0013497D01*
X0016014Y0013478D01*
X0015841Y0013455D01*
X0015669Y0013428D01*
X0015498Y0013397D01*
X0015328Y0013362D01*
X0015158Y0013322D01*
X0014990Y0013279D01*
X0014823Y0013231D01*
X0014657Y0013179D01*
X0014492Y0013123D01*
X0014328Y0013063D01*
X0014167Y0012999D01*
X0026167Y0008000D02*
X0026382Y0007929D01*
X0026599Y0007864D01*
X0026817Y0007804D01*
X0027036Y0007749D01*
X0027257Y0007699D01*
X0027479Y0007655D01*
X0027702Y0007617D01*
X0027926Y0007584D01*
X0028151Y0007556D01*
X0028376Y0007534D01*
X0028602Y0007517D01*
X0028828Y0007506D01*
X0029054Y0007501D01*
X0029280Y0007501D01*
X0029506Y0007506D01*
X0029732Y0007517D01*
X0029958Y0007534D01*
X0030183Y0007556D01*
X0030408Y0007584D01*
X0030632Y0007617D01*
X0030855Y0007655D01*
X0031077Y0007699D01*
X0031298Y0007749D01*
X0031517Y0007804D01*
X0031735Y0007864D01*
X0031952Y0007929D01*
X0032167Y0008000D01*
X0066537Y0008906D02*
X0066921Y0009014D01*
X0067308Y0009113D01*
X0067697Y0009203D01*
X0068088Y0009282D01*
X0068481Y0009353D01*
X0068875Y0009414D01*
X0069271Y0009465D01*
X0069668Y0009507D01*
X0070066Y0009539D01*
X0070465Y0009561D01*
X0070864Y0009574D01*
X0071263Y0009577D01*
X0071662Y0009570D01*
X0072061Y0009554D01*
X0072459Y0009528D01*
X0072857Y0009492D01*
X0073253Y0009447D01*
X0073648Y0009392D01*
X0074042Y0009327D01*
X0074435Y0009253D01*
X0074825Y0009170D01*
X0075213Y0009077D01*
X0075599Y0008974D01*
X0075982Y0008863D01*
X0076363Y0008742D01*
X0076740Y0008612D01*
X0077114Y0008472D01*
X0077485Y0008324D01*
X0077851Y0008167D01*
X0078214Y0008001D01*
X0030662Y0046755D02*
X0030561Y0047154D01*
X0030469Y0047554D01*
X0030387Y0047957D01*
X0030314Y0048361D01*
X0030250Y0048767D01*
X0030197Y0049174D01*
X0030153Y0049583D01*
X0030119Y0049992D01*
X0030095Y0050403D01*
X0030080Y0050813D01*
X0030075Y0051224D01*
X0030080Y0051635D01*
X0030095Y0052045D01*
X0030119Y0052456D01*
X0030153Y0052865D01*
X0030197Y0053274D01*
X0030250Y0053681D01*
X0030314Y0054087D01*
X0030387Y0054491D01*
X0030469Y0054894D01*
X0030561Y0055294D01*
X0030662Y0055693D01*
X0030662Y0055692D02*
X0030692Y0055874D01*
X0030725Y0056055D01*
X0030763Y0056235D01*
X0030805Y0056414D01*
X0030852Y0056592D01*
X0030902Y0056769D01*
X0030957Y0056945D01*
X0031017Y0057119D01*
X0031080Y0057292D01*
X0031148Y0057463D01*
X0031219Y0057632D01*
X0031295Y0057800D01*
X0031375Y0057966D01*
X0031458Y0058130D01*
X0031546Y0058291D01*
X0031638Y0058451D01*
X0031733Y0058608D01*
X0031832Y0058764D01*
X0031935Y0058916D01*
X0032041Y0059066D01*
X0032151Y0059214D01*
X0032265Y0059359D01*
X0032382Y0059501D01*
X0032502Y0059640D01*
X0032626Y0059776D01*
X0032753Y0059909D01*
X0032883Y0060039D01*
X0033016Y0060166D01*
X0033152Y0060290D01*
X0033291Y0060410D01*
X0033433Y0060527D01*
X0033578Y0060641D01*
X0033726Y0060751D01*
X0033876Y0060857D01*
X0034028Y0060960D01*
X0034184Y0061059D01*
X0034341Y0061154D01*
X0034501Y0061246D01*
X0034662Y0061334D01*
X0034826Y0061417D01*
X0034992Y0061497D01*
X0035160Y0061573D01*
X0035329Y0061644D01*
X0035500Y0061712D01*
X0035673Y0061775D01*
X0035847Y0061835D01*
X0036023Y0061890D01*
X0036200Y0061940D01*
X0036378Y0061987D01*
X0036557Y0062029D01*
X0036737Y0062067D01*
X0036918Y0062100D01*
X0037100Y0062130D01*
D19*
X0039714Y0060914D02*
X0047401Y0060914D01*
X0047401Y0059915D02*
X0038959Y0059915D01*
X0038732Y0059687D02*
X0039542Y0060498D01*
X0039981Y0061557D01*
X0039981Y0062703D01*
X0039542Y0063762D01*
X0038732Y0064572D01*
X0037673Y0065011D01*
X0036527Y0065011D01*
X0035468Y0064572D01*
X0034657Y0063762D01*
X0034382Y0063097D01*
X0032678Y0062240D01*
X0030553Y0060114D01*
X0029201Y0057429D01*
X0028995Y0056038D01*
X0028375Y0053721D01*
X0028375Y0053700D01*
X0025738Y0054731D01*
X0024150Y0054700D01*
X0020900Y0054700D01*
X0020642Y0055322D01*
X0019489Y0056476D01*
X0017982Y0057100D01*
X0010351Y0057100D01*
X0008844Y0056476D01*
X0007691Y0055322D01*
X0007067Y0053816D01*
X0007067Y0053112D01*
X0005747Y0051733D01*
X0004801Y0049300D01*
X0004801Y0049300D01*
X0004829Y0048013D01*
X0004829Y0029308D01*
X0004747Y0029199D01*
X0004829Y0028620D01*
X0004829Y0028036D01*
X0004925Y0027939D01*
X0005082Y0026836D01*
X0006793Y0023940D01*
X0006793Y0023940D01*
X0007067Y0023734D01*
X0007067Y0022184D01*
X0007691Y0020678D01*
X0008844Y0019524D01*
X0010351Y0018900D01*
X0017982Y0018900D01*
X0019489Y0019524D01*
X0020642Y0020678D01*
X0020939Y0021394D01*
X0020939Y0021325D01*
X0021378Y0020266D01*
X0022188Y0019455D01*
X0023247Y0019017D01*
X0024393Y0019017D01*
X0025452Y0019455D01*
X0026053Y0020056D01*
X0026280Y0020056D01*
X0026467Y0019869D01*
X0034859Y0019869D01*
X0035503Y0020513D01*
X0035503Y0022999D01*
X0034859Y0023643D01*
X0026467Y0023643D01*
X0026289Y0023466D01*
X0026263Y0023530D01*
X0025452Y0024340D01*
X0024393Y0024779D01*
X0023247Y0024779D01*
X0022188Y0024340D01*
X0021378Y0023530D01*
X0021267Y0023261D01*
X0021267Y0023816D01*
X0020642Y0025322D01*
X0019489Y0026476D01*
X0017982Y0027100D01*
X0010351Y0027100D01*
X0009256Y0026646D01*
X0008447Y0028016D01*
X0008229Y0028910D01*
X0008229Y0040140D01*
X0008844Y0039524D01*
X0010351Y0038900D01*
X0017982Y0038900D01*
X0019489Y0039524D01*
X0020461Y0040496D01*
X0020286Y0040073D01*
X0020286Y0038927D01*
X0020724Y0037868D01*
X0021467Y0037126D01*
X0021467Y0031683D01*
X0021452Y0031668D01*
X0021467Y0030982D01*
X0021467Y0030296D01*
X0021481Y0030281D01*
X0021496Y0029589D01*
X0022688Y0027110D01*
X0024799Y0025348D01*
X0025692Y0025102D01*
X0025872Y0024922D01*
X0026346Y0024922D01*
X0026439Y0024897D01*
X0026467Y0024869D01*
X0026541Y0024869D01*
X0026804Y0024796D01*
X0026931Y0024869D01*
X0034859Y0024869D01*
X0035503Y0025513D01*
X0035503Y0027999D01*
X0034859Y0028643D01*
X0026467Y0028643D01*
X0026373Y0028550D01*
X0025486Y0029290D01*
X0024946Y0030414D01*
X0024867Y0031033D01*
X0024867Y0037126D01*
X0025609Y0037868D01*
X0026048Y0038927D01*
X0026048Y0040073D01*
X0025896Y0040439D01*
X0026467Y0039869D01*
X0034859Y0039869D01*
X0035503Y0040513D01*
X0035503Y0042504D01*
X0035506Y0042504D01*
X0035506Y0041903D01*
X0035883Y0040993D01*
X0035660Y0037684D01*
X0035660Y0037684D01*
X0036690Y0034371D01*
X0036690Y0034371D01*
X0037400Y0033475D01*
X0037400Y0033363D01*
X0037828Y0032934D01*
X0037928Y0032808D01*
X0038327Y0032219D01*
X0038898Y0030606D01*
X0038898Y0028894D01*
X0038696Y0028322D01*
X0038208Y0028322D01*
X0037149Y0027883D01*
X0036338Y0027073D01*
X0035900Y0026014D01*
X0035900Y0024868D01*
X0036338Y0023809D01*
X0037149Y0022998D01*
X0038208Y0022560D01*
X0039354Y0022560D01*
X0039393Y0022576D01*
X0039377Y0022563D01*
X0038808Y0022431D01*
X0037177Y0021268D01*
X0036116Y0019569D01*
X0035785Y0017594D01*
X0035785Y0017594D01*
X0035967Y0016806D01*
X0035967Y0014241D01*
X0035669Y0013298D01*
X0034467Y0011412D01*
X0032692Y0010051D01*
X0031663Y0009624D01*
X0031635Y0009615D01*
X0031607Y0009606D01*
X0030408Y0009303D01*
X0027925Y0009303D01*
X0026734Y0009604D01*
X0026692Y0009617D01*
X0026650Y0009631D01*
X0025905Y0009928D01*
X0024575Y0010878D01*
X0024043Y0011498D01*
X0023202Y0012701D01*
X0021103Y0014211D01*
X0020642Y0015322D01*
X0019489Y0016476D01*
X0017982Y0017100D01*
X0010351Y0017100D01*
X0008844Y0016476D01*
X0007691Y0015322D01*
X0007067Y0013816D01*
X0007067Y0012184D01*
X0007691Y0010678D01*
X0008844Y0009524D01*
X0010351Y0008900D01*
X0017982Y0008900D01*
X0019489Y0009524D01*
X0020399Y0010435D01*
X0020692Y0010224D01*
X0021270Y0009530D01*
X0021282Y0009513D01*
X0021677Y0008949D01*
X0021695Y0008946D01*
X0022103Y0008384D01*
X0024348Y0006781D01*
X0024348Y0006781D01*
X0025641Y0006383D01*
X0027342Y0005800D01*
X0030992Y0005800D01*
X0032698Y0006385D01*
X0034332Y0006901D01*
X0034332Y0006901D01*
X0037085Y0009012D01*
X0038950Y0011938D01*
X0039219Y0013148D01*
X0039367Y0013296D01*
X0039367Y0013813D01*
X0039479Y0014319D01*
X0039367Y0014495D01*
X0039367Y0016512D01*
X0039481Y0016696D01*
X0039367Y0017194D01*
X0039367Y0017704D01*
X0039295Y0017776D01*
X0039387Y0018330D01*
X0039726Y0018871D01*
X0040245Y0019241D01*
X0040361Y0019280D01*
X0041020Y0019229D01*
X0042895Y0019842D01*
X0044393Y0021126D01*
X0044393Y0021126D01*
X0044393Y0021126D01*
X0045286Y0022886D01*
X0045313Y0023243D01*
X0045367Y0023296D01*
X0045367Y0023935D01*
X0045416Y0024572D01*
X0045367Y0024629D01*
X0045367Y0027031D01*
X0045487Y0027232D01*
X0045367Y0027711D01*
X0045367Y0028204D01*
X0045266Y0028305D01*
X0045262Y0028333D01*
X0045460Y0029145D01*
X0046013Y0029772D01*
X0046412Y0029924D01*
X0046467Y0029869D01*
X0054859Y0029869D01*
X0055503Y0030513D01*
X0055503Y0032999D01*
X0054859Y0033643D01*
X0046467Y0033643D01*
X0046416Y0033592D01*
X0046368Y0033598D01*
X0046368Y0033598D01*
X0043990Y0032696D01*
X0042371Y0030861D01*
X0042371Y0031202D01*
X0041402Y0033941D01*
X0040867Y0034602D01*
X0040867Y0034704D01*
X0040432Y0035139D01*
X0040379Y0035204D01*
X0039839Y0036033D01*
X0039196Y0038100D01*
X0039306Y0039739D01*
X0040019Y0040034D01*
X0040230Y0040245D01*
X0040230Y0040232D01*
X0040175Y0040165D01*
X0040230Y0039539D01*
X0040230Y0038910D01*
X0040292Y0038849D01*
X0040348Y0038214D01*
X0041757Y0036137D01*
X0043997Y0035007D01*
X0045217Y0035056D01*
X0046280Y0035056D01*
X0046467Y0034869D01*
X0054859Y0034869D01*
X0055503Y0035513D01*
X0055503Y0037999D01*
X0054859Y0038643D01*
X0046467Y0038643D01*
X0046280Y0038456D01*
X0045847Y0038456D01*
X0045818Y0038483D01*
X0045148Y0038456D01*
X0045098Y0038456D01*
X0044751Y0038486D01*
X0044107Y0038811D01*
X0043702Y0039409D01*
X0043630Y0039734D01*
X0043630Y0042867D01*
X0043644Y0042881D01*
X0043630Y0043568D01*
X0043630Y0044255D01*
X0043616Y0044270D01*
X0043605Y0044807D01*
X0043605Y0044807D01*
X0042372Y0046917D01*
X0042372Y0046917D01*
X0042372Y0046917D01*
X0040266Y0048159D01*
X0037822Y0048217D01*
X0035660Y0047077D01*
X0035503Y0046836D01*
X0035503Y0047999D01*
X0034859Y0048643D01*
X0032222Y0048643D01*
X0031908Y0049360D01*
X0031908Y0053256D01*
X0032198Y0054715D01*
X0032241Y0054747D01*
X0032330Y0055348D01*
X0032487Y0055934D01*
X0032466Y0055970D01*
X0032557Y0056366D01*
X0033406Y0058052D01*
X0034740Y0059387D01*
X0035424Y0059731D01*
X0035468Y0059687D01*
X0036527Y0059249D01*
X0037673Y0059249D01*
X0038732Y0059687D01*
X0039981Y0061912D02*
X0047401Y0061912D01*
X0047401Y0062408D02*
X0048046Y0063053D01*
X0052894Y0063053D01*
X0053538Y0062408D01*
X0053538Y0057680D01*
X0054194Y0057244D01*
X0054802Y0057852D01*
X0060044Y0057852D01*
X0060688Y0057208D01*
X0060688Y0052359D01*
X0060454Y0052125D01*
X0060856Y0050607D01*
X0060856Y0050607D01*
X0060487Y0046871D01*
X0060487Y0046871D01*
X0058835Y0043501D01*
X0058835Y0043501D01*
X0056109Y0040922D01*
X0056109Y0040922D01*
X0055503Y0040665D01*
X0055503Y0040513D01*
X0054859Y0039869D01*
X0046467Y0039869D01*
X0045823Y0040513D01*
X0045823Y0042999D01*
X0046467Y0043643D01*
X0053659Y0043643D01*
X0054156Y0043908D01*
X0055962Y0045616D01*
X0057055Y0047847D01*
X0057299Y0050320D01*
X0056930Y0051715D01*
X0054802Y0051715D01*
X0054157Y0052359D01*
X0054157Y0053436D01*
X0053414Y0053575D01*
X0050799Y0055315D01*
X0050799Y0055315D01*
X0050006Y0056522D01*
X0048046Y0056522D01*
X0047401Y0057166D01*
X0047401Y0062408D01*
X0047904Y0062911D02*
X0039895Y0062911D01*
X0039395Y0063909D02*
X0054166Y0063909D01*
X0054157Y0063901D02*
X0054157Y0059052D01*
X0054802Y0058408D01*
X0060044Y0058408D01*
X0060688Y0059052D01*
X0060688Y0062722D01*
X0060863Y0062739D01*
X0061224Y0061868D01*
X0062035Y0061058D01*
X0063094Y0060619D01*
X0064240Y0060619D01*
X0065299Y0061058D01*
X0066109Y0061868D01*
X0066548Y0062927D01*
X0066548Y0064073D01*
X0066109Y0065132D01*
X0065299Y0065942D01*
X0064240Y0066381D01*
X0063094Y0066381D01*
X0062364Y0066079D01*
X0061728Y0066291D01*
X0059389Y0066053D01*
X0057355Y0064874D01*
X0057119Y0064545D01*
X0054802Y0064545D01*
X0054157Y0063901D01*
X0054157Y0062911D02*
X0053036Y0062911D01*
X0053538Y0061912D02*
X0054157Y0061912D01*
X0054157Y0060914D02*
X0053538Y0060914D01*
X0053538Y0059915D02*
X0054157Y0059915D01*
X0054293Y0058917D02*
X0053538Y0058917D01*
X0053538Y0057918D02*
X0117277Y0057918D01*
X0117277Y0056920D02*
X0112418Y0056920D01*
X0111982Y0057100D02*
X0104351Y0057100D01*
X0102844Y0056476D01*
X0101691Y0055322D01*
X0101067Y0053816D01*
X0101067Y0052184D01*
X0101691Y0050678D01*
X0102844Y0049524D01*
X0104351Y0048900D01*
X0111982Y0048900D01*
X0113489Y0049524D01*
X0114642Y0050678D01*
X0115267Y0052184D01*
X0115267Y0053816D01*
X0114642Y0055322D01*
X0113489Y0056476D01*
X0111982Y0057100D01*
X0114044Y0055921D02*
X0117277Y0055921D01*
X0117277Y0054923D02*
X0114808Y0054923D01*
X0115222Y0053924D02*
X0117277Y0053924D01*
X0117277Y0052926D02*
X0115267Y0052926D01*
X0115160Y0051927D02*
X0117277Y0051927D01*
X0117277Y0050929D02*
X0114746Y0050929D01*
X0113895Y0049930D02*
X0117277Y0049930D01*
X0117277Y0048932D02*
X0112058Y0048932D01*
X0117277Y0047933D02*
X0078936Y0047933D01*
X0079143Y0046934D02*
X0117277Y0046934D01*
X0117277Y0045936D02*
X0079351Y0045936D01*
X0079332Y0046028D02*
X0079261Y0046650D01*
X0079191Y0046706D01*
X0078438Y0050329D01*
X0078507Y0050491D01*
X0078299Y0050999D01*
X0078241Y0051280D01*
X0078261Y0051386D01*
X0078201Y0051473D01*
X0078188Y0051535D01*
X0078134Y0051570D01*
X0077965Y0051816D01*
X0077832Y0052142D01*
X0077830Y0052209D01*
X0077789Y0052247D01*
X0077768Y0052299D01*
X0077706Y0052325D01*
X0077450Y0052566D01*
X0077251Y0052856D01*
X0077235Y0052921D01*
X0077187Y0052950D01*
X0077155Y0052997D01*
X0077089Y0053009D01*
X0076788Y0053190D01*
X0076532Y0053431D01*
X0076502Y0053491D01*
X0076449Y0053509D01*
X0076408Y0053548D01*
X0076342Y0053546D01*
X0076008Y0053659D01*
X0075707Y0053841D01*
X0075665Y0053893D01*
X0075610Y0053899D01*
X0075561Y0053928D01*
X0075497Y0053912D01*
X0075147Y0053952D01*
X0074814Y0054065D01*
X0074762Y0054108D01*
X0074706Y0054102D01*
X0074653Y0054120D01*
X0074593Y0054091D01*
X0074243Y0054056D01*
X0073894Y0054096D01*
X0073834Y0054126D01*
X0073781Y0054109D01*
X0073725Y0054115D01*
X0073673Y0054074D01*
X0073338Y0053965D01*
X0072988Y0053930D01*
X0072923Y0053947D01*
X0072875Y0053919D01*
X0072819Y0053913D01*
X0072793Y0053881D01*
X0072657Y0053881D01*
X0071598Y0053442D01*
X0070787Y0052632D01*
X0070635Y0052265D01*
X0070630Y0052261D01*
X0070630Y0052252D01*
X0070447Y0051810D01*
X0070286Y0051583D01*
X0070231Y0051546D01*
X0070220Y0051490D01*
X0070188Y0051444D01*
X0070199Y0051379D01*
X0070133Y0051033D01*
X0069929Y0050553D01*
X0069970Y0050450D01*
X0069839Y0050215D01*
X0069921Y0049924D01*
X0069865Y0049627D01*
X0070106Y0049272D01*
X0070490Y0047915D01*
X0070349Y0047573D01*
X0070349Y0046427D01*
X0070787Y0045368D01*
X0071116Y0045039D01*
X0071352Y0043528D01*
X0071365Y0043143D01*
X0071050Y0043143D01*
X0070405Y0042499D01*
X0070405Y0034501D01*
X0070523Y0034383D01*
X0069758Y0032136D01*
X0069686Y0032093D01*
X0069534Y0031480D01*
X0069330Y0030882D01*
X0069367Y0030807D01*
X0068998Y0029319D01*
X0068904Y0029246D01*
X0068831Y0028649D01*
X0068687Y0028067D01*
X0068748Y0027965D01*
X0068557Y0026408D01*
X0068474Y0026324D01*
X0068474Y0025724D01*
X0068436Y0025415D01*
X0063546Y0025415D01*
X0062901Y0024771D01*
X0062901Y0024418D01*
X0061846Y0024887D01*
X0061185Y0025369D01*
X0060295Y0026237D01*
X0060295Y0026237D01*
X0057978Y0027572D01*
X0055403Y0028292D01*
X0055206Y0028296D01*
X0054859Y0028643D01*
X0046467Y0028643D01*
X0045823Y0027999D01*
X0045823Y0025513D01*
X0046467Y0024869D01*
X0054625Y0024869D01*
X0054891Y0024846D01*
X0056629Y0024360D01*
X0058192Y0023459D01*
X0058430Y0023255D01*
X0058431Y0023239D01*
X0058922Y0022826D01*
X0059381Y0022378D01*
X0059453Y0022379D01*
X0059993Y0021925D01*
X0059993Y0021925D01*
X0062437Y0020838D01*
X0062901Y0020774D01*
X0062901Y0019922D01*
X0063546Y0019278D01*
X0068788Y0019278D01*
X0068889Y0019379D01*
X0068904Y0019254D01*
X0068998Y0019181D01*
X0069219Y0018291D01*
X0068788Y0018722D01*
X0063546Y0018722D01*
X0062901Y0018078D01*
X0062901Y0013229D01*
X0063546Y0012585D01*
X0068788Y0012585D01*
X0069178Y0012975D01*
X0070274Y0012538D01*
X0070274Y0012538D01*
X0075539Y0011670D01*
X0075539Y0011470D01*
X0076183Y0010825D01*
X0080244Y0010825D01*
X0080889Y0011470D01*
X0080889Y0013140D01*
X0083938Y0012585D01*
X0084002Y0012510D01*
X0084618Y0012461D01*
X0085227Y0012350D01*
X0085308Y0012406D01*
X0088834Y0012125D01*
X0088905Y0012057D01*
X0089523Y0012070D01*
X0090140Y0012021D01*
X0090215Y0012085D01*
X0093752Y0012160D01*
X0093829Y0012100D01*
X0094443Y0012175D01*
X0095061Y0012188D01*
X0095129Y0012259D01*
X0098641Y0012690D01*
X0098724Y0012637D01*
X0099327Y0012774D01*
X0099941Y0012849D01*
X0100001Y0012927D01*
X0101067Y0013168D01*
X0101067Y0012184D01*
X0101691Y0010678D01*
X0102844Y0009524D01*
X0104351Y0008900D01*
X0111982Y0008900D01*
X0113489Y0009524D01*
X0114642Y0010678D01*
X0115267Y0012184D01*
X0115267Y0013816D01*
X0114642Y0015322D01*
X0113716Y0016249D01*
X0113754Y0016345D01*
X0114690Y0016884D01*
X0114804Y0016867D01*
X0115288Y0017227D01*
X0115812Y0017529D01*
X0115842Y0017639D01*
X0116952Y0018465D01*
X0117277Y0018568D01*
X0117277Y0004500D01*
X0003667Y0004500D01*
X0003667Y0070398D01*
X0117277Y0070398D01*
X0117277Y0036754D01*
X0117275Y0036754D01*
X0117263Y0036861D01*
X0116828Y0037208D01*
X0116460Y0037626D01*
X0116353Y0037632D01*
X0116323Y0037735D01*
X0115835Y0038003D01*
X0115401Y0038350D01*
X0115294Y0038339D01*
X0115247Y0038435D01*
X0114720Y0038614D01*
X0114232Y0038882D01*
X0114129Y0038852D01*
X0114066Y0038938D01*
X0113516Y0039024D01*
X0112989Y0039203D01*
X0112893Y0039156D01*
X0112816Y0039230D01*
X0112260Y0039220D01*
X0111710Y0039306D01*
X0111575Y0039208D01*
X0111151Y0039200D01*
X0102576Y0039200D01*
X0102313Y0039334D01*
X0101898Y0039200D01*
X0101462Y0039200D01*
X0101254Y0038991D01*
X0101170Y0038964D01*
X0101022Y0039012D01*
X0100518Y0038753D01*
X0099978Y0038579D01*
X0099922Y0038469D01*
X0099800Y0038487D01*
X0099343Y0038151D01*
X0098839Y0037892D01*
X0098801Y0037774D01*
X0098677Y0037773D01*
X0098280Y0037368D01*
X0097824Y0037032D01*
X0097805Y0036910D01*
X0097683Y0036889D01*
X0097356Y0036425D01*
X0096960Y0036020D01*
X0096961Y0035897D01*
X0096844Y0035856D01*
X0096596Y0035346D01*
X0096269Y0034883D01*
X0096290Y0034761D01*
X0096181Y0034703D01*
X0096017Y0034160D01*
X0095769Y0033650D01*
X0095809Y0033533D01*
X0095711Y0033458D01*
X0095637Y0032896D01*
X0095473Y0032353D01*
X0095523Y0032260D01*
X0095467Y0032204D01*
X0095467Y0031612D01*
X0095389Y0031025D01*
X0095467Y0030924D01*
X0095467Y0023753D01*
X0095444Y0023677D01*
X0095366Y0023532D01*
X0095261Y0023404D01*
X0095133Y0023300D01*
X0094988Y0023222D01*
X0094830Y0023175D01*
X0094666Y0023159D01*
X0094499Y0023175D01*
X0093268Y0023546D01*
X0093203Y0023640D01*
X0092608Y0023745D01*
X0092029Y0023920D01*
X0091929Y0023866D01*
X0091082Y0024016D01*
X0091006Y0024101D01*
X0090403Y0024137D01*
X0089807Y0024242D01*
X0089714Y0024177D01*
X0088855Y0024227D01*
X0088770Y0024303D01*
X0088167Y0024268D01*
X0087563Y0024303D01*
X0087478Y0024227D01*
X0086619Y0024177D01*
X0086526Y0024242D01*
X0085931Y0024137D01*
X0085327Y0024101D01*
X0085251Y0024016D01*
X0084405Y0023866D01*
X0084304Y0023920D01*
X0083725Y0023745D01*
X0083130Y0023640D01*
X0083065Y0023546D01*
X0081989Y0023222D01*
X0081595Y0023257D01*
X0081040Y0023405D01*
X0080520Y0023648D01*
X0080050Y0023977D01*
X0079644Y0024383D01*
X0079314Y0024853D01*
X0079072Y0025374D01*
X0078923Y0025928D01*
X0078904Y0026142D01*
X0078904Y0026591D01*
X0079531Y0030396D01*
X0079598Y0030454D01*
X0079643Y0031079D01*
X0079745Y0031696D01*
X0079692Y0031770D01*
X0079949Y0035374D01*
X0080011Y0035439D01*
X0079998Y0036065D01*
X0080043Y0036689D01*
X0079984Y0036757D01*
X0079909Y0040369D01*
X0079965Y0040440D01*
X0079894Y0041062D01*
X0079881Y0041688D01*
X0079816Y0041750D01*
X0079409Y0045340D01*
X0079459Y0045415D01*
X0079332Y0046028D01*
X0079455Y0044937D02*
X0117277Y0044937D01*
X0117277Y0043939D02*
X0079568Y0043939D01*
X0079681Y0042940D02*
X0117277Y0042940D01*
X0117277Y0041942D02*
X0079794Y0041942D01*
X0079908Y0040943D02*
X0117277Y0040943D01*
X0117277Y0039945D02*
X0079917Y0039945D01*
X0079938Y0038946D02*
X0100895Y0038946D01*
X0098948Y0037948D02*
X0079959Y0037948D01*
X0079980Y0036949D02*
X0097811Y0036949D01*
X0096960Y0035951D02*
X0080001Y0035951D01*
X0079919Y0034952D02*
X0096318Y0034952D01*
X0095917Y0033954D02*
X0079848Y0033954D01*
X0079777Y0032955D02*
X0095645Y0032955D01*
X0095467Y0031957D02*
X0079706Y0031957D01*
X0079634Y0030958D02*
X0095440Y0030958D01*
X0095467Y0029960D02*
X0079459Y0029960D01*
X0079295Y0028961D02*
X0095467Y0028961D01*
X0095467Y0027963D02*
X0079130Y0027963D01*
X0078966Y0026964D02*
X0095467Y0026964D01*
X0095467Y0025966D02*
X0078920Y0025966D01*
X0079261Y0024967D02*
X0095467Y0024967D01*
X0095467Y0023969D02*
X0091348Y0023969D01*
X0084985Y0023969D02*
X0080061Y0023969D01*
X0068747Y0027963D02*
X0056580Y0027963D01*
X0055403Y0028292D02*
X0055403Y0028292D01*
X0054950Y0029960D02*
X0069157Y0029960D01*
X0069356Y0030958D02*
X0055503Y0030958D01*
X0055503Y0031957D02*
X0069653Y0031957D01*
X0070037Y0032955D02*
X0055503Y0032955D01*
X0054942Y0034952D02*
X0070405Y0034952D01*
X0070377Y0033954D02*
X0041391Y0033954D01*
X0041402Y0033941D02*
X0041402Y0033941D01*
X0041751Y0032955D02*
X0044675Y0032955D01*
X0043990Y0032696D02*
X0043990Y0032696D01*
X0043338Y0031957D02*
X0042104Y0031957D01*
X0042371Y0030958D02*
X0042457Y0030958D01*
X0045415Y0028961D02*
X0068870Y0028961D01*
X0068625Y0026964D02*
X0059033Y0026964D01*
X0057978Y0027572D02*
X0057978Y0027572D01*
X0060573Y0025966D02*
X0068474Y0025966D01*
X0063098Y0024967D02*
X0061736Y0024967D01*
X0058751Y0022970D02*
X0055560Y0022970D01*
X0055503Y0022999D02*
X0054859Y0023643D01*
X0046467Y0023643D01*
X0045823Y0022999D01*
X0045823Y0020513D01*
X0046467Y0019869D01*
X0054062Y0019869D01*
X0054444Y0019675D01*
X0054885Y0019076D01*
X0054967Y0018798D01*
X0054967Y0018535D01*
X0054859Y0018643D01*
X0050176Y0018643D01*
X0049118Y0018777D01*
X0047563Y0018643D01*
X0046467Y0018643D01*
X0046364Y0018540D01*
X0046104Y0018518D01*
X0046104Y0018518D01*
X0044266Y0017956D01*
X0043240Y0018381D01*
X0042094Y0018381D01*
X0041035Y0017942D01*
X0040224Y0017132D01*
X0039786Y0016073D01*
X0039786Y0014927D01*
X0040224Y0013868D01*
X0041035Y0013058D01*
X0042094Y0012619D01*
X0043240Y0012619D01*
X0044299Y0013058D01*
X0045109Y0013868D01*
X0045548Y0014927D01*
X0045548Y0014937D01*
X0046199Y0015137D01*
X0046467Y0014869D01*
X0054859Y0014869D01*
X0054967Y0014977D01*
X0054967Y0012028D01*
X0054933Y0010996D01*
X0055845Y0009084D01*
X0055845Y0009084D01*
X0057534Y0007804D01*
X0057534Y0007804D01*
X0057933Y0007735D01*
X0057963Y0007697D01*
X0058252Y0007662D01*
X0058252Y0006379D01*
X0058896Y0005735D01*
X0063744Y0005735D01*
X0064389Y0006379D01*
X0064389Y0011621D01*
X0063744Y0012265D01*
X0058896Y0012265D01*
X0058383Y0011752D01*
X0058367Y0011934D01*
X0058367Y0011972D01*
X0058389Y0012648D01*
X0058367Y0012672D01*
X0058367Y0018458D01*
X0058460Y0018590D01*
X0058367Y0019143D01*
X0058367Y0019704D01*
X0058252Y0019819D01*
X0058144Y0020458D01*
X0058144Y0020458D01*
X0056731Y0022377D01*
X0056731Y0022377D01*
X0056731Y0022377D01*
X0055503Y0022999D01*
X0057029Y0021972D02*
X0059938Y0021972D01*
X0057765Y0020973D02*
X0062134Y0020973D01*
X0062437Y0020838D02*
X0062437Y0020838D01*
X0062901Y0019975D02*
X0058226Y0019975D01*
X0058395Y0018976D02*
X0069049Y0018976D01*
X0062901Y0017978D02*
X0058367Y0017978D01*
X0058367Y0016979D02*
X0062901Y0016979D01*
X0062901Y0015981D02*
X0058367Y0015981D01*
X0058367Y0014982D02*
X0062901Y0014982D01*
X0062901Y0013984D02*
X0058367Y0013984D01*
X0058367Y0012985D02*
X0063146Y0012985D01*
X0064023Y0011987D02*
X0065310Y0011987D01*
X0065589Y0012265D02*
X0064945Y0011621D01*
X0064945Y0009669D01*
X0064795Y0009500D01*
X0064809Y0009287D01*
X0064707Y0009100D01*
X0064852Y0008607D01*
X0064885Y0008094D01*
X0064945Y0008042D01*
X0064945Y0006379D01*
X0065589Y0005735D01*
X0070437Y0005735D01*
X0071082Y0006379D01*
X0071082Y0007777D01*
X0072327Y0007832D01*
X0075539Y0007185D01*
X0075539Y0005970D01*
X0076183Y0005325D01*
X0080244Y0005325D01*
X0080889Y0005970D01*
X0080889Y0010030D01*
X0080244Y0010675D01*
X0076183Y0010675D01*
X0076150Y0010641D01*
X0072600Y0011356D01*
X0071082Y0011289D01*
X0071082Y0011621D01*
X0070437Y0012265D01*
X0065589Y0012265D01*
X0064945Y0010988D02*
X0064389Y0010988D01*
X0064389Y0009990D02*
X0064945Y0009990D01*
X0064739Y0008991D02*
X0064389Y0008991D01*
X0064389Y0007993D02*
X0064945Y0007993D01*
X0064945Y0006994D02*
X0064389Y0006994D01*
X0064005Y0005996D02*
X0065328Y0005996D01*
X0070698Y0005996D02*
X0075539Y0005996D01*
X0075539Y0006994D02*
X0071082Y0006994D01*
X0074427Y0010988D02*
X0076021Y0010988D01*
X0073619Y0011987D02*
X0070716Y0011987D01*
X0072600Y0011356D02*
X0072600Y0011356D01*
X0080407Y0010988D02*
X0101562Y0010988D01*
X0102379Y0009990D02*
X0080889Y0009990D01*
X0080889Y0008991D02*
X0104131Y0008991D01*
X0101149Y0011987D02*
X0080889Y0011987D01*
X0080889Y0012985D02*
X0081741Y0012985D01*
X0080889Y0007993D02*
X0117277Y0007993D01*
X0117277Y0006994D02*
X0080889Y0006994D01*
X0080889Y0005996D02*
X0117277Y0005996D01*
X0117277Y0004997D02*
X0003667Y0004997D01*
X0003667Y0005996D02*
X0026771Y0005996D01*
X0024050Y0006994D02*
X0003667Y0006994D01*
X0003667Y0007993D02*
X0022652Y0007993D01*
X0022103Y0008384D02*
X0022103Y0008384D01*
X0022103Y0008384D01*
X0021647Y0008991D02*
X0018202Y0008991D01*
X0019954Y0009990D02*
X0020887Y0009990D01*
X0024481Y0010988D02*
X0027167Y0010988D01*
X0026787Y0011368D02*
X0027598Y0010558D01*
X0028657Y0010119D01*
X0029803Y0010119D01*
X0030862Y0010558D01*
X0031672Y0011368D01*
X0032111Y0012427D01*
X0032111Y0013573D01*
X0031672Y0014632D01*
X0031448Y0014856D01*
X0031450Y0014856D01*
X0031462Y0014869D01*
X0034859Y0014869D01*
X0035503Y0015513D01*
X0035503Y0017999D01*
X0034859Y0018643D01*
X0031462Y0018643D01*
X0031450Y0018656D01*
X0028443Y0018656D01*
X0028430Y0018643D01*
X0026467Y0018643D01*
X0025823Y0017999D01*
X0025823Y0015513D01*
X0026467Y0014869D01*
X0027024Y0014869D01*
X0026787Y0014632D01*
X0026349Y0013573D01*
X0026349Y0012427D01*
X0026787Y0011368D01*
X0026531Y0011987D02*
X0023702Y0011987D01*
X0023202Y0012701D02*
X0023202Y0012701D01*
X0023202Y0012701D01*
X0022807Y0012985D02*
X0026349Y0012985D01*
X0026519Y0013984D02*
X0021419Y0013984D01*
X0020783Y0014982D02*
X0026353Y0014982D01*
X0025823Y0015981D02*
X0019984Y0015981D01*
X0018274Y0016979D02*
X0025823Y0016979D01*
X0025823Y0017978D02*
X0003667Y0017978D01*
X0003667Y0018976D02*
X0010167Y0018976D01*
X0008394Y0019975D02*
X0003667Y0019975D01*
X0003667Y0020973D02*
X0007568Y0020973D01*
X0007155Y0021972D02*
X0003667Y0021972D01*
X0003667Y0022970D02*
X0007067Y0022970D01*
X0006793Y0023940D02*
X0006793Y0023940D01*
X0006776Y0023969D02*
X0003667Y0023969D01*
X0003667Y0024967D02*
X0006186Y0024967D01*
X0005596Y0025966D02*
X0003667Y0025966D01*
X0003667Y0026964D02*
X0005064Y0026964D01*
X0005082Y0026836D02*
X0005082Y0026836D01*
X0004902Y0027963D02*
X0003667Y0027963D01*
X0003667Y0028961D02*
X0004780Y0028961D01*
X0004829Y0029960D02*
X0003667Y0029960D01*
X0003667Y0030958D02*
X0004829Y0030958D01*
X0004829Y0031957D02*
X0003667Y0031957D01*
X0003667Y0032955D02*
X0004829Y0032955D01*
X0004829Y0033954D02*
X0003667Y0033954D01*
X0003667Y0034952D02*
X0004829Y0034952D01*
X0004829Y0035951D02*
X0003667Y0035951D01*
X0003667Y0036949D02*
X0004829Y0036949D01*
X0004829Y0037948D02*
X0003667Y0037948D01*
X0003667Y0038946D02*
X0004829Y0038946D01*
X0004829Y0039945D02*
X0003667Y0039945D01*
X0003667Y0040943D02*
X0004829Y0040943D01*
X0004829Y0041942D02*
X0003667Y0041942D01*
X0003667Y0042940D02*
X0004829Y0042940D01*
X0004829Y0043939D02*
X0003667Y0043939D01*
X0003667Y0044937D02*
X0004829Y0044937D01*
X0004829Y0045936D02*
X0003667Y0045936D01*
X0003667Y0046934D02*
X0004829Y0046934D01*
X0004829Y0047933D02*
X0003667Y0047933D01*
X0003667Y0048932D02*
X0004809Y0048932D01*
X0005046Y0049930D02*
X0003667Y0049930D01*
X0003667Y0050929D02*
X0005434Y0050929D01*
X0005747Y0051733D02*
X0005747Y0051733D01*
X0005933Y0051927D02*
X0003667Y0051927D01*
X0003667Y0052926D02*
X0006888Y0052926D01*
X0007112Y0053924D02*
X0003667Y0053924D01*
X0003667Y0054923D02*
X0007525Y0054923D01*
X0008289Y0055921D02*
X0003667Y0055921D01*
X0003667Y0056920D02*
X0009916Y0056920D01*
X0003667Y0057918D02*
X0029448Y0057918D01*
X0029201Y0057429D02*
X0029201Y0057429D01*
X0029126Y0056920D02*
X0018418Y0056920D01*
X0020044Y0055921D02*
X0028964Y0055921D01*
X0028697Y0054923D02*
X0020808Y0054923D01*
X0025738Y0054731D02*
X0025738Y0054731D01*
X0027802Y0053924D02*
X0028430Y0053924D01*
X0032041Y0053924D02*
X0052889Y0053924D01*
X0054157Y0052926D02*
X0031908Y0052926D01*
X0031908Y0051927D02*
X0054589Y0051927D01*
X0057138Y0050929D02*
X0031908Y0050929D01*
X0031908Y0049930D02*
X0057261Y0049930D01*
X0057162Y0048932D02*
X0032096Y0048932D01*
X0035503Y0047933D02*
X0037283Y0047933D01*
X0037822Y0048217D02*
X0037822Y0048217D01*
X0035660Y0047077D02*
X0035660Y0047077D01*
X0035660Y0047077D01*
X0035567Y0046934D02*
X0035503Y0046934D01*
X0040266Y0048159D02*
X0040266Y0048159D01*
X0040649Y0047933D02*
X0057064Y0047933D01*
X0056608Y0046934D02*
X0042343Y0046934D01*
X0042945Y0045936D02*
X0056118Y0045936D01*
X0055244Y0044937D02*
X0043529Y0044937D01*
X0043630Y0043939D02*
X0054189Y0043939D01*
X0057187Y0041942D02*
X0070405Y0041942D01*
X0070405Y0040943D02*
X0056132Y0040943D01*
X0054935Y0039945D02*
X0070405Y0039945D01*
X0070405Y0038946D02*
X0044015Y0038946D01*
X0043630Y0039945D02*
X0046391Y0039945D01*
X0045823Y0040943D02*
X0043630Y0040943D01*
X0043630Y0041942D02*
X0045823Y0041942D01*
X0045823Y0042940D02*
X0043643Y0042940D01*
X0040194Y0039945D02*
X0039804Y0039945D01*
X0040230Y0038946D02*
X0039253Y0038946D01*
X0040348Y0038214D02*
X0040348Y0038214D01*
X0040529Y0037948D02*
X0039243Y0037948D01*
X0039554Y0036949D02*
X0041206Y0036949D01*
X0041757Y0036137D02*
X0041757Y0036137D01*
X0041757Y0036137D01*
X0042126Y0035951D02*
X0039892Y0035951D01*
X0040618Y0034952D02*
X0046383Y0034952D01*
X0043997Y0035007D02*
X0043997Y0035007D01*
X0038420Y0031957D02*
X0035503Y0031957D01*
X0035503Y0030958D02*
X0038773Y0030958D01*
X0038898Y0029960D02*
X0034950Y0029960D01*
X0034859Y0029869D02*
X0035503Y0030513D01*
X0035503Y0032999D01*
X0034859Y0033643D01*
X0026467Y0033643D01*
X0025823Y0032999D01*
X0025823Y0030513D01*
X0026467Y0029869D01*
X0034859Y0029869D01*
X0035503Y0027963D02*
X0037340Y0027963D01*
X0036293Y0026964D02*
X0035503Y0026964D01*
X0035503Y0025966D02*
X0035900Y0025966D01*
X0035900Y0024967D02*
X0034957Y0024967D01*
X0036272Y0023969D02*
X0025824Y0023969D01*
X0025827Y0024967D02*
X0020790Y0024967D01*
X0021203Y0023969D02*
X0021817Y0023969D01*
X0019999Y0025966D02*
X0024059Y0025966D01*
X0024799Y0025348D02*
X0024799Y0025348D01*
X0022863Y0026964D02*
X0018310Y0026964D01*
X0021798Y0028961D02*
X0008229Y0028961D01*
X0008478Y0027963D02*
X0022278Y0027963D01*
X0022688Y0027110D02*
X0022688Y0027110D01*
X0021496Y0029589D02*
X0021496Y0029589D01*
X0021488Y0029960D02*
X0008229Y0029960D01*
X0008229Y0030958D02*
X0021467Y0030958D01*
X0021467Y0031957D02*
X0008229Y0031957D01*
X0008229Y0032955D02*
X0021467Y0032955D01*
X0021467Y0033954D02*
X0008229Y0033954D01*
X0008229Y0034952D02*
X0021467Y0034952D01*
X0021467Y0035951D02*
X0008229Y0035951D01*
X0008229Y0036949D02*
X0021467Y0036949D01*
X0020691Y0037948D02*
X0008229Y0037948D01*
X0008229Y0038946D02*
X0010239Y0038946D01*
X0008423Y0039945D02*
X0008229Y0039945D01*
X0018094Y0038946D02*
X0020286Y0038946D01*
X0020286Y0039945D02*
X0019910Y0039945D01*
X0024867Y0036949D02*
X0025823Y0036949D01*
X0025823Y0035951D02*
X0024867Y0035951D01*
X0025823Y0035513D02*
X0026467Y0034869D01*
X0034859Y0034869D01*
X0035503Y0035513D01*
X0035503Y0037999D01*
X0034859Y0038643D01*
X0026467Y0038643D01*
X0025823Y0037999D01*
X0025823Y0035513D01*
X0026383Y0034952D02*
X0024867Y0034952D01*
X0024867Y0033954D02*
X0037020Y0033954D01*
X0036509Y0034952D02*
X0034942Y0034952D01*
X0035503Y0035951D02*
X0036199Y0035951D01*
X0035888Y0036949D02*
X0035503Y0036949D01*
X0035503Y0037948D02*
X0035678Y0037948D01*
X0035745Y0038946D02*
X0026048Y0038946D01*
X0026048Y0039945D02*
X0026391Y0039945D01*
X0025823Y0037948D02*
X0025642Y0037948D01*
X0025823Y0032955D02*
X0024867Y0032955D01*
X0024867Y0031957D02*
X0025823Y0031957D01*
X0025823Y0030958D02*
X0024876Y0030958D01*
X0025165Y0029960D02*
X0026376Y0029960D01*
X0025880Y0028961D02*
X0038898Y0028961D01*
X0045367Y0027963D02*
X0045823Y0027963D01*
X0045823Y0026964D02*
X0045367Y0026964D01*
X0045367Y0025966D02*
X0045823Y0025966D01*
X0045367Y0024967D02*
X0046368Y0024967D01*
X0045369Y0023969D02*
X0057308Y0023969D01*
X0054914Y0018976D02*
X0039874Y0018976D01*
X0039328Y0017978D02*
X0041120Y0017978D01*
X0041020Y0019229D02*
X0041020Y0019229D01*
X0042895Y0019842D02*
X0042895Y0019842D01*
X0043050Y0019975D02*
X0046361Y0019975D01*
X0045823Y0020973D02*
X0044215Y0020973D01*
X0044822Y0021972D02*
X0045823Y0021972D01*
X0045823Y0022970D02*
X0045292Y0022970D01*
X0045286Y0022886D02*
X0045286Y0022886D01*
X0049118Y0018777D02*
X0049118Y0018777D01*
X0050419Y0017000D02*
X0050663Y0016756D01*
X0046353Y0014982D02*
X0045694Y0014982D01*
X0045157Y0013984D02*
X0054967Y0013984D01*
X0054967Y0012985D02*
X0044124Y0012985D01*
X0041209Y0012985D02*
X0039183Y0012985D01*
X0038961Y0011987D02*
X0054965Y0011987D01*
X0054933Y0010996D02*
X0054933Y0010996D01*
X0054937Y0010988D02*
X0038344Y0010988D01*
X0037708Y0009990D02*
X0055413Y0009990D01*
X0055967Y0008991D02*
X0037057Y0008991D01*
X0037085Y0009012D02*
X0037085Y0009012D01*
X0035756Y0007993D02*
X0057285Y0007993D01*
X0058252Y0006994D02*
X0034454Y0006994D01*
X0031562Y0005996D02*
X0058635Y0005996D01*
X0058617Y0011987D02*
X0058367Y0011987D01*
X0050419Y0017000D02*
X0050112Y0017035D01*
X0049804Y0017063D01*
X0049496Y0017083D01*
X0049188Y0017095D01*
X0048879Y0017100D01*
X0048570Y0017097D01*
X0048261Y0017087D01*
X0047953Y0017070D01*
X0047645Y0017044D01*
X0047338Y0017012D01*
X0047032Y0016972D01*
X0046727Y0016924D01*
X0046423Y0016869D01*
X0046121Y0016807D01*
X0045820Y0016737D01*
X0045521Y0016660D01*
X0045224Y0016576D01*
X0044929Y0016484D01*
X0044636Y0016386D01*
X0044346Y0016280D01*
X0044058Y0016167D01*
X0043774Y0016047D01*
X0043492Y0015921D01*
X0043214Y0015787D01*
X0042939Y0015647D01*
X0042667Y0015500D01*
X0040161Y0016979D02*
X0039416Y0016979D01*
X0039367Y0015981D02*
X0039786Y0015981D01*
X0039786Y0014982D02*
X0039367Y0014982D01*
X0039404Y0013984D02*
X0040176Y0013984D01*
X0038950Y0011938D02*
X0038950Y0011938D01*
X0035886Y0013984D02*
X0031941Y0013984D01*
X0032111Y0012985D02*
X0035469Y0012985D01*
X0034833Y0011987D02*
X0031928Y0011987D01*
X0031292Y0010988D02*
X0033914Y0010988D01*
X0032544Y0009990D02*
X0025819Y0009990D01*
X0034972Y0014982D02*
X0035967Y0014982D01*
X0035967Y0015981D02*
X0035503Y0015981D01*
X0035503Y0016979D02*
X0035927Y0016979D01*
X0035849Y0017978D02*
X0035503Y0017978D01*
X0036016Y0018976D02*
X0018166Y0018976D01*
X0019940Y0019975D02*
X0021669Y0019975D01*
X0021085Y0020973D02*
X0020765Y0020973D01*
X0025972Y0019975D02*
X0026361Y0019975D01*
X0034965Y0019975D02*
X0036369Y0019975D01*
X0036116Y0019569D02*
X0036116Y0019569D01*
X0035503Y0020973D02*
X0036993Y0020973D01*
X0037177Y0021268D02*
X0037177Y0021268D01*
X0037177Y0021268D01*
X0038164Y0021972D02*
X0035503Y0021972D01*
X0035503Y0022970D02*
X0037217Y0022970D01*
X0038808Y0022431D02*
X0038808Y0022431D01*
X0044214Y0017978D02*
X0044336Y0017978D01*
X0037807Y0032955D02*
X0035503Y0032955D01*
X0035812Y0039945D02*
X0034935Y0039945D01*
X0035503Y0040943D02*
X0035880Y0040943D01*
X0035506Y0041942D02*
X0035503Y0041942D01*
X0032267Y0054923D02*
X0051388Y0054923D01*
X0050401Y0055921D02*
X0032484Y0055921D01*
X0032836Y0056920D02*
X0047648Y0056920D01*
X0047401Y0057918D02*
X0033338Y0057918D01*
X0034270Y0058917D02*
X0047401Y0058917D01*
X0037922Y0064908D02*
X0057413Y0064908D01*
X0057355Y0064874D02*
X0057355Y0064874D01*
X0057355Y0064874D01*
X0059136Y0065906D02*
X0003667Y0065906D01*
X0003667Y0064908D02*
X0036277Y0064908D01*
X0034805Y0063909D02*
X0003667Y0063909D01*
X0003667Y0062911D02*
X0034011Y0062911D01*
X0032678Y0062240D02*
X0032678Y0062240D01*
X0032351Y0061912D02*
X0003667Y0061912D01*
X0003667Y0060914D02*
X0031352Y0060914D01*
X0030553Y0060114D02*
X0030553Y0060114D01*
X0030453Y0059915D02*
X0003667Y0059915D01*
X0003667Y0058917D02*
X0029950Y0058917D01*
X0003667Y0066905D02*
X0103880Y0066905D01*
X0104351Y0067100D02*
X0102844Y0066476D01*
X0101691Y0065322D01*
X0101067Y0063816D01*
X0101067Y0062184D01*
X0101691Y0060678D01*
X0102844Y0059524D01*
X0104351Y0058900D01*
X0111982Y0058900D01*
X0113489Y0059524D01*
X0114642Y0060678D01*
X0115267Y0062184D01*
X0115267Y0063816D01*
X0114642Y0065322D01*
X0113489Y0066476D01*
X0111982Y0067100D01*
X0104351Y0067100D01*
X0102275Y0065906D02*
X0065335Y0065906D01*
X0066202Y0064908D02*
X0101519Y0064908D01*
X0101105Y0063909D02*
X0066548Y0063909D01*
X0066541Y0062911D02*
X0101067Y0062911D01*
X0101179Y0061912D02*
X0066127Y0061912D01*
X0064951Y0060914D02*
X0101593Y0060914D01*
X0102453Y0059915D02*
X0060688Y0059915D01*
X0060688Y0060914D02*
X0062382Y0060914D01*
X0061206Y0061912D02*
X0060688Y0061912D01*
X0060552Y0058917D02*
X0104311Y0058917D01*
X0103916Y0056920D02*
X0060688Y0056920D01*
X0060688Y0055921D02*
X0102289Y0055921D01*
X0101525Y0054923D02*
X0060688Y0054923D01*
X0060688Y0053924D02*
X0072884Y0053924D01*
X0071081Y0052926D02*
X0060688Y0052926D01*
X0060506Y0051927D02*
X0070495Y0051927D01*
X0070089Y0050929D02*
X0060771Y0050929D01*
X0060789Y0049930D02*
X0069920Y0049930D01*
X0070202Y0048932D02*
X0060691Y0048932D01*
X0060592Y0047933D02*
X0070485Y0047933D01*
X0070349Y0046934D02*
X0060494Y0046934D01*
X0060029Y0045936D02*
X0070552Y0045936D01*
X0071132Y0044937D02*
X0059539Y0044937D01*
X0059050Y0043939D02*
X0071288Y0043939D01*
X0070847Y0042940D02*
X0058243Y0042940D01*
X0055503Y0037948D02*
X0070405Y0037948D01*
X0070405Y0036949D02*
X0055503Y0036949D01*
X0055503Y0035951D02*
X0070405Y0035951D01*
X0078729Y0048932D02*
X0104275Y0048932D01*
X0102438Y0049930D02*
X0078521Y0049930D01*
X0078328Y0050929D02*
X0101587Y0050929D01*
X0101173Y0051927D02*
X0077920Y0051927D01*
X0077228Y0052926D02*
X0101067Y0052926D01*
X0101112Y0053924D02*
X0075568Y0053924D01*
X0075545Y0053924D02*
X0075391Y0053924D01*
X0059389Y0066053D02*
X0059389Y0066053D01*
X0061728Y0066291D02*
X0061728Y0066291D01*
X0112454Y0066905D02*
X0117277Y0066905D01*
X0117277Y0065906D02*
X0114059Y0065906D01*
X0114814Y0064908D02*
X0117277Y0064908D01*
X0117277Y0063909D02*
X0115228Y0063909D01*
X0115267Y0062911D02*
X0117277Y0062911D01*
X0117277Y0061912D02*
X0115154Y0061912D01*
X0114740Y0060914D02*
X0117277Y0060914D01*
X0117277Y0059915D02*
X0113880Y0059915D01*
X0112022Y0058917D02*
X0117277Y0058917D01*
X0117277Y0067903D02*
X0003667Y0067903D01*
X0003667Y0068902D02*
X0117277Y0068902D01*
X0117277Y0069900D02*
X0003667Y0069900D01*
X0009068Y0026964D02*
X0010023Y0026964D01*
X0010059Y0016979D02*
X0003667Y0016979D01*
X0003667Y0015981D02*
X0008349Y0015981D01*
X0007550Y0014982D02*
X0003667Y0014982D01*
X0003667Y0013984D02*
X0007136Y0013984D01*
X0007067Y0012985D02*
X0003667Y0012985D01*
X0003667Y0011987D02*
X0007149Y0011987D01*
X0007562Y0010988D02*
X0003667Y0010988D01*
X0003667Y0009990D02*
X0008379Y0009990D01*
X0010131Y0008991D02*
X0003667Y0008991D01*
X0100260Y0012985D02*
X0101067Y0012985D01*
X0112202Y0008991D02*
X0117277Y0008991D01*
X0117277Y0009990D02*
X0113955Y0009990D01*
X0114771Y0010988D02*
X0117277Y0010988D01*
X0117277Y0011987D02*
X0115185Y0011987D01*
X0115267Y0012985D02*
X0117277Y0012985D01*
X0117277Y0013984D02*
X0115197Y0013984D01*
X0114783Y0014982D02*
X0117277Y0014982D01*
X0117277Y0015981D02*
X0113984Y0015981D01*
X0114955Y0016979D02*
X0117277Y0016979D01*
X0117277Y0017978D02*
X0116297Y0017978D01*
X0117152Y0036949D02*
X0117277Y0036949D01*
X0117277Y0037948D02*
X0115935Y0037948D01*
X0117277Y0038946D02*
X0114013Y0038946D01*
D20*
X0030663Y0016756D02*
X0029230Y0016756D01*
X0029230Y0013000D01*
M02*
