G75*
%MOIN*%
%OFA0B0*%
%FSLAX25Y25*%
%IPPOS*%
%LPD*%
%AMOC8*
5,1,8,0,0,1.08239X$1,22.5*
%
%ADD10C,0.00000*%
%ADD11C,0.00700*%
%ADD12C,0.01200*%
%ADD13C,0.00500*%
%ADD14C,0.00600*%
%ADD15R,0.00984X0.00984*%
D10*
X0002167Y0003000D02*
X0002167Y0071898D01*
X0118777Y0071898D01*
X0118777Y0003000D01*
X0002167Y0003000D01*
D11*
X0021808Y0007994D02*
X0022909Y0006893D01*
X0024010Y0007994D01*
X0024010Y0010196D01*
X0025491Y0009095D02*
X0026592Y0010196D01*
X0026592Y0006893D01*
X0025491Y0006893D02*
X0027693Y0006893D01*
X0029174Y0006893D02*
X0029174Y0007444D01*
X0029725Y0007444D01*
X0029725Y0006893D01*
X0029174Y0006893D01*
X0031016Y0007444D02*
X0031566Y0006893D01*
X0032667Y0006893D01*
X0033218Y0007444D01*
X0033218Y0009646D01*
X0031016Y0007444D01*
X0031016Y0009646D01*
X0031566Y0010196D01*
X0032667Y0010196D01*
X0033218Y0009646D01*
X0021808Y0010196D02*
X0021808Y0007994D01*
X0051654Y0007888D02*
X0053306Y0007888D01*
X0053856Y0008438D01*
X0053856Y0009539D01*
X0053306Y0010090D01*
X0051654Y0010090D01*
X0051654Y0006787D01*
X0052755Y0007888D02*
X0053856Y0006787D01*
X0055338Y0007337D02*
X0055888Y0006787D01*
X0056989Y0006787D01*
X0057539Y0007337D01*
X0057539Y0008438D01*
X0056989Y0008989D01*
X0056439Y0008989D01*
X0055338Y0008438D01*
X0055338Y0010090D01*
X0057539Y0010090D01*
X0058085Y0015618D02*
X0058085Y0017269D01*
X0058635Y0017820D01*
X0059736Y0017820D01*
X0060287Y0017269D01*
X0060287Y0015618D01*
X0061388Y0015618D02*
X0058085Y0015618D01*
X0060287Y0016719D02*
X0061388Y0017820D01*
X0060837Y0019301D02*
X0059736Y0019301D01*
X0059736Y0020952D01*
X0060287Y0021503D01*
X0060837Y0021503D01*
X0061388Y0020952D01*
X0061388Y0019851D01*
X0060837Y0019301D01*
X0059736Y0019301D02*
X0058635Y0020402D01*
X0058085Y0021503D01*
X0077560Y0021428D02*
X0078110Y0020878D01*
X0079211Y0020878D01*
X0079762Y0021428D01*
X0081243Y0020878D02*
X0083445Y0020878D01*
X0082344Y0020878D02*
X0082344Y0024180D01*
X0081243Y0023079D01*
X0079762Y0023630D02*
X0079211Y0024180D01*
X0078110Y0024180D01*
X0077560Y0023630D01*
X0077560Y0021428D01*
X0088363Y0016783D02*
X0090015Y0016783D01*
X0090565Y0016232D01*
X0090565Y0014030D01*
X0090015Y0013480D01*
X0088363Y0013480D01*
X0088363Y0016783D01*
X0092046Y0016232D02*
X0092597Y0016783D01*
X0093698Y0016783D01*
X0094248Y0016232D01*
X0094248Y0015682D01*
X0092046Y0013480D01*
X0094248Y0013480D01*
X0096321Y0015551D02*
X0097422Y0016652D01*
X0096321Y0017753D01*
X0099624Y0017753D01*
X0099624Y0019234D02*
X0097422Y0021436D01*
X0096871Y0021436D01*
X0096321Y0020885D01*
X0096321Y0019784D01*
X0096871Y0019234D01*
X0099624Y0019234D02*
X0099624Y0021436D01*
X0099624Y0015551D02*
X0096321Y0015551D01*
X0092753Y0010590D02*
X0092753Y0007287D01*
X0091653Y0007287D02*
X0093854Y0007287D01*
X0091653Y0009489D02*
X0092753Y0010590D01*
X0090171Y0010039D02*
X0089621Y0010590D01*
X0087969Y0010590D01*
X0087969Y0007287D01*
X0089621Y0007287D01*
X0090171Y0007837D01*
X0090171Y0010039D01*
X0097014Y0028653D02*
X0099216Y0028653D01*
X0100317Y0029754D01*
X0099216Y0030855D01*
X0097014Y0030855D01*
X0097014Y0032336D02*
X0098115Y0033437D01*
X0097014Y0034538D01*
X0100317Y0034538D01*
X0100317Y0032336D02*
X0097014Y0032336D01*
X0097671Y0038208D02*
X0099872Y0038208D01*
X0100423Y0038759D01*
X0100423Y0039860D01*
X0099872Y0040410D01*
X0098772Y0040410D01*
X0098772Y0039309D01*
X0097671Y0038208D02*
X0097120Y0038759D01*
X0097120Y0039860D01*
X0097671Y0040410D01*
X0097120Y0041891D02*
X0100423Y0044093D01*
X0097120Y0044093D01*
X0097120Y0045575D02*
X0097120Y0047226D01*
X0097671Y0047776D01*
X0099872Y0047776D01*
X0100423Y0047226D01*
X0100423Y0045575D01*
X0097120Y0045575D01*
X0097120Y0041891D02*
X0100423Y0041891D01*
X0083036Y0045021D02*
X0080834Y0045021D01*
X0082485Y0046673D01*
X0082485Y0043370D01*
X0079352Y0043920D02*
X0078802Y0043370D01*
X0077701Y0043370D01*
X0077151Y0043920D01*
X0077151Y0046122D01*
X0077701Y0046673D01*
X0078802Y0046673D01*
X0079352Y0046122D01*
X0064809Y0050108D02*
X0061506Y0050108D01*
X0061506Y0051759D01*
X0062056Y0052310D01*
X0063157Y0052310D01*
X0063708Y0051759D01*
X0063708Y0050108D01*
X0063708Y0051209D02*
X0064809Y0052310D01*
X0061506Y0053791D02*
X0061506Y0055993D01*
X0061506Y0054892D02*
X0064809Y0054892D01*
X0064809Y0057474D02*
X0064809Y0059676D01*
X0064809Y0058575D02*
X0061506Y0058575D01*
X0062607Y0057474D01*
X0061203Y0065011D02*
X0061203Y0068314D01*
X0060102Y0067213D01*
X0059001Y0068314D01*
X0059001Y0065011D01*
X0057520Y0065011D02*
X0057520Y0068314D01*
X0055318Y0068314D02*
X0055318Y0065011D01*
X0056419Y0066112D01*
X0057520Y0065011D01*
X0053837Y0066663D02*
X0053286Y0066112D01*
X0051635Y0066112D01*
X0051635Y0065011D02*
X0051635Y0068314D01*
X0053286Y0068314D01*
X0053837Y0067764D01*
X0053837Y0066663D01*
X0050154Y0066663D02*
X0050154Y0065011D01*
X0047952Y0065011D02*
X0047952Y0067213D01*
X0049603Y0067213D01*
X0050154Y0066663D01*
X0046471Y0066663D02*
X0046471Y0066112D01*
X0044269Y0066112D01*
X0044269Y0065562D02*
X0044269Y0066663D01*
X0044819Y0067213D01*
X0045920Y0067213D01*
X0046471Y0066663D01*
X0044819Y0065011D02*
X0044269Y0065562D01*
X0044819Y0065011D02*
X0045920Y0065011D01*
X0042788Y0065562D02*
X0042237Y0065011D01*
X0040586Y0065011D01*
X0042788Y0065562D02*
X0042788Y0066663D01*
X0042237Y0067213D01*
X0040586Y0067213D01*
X0040586Y0063910D01*
X0039104Y0065562D02*
X0038554Y0065011D01*
X0037453Y0065011D01*
X0036902Y0065562D01*
X0036902Y0067764D01*
X0037453Y0068314D01*
X0038554Y0068314D01*
X0039104Y0067764D01*
X0039104Y0065562D01*
X0038125Y0061102D02*
X0040327Y0061102D01*
X0040327Y0060551D01*
X0038125Y0058349D01*
X0038125Y0057799D01*
X0036644Y0057799D02*
X0035543Y0058900D01*
X0036093Y0058900D02*
X0034442Y0058900D01*
X0036093Y0058900D02*
X0036644Y0059450D01*
X0036644Y0060551D01*
X0036093Y0061102D01*
X0034442Y0061102D01*
X0034442Y0057799D01*
X0038343Y0055578D02*
X0038343Y0052826D01*
X0038894Y0052275D01*
X0039995Y0052275D01*
X0040545Y0052826D01*
X0040545Y0055578D01*
X0042027Y0055028D02*
X0042577Y0055578D01*
X0043678Y0055578D01*
X0044228Y0055028D01*
X0044228Y0054477D01*
X0042027Y0052275D01*
X0044228Y0052275D01*
X0066368Y0065011D02*
X0068019Y0065011D01*
X0068570Y0065562D01*
X0068570Y0067764D01*
X0068019Y0068314D01*
X0066368Y0068314D01*
X0066368Y0065011D01*
X0064886Y0066663D02*
X0062684Y0066663D01*
X0070051Y0067213D02*
X0070051Y0065562D01*
X0070601Y0065011D01*
X0072253Y0065011D01*
X0072253Y0067213D01*
X0074284Y0067213D02*
X0075385Y0067213D01*
X0075936Y0066663D01*
X0075936Y0065011D01*
X0074284Y0065011D01*
X0073734Y0065562D01*
X0074284Y0066112D01*
X0075936Y0066112D01*
X0077417Y0065011D02*
X0078518Y0065011D01*
X0077968Y0065011D02*
X0077968Y0068314D01*
X0077417Y0068314D01*
X0096163Y0059047D02*
X0099466Y0059047D01*
X0099466Y0057947D02*
X0099466Y0060148D01*
X0097264Y0057947D02*
X0096163Y0059047D01*
X0096163Y0056465D02*
X0099466Y0056465D01*
X0097264Y0055364D02*
X0096163Y0056465D01*
X0097264Y0055364D02*
X0096163Y0054263D01*
X0099466Y0054263D01*
D12*
X0090667Y0059000D02*
X0090602Y0059122D01*
X0090533Y0059242D01*
X0090461Y0059360D01*
X0090385Y0059475D01*
X0090307Y0059589D01*
X0090225Y0059701D01*
X0090141Y0059810D01*
X0090053Y0059917D01*
X0089963Y0060022D01*
X0089870Y0060124D01*
X0089774Y0060223D01*
X0089675Y0060320D01*
X0089574Y0060414D01*
X0089470Y0060506D01*
X0089364Y0060594D01*
X0089255Y0060680D01*
X0089144Y0060762D01*
X0089031Y0060842D01*
X0088916Y0060918D01*
X0088799Y0060992D01*
X0088680Y0061062D01*
X0088559Y0061128D01*
X0088436Y0061192D01*
X0088311Y0061252D01*
X0088185Y0061309D01*
X0088058Y0061362D01*
X0087929Y0061411D01*
X0087799Y0061458D01*
X0087667Y0061500D01*
X0087666Y0050000D02*
X0087483Y0049930D01*
X0087298Y0049865D01*
X0087112Y0049804D01*
X0086924Y0049748D01*
X0086734Y0049696D01*
X0086544Y0049649D01*
X0086353Y0049607D01*
X0086160Y0049569D01*
X0085967Y0049536D01*
X0085773Y0049508D01*
X0085578Y0049484D01*
X0085383Y0049465D01*
X0085187Y0049450D01*
X0084992Y0049441D01*
X0084795Y0049436D01*
X0084599Y0049435D01*
X0084403Y0049440D01*
X0084207Y0049449D01*
X0084012Y0049463D01*
X0083817Y0049482D01*
X0083622Y0049505D01*
X0083428Y0049533D01*
X0083234Y0049566D01*
X0083042Y0049604D01*
X0082850Y0049646D01*
X0082660Y0049692D01*
X0082471Y0049743D01*
X0082283Y0049799D01*
X0082096Y0049859D01*
X0081911Y0049924D01*
X0081727Y0049993D01*
X0081546Y0050067D01*
X0081366Y0050145D01*
X0081188Y0050227D01*
X0081012Y0050314D01*
X0080838Y0050405D01*
X0080666Y0050500D01*
X0080667Y0063500D02*
X0080874Y0063608D01*
X0081084Y0063710D01*
X0081296Y0063807D01*
X0081511Y0063898D01*
X0081728Y0063985D01*
X0081946Y0064066D01*
X0082167Y0064142D01*
X0082390Y0064212D01*
X0082614Y0064277D01*
X0082839Y0064337D01*
X0083066Y0064391D01*
X0083295Y0064439D01*
X0083524Y0064482D01*
X0083755Y0064519D01*
X0083986Y0064551D01*
X0084218Y0064577D01*
X0084450Y0064597D01*
X0084683Y0064612D01*
X0084916Y0064621D01*
X0085150Y0064624D01*
X0085383Y0064622D01*
X0085616Y0064613D01*
X0085849Y0064600D01*
X0086082Y0064580D01*
X0086314Y0064555D01*
X0086545Y0064524D01*
X0086776Y0064488D01*
X0087005Y0064446D01*
X0087234Y0064398D01*
X0087461Y0064345D01*
X0087687Y0064286D01*
X0087911Y0064222D01*
X0088134Y0064153D01*
X0088355Y0064078D01*
X0088574Y0063997D01*
X0088791Y0063912D01*
X0089006Y0063821D01*
X0089219Y0063724D01*
X0089429Y0063623D01*
X0089637Y0063517D01*
X0089842Y0063405D01*
X0090044Y0063289D01*
X0090243Y0063167D01*
X0090440Y0063041D01*
X0090633Y0062910D01*
X0090823Y0062775D01*
X0091009Y0062635D01*
X0091193Y0062490D01*
X0091372Y0062341D01*
X0091548Y0062188D01*
X0091720Y0062030D01*
X0091888Y0061868D01*
X0092052Y0061702D01*
X0092213Y0061532D01*
X0092368Y0061359D01*
X0092520Y0061181D01*
X0092667Y0061000D01*
X0080167Y0058500D02*
X0080131Y0058359D01*
X0080098Y0058217D01*
X0080069Y0058074D01*
X0080043Y0057930D01*
X0080021Y0057786D01*
X0080003Y0057642D01*
X0079989Y0057496D01*
X0079979Y0057351D01*
X0079972Y0057205D01*
X0079969Y0057059D01*
X0079970Y0056914D01*
X0079975Y0056768D01*
X0079983Y0056622D01*
X0079996Y0056477D01*
X0080012Y0056332D01*
X0080031Y0056187D01*
X0080055Y0056044D01*
X0080082Y0055900D01*
X0080113Y0055758D01*
X0080148Y0055616D01*
X0080186Y0055475D01*
X0080228Y0055336D01*
X0080274Y0055197D01*
X0080323Y0055060D01*
X0080376Y0054924D01*
X0080432Y0054789D01*
X0080492Y0054656D01*
X0080555Y0054525D01*
X0080622Y0054395D01*
X0080692Y0054267D01*
X0080765Y0054141D01*
X0080842Y0054017D01*
X0080921Y0053895D01*
X0081004Y0053775D01*
X0081090Y0053657D01*
X0081179Y0053541D01*
X0081271Y0053428D01*
X0081366Y0053317D01*
X0081463Y0053209D01*
X0081564Y0053104D01*
X0081667Y0053000D01*
X0084667Y0059499D02*
X0084791Y0059497D01*
X0084915Y0059491D01*
X0085039Y0059482D01*
X0085162Y0059469D01*
X0085285Y0059452D01*
X0085407Y0059431D01*
X0085529Y0059407D01*
X0085650Y0059378D01*
X0085769Y0059347D01*
X0085888Y0059311D01*
X0086006Y0059272D01*
X0086122Y0059229D01*
X0086238Y0059183D01*
X0086351Y0059133D01*
X0086463Y0059080D01*
X0086574Y0059024D01*
X0086682Y0058964D01*
X0086789Y0058901D01*
X0086894Y0058834D01*
X0086997Y0058765D01*
X0087097Y0058692D01*
X0087195Y0058616D01*
X0087291Y0058538D01*
X0087385Y0058456D01*
X0087476Y0058372D01*
X0087564Y0058284D01*
X0087649Y0058195D01*
X0087732Y0058102D01*
X0087812Y0058008D01*
X0087889Y0057910D01*
X0087963Y0057811D01*
X0088034Y0057709D01*
X0088102Y0057605D01*
X0088167Y0057499D01*
X0082667Y0061500D02*
X0082541Y0061423D01*
X0082417Y0061343D01*
X0082296Y0061260D01*
X0082176Y0061173D01*
X0082059Y0061084D01*
X0081943Y0060992D01*
X0081831Y0060897D01*
X0081720Y0060799D01*
X0081613Y0060699D01*
X0081507Y0060595D01*
X0081405Y0060490D01*
X0081305Y0060381D01*
X0081207Y0060270D01*
X0081113Y0060157D01*
X0081021Y0060041D01*
X0080933Y0059924D01*
X0080847Y0059803D01*
X0080765Y0059681D01*
X0080685Y0059557D01*
X0080609Y0059431D01*
X0080536Y0059303D01*
X0080466Y0059173D01*
X0080399Y0059041D01*
X0080336Y0058908D01*
X0080276Y0058774D01*
X0080220Y0058637D01*
X0080167Y0058500D01*
X0077667Y0060500D02*
X0077735Y0060639D01*
X0077807Y0060775D01*
X0077882Y0060911D01*
X0077960Y0061044D01*
X0078041Y0061175D01*
X0078126Y0061304D01*
X0078214Y0061431D01*
X0078304Y0061556D01*
X0078398Y0061679D01*
X0078495Y0061800D01*
X0078594Y0061918D01*
X0078697Y0062033D01*
X0078802Y0062147D01*
X0078910Y0062257D01*
X0079020Y0062365D01*
X0079134Y0062470D01*
X0079249Y0062573D01*
X0079367Y0062672D01*
X0079488Y0062769D01*
X0079611Y0062863D01*
X0079736Y0062953D01*
X0079863Y0063041D01*
X0079992Y0063126D01*
X0080123Y0063207D01*
X0080256Y0063285D01*
X0080392Y0063360D01*
X0080528Y0063432D01*
X0080667Y0063500D01*
X0084667Y0059500D02*
X0084578Y0059501D01*
X0084490Y0059498D01*
X0084402Y0059491D01*
X0084314Y0059480D01*
X0084227Y0059465D01*
X0084141Y0059447D01*
X0084055Y0059424D01*
X0083971Y0059398D01*
X0083888Y0059368D01*
X0083806Y0059335D01*
X0083726Y0059298D01*
X0083647Y0059257D01*
X0083570Y0059213D01*
X0083496Y0059166D01*
X0083423Y0059116D01*
X0083353Y0059062D01*
X0083285Y0059005D01*
X0083220Y0058945D01*
X0083158Y0058883D01*
X0083098Y0058818D01*
X0083041Y0058750D01*
X0082988Y0058680D01*
X0082937Y0058607D01*
X0082890Y0058533D01*
X0082846Y0058456D01*
X0082806Y0058377D01*
X0082769Y0058297D01*
X0082735Y0058215D01*
X0082706Y0058132D01*
X0082679Y0058048D01*
X0082657Y0057962D01*
X0082639Y0057876D01*
X0082624Y0057789D01*
X0082613Y0057701D01*
X0082606Y0057613D01*
X0082603Y0057525D01*
X0082604Y0057436D01*
X0082609Y0057348D01*
X0082617Y0057260D01*
X0082630Y0057173D01*
X0082646Y0057086D01*
X0082666Y0057000D01*
X0082667Y0057000D02*
X0082682Y0056933D01*
X0082701Y0056866D01*
X0082724Y0056801D01*
X0082750Y0056737D01*
X0082779Y0056675D01*
X0082812Y0056614D01*
X0082848Y0056555D01*
X0082887Y0056498D01*
X0082930Y0056443D01*
X0082975Y0056391D01*
X0083023Y0056341D01*
X0083073Y0056294D01*
X0083126Y0056250D01*
X0083181Y0056209D01*
X0083239Y0056170D01*
X0083298Y0056135D01*
X0083359Y0056103D01*
X0083422Y0056075D01*
X0083487Y0056050D01*
X0083552Y0056028D01*
X0083619Y0056010D01*
X0083687Y0055996D01*
X0083755Y0055985D01*
X0083823Y0055978D01*
X0083892Y0055975D01*
X0083961Y0055976D01*
X0084030Y0055980D01*
X0084099Y0055988D01*
X0084167Y0056000D01*
X0081666Y0053000D02*
X0081771Y0052920D01*
X0081878Y0052844D01*
X0081988Y0052770D01*
X0082099Y0052700D01*
X0082212Y0052633D01*
X0082328Y0052570D01*
X0082445Y0052510D01*
X0082563Y0052453D01*
X0082684Y0052400D01*
X0082806Y0052350D01*
X0082929Y0052304D01*
X0083053Y0052262D01*
X0083179Y0052223D01*
X0083306Y0052188D01*
X0083434Y0052156D01*
X0083562Y0052129D01*
X0083692Y0052105D01*
X0083822Y0052085D01*
X0083952Y0052068D01*
X0084083Y0052056D01*
X0084215Y0052047D01*
X0084346Y0052042D01*
X0084478Y0052041D01*
X0084609Y0052044D01*
X0084741Y0052051D01*
X0084872Y0052061D01*
X0085003Y0052075D01*
X0085133Y0052093D01*
X0085263Y0052115D01*
X0085392Y0052141D01*
X0085520Y0052170D01*
X0085648Y0052204D01*
X0085774Y0052240D01*
X0085899Y0052281D01*
X0086023Y0052325D01*
X0086146Y0052373D01*
X0086267Y0052424D01*
X0086386Y0052479D01*
X0086504Y0052537D01*
X0086621Y0052599D01*
X0086735Y0052664D01*
X0086847Y0052733D01*
X0086958Y0052804D01*
X0087066Y0052879D01*
X0087172Y0052957D01*
X0087276Y0053038D01*
X0087377Y0053122D01*
X0087476Y0053209D01*
X0087572Y0053299D01*
X0087666Y0053391D01*
X0087757Y0053486D01*
X0087845Y0053584D01*
X0087930Y0053684D01*
X0088012Y0053787D01*
X0088091Y0053892D01*
X0088167Y0054000D01*
X0087667Y0050000D02*
X0087812Y0050059D01*
X0087956Y0050121D01*
X0088098Y0050188D01*
X0088239Y0050257D01*
X0088377Y0050331D01*
X0088514Y0050408D01*
X0088648Y0050488D01*
X0088781Y0050572D01*
X0088911Y0050659D01*
X0089040Y0050749D01*
X0089165Y0050843D01*
X0089289Y0050940D01*
X0089410Y0051039D01*
X0089528Y0051142D01*
X0089644Y0051248D01*
X0089757Y0051357D01*
X0089867Y0051469D01*
X0089974Y0051583D01*
X0090078Y0051700D01*
X0090180Y0051820D01*
X0090278Y0051942D01*
X0090373Y0052066D01*
X0090465Y0052193D01*
X0090554Y0052323D01*
X0090639Y0052454D01*
X0090721Y0052588D01*
X0090800Y0052724D01*
X0090875Y0052861D01*
X0090946Y0053001D01*
X0091014Y0053142D01*
X0091079Y0053285D01*
X0091139Y0053430D01*
X0091197Y0053576D01*
X0091250Y0053723D01*
X0091299Y0053872D01*
X0091345Y0054022D01*
X0091387Y0054173D01*
X0091425Y0054325D01*
X0091460Y0054478D01*
X0091490Y0054632D01*
X0091516Y0054786D01*
X0091539Y0054942D01*
X0091557Y0055097D01*
X0091572Y0055253D01*
X0091583Y0055410D01*
X0091589Y0055566D01*
X0091592Y0055723D01*
X0091591Y0055880D01*
X0091585Y0056037D01*
X0091576Y0056193D01*
X0091563Y0056349D01*
X0091546Y0056505D01*
X0091524Y0056661D01*
X0091499Y0056815D01*
X0091470Y0056970D01*
X0091437Y0057123D01*
X0091401Y0057275D01*
X0091360Y0057427D01*
X0091316Y0057577D01*
X0091267Y0057726D01*
X0091215Y0057874D01*
X0091159Y0058021D01*
X0091100Y0058166D01*
X0091037Y0058309D01*
X0090970Y0058451D01*
X0090900Y0058591D01*
X0090826Y0058730D01*
X0090748Y0058866D01*
X0090667Y0059000D01*
X0077667Y0060500D02*
X0077589Y0060323D01*
X0077515Y0060144D01*
X0077446Y0059964D01*
X0077381Y0059782D01*
X0077321Y0059598D01*
X0077265Y0059414D01*
X0077214Y0059227D01*
X0077167Y0059040D01*
X0077125Y0058851D01*
X0077087Y0058662D01*
X0077054Y0058472D01*
X0077026Y0058281D01*
X0077002Y0058089D01*
X0076983Y0057897D01*
X0076969Y0057704D01*
X0076960Y0057511D01*
X0076955Y0057318D01*
X0076955Y0057125D01*
X0076959Y0056932D01*
X0076968Y0056739D01*
X0076982Y0056546D01*
X0077001Y0056354D01*
X0077024Y0056162D01*
X0077052Y0055971D01*
X0077085Y0055781D01*
X0077122Y0055591D01*
X0077164Y0055403D01*
X0077210Y0055215D01*
X0077261Y0055029D01*
X0077317Y0054844D01*
X0077377Y0054660D01*
X0077441Y0054478D01*
X0077510Y0054298D01*
X0077583Y0054119D01*
X0077661Y0053942D01*
X0077743Y0053767D01*
X0077829Y0053594D01*
X0077919Y0053423D01*
X0078013Y0053255D01*
X0078112Y0053089D01*
X0078214Y0052925D01*
X0078321Y0052764D01*
X0078431Y0052605D01*
X0078545Y0052450D01*
X0078663Y0052297D01*
X0078785Y0052147D01*
X0078910Y0052000D01*
X0079039Y0051856D01*
X0079171Y0051715D01*
X0079307Y0051578D01*
X0079446Y0051443D01*
X0079588Y0051313D01*
X0079734Y0051186D01*
X0079882Y0051062D01*
X0080033Y0050942D01*
X0080188Y0050826D01*
X0080345Y0050713D01*
X0080505Y0050605D01*
X0080667Y0050500D01*
X0082667Y0061500D02*
X0082816Y0061560D01*
X0082966Y0061616D01*
X0083118Y0061668D01*
X0083270Y0061717D01*
X0083424Y0061762D01*
X0083579Y0061803D01*
X0083735Y0061840D01*
X0083892Y0061874D01*
X0084050Y0061903D01*
X0084208Y0061929D01*
X0084367Y0061951D01*
X0084527Y0061968D01*
X0084686Y0061982D01*
X0084846Y0061992D01*
X0085007Y0061998D01*
X0085167Y0062000D01*
X0085327Y0061998D01*
X0085488Y0061992D01*
X0085648Y0061982D01*
X0085807Y0061968D01*
X0085967Y0061951D01*
X0086126Y0061929D01*
X0086284Y0061903D01*
X0086442Y0061874D01*
X0086599Y0061840D01*
X0086755Y0061803D01*
X0086910Y0061762D01*
X0087064Y0061717D01*
X0087216Y0061668D01*
X0087368Y0061616D01*
X0087518Y0061560D01*
X0087667Y0061500D01*
X0088167Y0057500D02*
X0088226Y0057405D01*
X0088281Y0057307D01*
X0088333Y0057208D01*
X0088381Y0057107D01*
X0088426Y0057004D01*
X0088467Y0056900D01*
X0088505Y0056795D01*
X0088539Y0056688D01*
X0088569Y0056581D01*
X0088596Y0056472D01*
X0088619Y0056362D01*
X0088638Y0056252D01*
X0088653Y0056141D01*
X0088665Y0056030D01*
X0088673Y0055918D01*
X0088677Y0055806D01*
X0088677Y0055694D01*
X0088673Y0055582D01*
X0088665Y0055470D01*
X0088653Y0055359D01*
X0088638Y0055248D01*
X0088619Y0055138D01*
X0088596Y0055028D01*
X0088569Y0054919D01*
X0088539Y0054812D01*
X0088505Y0054705D01*
X0088467Y0054600D01*
X0088426Y0054496D01*
X0088381Y0054393D01*
X0088333Y0054292D01*
X0088281Y0054193D01*
X0088226Y0054095D01*
X0088167Y0054000D01*
D13*
X0097663Y0062251D02*
X0099165Y0060750D01*
X0099165Y0063002D01*
X0099915Y0063753D01*
X0100666Y0063753D01*
X0101417Y0063002D01*
X0101417Y0061501D01*
X0100666Y0060750D01*
X0099165Y0060750D01*
X0097663Y0062251D02*
X0096913Y0063753D01*
X0051135Y0050693D02*
X0051135Y0049315D01*
X0051135Y0050693D02*
X0030663Y0050693D01*
X0030663Y0049315D01*
X0035108Y0047268D02*
X0035110Y0047370D01*
X0035116Y0047473D01*
X0035126Y0047575D01*
X0035140Y0047676D01*
X0035158Y0047777D01*
X0035179Y0047877D01*
X0035205Y0047976D01*
X0035234Y0048074D01*
X0035267Y0048171D01*
X0035304Y0048267D01*
X0035345Y0048361D01*
X0035389Y0048453D01*
X0035437Y0048544D01*
X0035488Y0048633D01*
X0035542Y0048719D01*
X0035600Y0048804D01*
X0035662Y0048886D01*
X0035726Y0048966D01*
X0035793Y0049043D01*
X0035864Y0049117D01*
X0035937Y0049189D01*
X0036012Y0049258D01*
X0036091Y0049324D01*
X0036172Y0049386D01*
X0036255Y0049446D01*
X0036341Y0049502D01*
X0036428Y0049555D01*
X0036518Y0049605D01*
X0036610Y0049651D01*
X0036703Y0049693D01*
X0036798Y0049732D01*
X0036894Y0049767D01*
X0036992Y0049798D01*
X0037090Y0049826D01*
X0037190Y0049849D01*
X0037290Y0049869D01*
X0037392Y0049885D01*
X0037493Y0049897D01*
X0037595Y0049905D01*
X0037698Y0049909D01*
X0037800Y0049909D01*
X0037903Y0049905D01*
X0038005Y0049897D01*
X0038106Y0049885D01*
X0038208Y0049869D01*
X0038308Y0049849D01*
X0038408Y0049826D01*
X0038506Y0049798D01*
X0038604Y0049767D01*
X0038700Y0049732D01*
X0038795Y0049693D01*
X0038888Y0049651D01*
X0038980Y0049605D01*
X0039069Y0049555D01*
X0039157Y0049502D01*
X0039243Y0049446D01*
X0039326Y0049386D01*
X0039407Y0049324D01*
X0039486Y0049258D01*
X0039561Y0049189D01*
X0039634Y0049117D01*
X0039705Y0049043D01*
X0039772Y0048966D01*
X0039836Y0048886D01*
X0039898Y0048804D01*
X0039956Y0048719D01*
X0040010Y0048633D01*
X0040061Y0048544D01*
X0040109Y0048453D01*
X0040153Y0048361D01*
X0040194Y0048267D01*
X0040231Y0048171D01*
X0040264Y0048074D01*
X0040293Y0047976D01*
X0040319Y0047877D01*
X0040340Y0047777D01*
X0040358Y0047676D01*
X0040372Y0047575D01*
X0040382Y0047473D01*
X0040388Y0047370D01*
X0040390Y0047268D01*
X0040388Y0047166D01*
X0040382Y0047063D01*
X0040372Y0046961D01*
X0040358Y0046860D01*
X0040340Y0046759D01*
X0040319Y0046659D01*
X0040293Y0046560D01*
X0040264Y0046462D01*
X0040231Y0046365D01*
X0040194Y0046269D01*
X0040153Y0046175D01*
X0040109Y0046083D01*
X0040061Y0045992D01*
X0040010Y0045903D01*
X0039956Y0045817D01*
X0039898Y0045732D01*
X0039836Y0045650D01*
X0039772Y0045570D01*
X0039705Y0045493D01*
X0039634Y0045419D01*
X0039561Y0045347D01*
X0039486Y0045278D01*
X0039407Y0045212D01*
X0039326Y0045150D01*
X0039243Y0045090D01*
X0039157Y0045034D01*
X0039070Y0044981D01*
X0038980Y0044931D01*
X0038888Y0044885D01*
X0038795Y0044843D01*
X0038700Y0044804D01*
X0038604Y0044769D01*
X0038506Y0044738D01*
X0038408Y0044710D01*
X0038308Y0044687D01*
X0038208Y0044667D01*
X0038106Y0044651D01*
X0038005Y0044639D01*
X0037903Y0044631D01*
X0037800Y0044627D01*
X0037698Y0044627D01*
X0037595Y0044631D01*
X0037493Y0044639D01*
X0037392Y0044651D01*
X0037290Y0044667D01*
X0037190Y0044687D01*
X0037090Y0044710D01*
X0036992Y0044738D01*
X0036894Y0044769D01*
X0036798Y0044804D01*
X0036703Y0044843D01*
X0036610Y0044885D01*
X0036518Y0044931D01*
X0036429Y0044981D01*
X0036341Y0045034D01*
X0036255Y0045090D01*
X0036172Y0045150D01*
X0036091Y0045212D01*
X0036012Y0045278D01*
X0035937Y0045347D01*
X0035864Y0045419D01*
X0035793Y0045493D01*
X0035726Y0045570D01*
X0035662Y0045650D01*
X0035600Y0045732D01*
X0035542Y0045817D01*
X0035488Y0045903D01*
X0035437Y0045992D01*
X0035389Y0046083D01*
X0035345Y0046175D01*
X0035304Y0046269D01*
X0035267Y0046365D01*
X0035234Y0046462D01*
X0035205Y0046560D01*
X0035179Y0046659D01*
X0035158Y0046759D01*
X0035140Y0046860D01*
X0035126Y0046961D01*
X0035116Y0047063D01*
X0035110Y0047166D01*
X0035108Y0047268D01*
X0016417Y0036253D02*
X0016417Y0033250D01*
X0016417Y0034751D02*
X0011913Y0034751D01*
X0013414Y0033250D01*
X0007218Y0033101D02*
X0007218Y0032200D01*
X0006768Y0031750D01*
X0005867Y0031750D01*
X0005417Y0032200D01*
X0005417Y0034002D01*
X0005867Y0034452D01*
X0006768Y0034452D01*
X0007218Y0034002D01*
X0007218Y0033101D02*
X0006317Y0033101D01*
X0006016Y0038750D02*
X0006016Y0040101D01*
X0005566Y0040552D01*
X0004665Y0040552D01*
X0004214Y0040101D01*
X0004214Y0038750D01*
X0006917Y0038750D01*
X0006466Y0041697D02*
X0005115Y0041697D01*
X0006466Y0041697D02*
X0006917Y0042147D01*
X0006466Y0042597D01*
X0006917Y0043048D01*
X0006466Y0043498D01*
X0005115Y0043498D01*
X0005115Y0044643D02*
X0005115Y0045093D01*
X0005566Y0045544D01*
X0005115Y0045994D01*
X0005566Y0046445D01*
X0006917Y0046445D01*
X0006917Y0045544D02*
X0005566Y0045544D01*
X0005115Y0044643D02*
X0006917Y0044643D01*
X0005566Y0048750D02*
X0005566Y0050552D01*
X0006466Y0049651D02*
X0004665Y0049651D01*
X0004214Y0051697D02*
X0005566Y0051697D01*
X0005115Y0052597D01*
X0005115Y0053048D01*
X0005566Y0053498D01*
X0006466Y0053498D01*
X0006917Y0053048D01*
X0006917Y0052147D01*
X0006466Y0051697D01*
X0004214Y0051697D02*
X0004214Y0053498D01*
X0005115Y0054643D02*
X0006917Y0055544D01*
X0005115Y0056445D01*
X0005867Y0061750D02*
X0006768Y0061750D01*
X0007218Y0062200D01*
X0007218Y0063101D01*
X0006317Y0063101D01*
X0005417Y0062200D02*
X0005867Y0061750D01*
X0005417Y0062200D02*
X0005417Y0064002D01*
X0005867Y0064452D01*
X0006768Y0064452D01*
X0007218Y0064002D01*
X0005115Y0026445D02*
X0006917Y0025544D01*
X0005115Y0024643D01*
X0005566Y0023498D02*
X0006466Y0023498D01*
X0006917Y0023048D01*
X0006917Y0022147D01*
X0006466Y0021697D01*
X0005566Y0021697D02*
X0005115Y0022597D01*
X0005115Y0023048D01*
X0005566Y0023498D01*
X0004214Y0023498D02*
X0004214Y0021697D01*
X0005566Y0021697D01*
X0005566Y0020552D02*
X0005566Y0018750D01*
X0006466Y0019651D02*
X0004665Y0019651D01*
X0005566Y0015945D02*
X0006917Y0015945D01*
X0006917Y0015044D02*
X0005566Y0015044D01*
X0005115Y0015494D01*
X0005566Y0015945D01*
X0005566Y0015044D02*
X0005115Y0014593D01*
X0005115Y0014143D01*
X0006917Y0014143D01*
X0006466Y0012998D02*
X0005115Y0012998D01*
X0006466Y0012998D02*
X0006917Y0012548D01*
X0006466Y0012097D01*
X0006917Y0011647D01*
X0006466Y0011197D01*
X0005115Y0011197D01*
X0004665Y0010052D02*
X0005566Y0010052D01*
X0006016Y0009601D01*
X0006016Y0008250D01*
X0006917Y0008250D02*
X0004214Y0008250D01*
X0004214Y0009601D01*
X0004665Y0010052D01*
X0011913Y0004751D02*
X0016417Y0004751D01*
X0016417Y0003250D02*
X0016417Y0006253D01*
X0013414Y0003250D02*
X0011913Y0004751D01*
X0030663Y0013134D02*
X0051135Y0013134D01*
X0051135Y0013685D01*
X0030663Y0013685D02*
X0030663Y0013134D01*
X0114913Y0012251D02*
X0119417Y0012251D01*
X0119417Y0010750D02*
X0119417Y0013753D01*
X0116414Y0010750D02*
X0114913Y0012251D01*
D14*
X0113167Y0010500D02*
X0113167Y0015500D01*
X0110667Y0018000D01*
X0113167Y0020500D01*
X0113167Y0025500D01*
X0110667Y0028000D01*
X0113167Y0030500D01*
X0113167Y0035500D01*
X0110667Y0038000D01*
X0113167Y0040500D01*
X0113167Y0045500D01*
X0110667Y0048000D01*
X0113167Y0050500D01*
X0113167Y0055500D01*
X0110667Y0058000D01*
X0113167Y0060500D01*
X0113167Y0065500D01*
X0110667Y0068000D01*
X0105667Y0068000D01*
X0103167Y0065500D01*
X0103167Y0060500D01*
X0105667Y0058000D01*
X0103167Y0055500D01*
X0103167Y0050500D01*
X0105667Y0048000D01*
X0103167Y0045500D01*
X0103167Y0040500D01*
X0105667Y0038000D01*
X0103167Y0035500D01*
X0103167Y0030500D01*
X0105667Y0028000D01*
X0103167Y0025500D01*
X0103167Y0020500D01*
X0105667Y0018000D01*
X0103167Y0015500D01*
X0103167Y0010500D01*
X0105667Y0008000D01*
X0110667Y0008000D01*
X0113167Y0010500D01*
X0019167Y0010500D02*
X0019167Y0015500D01*
X0016667Y0018000D01*
X0019167Y0020500D01*
X0019167Y0025500D01*
X0016667Y0028000D01*
X0019167Y0030500D01*
X0019167Y0035500D01*
X0016667Y0038000D01*
X0011667Y0038000D01*
X0009167Y0035500D01*
X0009167Y0030500D01*
X0011667Y0028000D01*
X0009167Y0025500D01*
X0009167Y0020500D01*
X0011667Y0018000D01*
X0009167Y0015500D01*
X0009167Y0010500D01*
X0011667Y0008000D01*
X0016667Y0008000D01*
X0019167Y0010500D01*
X0016667Y0038000D02*
X0011667Y0038000D01*
X0009167Y0040500D01*
X0009167Y0045500D01*
X0011667Y0048000D01*
X0009167Y0050500D01*
X0009167Y0055500D01*
X0011667Y0058000D01*
X0009167Y0060500D01*
X0009167Y0065500D01*
X0011667Y0068000D01*
X0016667Y0068000D01*
X0019167Y0065500D01*
X0019167Y0060500D01*
X0016667Y0058000D01*
X0019167Y0055500D01*
X0019167Y0050500D01*
X0016667Y0048000D01*
X0019167Y0045500D01*
X0019167Y0040500D01*
X0016667Y0038000D01*
D15*
X0081659Y0013500D03*
X0081659Y0008000D03*
M02*
