%
M48
M72
T01C0.02362
T02C0.04000
%
T01
X34143Y13929
X47143Y17929
X48025Y22827
X62198Y31882
X66529Y31488
X66923Y35819
X62592Y36213
X66923Y40937
X78143Y47929
X68104Y57866
X52356Y53535
X47238Y49205
X40151Y53142
X42513Y64559
X90151Y59047
X97631Y47630
X100143Y40929
X99600Y30701
X95356Y29142
X78143Y22929
X99206Y16134
X87001Y9835
X48025Y9835
X28734Y22827
X25584Y29126
T02
X14167Y14008
X14167Y24008
X14167Y34008
X14560Y45110
X14560Y55110
X14560Y65110
X113198Y58000
X113198Y48000
X113198Y38000
X113198Y28000
X113198Y18000
X113198Y8000
M30
