G75*
%MOIN*%
%OFA0B0*%
%FSLAX25Y25*%
%IPPOS*%
%LPD*%
%AMOC8*
5,1,8,0,0,1.08239X$1,22.5*
%
%ADD10C,0.00000*%
%ADD11R,0.07880X0.01975*%
%ADD12C,0.06400*%
%ADD13R,0.06699X0.07487*%
%ADD14R,0.04731X0.04337*%
%ADD15R,0.04337X0.04731*%
%ADD16R,0.03550X0.03550*%
D10*
X0003143Y0003929D02*
X0003143Y0072827D01*
X0125190Y0072827D01*
X0125190Y0003929D01*
X0003143Y0003929D01*
D11*
X0035576Y0017685D03*
X0035576Y0022685D03*
X0035576Y0027685D03*
X0035576Y0032685D03*
X0035576Y0037685D03*
X0035576Y0042685D03*
X0035576Y0047685D03*
X0055576Y0047685D03*
X0055576Y0042685D03*
X0055576Y0037685D03*
X0055576Y0032685D03*
X0055576Y0027685D03*
X0055576Y0022685D03*
X0055576Y0017685D03*
D12*
X0017167Y0014008D02*
X0011167Y0014008D01*
X0011167Y0024008D02*
X0017167Y0024008D01*
X0017167Y0034008D02*
X0011167Y0034008D01*
X0011560Y0045110D02*
X0017560Y0045110D01*
X0017560Y0055110D02*
X0011560Y0055110D01*
X0011560Y0065110D02*
X0017560Y0065110D01*
X0110198Y0058000D02*
X0116198Y0058000D01*
X0116198Y0048000D02*
X0110198Y0048000D01*
X0110198Y0038000D02*
X0116198Y0038000D01*
X0116198Y0028000D02*
X0110198Y0028000D01*
X0110198Y0018000D02*
X0116198Y0018000D01*
X0116198Y0008000D02*
X0110198Y0008000D01*
D13*
X0093088Y0032843D03*
X0082064Y0032843D03*
D14*
X0085411Y0041551D03*
X0092104Y0041551D03*
X0057867Y0054126D03*
X0057867Y0060819D03*
D15*
X0063970Y0049992D03*
X0070663Y0049992D03*
X0071671Y0017685D03*
X0064978Y0017685D03*
X0064364Y0010228D03*
X0071056Y0010228D03*
D16*
X0076175Y0009835D03*
X0082080Y0009835D03*
X0082301Y0016047D03*
X0076395Y0016047D03*
M02*
