G75*
%MOIN*%
%OFA0B0*%
%FSLAX25Y25*%
%IPPOS*%
%LPD*%
%AMOC8*
5,1,8,0,0,1.08239X$1,22.5*
%
%ADD10C,0.00000*%
%ADD11R,0.07487X0.02172*%
%ADD12R,0.12211X0.12211*%
%ADD13C,0.06400*%
%ADD14R,0.04731X0.04337*%
%ADD15R,0.06306X0.04337*%
%ADD16R,0.04337X0.04731*%
D10*
X0003143Y0003929D02*
X0003143Y0072827D01*
X0125190Y0072827D01*
X0125190Y0003929D01*
X0003143Y0003929D01*
D11*
X0050033Y0026685D03*
X0050033Y0029244D03*
X0050033Y0031803D03*
X0050033Y0034362D03*
X0050033Y0036921D03*
X0050033Y0039480D03*
X0050033Y0042039D03*
X0050033Y0044598D03*
X0073064Y0044598D03*
X0073064Y0042039D03*
X0073064Y0039480D03*
X0073064Y0036921D03*
X0073064Y0034362D03*
X0073064Y0031803D03*
X0073064Y0029244D03*
X0073064Y0026685D03*
D12*
X0062041Y0035543D03*
D13*
X0017167Y0034008D02*
X0011167Y0034008D01*
X0011167Y0024008D02*
X0017167Y0024008D01*
X0017167Y0014008D02*
X0011167Y0014008D01*
X0011560Y0045110D02*
X0017560Y0045110D01*
X0017560Y0055110D02*
X0011560Y0055110D01*
X0011560Y0065110D02*
X0017560Y0065110D01*
X0110198Y0058000D02*
X0116198Y0058000D01*
X0116198Y0048000D02*
X0110198Y0048000D01*
X0110198Y0038000D02*
X0116198Y0038000D01*
X0116198Y0028000D02*
X0110198Y0028000D01*
X0110198Y0018000D02*
X0116198Y0018000D01*
X0116198Y0008000D02*
X0110198Y0008000D01*
D14*
X0081686Y0057866D03*
X0074993Y0057866D03*
D15*
X0085976Y0041362D03*
X0094263Y0041362D03*
X0090999Y0023929D03*
X0099287Y0023929D03*
D16*
X0062395Y0057866D03*
X0055702Y0057866D03*
X0048222Y0057866D03*
X0041529Y0057866D03*
M02*
