G75*
%MOIN*%
%OFA0B0*%
%FSLAX25Y25*%
%IPPOS*%
%LPD*%
%AMOC8*
5,1,8,0,0,1.08239X$1,22.5*
%
%ADD10C,0.00000*%
%ADD11C,0.00700*%
%ADD12C,0.00500*%
D10*
X0003143Y0003929D02*
X0003143Y0072827D01*
X0125190Y0072827D01*
X0125190Y0003929D01*
X0003143Y0003929D01*
D11*
X0059113Y0017665D02*
X0061315Y0017665D01*
X0059113Y0019867D01*
X0059113Y0020417D01*
X0059663Y0020968D01*
X0060764Y0020968D01*
X0061315Y0020417D01*
X0062796Y0020968D02*
X0062796Y0018215D01*
X0063346Y0017665D01*
X0064447Y0017665D01*
X0064998Y0018215D01*
X0064998Y0020968D01*
X0088247Y0016878D02*
X0090448Y0016878D01*
X0089348Y0016878D02*
X0089348Y0020180D01*
X0090448Y0019079D01*
X0091930Y0018529D02*
X0091930Y0019630D01*
X0092480Y0020180D01*
X0094132Y0020180D01*
X0094132Y0016878D01*
X0094132Y0017978D02*
X0092480Y0017978D01*
X0091930Y0018529D01*
X0093031Y0017978D02*
X0091930Y0016878D01*
X0100058Y0013331D02*
X0100058Y0012780D01*
X0102259Y0010578D01*
X0100058Y0010578D01*
X0103741Y0010578D02*
X0103741Y0013881D01*
X0104842Y0012780D01*
X0105943Y0013881D01*
X0105943Y0010578D01*
X0102259Y0013331D02*
X0101709Y0013881D01*
X0100608Y0013881D01*
X0100058Y0013331D01*
X0100058Y0025539D02*
X0100058Y0028842D01*
X0101159Y0027741D01*
X0102259Y0028842D01*
X0102259Y0025539D01*
X0103741Y0026640D02*
X0103741Y0028842D01*
X0105943Y0028842D02*
X0105943Y0026640D01*
X0104842Y0025539D01*
X0103741Y0026640D01*
X0104685Y0035381D02*
X0104134Y0035932D01*
X0104134Y0037033D01*
X0105235Y0037033D01*
X0104134Y0038134D02*
X0104685Y0038684D01*
X0105786Y0038684D01*
X0106336Y0038134D01*
X0106336Y0035932D01*
X0105786Y0035381D01*
X0104685Y0035381D01*
X0102653Y0035381D02*
X0102653Y0038684D01*
X0100451Y0035381D01*
X0100451Y0038684D01*
X0098970Y0038684D02*
X0097319Y0038684D01*
X0096768Y0038134D01*
X0096768Y0035932D01*
X0097319Y0035381D01*
X0098970Y0035381D01*
X0098970Y0038684D01*
X0092951Y0047586D02*
X0092951Y0050889D01*
X0091299Y0050889D01*
X0090749Y0050339D01*
X0090749Y0049238D01*
X0091299Y0048687D01*
X0092951Y0048687D01*
X0091850Y0048687D02*
X0090749Y0047586D01*
X0089267Y0047586D02*
X0087066Y0049788D01*
X0087066Y0050339D01*
X0087616Y0050889D01*
X0088717Y0050889D01*
X0089267Y0050339D01*
X0089267Y0047586D02*
X0087066Y0047586D01*
X0102026Y0051130D02*
X0104228Y0051130D01*
X0103127Y0051130D02*
X0103127Y0054432D01*
X0104228Y0053331D01*
X0105709Y0054432D02*
X0105709Y0051130D01*
X0107911Y0051130D02*
X0107911Y0054432D01*
X0106810Y0053331D01*
X0105709Y0054432D01*
X0081533Y0063097D02*
X0080983Y0062547D01*
X0079882Y0062547D01*
X0079331Y0063097D01*
X0081533Y0063097D02*
X0081533Y0065299D01*
X0080983Y0065850D01*
X0079882Y0065850D01*
X0079331Y0065299D01*
X0077850Y0065299D02*
X0077300Y0065850D01*
X0076199Y0065850D01*
X0075648Y0065299D01*
X0075648Y0064749D01*
X0077850Y0062547D01*
X0075648Y0062547D01*
X0061454Y0062547D02*
X0061454Y0065850D01*
X0059803Y0065850D01*
X0059253Y0065299D01*
X0059253Y0064198D01*
X0059803Y0063648D01*
X0061454Y0063648D01*
X0060354Y0063648D02*
X0059253Y0062547D01*
X0057771Y0063097D02*
X0057221Y0062547D01*
X0056120Y0062547D01*
X0055569Y0063097D01*
X0055569Y0063648D01*
X0056120Y0064198D01*
X0056670Y0064198D01*
X0056120Y0064198D02*
X0055569Y0064749D01*
X0055569Y0065299D01*
X0056120Y0065850D01*
X0057221Y0065850D01*
X0057771Y0065299D01*
X0038620Y0060338D02*
X0038620Y0057035D01*
X0038620Y0058136D02*
X0036968Y0058136D01*
X0036418Y0058686D01*
X0036418Y0059787D01*
X0036968Y0060338D01*
X0038620Y0060338D01*
X0037519Y0058136D02*
X0036418Y0057035D01*
X0034937Y0058686D02*
X0032735Y0058686D01*
X0033285Y0057035D02*
X0033285Y0060338D01*
X0034937Y0058686D01*
D12*
X0049639Y0050307D02*
X0049639Y0046173D01*
X0049639Y0050307D02*
X0073261Y0050307D01*
X0073261Y0046173D01*
X0049639Y0025504D02*
X0049639Y0021961D01*
X0073261Y0021961D01*
X0073261Y0024913D01*
X0055545Y0024913D02*
X0055547Y0025010D01*
X0055553Y0025107D01*
X0055563Y0025203D01*
X0055577Y0025299D01*
X0055595Y0025395D01*
X0055616Y0025489D01*
X0055642Y0025583D01*
X0055671Y0025675D01*
X0055705Y0025766D01*
X0055741Y0025856D01*
X0055782Y0025944D01*
X0055826Y0026030D01*
X0055874Y0026115D01*
X0055925Y0026197D01*
X0055979Y0026278D01*
X0056037Y0026356D01*
X0056098Y0026431D01*
X0056161Y0026504D01*
X0056228Y0026575D01*
X0056298Y0026642D01*
X0056370Y0026707D01*
X0056445Y0026768D01*
X0056523Y0026827D01*
X0056602Y0026882D01*
X0056684Y0026934D01*
X0056768Y0026982D01*
X0056854Y0027027D01*
X0056942Y0027069D01*
X0057031Y0027107D01*
X0057122Y0027141D01*
X0057214Y0027171D01*
X0057307Y0027198D01*
X0057402Y0027220D01*
X0057497Y0027239D01*
X0057593Y0027254D01*
X0057689Y0027265D01*
X0057786Y0027272D01*
X0057883Y0027275D01*
X0057980Y0027274D01*
X0058077Y0027269D01*
X0058173Y0027260D01*
X0058269Y0027247D01*
X0058365Y0027230D01*
X0058460Y0027209D01*
X0058553Y0027185D01*
X0058646Y0027156D01*
X0058738Y0027124D01*
X0058828Y0027088D01*
X0058916Y0027049D01*
X0059003Y0027005D01*
X0059088Y0026959D01*
X0059171Y0026908D01*
X0059252Y0026855D01*
X0059330Y0026798D01*
X0059407Y0026738D01*
X0059480Y0026675D01*
X0059551Y0026609D01*
X0059619Y0026540D01*
X0059685Y0026468D01*
X0059747Y0026394D01*
X0059806Y0026317D01*
X0059862Y0026238D01*
X0059915Y0026156D01*
X0059965Y0026073D01*
X0060010Y0025987D01*
X0060053Y0025900D01*
X0060092Y0025811D01*
X0060127Y0025721D01*
X0060158Y0025629D01*
X0060185Y0025536D01*
X0060209Y0025442D01*
X0060229Y0025347D01*
X0060245Y0025251D01*
X0060257Y0025155D01*
X0060265Y0025058D01*
X0060269Y0024961D01*
X0060269Y0024865D01*
X0060265Y0024768D01*
X0060257Y0024671D01*
X0060245Y0024575D01*
X0060229Y0024479D01*
X0060209Y0024384D01*
X0060185Y0024290D01*
X0060158Y0024197D01*
X0060127Y0024105D01*
X0060092Y0024015D01*
X0060053Y0023926D01*
X0060010Y0023839D01*
X0059965Y0023753D01*
X0059915Y0023670D01*
X0059862Y0023588D01*
X0059806Y0023509D01*
X0059747Y0023432D01*
X0059685Y0023358D01*
X0059619Y0023286D01*
X0059551Y0023217D01*
X0059480Y0023151D01*
X0059407Y0023088D01*
X0059330Y0023028D01*
X0059252Y0022971D01*
X0059171Y0022918D01*
X0059088Y0022867D01*
X0059003Y0022821D01*
X0058916Y0022777D01*
X0058828Y0022738D01*
X0058738Y0022702D01*
X0058646Y0022670D01*
X0058553Y0022641D01*
X0058460Y0022617D01*
X0058365Y0022596D01*
X0058269Y0022579D01*
X0058173Y0022566D01*
X0058077Y0022557D01*
X0057980Y0022552D01*
X0057883Y0022551D01*
X0057786Y0022554D01*
X0057689Y0022561D01*
X0057593Y0022572D01*
X0057497Y0022587D01*
X0057402Y0022606D01*
X0057307Y0022628D01*
X0057214Y0022655D01*
X0057122Y0022685D01*
X0057031Y0022719D01*
X0056942Y0022757D01*
X0056854Y0022799D01*
X0056768Y0022844D01*
X0056684Y0022892D01*
X0056602Y0022944D01*
X0056523Y0022999D01*
X0056445Y0023058D01*
X0056370Y0023119D01*
X0056298Y0023184D01*
X0056228Y0023251D01*
X0056161Y0023322D01*
X0056098Y0023395D01*
X0056037Y0023470D01*
X0055979Y0023548D01*
X0055925Y0023629D01*
X0055874Y0023711D01*
X0055826Y0023796D01*
X0055782Y0023882D01*
X0055741Y0023970D01*
X0055705Y0024060D01*
X0055671Y0024151D01*
X0055642Y0024243D01*
X0055616Y0024337D01*
X0055595Y0024431D01*
X0055577Y0024527D01*
X0055563Y0024623D01*
X0055553Y0024719D01*
X0055547Y0024816D01*
X0055545Y0024913D01*
M02*
