%
M48
M72
T01C0.02362
T02C0.04000
%
T01
X29230Y13000
X42667Y15500
X43112Y8906
X23820Y21898
X38781Y25441
X57285Y29772
X61615Y29772
X61615Y34890
X57285Y34890
X57285Y39614
X61615Y39614
X73230Y47000
X73230Y51000
X84238Y56118
X99588Y66906
X94686Y43945
X94836Y39606
X94686Y29272
X94686Y24835
X72836Y22394
X72836Y18394
X97155Y8811
X38387Y42476
X34844Y52213
X47442Y52606
X37100Y62130
X63667Y63500
X23167Y39500
T02
X14167Y63000
X14167Y53000
X14167Y43000
X14167Y33000
X14167Y23000
X14167Y13000
X108167Y13000
X108167Y23000
X108167Y33000
X108167Y43000
X108167Y53000
X108167Y63000
M30
