G75*
%MOIN*%
%OFA0B0*%
%FSLAX25Y25*%
%IPPOS*%
%LPD*%
%AMOC8*
5,1,8,0,0,1.08239X$1,22.5*
%
%ADD10C,0.00000*%
%ADD11R,0.06699X0.11030*%
%ADD12R,0.05518X0.06306*%
%ADD13C,0.06400*%
%ADD14R,0.06325X0.03557*%
%ADD15R,0.10636X0.14180*%
%ADD16R,0.06306X0.04337*%
%ADD17R,0.04337X0.04731*%
D10*
X0001000Y0009960D02*
X0001000Y0065078D01*
X0099425Y0065078D01*
X0099425Y0009960D01*
X0001000Y0009960D01*
D11*
X0047260Y0017086D03*
X0058283Y0017086D03*
D12*
X0018480Y0058228D03*
X0011787Y0058228D03*
D13*
X0014000Y0048897D02*
X0008000Y0048897D01*
X0008000Y0038897D02*
X0014000Y0038897D01*
X0014000Y0028897D02*
X0008000Y0028897D01*
X0077409Y0045078D02*
X0083409Y0045078D01*
X0083409Y0055078D02*
X0077409Y0055078D01*
X0077646Y0035000D02*
X0083646Y0035000D01*
X0083646Y0025000D02*
X0077646Y0025000D01*
D14*
X0055941Y0029094D03*
X0055941Y0034094D03*
X0055941Y0039094D03*
X0055941Y0044094D03*
X0036276Y0044094D03*
X0036276Y0039094D03*
X0036276Y0034094D03*
X0036276Y0029094D03*
D15*
X0046118Y0036575D03*
D16*
X0064228Y0033976D03*
X0071630Y0033976D03*
D17*
X0029150Y0027677D03*
X0022457Y0027677D03*
X0022457Y0021378D03*
X0029150Y0021378D03*
X0019307Y0014291D03*
X0012614Y0014291D03*
M02*
