G75*
%MOIN*%
%OFA0B0*%
%FSLAX25Y25*%
%IPPOS*%
%LPD*%
%AMOC8*
5,1,8,0,0,1.08239X$1,22.5*
%
%ADD10C,0.00000*%
%ADD11R,0.06299X0.10630*%
%ADD12R,0.05118X0.05906*%
%ADD13C,0.06000*%
%ADD14R,0.05925X0.03157*%
%ADD15R,0.10236X0.13780*%
%ADD16R,0.05906X0.03937*%
%ADD17R,0.03937X0.04331*%
%ADD18C,0.01000*%
%ADD19C,0.03562*%
%ADD20C,0.04724*%
%ADD21C,0.03200*%
%ADD22C,0.01600*%
%ADD23R,0.03562X0.03562*%
D10*
X0001000Y0009431D02*
X0001000Y0064550D01*
X0099425Y0064550D01*
X0099425Y0009431D01*
X0001000Y0009431D01*
D11*
X0047260Y0016557D03*
X0058283Y0016557D03*
D12*
X0018480Y0057699D03*
X0011787Y0057699D03*
D13*
X0014000Y0048369D02*
X0008000Y0048369D01*
X0008000Y0038369D02*
X0014000Y0038369D01*
X0014000Y0028369D02*
X0008000Y0028369D01*
X0077016Y0042975D02*
X0083016Y0042975D01*
X0083646Y0034471D02*
X0077646Y0034471D01*
X0077646Y0024471D02*
X0083646Y0024471D01*
X0083016Y0052975D02*
X0077016Y0052975D01*
D14*
X0055941Y0043565D03*
X0055941Y0038565D03*
X0055941Y0033565D03*
X0055941Y0028565D03*
X0036276Y0028565D03*
X0036276Y0033565D03*
X0036276Y0038565D03*
X0036276Y0043565D03*
D15*
X0046118Y0036046D03*
D16*
X0064228Y0033447D03*
X0071630Y0033447D03*
D17*
X0029150Y0027148D03*
X0022457Y0027148D03*
X0022457Y0020849D03*
X0029150Y0020849D03*
X0019307Y0013762D03*
X0012614Y0013762D03*
D18*
X0009146Y0013426D02*
X0002575Y0013426D01*
X0002575Y0014424D02*
X0009146Y0014424D01*
X0009146Y0015423D02*
X0002575Y0015423D01*
X0002575Y0016421D02*
X0009146Y0016421D01*
X0009146Y0016549D02*
X0009146Y0011006D01*
X0002575Y0011006D01*
X0002575Y0063050D01*
X0097457Y0063050D01*
X0097457Y0036800D01*
X0097211Y0037139D01*
X0094903Y0038815D01*
X0093864Y0039153D01*
X0093864Y0044168D01*
X0093916Y0044357D01*
X0093864Y0044780D01*
X0093864Y0045206D01*
X0093789Y0045387D01*
X0093593Y0046971D01*
X0091885Y0050628D01*
X0089131Y0053577D01*
X0087193Y0054650D01*
X0086831Y0055524D01*
X0085565Y0056790D01*
X0085301Y0056899D01*
X0085331Y0057378D01*
X0085244Y0057476D01*
X0085237Y0057608D01*
X0084707Y0058085D01*
X0084235Y0058620D01*
X0084104Y0058628D01*
X0084006Y0058716D01*
X0083293Y0058679D01*
X0082581Y0058723D01*
X0082483Y0058636D01*
X0075960Y0058293D01*
X0075406Y0058410D01*
X0075162Y0058251D01*
X0074871Y0058236D01*
X0074492Y0057815D01*
X0058280Y0047258D01*
X0054896Y0047258D01*
X0054282Y0046644D01*
X0052357Y0046644D01*
X0051478Y0045765D01*
X0051478Y0041365D01*
X0051778Y0041065D01*
X0051478Y0040765D01*
X0051478Y0036365D01*
X0051778Y0036065D01*
X0051478Y0035765D01*
X0051478Y0031365D01*
X0051778Y0031065D01*
X0051478Y0030765D01*
X0051478Y0026365D01*
X0052357Y0025487D01*
X0056882Y0025487D01*
X0057453Y0025311D01*
X0053716Y0025311D01*
X0052837Y0024432D01*
X0052837Y0019627D01*
X0053634Y0018831D01*
X0053634Y0011006D01*
X0028297Y0011006D01*
X0028297Y0015771D01*
X0027418Y0016650D01*
X0022675Y0016650D01*
X0022141Y0017183D01*
X0025047Y0017183D01*
X0025925Y0018062D01*
X0025925Y0023635D01*
X0025562Y0023998D01*
X0025803Y0024239D01*
X0026560Y0023483D01*
X0030501Y0023483D01*
X0032040Y0022457D01*
X0031971Y0022289D01*
X0031971Y0020984D01*
X0032470Y0019778D01*
X0033393Y0018855D01*
X0034599Y0018355D01*
X0035905Y0018355D01*
X0037111Y0018855D01*
X0038034Y0019778D01*
X0038533Y0020984D01*
X0038533Y0022289D01*
X0038322Y0022799D01*
X0038329Y0023027D01*
X0038329Y0023027D01*
X0037763Y0023959D01*
X0037714Y0024203D01*
X0037547Y0024314D01*
X0037424Y0024516D01*
X0037424Y0024516D01*
X0036785Y0024822D01*
X0032618Y0027600D01*
X0032618Y0029935D01*
X0031739Y0030813D01*
X0026560Y0030813D01*
X0025803Y0030057D01*
X0025047Y0030813D01*
X0023772Y0030813D01*
X0023772Y0032889D01*
X0024685Y0031977D01*
X0026688Y0031147D01*
X0032031Y0031147D01*
X0032692Y0030487D01*
X0039860Y0030487D01*
X0040738Y0031365D01*
X0040738Y0035765D01*
X0040438Y0036065D01*
X0040738Y0036365D01*
X0040738Y0040765D01*
X0040438Y0041065D01*
X0040738Y0041365D01*
X0040738Y0045765D01*
X0039860Y0046644D01*
X0038576Y0046644D01*
X0038576Y0056211D01*
X0037228Y0057558D01*
X0036371Y0058416D01*
X0035024Y0059763D01*
X0033118Y0059763D01*
X0027811Y0054455D01*
X0028297Y0055629D01*
X0028297Y0056935D01*
X0027797Y0058140D01*
X0026874Y0059063D01*
X0025668Y0059563D01*
X0024363Y0059563D01*
X0023157Y0059063D01*
X0022795Y0058701D01*
X0022539Y0058785D01*
X0022539Y0061273D01*
X0021661Y0062152D01*
X0015300Y0062152D01*
X0014421Y0061273D01*
X0014421Y0054125D01*
X0015300Y0053246D01*
X0021661Y0053246D01*
X0022402Y0053988D01*
X0022801Y0053857D01*
X0023157Y0053500D01*
X0024363Y0053001D01*
X0025668Y0053001D01*
X0026842Y0053487D01*
X0017991Y0044636D01*
X0017991Y0040492D01*
X0017815Y0040918D01*
X0016549Y0042183D01*
X0014895Y0042868D01*
X0007105Y0042868D01*
X0005451Y0042183D01*
X0004185Y0040918D01*
X0003500Y0039264D01*
X0003500Y0037473D01*
X0004185Y0035819D01*
X0005451Y0034554D01*
X0007105Y0033869D01*
X0014895Y0033869D01*
X0016549Y0034554D01*
X0017815Y0035819D01*
X0017991Y0036245D01*
X0017991Y0031707D01*
X0019172Y0030526D01*
X0019172Y0030119D01*
X0018988Y0029935D01*
X0018988Y0024361D01*
X0019351Y0023998D01*
X0018988Y0023635D01*
X0018988Y0023149D01*
X0018214Y0023149D01*
X0015386Y0022230D01*
X0012981Y0020482D01*
X0012981Y0020482D01*
X0011233Y0018077D01*
X0011233Y0018077D01*
X0011022Y0017428D01*
X0010024Y0017428D01*
X0009146Y0016549D01*
X0010016Y0017420D02*
X0002575Y0017420D01*
X0002575Y0018418D02*
X0011481Y0018418D01*
X0012206Y0019417D02*
X0002575Y0019417D01*
X0002575Y0020415D02*
X0012932Y0020415D01*
X0014263Y0021414D02*
X0002575Y0021414D01*
X0002575Y0022412D02*
X0015947Y0022412D01*
X0015386Y0022230D02*
X0015386Y0022230D01*
X0014895Y0023869D02*
X0016549Y0024554D01*
X0017815Y0025819D01*
X0018500Y0027473D01*
X0018500Y0029264D01*
X0017815Y0030918D01*
X0016549Y0032183D01*
X0014895Y0032868D01*
X0007105Y0032868D01*
X0005451Y0032183D01*
X0004185Y0030918D01*
X0003500Y0029264D01*
X0003500Y0027473D01*
X0004185Y0025819D01*
X0005451Y0024554D01*
X0007105Y0023869D01*
X0014895Y0023869D01*
X0016200Y0024409D02*
X0018988Y0024409D01*
X0018988Y0025408D02*
X0017403Y0025408D01*
X0018058Y0026406D02*
X0018988Y0026406D01*
X0018988Y0027405D02*
X0018472Y0027405D01*
X0018500Y0028403D02*
X0018988Y0028403D01*
X0018988Y0029402D02*
X0018443Y0029402D01*
X0018029Y0030400D02*
X0019172Y0030400D01*
X0018300Y0031399D02*
X0017334Y0031399D01*
X0017991Y0032397D02*
X0016033Y0032397D01*
X0017991Y0033396D02*
X0002575Y0033396D01*
X0002575Y0032397D02*
X0005967Y0032397D01*
X0004666Y0031399D02*
X0002575Y0031399D01*
X0002575Y0030400D02*
X0003971Y0030400D01*
X0003557Y0029402D02*
X0002575Y0029402D01*
X0002575Y0028403D02*
X0003500Y0028403D01*
X0003528Y0027405D02*
X0002575Y0027405D01*
X0002575Y0026406D02*
X0003942Y0026406D01*
X0004597Y0025408D02*
X0002575Y0025408D01*
X0002575Y0024409D02*
X0005800Y0024409D01*
X0002575Y0023411D02*
X0018988Y0023411D01*
X0025925Y0023411D02*
X0030609Y0023411D01*
X0032022Y0022412D02*
X0025925Y0022412D01*
X0025925Y0021414D02*
X0031971Y0021414D01*
X0032206Y0020415D02*
X0025925Y0020415D01*
X0025925Y0019417D02*
X0032831Y0019417D01*
X0034447Y0018418D02*
X0025925Y0018418D01*
X0025283Y0017420D02*
X0053634Y0017420D01*
X0053634Y0016421D02*
X0027647Y0016421D01*
X0028297Y0015423D02*
X0053634Y0015423D01*
X0053634Y0014424D02*
X0028297Y0014424D01*
X0028297Y0013426D02*
X0053634Y0013426D01*
X0053634Y0012427D02*
X0028297Y0012427D01*
X0028297Y0011429D02*
X0053634Y0011429D01*
X0058283Y0016557D02*
X0061630Y0016951D01*
X0061630Y0015731D01*
X0062933Y0012631D02*
X0080642Y0012631D01*
X0082222Y0012343D01*
X0085958Y0012848D01*
X0089356Y0014483D01*
X0092082Y0017088D01*
X0093710Y0020111D01*
X0094447Y0020111D01*
X0096889Y0021122D01*
X0096889Y0021122D01*
X0097457Y0021690D01*
X0097457Y0011006D01*
X0062933Y0011006D01*
X0062933Y0012631D01*
X0062933Y0012427D02*
X0081762Y0012427D01*
X0082222Y0012343D02*
X0082222Y0012343D01*
X0082840Y0012427D02*
X0097457Y0012427D01*
X0097457Y0011429D02*
X0062933Y0011429D01*
X0053634Y0018418D02*
X0036057Y0018418D01*
X0037673Y0019417D02*
X0053048Y0019417D01*
X0052837Y0020415D02*
X0038298Y0020415D01*
X0038533Y0021414D02*
X0052837Y0021414D01*
X0052837Y0022412D02*
X0038482Y0022412D01*
X0038096Y0023411D02*
X0052837Y0023411D01*
X0052837Y0024409D02*
X0037489Y0024409D01*
X0037424Y0024516D02*
X0037424Y0024516D01*
X0035906Y0025408D02*
X0057139Y0025408D01*
X0058995Y0024837D02*
X0075031Y0019902D01*
X0075174Y0019729D01*
X0075799Y0019666D01*
X0076400Y0019481D01*
X0076599Y0019586D01*
X0079224Y0019323D01*
X0079305Y0019243D01*
X0080034Y0019243D01*
X0080759Y0019170D01*
X0080848Y0019243D01*
X0080962Y0019243D01*
X0081478Y0019758D01*
X0081738Y0019971D01*
X0084541Y0019971D01*
X0086195Y0020656D01*
X0087461Y0021922D01*
X0088144Y0023571D01*
X0088112Y0023395D01*
X0088106Y0023366D01*
X0087879Y0022507D01*
X0087033Y0020936D01*
X0085742Y0019703D01*
X0084135Y0018929D01*
X0082366Y0018690D01*
X0081718Y0018756D01*
X0081538Y0018831D01*
X0081201Y0018831D01*
X0080869Y0018891D01*
X0080590Y0018831D01*
X0062933Y0018831D01*
X0062933Y0022494D01*
X0062054Y0023372D01*
X0059399Y0023372D01*
X0059399Y0024432D01*
X0058995Y0024837D01*
X0059399Y0024409D02*
X0060384Y0024409D01*
X0059399Y0023411D02*
X0063629Y0023411D01*
X0062933Y0022412D02*
X0066874Y0022412D01*
X0067185Y0024409D02*
X0080134Y0024409D01*
X0080134Y0025408D02*
X0063940Y0025408D01*
X0060694Y0026406D02*
X0080134Y0026406D01*
X0080134Y0026754D02*
X0080134Y0021243D01*
X0076197Y0021636D01*
X0055724Y0027935D01*
X0055724Y0029904D01*
X0058874Y0029904D01*
X0062024Y0029117D01*
X0076984Y0026754D01*
X0080134Y0026754D01*
X0076751Y0028971D02*
X0076480Y0028859D01*
X0068018Y0030195D01*
X0068681Y0030857D01*
X0068681Y0036037D01*
X0068188Y0036530D01*
X0076938Y0038475D01*
X0083911Y0038475D01*
X0085565Y0039160D01*
X0086831Y0040426D01*
X0087516Y0042080D01*
X0087516Y0043870D01*
X0086831Y0045524D01*
X0085565Y0046790D01*
X0084496Y0047232D01*
X0084496Y0047661D01*
X0083750Y0048408D01*
X0083817Y0048475D01*
X0083911Y0048475D01*
X0084751Y0048823D01*
X0085220Y0048564D01*
X0086616Y0047068D01*
X0087482Y0045215D01*
X0087664Y0044324D01*
X0087664Y0038959D01*
X0087490Y0038785D01*
X0086902Y0037365D01*
X0086902Y0035829D01*
X0087490Y0034409D01*
X0088576Y0033323D01*
X0089996Y0032735D01*
X0091532Y0032735D01*
X0092254Y0033034D01*
X0092748Y0032675D01*
X0093264Y0031965D01*
X0093535Y0031130D01*
X0093569Y0030691D01*
X0093569Y0026754D01*
X0093561Y0026668D01*
X0093495Y0026508D01*
X0093372Y0026386D01*
X0093269Y0026343D01*
X0093123Y0026372D01*
X0092819Y0026311D01*
X0092509Y0026311D01*
X0092220Y0026191D01*
X0091130Y0025973D01*
X0091105Y0025978D01*
X0090526Y0025852D01*
X0089945Y0025736D01*
X0089924Y0025722D01*
X0089900Y0025717D01*
X0089413Y0025380D01*
X0088920Y0025050D01*
X0088906Y0025029D01*
X0088886Y0025015D01*
X0088565Y0024517D01*
X0088236Y0024024D01*
X0088231Y0023999D01*
X0088218Y0023979D01*
X0088146Y0023582D01*
X0088146Y0025366D01*
X0087461Y0027020D01*
X0086195Y0028286D01*
X0084541Y0028971D01*
X0076751Y0028971D01*
X0073041Y0029402D02*
X0093569Y0029402D01*
X0093569Y0030400D02*
X0068224Y0030400D01*
X0068681Y0031399D02*
X0093447Y0031399D01*
X0092949Y0032397D02*
X0068681Y0032397D01*
X0068681Y0033396D02*
X0088503Y0033396D01*
X0087504Y0034394D02*
X0068681Y0034394D01*
X0068681Y0035393D02*
X0087082Y0035393D01*
X0086902Y0036391D02*
X0068327Y0036391D01*
X0067329Y0038388D02*
X0056512Y0038388D01*
X0056512Y0039387D02*
X0071823Y0039387D01*
X0072056Y0037390D02*
X0086912Y0037390D01*
X0087325Y0038388D02*
X0076549Y0038388D01*
X0076316Y0040385D02*
X0060755Y0040385D01*
X0058874Y0039746D02*
X0056512Y0039746D01*
X0056512Y0037384D01*
X0062811Y0037384D01*
X0076984Y0040534D01*
X0082496Y0040928D01*
X0082496Y0046833D01*
X0079740Y0046833D01*
X0058874Y0039746D01*
X0058874Y0042502D02*
X0055724Y0042502D01*
X0055724Y0045258D01*
X0058874Y0045258D01*
X0075803Y0056282D01*
X0083283Y0056676D01*
X0082890Y0050376D01*
X0076984Y0050376D01*
X0058874Y0042502D01*
X0060895Y0043381D02*
X0055724Y0043381D01*
X0055724Y0044379D02*
X0063191Y0044379D01*
X0065488Y0045378D02*
X0059058Y0045378D01*
X0060591Y0046376D02*
X0067784Y0046376D01*
X0070081Y0047375D02*
X0062125Y0047375D01*
X0063658Y0048373D02*
X0072377Y0048373D01*
X0074674Y0049372D02*
X0065191Y0049372D01*
X0066725Y0050370D02*
X0076971Y0050370D01*
X0072859Y0054365D02*
X0083139Y0054365D01*
X0083201Y0055363D02*
X0074392Y0055363D01*
X0077316Y0056362D02*
X0083264Y0056362D01*
X0085330Y0057360D02*
X0097457Y0057360D01*
X0097457Y0058359D02*
X0084466Y0058359D01*
X0085993Y0056362D02*
X0097457Y0056362D01*
X0097457Y0055363D02*
X0086897Y0055363D01*
X0087709Y0054365D02*
X0097457Y0054365D01*
X0097457Y0053366D02*
X0089328Y0053366D01*
X0089131Y0053577D02*
X0089131Y0053577D01*
X0089131Y0053577D01*
X0090261Y0052367D02*
X0097457Y0052367D01*
X0097457Y0051369D02*
X0091193Y0051369D01*
X0092005Y0050370D02*
X0097457Y0050370D01*
X0097457Y0049372D02*
X0092472Y0049372D01*
X0092938Y0048373D02*
X0097457Y0048373D01*
X0097457Y0047375D02*
X0093405Y0047375D01*
X0093667Y0046376D02*
X0097457Y0046376D01*
X0097457Y0045378D02*
X0093792Y0045378D01*
X0093913Y0044379D02*
X0097457Y0044379D01*
X0097457Y0043381D02*
X0093864Y0043381D01*
X0093864Y0042382D02*
X0097457Y0042382D01*
X0097457Y0041384D02*
X0093864Y0041384D01*
X0093864Y0040385D02*
X0097457Y0040385D01*
X0097457Y0039387D02*
X0093864Y0039387D01*
X0094903Y0038815D02*
X0094903Y0038815D01*
X0095491Y0038388D02*
X0097457Y0038388D01*
X0097457Y0037390D02*
X0096865Y0037390D01*
X0097211Y0037139D02*
X0097211Y0037139D01*
X0097211Y0037139D01*
X0087664Y0039387D02*
X0085792Y0039387D01*
X0086790Y0040385D02*
X0087664Y0040385D01*
X0087664Y0041384D02*
X0087228Y0041384D01*
X0087516Y0042382D02*
X0087664Y0042382D01*
X0087664Y0043381D02*
X0087516Y0043381D01*
X0087652Y0044379D02*
X0087305Y0044379D01*
X0087406Y0045378D02*
X0086891Y0045378D01*
X0086939Y0046376D02*
X0085978Y0046376D01*
X0086330Y0047375D02*
X0084496Y0047375D01*
X0083784Y0048373D02*
X0085397Y0048373D01*
X0082496Y0046376D02*
X0078396Y0046376D01*
X0075455Y0045378D02*
X0082496Y0045378D01*
X0082496Y0044379D02*
X0072515Y0044379D01*
X0069575Y0043381D02*
X0082496Y0043381D01*
X0082496Y0042382D02*
X0066635Y0042382D01*
X0063695Y0041384D02*
X0082496Y0041384D01*
X0082952Y0051369D02*
X0068258Y0051369D01*
X0069792Y0052367D02*
X0083014Y0052367D01*
X0083077Y0053366D02*
X0071325Y0053366D01*
X0070727Y0055363D02*
X0038576Y0055363D01*
X0038425Y0056362D02*
X0072260Y0056362D01*
X0073794Y0057360D02*
X0037426Y0057360D01*
X0037228Y0057558D02*
X0037228Y0057558D01*
X0036428Y0058359D02*
X0075327Y0058359D01*
X0075649Y0058359D02*
X0077208Y0058359D01*
X0069193Y0054365D02*
X0038576Y0054365D01*
X0038576Y0053366D02*
X0067660Y0053366D01*
X0066127Y0052367D02*
X0038576Y0052367D01*
X0038576Y0051369D02*
X0064593Y0051369D01*
X0063060Y0050370D02*
X0038576Y0050370D01*
X0038576Y0049372D02*
X0061526Y0049372D01*
X0059993Y0048373D02*
X0038576Y0048373D01*
X0038576Y0047375D02*
X0058459Y0047375D01*
X0052089Y0046376D02*
X0040127Y0046376D01*
X0040738Y0045378D02*
X0051478Y0045378D01*
X0051478Y0044379D02*
X0040738Y0044379D01*
X0040738Y0043381D02*
X0051478Y0043381D01*
X0051478Y0042382D02*
X0040738Y0042382D01*
X0040738Y0041384D02*
X0051478Y0041384D01*
X0051478Y0040385D02*
X0040738Y0040385D01*
X0040738Y0039387D02*
X0051478Y0039387D01*
X0051478Y0038388D02*
X0040738Y0038388D01*
X0040738Y0037390D02*
X0051478Y0037390D01*
X0051478Y0036391D02*
X0040738Y0036391D01*
X0040738Y0035393D02*
X0051478Y0035393D01*
X0051478Y0034394D02*
X0040738Y0034394D01*
X0040738Y0033396D02*
X0051478Y0033396D01*
X0051478Y0032397D02*
X0040738Y0032397D01*
X0040738Y0031399D02*
X0051478Y0031399D01*
X0051478Y0030400D02*
X0032153Y0030400D01*
X0032618Y0029402D02*
X0051478Y0029402D01*
X0051478Y0028403D02*
X0032618Y0028403D01*
X0032911Y0027405D02*
X0051478Y0027405D01*
X0051478Y0026406D02*
X0034409Y0026406D01*
X0026147Y0030400D02*
X0025460Y0030400D01*
X0026080Y0031399D02*
X0023772Y0031399D01*
X0023772Y0032397D02*
X0024264Y0032397D01*
X0024685Y0031977D02*
X0024685Y0031977D01*
X0017991Y0034394D02*
X0016164Y0034394D01*
X0017388Y0035393D02*
X0017991Y0035393D01*
X0017991Y0041384D02*
X0017349Y0041384D01*
X0017991Y0042382D02*
X0016069Y0042382D01*
X0017991Y0043381D02*
X0002575Y0043381D01*
X0002575Y0044379D02*
X0017991Y0044379D01*
X0018733Y0045378D02*
X0002575Y0045378D01*
X0002575Y0046376D02*
X0019732Y0046376D01*
X0020730Y0047375D02*
X0002575Y0047375D01*
X0002575Y0048373D02*
X0021729Y0048373D01*
X0022727Y0049372D02*
X0002575Y0049372D01*
X0002575Y0050370D02*
X0023726Y0050370D01*
X0024724Y0051369D02*
X0002575Y0051369D01*
X0002575Y0052367D02*
X0025723Y0052367D01*
X0026550Y0053366D02*
X0026721Y0053366D01*
X0028187Y0055363D02*
X0028718Y0055363D01*
X0028297Y0056362D02*
X0029717Y0056362D01*
X0030715Y0057360D02*
X0028121Y0057360D01*
X0027579Y0058359D02*
X0031714Y0058359D01*
X0032712Y0059357D02*
X0026166Y0059357D01*
X0023866Y0059357D02*
X0022539Y0059357D01*
X0022539Y0060356D02*
X0097457Y0060356D01*
X0097457Y0059357D02*
X0035429Y0059357D01*
X0036371Y0058416D02*
X0036371Y0058416D01*
X0023481Y0053366D02*
X0021780Y0053366D01*
X0015180Y0053366D02*
X0002575Y0053366D01*
X0002575Y0054365D02*
X0014421Y0054365D01*
X0014421Y0055363D02*
X0002575Y0055363D01*
X0002575Y0056362D02*
X0014421Y0056362D01*
X0014421Y0057360D02*
X0002575Y0057360D01*
X0002575Y0058359D02*
X0014421Y0058359D01*
X0014421Y0059357D02*
X0002575Y0059357D01*
X0002575Y0060356D02*
X0014421Y0060356D01*
X0014502Y0061354D02*
X0002575Y0061354D01*
X0002575Y0062353D02*
X0097457Y0062353D01*
X0097457Y0061354D02*
X0022459Y0061354D01*
X0005931Y0042382D02*
X0002575Y0042382D01*
X0002575Y0041384D02*
X0004651Y0041384D01*
X0003965Y0040385D02*
X0002575Y0040385D01*
X0002575Y0039387D02*
X0003551Y0039387D01*
X0003500Y0038388D02*
X0002575Y0038388D01*
X0002575Y0037390D02*
X0003535Y0037390D01*
X0003948Y0036391D02*
X0002575Y0036391D01*
X0002575Y0035393D02*
X0004612Y0035393D01*
X0005836Y0034394D02*
X0002575Y0034394D01*
X0002575Y0012427D02*
X0009146Y0012427D01*
X0009146Y0011429D02*
X0002575Y0011429D01*
X0055724Y0028403D02*
X0066541Y0028403D01*
X0063598Y0032266D02*
X0063598Y0035022D01*
X0055724Y0035022D01*
X0055724Y0032266D01*
X0063598Y0032266D01*
X0063598Y0032397D02*
X0055724Y0032397D01*
X0055724Y0033396D02*
X0063598Y0033396D01*
X0063598Y0034394D02*
X0055724Y0034394D01*
X0056512Y0037390D02*
X0062836Y0037390D01*
X0060883Y0029402D02*
X0055724Y0029402D01*
X0057449Y0027405D02*
X0072865Y0027405D01*
X0070430Y0023411D02*
X0080134Y0023411D01*
X0080134Y0022412D02*
X0073675Y0022412D01*
X0073365Y0020415D02*
X0062933Y0020415D01*
X0062933Y0021414D02*
X0070120Y0021414D01*
X0062933Y0019417D02*
X0078293Y0019417D01*
X0078423Y0021414D02*
X0080134Y0021414D01*
X0081136Y0019417D02*
X0085148Y0019417D01*
X0085613Y0020415D02*
X0086488Y0020415D01*
X0086952Y0021414D02*
X0087290Y0021414D01*
X0087664Y0022412D02*
X0087828Y0022412D01*
X0088077Y0023411D02*
X0088115Y0023411D01*
X0088146Y0024409D02*
X0088493Y0024409D01*
X0088128Y0025408D02*
X0089453Y0025408D01*
X0087715Y0026406D02*
X0093393Y0026406D01*
X0093569Y0027405D02*
X0087076Y0027405D01*
X0085911Y0028403D02*
X0093569Y0028403D01*
X0097180Y0021414D02*
X0097457Y0021414D01*
X0097457Y0020415D02*
X0095182Y0020415D01*
X0093336Y0019417D02*
X0097457Y0019417D01*
X0097457Y0018418D02*
X0092799Y0018418D01*
X0092261Y0017420D02*
X0097457Y0017420D01*
X0097457Y0016421D02*
X0091384Y0016421D01*
X0092082Y0017088D02*
X0092082Y0017088D01*
X0090339Y0015423D02*
X0097457Y0015423D01*
X0097457Y0014424D02*
X0089233Y0014424D01*
X0089356Y0014483D02*
X0089356Y0014483D01*
X0087158Y0013426D02*
X0097457Y0013426D01*
X0085958Y0012848D02*
X0085958Y0012848D01*
D19*
X0093913Y0014156D03*
X0065961Y0021243D03*
X0048244Y0019668D03*
X0048244Y0013762D03*
X0035252Y0021636D03*
X0045488Y0031085D03*
X0043913Y0036203D03*
X0049031Y0036203D03*
X0049031Y0040534D03*
X0043913Y0040534D03*
X0031709Y0048802D03*
X0025016Y0056282D03*
X0005724Y0057857D03*
X0024622Y0039353D03*
X0006118Y0015731D03*
X0091551Y0058644D03*
D20*
X0090764Y0036597D03*
X0089583Y0029510D03*
D21*
X0096670Y0030691D02*
X0096668Y0030843D01*
X0096662Y0030995D01*
X0096652Y0031147D01*
X0096639Y0031298D01*
X0096621Y0031449D01*
X0096600Y0031600D01*
X0096574Y0031750D01*
X0096545Y0031899D01*
X0096512Y0032048D01*
X0096475Y0032195D01*
X0096435Y0032342D01*
X0096390Y0032487D01*
X0096342Y0032631D01*
X0096290Y0032774D01*
X0096235Y0032916D01*
X0096176Y0033056D01*
X0096113Y0033195D01*
X0096047Y0033332D01*
X0095977Y0033467D01*
X0095904Y0033600D01*
X0095827Y0033731D01*
X0095747Y0033861D01*
X0095664Y0033988D01*
X0095578Y0034113D01*
X0095488Y0034236D01*
X0095395Y0034356D01*
X0095299Y0034474D01*
X0095200Y0034590D01*
X0095098Y0034703D01*
X0094994Y0034813D01*
X0094886Y0034921D01*
X0094776Y0035025D01*
X0094663Y0035127D01*
X0094547Y0035226D01*
X0094429Y0035322D01*
X0094309Y0035415D01*
X0094186Y0035505D01*
X0094061Y0035591D01*
X0093934Y0035674D01*
X0093804Y0035754D01*
X0093673Y0035831D01*
X0093540Y0035904D01*
X0093405Y0035974D01*
X0093268Y0036040D01*
X0093129Y0036103D01*
X0092989Y0036162D01*
X0092847Y0036217D01*
X0092704Y0036269D01*
X0092560Y0036317D01*
X0092415Y0036362D01*
X0092268Y0036402D01*
X0092121Y0036439D01*
X0091972Y0036472D01*
X0091823Y0036501D01*
X0091673Y0036527D01*
X0091522Y0036548D01*
X0091371Y0036566D01*
X0091220Y0036579D01*
X0091068Y0036589D01*
X0090916Y0036595D01*
X0090764Y0036597D01*
X0090764Y0044589D01*
X0090733Y0044820D01*
X0090696Y0045050D01*
X0090654Y0045279D01*
X0090606Y0045507D01*
X0090552Y0045734D01*
X0090493Y0045959D01*
X0090429Y0046183D01*
X0090359Y0046405D01*
X0090284Y0046626D01*
X0090204Y0046844D01*
X0090118Y0047061D01*
X0090027Y0047276D01*
X0089931Y0047488D01*
X0089830Y0047698D01*
X0089724Y0047905D01*
X0089613Y0048110D01*
X0089497Y0048312D01*
X0089376Y0048511D01*
X0089250Y0048707D01*
X0089120Y0048900D01*
X0088985Y0049090D01*
X0088845Y0049276D01*
X0088701Y0049459D01*
X0088553Y0049639D01*
X0088400Y0049815D01*
X0088243Y0049987D01*
X0088082Y0050155D01*
X0087917Y0050320D01*
X0087748Y0050480D01*
X0087575Y0050636D01*
X0087398Y0050788D01*
X0087218Y0050936D01*
X0087035Y0051079D01*
X0086848Y0051218D01*
X0086657Y0051353D01*
X0086464Y0051482D01*
X0086267Y0051607D01*
X0086067Y0051727D01*
X0085865Y0051842D01*
X0085660Y0051953D01*
X0085452Y0052058D01*
X0085242Y0052158D01*
X0085029Y0052254D01*
X0084814Y0052344D01*
X0084597Y0052428D01*
X0084378Y0052508D01*
X0084158Y0052582D01*
X0083935Y0052651D01*
X0083711Y0052714D01*
X0083485Y0052772D01*
X0083258Y0052825D01*
X0083030Y0052872D01*
X0082801Y0052914D01*
X0082571Y0052950D01*
X0082340Y0052980D01*
X0082108Y0053005D01*
X0081876Y0053024D01*
X0081643Y0053038D01*
X0081411Y0053046D01*
X0081178Y0053048D01*
X0080945Y0053045D01*
X0080712Y0053036D01*
X0080479Y0053021D01*
X0080247Y0053001D01*
X0080016Y0052975D01*
X0096669Y0030691D02*
X0096669Y0026754D01*
X0096667Y0026638D01*
X0096661Y0026522D01*
X0096652Y0026407D01*
X0096639Y0026292D01*
X0096622Y0026177D01*
X0096601Y0026063D01*
X0096576Y0025949D01*
X0096548Y0025837D01*
X0096516Y0025726D01*
X0096481Y0025615D01*
X0096442Y0025506D01*
X0096399Y0025398D01*
X0096353Y0025292D01*
X0096304Y0025187D01*
X0096251Y0025084D01*
X0096194Y0024983D01*
X0096135Y0024883D01*
X0096072Y0024786D01*
X0096006Y0024690D01*
X0095937Y0024597D01*
X0095865Y0024506D01*
X0095790Y0024418D01*
X0095712Y0024332D01*
X0095631Y0024249D01*
X0095548Y0024168D01*
X0095462Y0024090D01*
X0095374Y0024015D01*
X0095283Y0023943D01*
X0095190Y0023874D01*
X0095094Y0023808D01*
X0094997Y0023745D01*
X0094898Y0023686D01*
X0094796Y0023629D01*
X0094693Y0023576D01*
X0094588Y0023527D01*
X0094482Y0023481D01*
X0094374Y0023438D01*
X0094265Y0023399D01*
X0094154Y0023364D01*
X0094043Y0023332D01*
X0093931Y0023304D01*
X0093817Y0023279D01*
X0093703Y0023258D01*
X0093588Y0023241D01*
X0093473Y0023228D01*
X0093358Y0023219D01*
X0093242Y0023213D01*
X0093126Y0023211D01*
X0091157Y0022817D01*
X0091116Y0022608D01*
X0091071Y0022401D01*
X0091020Y0022194D01*
X0090965Y0021989D01*
X0090904Y0021785D01*
X0090839Y0021582D01*
X0090768Y0021382D01*
X0090693Y0021183D01*
X0090613Y0020985D01*
X0090528Y0020790D01*
X0090439Y0020597D01*
X0090345Y0020406D01*
X0090246Y0020218D01*
X0090143Y0020032D01*
X0090036Y0019848D01*
X0089924Y0019668D01*
X0089807Y0019489D01*
X0089687Y0019314D01*
X0089562Y0019142D01*
X0089433Y0018973D01*
X0089300Y0018807D01*
X0089163Y0018644D01*
X0089022Y0018484D01*
X0088878Y0018328D01*
X0088729Y0018176D01*
X0088577Y0018027D01*
X0088422Y0017882D01*
X0088263Y0017741D01*
X0088100Y0017603D01*
X0087935Y0017470D01*
X0087766Y0017341D01*
X0087594Y0017215D01*
X0087419Y0017094D01*
X0087241Y0016977D01*
X0087061Y0016865D01*
X0086877Y0016757D01*
X0086692Y0016653D01*
X0086503Y0016554D01*
X0086313Y0016459D01*
X0086120Y0016370D01*
X0085925Y0016284D01*
X0085728Y0016204D01*
X0085529Y0016128D01*
X0085329Y0016057D01*
X0085127Y0015991D01*
X0084923Y0015930D01*
X0084718Y0015874D01*
X0084511Y0015823D01*
X0084304Y0015777D01*
X0084095Y0015735D01*
X0083885Y0015699D01*
X0083675Y0015668D01*
X0083464Y0015642D01*
X0083252Y0015622D01*
X0083040Y0015606D01*
X0082827Y0015595D01*
X0082615Y0015590D01*
X0082402Y0015590D01*
X0082189Y0015594D01*
X0081977Y0015604D01*
X0081765Y0015619D01*
X0081553Y0015640D01*
X0081342Y0015665D01*
X0081131Y0015695D01*
X0080921Y0015731D01*
X0061630Y0015731D01*
D22*
X0058283Y0016557D02*
X0056118Y0016557D01*
X0056118Y0022030D01*
X0035646Y0022817D02*
X0029150Y0027148D01*
X0022457Y0027148D02*
X0021472Y0028329D01*
X0021472Y0032660D01*
X0020291Y0032660D01*
X0020291Y0043683D01*
X0034071Y0057463D01*
X0036276Y0055258D01*
X0036276Y0043565D01*
X0031709Y0039746D02*
X0031711Y0039680D01*
X0031716Y0039614D01*
X0031726Y0039548D01*
X0031739Y0039483D01*
X0031755Y0039419D01*
X0031775Y0039356D01*
X0031799Y0039294D01*
X0031826Y0039234D01*
X0031856Y0039175D01*
X0031890Y0039118D01*
X0031927Y0039063D01*
X0031967Y0039010D01*
X0032009Y0038959D01*
X0032055Y0038911D01*
X0032103Y0038865D01*
X0032154Y0038823D01*
X0032207Y0038783D01*
X0032262Y0038746D01*
X0032319Y0038712D01*
X0032378Y0038682D01*
X0032438Y0038655D01*
X0032500Y0038631D01*
X0032563Y0038611D01*
X0032627Y0038595D01*
X0032692Y0038582D01*
X0032758Y0038572D01*
X0032824Y0038567D01*
X0032890Y0038565D01*
X0036276Y0038565D01*
X0031709Y0039746D02*
X0031709Y0048802D01*
X0024465Y0055731D02*
X0024467Y0055777D01*
X0024473Y0055822D01*
X0024482Y0055866D01*
X0024495Y0055910D01*
X0024511Y0055952D01*
X0024531Y0055993D01*
X0024555Y0056032D01*
X0024581Y0056069D01*
X0024611Y0056104D01*
X0024643Y0056136D01*
X0024678Y0056166D01*
X0024715Y0056192D01*
X0024754Y0056216D01*
X0024795Y0056236D01*
X0024837Y0056252D01*
X0024881Y0056265D01*
X0024925Y0056274D01*
X0024970Y0056280D01*
X0025016Y0056282D01*
X0024465Y0055731D02*
X0018480Y0057699D01*
X0024622Y0039353D02*
X0024622Y0036597D01*
X0024624Y0036487D01*
X0024630Y0036377D01*
X0024639Y0036268D01*
X0024653Y0036159D01*
X0024670Y0036050D01*
X0024691Y0035942D01*
X0024716Y0035835D01*
X0024744Y0035729D01*
X0024776Y0035624D01*
X0024812Y0035520D01*
X0024851Y0035417D01*
X0024894Y0035316D01*
X0024941Y0035216D01*
X0024991Y0035118D01*
X0025044Y0035022D01*
X0025101Y0034928D01*
X0025161Y0034836D01*
X0025224Y0034745D01*
X0025290Y0034658D01*
X0025359Y0034572D01*
X0025431Y0034489D01*
X0025506Y0034409D01*
X0025584Y0034331D01*
X0025664Y0034256D01*
X0025747Y0034184D01*
X0025833Y0034115D01*
X0025920Y0034049D01*
X0026011Y0033986D01*
X0026103Y0033926D01*
X0026197Y0033869D01*
X0026293Y0033816D01*
X0026391Y0033766D01*
X0026491Y0033719D01*
X0026592Y0033676D01*
X0026695Y0033637D01*
X0026799Y0033601D01*
X0026904Y0033569D01*
X0027010Y0033541D01*
X0027117Y0033516D01*
X0027225Y0033495D01*
X0027334Y0033478D01*
X0027443Y0033464D01*
X0027552Y0033455D01*
X0027662Y0033449D01*
X0027772Y0033447D01*
X0036157Y0033447D01*
X0036177Y0033449D01*
X0036197Y0033454D01*
X0036216Y0033463D01*
X0036233Y0033475D01*
X0036247Y0033489D01*
X0036259Y0033506D01*
X0036268Y0033525D01*
X0036273Y0033545D01*
X0036275Y0033565D01*
X0022457Y0027148D02*
X0022457Y0020849D01*
X0019701Y0020849D01*
X0019530Y0020847D01*
X0019359Y0020841D01*
X0019188Y0020830D01*
X0019017Y0020816D01*
X0018847Y0020797D01*
X0018677Y0020775D01*
X0018508Y0020748D01*
X0018339Y0020717D01*
X0018172Y0020682D01*
X0018005Y0020643D01*
X0017839Y0020600D01*
X0017675Y0020553D01*
X0017511Y0020502D01*
X0017349Y0020447D01*
X0017188Y0020388D01*
X0017029Y0020326D01*
X0016871Y0020259D01*
X0016715Y0020189D01*
X0016560Y0020115D01*
X0016408Y0020037D01*
X0016257Y0019956D01*
X0016108Y0019871D01*
X0015962Y0019782D01*
X0015817Y0019690D01*
X0015675Y0019594D01*
X0015535Y0019496D01*
X0015398Y0019393D01*
X0015263Y0019288D01*
X0015131Y0019179D01*
X0015001Y0019067D01*
X0014875Y0018952D01*
X0014751Y0018833D01*
X0014630Y0018712D01*
X0014511Y0018588D01*
X0014396Y0018462D01*
X0014284Y0018332D01*
X0014175Y0018200D01*
X0014070Y0018065D01*
X0013967Y0017928D01*
X0013869Y0017788D01*
X0013773Y0017646D01*
X0013681Y0017501D01*
X0013592Y0017355D01*
X0013507Y0017206D01*
X0013426Y0017055D01*
X0013348Y0016903D01*
X0013274Y0016748D01*
X0013204Y0016592D01*
X0013137Y0016434D01*
X0013075Y0016275D01*
X0013016Y0016114D01*
X0012961Y0015952D01*
X0012910Y0015788D01*
X0012863Y0015624D01*
X0012820Y0015458D01*
X0012781Y0015291D01*
X0012746Y0015124D01*
X0012715Y0014955D01*
X0012688Y0014786D01*
X0012666Y0014616D01*
X0012647Y0014446D01*
X0012633Y0014275D01*
X0012622Y0014104D01*
X0012616Y0013933D01*
X0012614Y0013762D01*
X0019307Y0013762D02*
X0024622Y0013762D01*
X0025016Y0013369D01*
X0035252Y0021636D02*
X0035300Y0021628D01*
X0035349Y0021625D01*
X0035398Y0021624D01*
X0035447Y0021628D01*
X0035496Y0021636D01*
X0035543Y0021647D01*
X0035590Y0021662D01*
X0035635Y0021681D01*
X0035679Y0021703D01*
X0035721Y0021728D01*
X0035761Y0021757D01*
X0035798Y0021788D01*
X0035833Y0021823D01*
X0035865Y0021860D01*
X0035894Y0021899D01*
X0035920Y0021941D01*
X0035943Y0021984D01*
X0035962Y0022030D01*
X0035977Y0022076D01*
X0035989Y0022124D01*
X0035997Y0022172D01*
X0036001Y0022221D01*
X0036002Y0022270D01*
X0035998Y0022319D01*
X0035991Y0022367D01*
X0035980Y0022415D01*
X0035966Y0022462D01*
X0035947Y0022507D01*
X0035925Y0022551D01*
X0035900Y0022593D01*
X0035872Y0022633D01*
X0035841Y0022671D01*
X0035806Y0022706D01*
X0035770Y0022738D01*
X0035730Y0022768D01*
X0035689Y0022794D01*
X0035646Y0022817D01*
D23*
X0025016Y0013369D03*
X0056118Y0022030D03*
M02*
