G75*
%MOIN*%
%OFA0B0*%
%FSLAX25Y25*%
%IPPOS*%
%LPD*%
%AMOC8*
5,1,8,0,0,1.08239X$1,22.5*
%
%ADD10C,0.00000*%
%ADD11C,0.00600*%
%ADD12C,0.00400*%
%ADD13C,0.00800*%
%ADD14C,0.00500*%
D10*
X0001000Y0009960D02*
X0001000Y0065078D01*
X0099425Y0065078D01*
X0099425Y0009960D01*
X0001000Y0009960D01*
D11*
X0010496Y0017520D02*
X0010496Y0018088D01*
X0011063Y0018655D01*
X0012765Y0018655D01*
X0012765Y0017520D01*
X0012198Y0016953D01*
X0011063Y0016953D01*
X0010496Y0017520D01*
X0011631Y0019789D02*
X0012765Y0018655D01*
X0014179Y0018655D02*
X0014747Y0018088D01*
X0016448Y0018088D01*
X0015314Y0018088D02*
X0014179Y0016953D01*
X0014179Y0018655D02*
X0014179Y0019789D01*
X0014747Y0020356D01*
X0016448Y0020356D01*
X0016448Y0016953D01*
X0011631Y0019789D02*
X0010496Y0020356D01*
X0031716Y0014985D02*
X0035987Y0014985D01*
X0033852Y0014985D02*
X0033852Y0021390D01*
X0035987Y0019255D01*
X0038162Y0020323D02*
X0039230Y0021390D01*
X0041365Y0021390D01*
X0042432Y0020323D01*
X0042432Y0016052D01*
X0041365Y0014985D01*
X0039230Y0014985D01*
X0038162Y0016052D01*
X0021172Y0049684D02*
X0016902Y0049684D01*
X0088162Y0053621D02*
X0092432Y0053621D01*
X0090297Y0055756D02*
X0090297Y0051485D01*
X0089737Y0034329D02*
X0094007Y0034329D01*
D12*
X0093006Y0041656D02*
X0093006Y0046260D01*
X0094541Y0044726D01*
X0096076Y0046260D01*
X0096076Y0041656D01*
X0091472Y0041656D02*
X0088402Y0041656D01*
X0089937Y0041656D02*
X0089937Y0046260D01*
X0091472Y0044726D01*
X0090745Y0026575D02*
X0092279Y0026575D01*
X0093046Y0025808D01*
X0094581Y0026575D02*
X0094581Y0021971D01*
X0093046Y0021971D02*
X0089977Y0025041D01*
X0089977Y0025808D01*
X0090745Y0026575D01*
X0094581Y0026575D02*
X0096116Y0025041D01*
X0097650Y0026575D01*
X0097650Y0021971D01*
X0093046Y0021971D02*
X0089977Y0021971D01*
D13*
X0070285Y0038707D02*
X0070285Y0042910D01*
X0068183Y0042910D01*
X0067483Y0042210D01*
X0067483Y0040809D01*
X0068183Y0040108D01*
X0070285Y0040108D01*
X0068884Y0040108D02*
X0067483Y0038707D01*
X0065681Y0038707D02*
X0062879Y0041509D01*
X0062879Y0042210D01*
X0063579Y0042910D01*
X0064981Y0042910D01*
X0065681Y0042210D01*
X0065681Y0038707D02*
X0062879Y0038707D01*
X0031702Y0018501D02*
X0029601Y0018501D01*
X0028900Y0017800D01*
X0028900Y0016399D01*
X0029601Y0015699D01*
X0031702Y0015699D01*
X0030301Y0015699D02*
X0028900Y0014297D01*
X0027098Y0014998D02*
X0026398Y0014297D01*
X0024997Y0014297D01*
X0024296Y0014998D01*
X0024296Y0016399D01*
X0024997Y0017100D01*
X0025697Y0017100D01*
X0027098Y0016399D01*
X0027098Y0018501D01*
X0024296Y0018501D01*
X0031702Y0018501D02*
X0031702Y0014297D01*
X0028946Y0031620D02*
X0028946Y0035824D01*
X0026845Y0035824D01*
X0026144Y0035123D01*
X0026144Y0033722D01*
X0026845Y0033021D01*
X0028946Y0033021D01*
X0027545Y0033021D02*
X0026144Y0031620D01*
X0024343Y0032321D02*
X0023642Y0031620D01*
X0022241Y0031620D01*
X0021540Y0032321D01*
X0021540Y0033021D01*
X0022241Y0033722D01*
X0022941Y0033722D01*
X0022241Y0033722D02*
X0021540Y0034423D01*
X0021540Y0035123D01*
X0022241Y0035824D01*
X0023642Y0035824D01*
X0024343Y0035123D01*
X0023695Y0049337D02*
X0022994Y0050037D01*
X0023695Y0049337D02*
X0025096Y0049337D01*
X0025797Y0050037D01*
X0025797Y0052840D01*
X0025096Y0053540D01*
X0023695Y0053540D01*
X0022994Y0052840D01*
X0021193Y0052840D02*
X0020492Y0053540D01*
X0019091Y0053540D01*
X0018391Y0052840D01*
X0018391Y0052139D01*
X0019091Y0051439D01*
X0018391Y0050738D01*
X0018391Y0050037D01*
X0019091Y0049337D01*
X0020492Y0049337D01*
X0021193Y0050037D01*
X0019792Y0051439D02*
X0019091Y0051439D01*
D14*
X0039881Y0026102D02*
X0039883Y0026183D01*
X0039889Y0026264D01*
X0039899Y0026345D01*
X0039913Y0026425D01*
X0039930Y0026505D01*
X0039952Y0026583D01*
X0039977Y0026660D01*
X0040006Y0026736D01*
X0040039Y0026811D01*
X0040075Y0026884D01*
X0040115Y0026955D01*
X0040158Y0027023D01*
X0040205Y0027090D01*
X0040254Y0027155D01*
X0040307Y0027216D01*
X0040363Y0027276D01*
X0040422Y0027332D01*
X0040483Y0027386D01*
X0040547Y0027436D01*
X0040613Y0027483D01*
X0040681Y0027528D01*
X0040751Y0027568D01*
X0040824Y0027605D01*
X0040898Y0027639D01*
X0040973Y0027669D01*
X0041050Y0027695D01*
X0041129Y0027718D01*
X0041208Y0027736D01*
X0041288Y0027751D01*
X0041368Y0027762D01*
X0041449Y0027769D01*
X0041531Y0027772D01*
X0041612Y0027771D01*
X0041693Y0027766D01*
X0041774Y0027757D01*
X0041854Y0027744D01*
X0041934Y0027728D01*
X0042013Y0027707D01*
X0042090Y0027683D01*
X0042167Y0027654D01*
X0042241Y0027623D01*
X0042315Y0027587D01*
X0042386Y0027548D01*
X0042455Y0027506D01*
X0042523Y0027460D01*
X0042588Y0027411D01*
X0042650Y0027359D01*
X0042710Y0027304D01*
X0042767Y0027246D01*
X0042822Y0027186D01*
X0042873Y0027123D01*
X0042921Y0027057D01*
X0042966Y0026989D01*
X0043007Y0026919D01*
X0043045Y0026847D01*
X0043080Y0026774D01*
X0043111Y0026699D01*
X0043138Y0026622D01*
X0043161Y0026544D01*
X0043181Y0026465D01*
X0043197Y0026385D01*
X0043209Y0026305D01*
X0043217Y0026224D01*
X0043221Y0026143D01*
X0043221Y0026061D01*
X0043217Y0025980D01*
X0043209Y0025899D01*
X0043197Y0025819D01*
X0043181Y0025739D01*
X0043161Y0025660D01*
X0043138Y0025582D01*
X0043111Y0025505D01*
X0043080Y0025430D01*
X0043045Y0025357D01*
X0043007Y0025285D01*
X0042966Y0025215D01*
X0042921Y0025147D01*
X0042873Y0025081D01*
X0042822Y0025018D01*
X0042767Y0024958D01*
X0042710Y0024900D01*
X0042650Y0024845D01*
X0042588Y0024793D01*
X0042523Y0024744D01*
X0042455Y0024698D01*
X0042386Y0024656D01*
X0042315Y0024617D01*
X0042241Y0024581D01*
X0042167Y0024550D01*
X0042090Y0024521D01*
X0042013Y0024497D01*
X0041934Y0024476D01*
X0041854Y0024460D01*
X0041774Y0024447D01*
X0041693Y0024438D01*
X0041612Y0024433D01*
X0041531Y0024432D01*
X0041449Y0024435D01*
X0041368Y0024442D01*
X0041288Y0024453D01*
X0041208Y0024468D01*
X0041129Y0024486D01*
X0041050Y0024509D01*
X0040973Y0024535D01*
X0040898Y0024565D01*
X0040824Y0024599D01*
X0040751Y0024636D01*
X0040681Y0024676D01*
X0040613Y0024721D01*
X0040547Y0024768D01*
X0040483Y0024818D01*
X0040422Y0024872D01*
X0040363Y0024928D01*
X0040307Y0024988D01*
X0040254Y0025049D01*
X0040205Y0025114D01*
X0040158Y0025181D01*
X0040115Y0025249D01*
X0040075Y0025320D01*
X0040039Y0025393D01*
X0040006Y0025468D01*
X0039977Y0025544D01*
X0039952Y0025621D01*
X0039930Y0025699D01*
X0039913Y0025779D01*
X0039899Y0025859D01*
X0039889Y0025940D01*
X0039883Y0026021D01*
X0039881Y0026102D01*
M02*
