G75*
%MOIN*%
%OFA0B0*%
%FSLAX24Y24*%
%IPPOS*%
%LPD*%
%AMOC8*
5,1,8,0,0,1.08239X$1,22.5*
%
%ADD10C,0.0000*%
%ADD11C,0.0050*%
%ADD12C,0.0060*%
%ADD13C,0.0020*%
%ADD14C,0.0040*%
%ADD15R,0.0059X0.0118*%
%ADD16R,0.0118X0.0118*%
D10*
X000100Y000665D02*
X000100Y006177D01*
X010730Y006177D01*
X010730Y000665D01*
X000100Y000665D01*
D11*
X000440Y001028D02*
X000542Y000926D01*
X000745Y000926D01*
X000847Y001028D01*
X000847Y001435D01*
X000745Y001536D01*
X000542Y001536D01*
X000440Y001435D01*
X000440Y001028D01*
X001048Y000926D02*
X001353Y000926D01*
X001455Y001028D01*
X001455Y001231D01*
X001353Y001333D01*
X001048Y001333D01*
X001048Y000722D01*
X001655Y001028D02*
X001655Y001231D01*
X001757Y001333D01*
X001961Y001333D01*
X002062Y001231D01*
X002062Y001129D01*
X001655Y001129D01*
X001655Y001028D02*
X001757Y000926D01*
X001961Y000926D01*
X002263Y000926D02*
X002263Y001333D01*
X002568Y001333D01*
X002670Y001231D01*
X002670Y000926D01*
X002871Y000926D02*
X002871Y001536D01*
X003176Y001536D01*
X003278Y001435D01*
X003278Y001231D01*
X003176Y001129D01*
X002871Y001129D01*
X003479Y000926D02*
X003682Y001129D01*
X003886Y000926D01*
X003886Y001536D01*
X004086Y001536D02*
X004290Y001333D01*
X004493Y001536D01*
X004493Y000926D01*
X004086Y000926D02*
X004086Y001536D01*
X004594Y001616D02*
X004744Y001616D01*
X004669Y001616D02*
X004669Y002066D01*
X004594Y002066D02*
X004744Y002066D01*
X004901Y001991D02*
X004901Y001691D01*
X004976Y001616D01*
X005126Y001616D01*
X005201Y001691D01*
X005361Y001616D02*
X005661Y001616D01*
X005709Y001536D02*
X005709Y000926D01*
X005302Y000926D02*
X005302Y001536D01*
X005505Y001333D01*
X005709Y001536D01*
X005511Y001616D02*
X005511Y002066D01*
X005361Y001916D01*
X005201Y001991D02*
X005126Y002066D01*
X004976Y002066D01*
X004901Y001991D01*
X005101Y001231D02*
X004694Y001231D01*
X003479Y001536D02*
X003479Y000926D01*
X007751Y001861D02*
X007751Y002011D01*
X007751Y001936D02*
X008126Y001936D01*
X008201Y001861D01*
X008201Y001786D01*
X008126Y001711D01*
X008051Y002171D02*
X008051Y002396D01*
X007976Y002472D01*
X007826Y002472D01*
X007751Y002396D01*
X007751Y002171D01*
X008201Y002171D01*
X008126Y002632D02*
X008201Y002707D01*
X008201Y002857D01*
X008126Y002932D01*
X008051Y002932D01*
X007976Y002857D01*
X007976Y002782D01*
X007976Y002857D02*
X007901Y002932D01*
X007826Y002932D01*
X007751Y002857D01*
X007751Y002707D01*
X007826Y002632D01*
X009023Y001412D02*
X009226Y001615D01*
X009226Y001005D01*
X009023Y001005D02*
X009430Y001005D01*
X009630Y001005D02*
X009732Y001005D01*
X009732Y001106D01*
X009630Y001106D01*
X009630Y001005D01*
X009934Y001106D02*
X010341Y001513D01*
X010341Y001106D01*
X010239Y001005D01*
X010036Y001005D01*
X009934Y001106D01*
X009934Y001513D01*
X010036Y001615D01*
X010239Y001615D01*
X010341Y001513D01*
X008126Y003711D02*
X008201Y003786D01*
X008201Y003861D01*
X008126Y003936D01*
X007751Y003936D01*
X007751Y003861D02*
X007751Y004011D01*
X007751Y004171D02*
X007751Y004396D01*
X007826Y004472D01*
X007976Y004472D01*
X008051Y004396D01*
X008051Y004171D01*
X008201Y004171D02*
X007751Y004171D01*
X007826Y004632D02*
X007751Y004707D01*
X007751Y004857D01*
X007826Y004932D01*
X007901Y004932D01*
X008201Y004632D01*
X008201Y004932D01*
X002295Y004953D02*
X002295Y004653D01*
X002295Y004803D02*
X001845Y004803D01*
X001995Y004653D01*
X001920Y004493D02*
X002070Y004493D01*
X002145Y004418D01*
X002145Y004193D01*
X002295Y004193D02*
X001845Y004193D01*
X001845Y004418D01*
X001920Y004493D01*
X001845Y004032D02*
X001845Y003882D01*
X001845Y003957D02*
X002220Y003957D01*
X002295Y003882D01*
X002295Y003807D01*
X002220Y003732D01*
D12*
X001600Y003808D02*
X001600Y003308D01*
X001350Y003058D01*
X001600Y002808D01*
X001600Y002308D01*
X001350Y002058D01*
X000850Y002058D01*
X000600Y002308D01*
X000600Y002808D01*
X000850Y003058D01*
X000600Y003308D01*
X000600Y003808D01*
X000850Y004058D01*
X000600Y004308D01*
X000600Y004808D01*
X000850Y005058D01*
X001350Y005058D01*
X001600Y004808D01*
X001600Y004308D01*
X001350Y004058D01*
X001600Y003808D01*
X001350Y004058D02*
X000850Y004058D01*
X000850Y003058D02*
X001350Y003058D01*
X003962Y003090D02*
X003962Y003342D01*
X003962Y003590D02*
X003962Y003842D01*
X003962Y004086D02*
X003962Y004145D01*
X003963Y004141D02*
X003964Y004158D01*
X003969Y004175D01*
X003976Y004190D01*
X003986Y004204D01*
X003998Y004216D01*
X004012Y004226D01*
X004027Y004233D01*
X004044Y004238D01*
X004061Y004239D01*
X004061Y004240D02*
X005832Y004240D01*
X005832Y004239D02*
X005849Y004238D01*
X005866Y004233D01*
X005881Y004226D01*
X005895Y004216D01*
X005907Y004204D01*
X005917Y004190D01*
X005924Y004175D01*
X005929Y004158D01*
X005930Y004141D01*
X005931Y004133D02*
X005931Y004082D01*
X005931Y003842D02*
X005931Y003586D01*
X005931Y003342D02*
X005931Y003086D01*
X005931Y002842D02*
X005931Y002590D01*
X005931Y002346D02*
X005931Y002295D01*
X005930Y002291D02*
X005929Y002274D01*
X005924Y002257D01*
X005917Y002242D01*
X005907Y002228D01*
X005895Y002216D01*
X005881Y002206D01*
X005866Y002199D01*
X005849Y002194D01*
X005832Y002193D01*
X005828Y002192D02*
X004061Y002192D01*
X004061Y002193D02*
X004044Y002194D01*
X004027Y002199D01*
X004012Y002206D01*
X003998Y002216D01*
X003986Y002228D01*
X003976Y002242D01*
X003969Y002257D01*
X003964Y002274D01*
X003963Y002291D01*
X003962Y002295D02*
X003962Y002346D01*
X003962Y002590D02*
X003962Y002842D01*
X008446Y002966D02*
X008446Y003466D01*
X008696Y003716D01*
X008446Y003966D01*
X008446Y004466D01*
X008696Y004716D01*
X008446Y004966D01*
X008446Y005466D01*
X008696Y005716D01*
X009196Y005716D01*
X009446Y005466D01*
X009446Y004966D01*
X009196Y004716D01*
X009446Y004466D01*
X009446Y003966D01*
X009196Y003716D01*
X008696Y003716D01*
X009196Y003716D01*
X009446Y003466D01*
X009446Y002966D01*
X009196Y002716D01*
X009446Y002466D01*
X009446Y001966D01*
X009196Y001716D01*
X008696Y001716D01*
X008446Y001966D01*
X008446Y002466D01*
X008696Y002716D01*
X008446Y002966D01*
X008696Y002716D02*
X009196Y002716D01*
X009196Y004716D02*
X008696Y004716D01*
D13*
X005188Y002657D02*
X005190Y002684D01*
X005196Y002711D01*
X005205Y002737D01*
X005218Y002761D01*
X005234Y002784D01*
X005253Y002803D01*
X005275Y002820D01*
X005299Y002834D01*
X005324Y002844D01*
X005351Y002851D01*
X005378Y002854D01*
X005406Y002853D01*
X005433Y002848D01*
X005459Y002840D01*
X005483Y002828D01*
X005506Y002812D01*
X005527Y002794D01*
X005544Y002773D01*
X005559Y002749D01*
X005570Y002724D01*
X005578Y002698D01*
X005582Y002671D01*
X005582Y002643D01*
X005578Y002616D01*
X005570Y002590D01*
X005559Y002565D01*
X005544Y002541D01*
X005527Y002520D01*
X005506Y002502D01*
X005484Y002486D01*
X005459Y002474D01*
X005433Y002466D01*
X005406Y002461D01*
X005378Y002460D01*
X005351Y002463D01*
X005324Y002470D01*
X005299Y002480D01*
X005275Y002494D01*
X005253Y002511D01*
X005234Y002530D01*
X005218Y002553D01*
X005205Y002577D01*
X005196Y002603D01*
X005190Y002630D01*
X005188Y002657D01*
D14*
X006616Y003886D02*
X006616Y004116D01*
X006693Y004193D01*
X006846Y004193D01*
X006923Y004116D01*
X006923Y003886D01*
X006923Y004039D02*
X007076Y004193D01*
X006846Y004346D02*
X006846Y004653D01*
X006616Y004576D02*
X006846Y004346D01*
X007076Y004576D02*
X006616Y004576D01*
X006616Y003886D02*
X007076Y003886D01*
X008208Y002825D02*
X008208Y002518D01*
X008131Y002364D02*
X007824Y002364D01*
X007748Y002287D01*
X007748Y002057D01*
X008208Y002057D01*
X008208Y002287D01*
X008131Y002364D01*
X007901Y002518D02*
X007748Y002671D01*
X008208Y002671D01*
X008208Y001904D02*
X008208Y001597D01*
X007748Y001597D01*
X007748Y001904D01*
X007978Y001750D02*
X007978Y001597D01*
X008208Y001443D02*
X008208Y001136D01*
X007748Y001136D01*
X006225Y005586D02*
X005918Y005586D01*
X005884Y005586D02*
X005577Y005586D01*
X005458Y005586D02*
X005458Y006046D01*
X005611Y005893D01*
X005765Y006046D01*
X005765Y005586D01*
X005730Y005586D02*
X005730Y006046D01*
X005577Y005893D01*
X005423Y005970D02*
X005423Y005816D01*
X005347Y005739D01*
X005116Y005739D01*
X005151Y005739D02*
X005305Y005586D01*
X005116Y005586D02*
X005116Y006046D01*
X005347Y006046D01*
X005423Y005970D01*
X005305Y005970D02*
X005305Y005816D01*
X005228Y005739D01*
X004998Y005739D01*
X004998Y005586D02*
X004998Y006046D01*
X005228Y006046D01*
X005305Y005970D01*
X005270Y005739D02*
X005423Y005586D01*
X005918Y005893D02*
X006072Y006046D01*
X006072Y005586D01*
X004844Y005586D02*
X004537Y005586D01*
X004537Y006046D01*
X004844Y006046D01*
X004691Y005816D02*
X004537Y005816D01*
X004384Y005816D02*
X004077Y005816D01*
X004077Y005586D02*
X004077Y006046D01*
X003923Y006046D02*
X003616Y006046D01*
X003770Y006046D02*
X003770Y005586D01*
X004384Y005586D02*
X004384Y006046D01*
D15*
X007330Y002649D03*
X007626Y002649D03*
D16*
X007478Y002649D03*
M02*
