G75*
%MOIN*%
%OFA0B0*%
%FSLAX25Y25*%
%IPPOS*%
%LPD*%
%AMOC8*
5,1,8,0,0,1.08239X$1,22.5*
%
%ADD10C,0.00000*%
%ADD11C,0.06000*%
%ADD12R,0.10000X0.01969*%
%ADD13R,0.03937X0.04331*%
%ADD14R,0.04331X0.03937*%
%ADD15R,0.03150X0.03150*%
%ADD16C,0.01000*%
%ADD17C,0.03562*%
%ADD18C,0.04724*%
%ADD19R,0.03562X0.03562*%
%ADD20C,0.01600*%
%ADD21C,0.01200*%
D10*
X0001000Y0009431D02*
X0001000Y0064550D01*
X0099425Y0064550D01*
X0099425Y0009431D01*
X0001000Y0009431D01*
D11*
X0008000Y0028369D02*
X0014000Y0028369D01*
X0014000Y0038369D02*
X0008000Y0038369D01*
X0008000Y0048369D02*
X0014000Y0048369D01*
X0077016Y0052975D02*
X0083016Y0052975D01*
X0083016Y0042975D02*
X0077016Y0042975D01*
X0077646Y0034471D02*
X0083646Y0034471D01*
X0083646Y0024471D02*
X0077646Y0024471D01*
D12*
X0058721Y0029018D03*
X0058721Y0033979D03*
X0058721Y0038979D03*
X0058721Y0043979D03*
X0033121Y0044018D03*
X0033121Y0039018D03*
X0033121Y0034018D03*
X0033121Y0029018D03*
D13*
X0036118Y0055731D03*
X0042811Y0055731D03*
X0058992Y0056124D03*
X0065685Y0056124D03*
D14*
X0068559Y0034510D03*
X0068559Y0027817D03*
D15*
X0071236Y0021006D03*
X0071236Y0015101D03*
D16*
X0069206Y0018331D02*
X0073267Y0018331D01*
X0073911Y0018976D01*
X0073911Y0022773D01*
X0074170Y0022148D01*
X0075323Y0020995D01*
X0076830Y0020371D01*
X0084461Y0020371D01*
X0085968Y0020995D01*
X0087121Y0022148D01*
X0087746Y0023655D01*
X0087746Y0025286D01*
X0087121Y0026793D01*
X0085968Y0027947D01*
X0084461Y0028571D01*
X0076830Y0028571D01*
X0075323Y0027947D01*
X0074170Y0026793D01*
X0073546Y0025286D01*
X0073546Y0023655D01*
X0073725Y0023223D01*
X0073267Y0023681D01*
X0073136Y0023681D01*
X0073136Y0025927D01*
X0072023Y0027040D01*
X0071824Y0027239D01*
X0071824Y0030241D01*
X0071180Y0030886D01*
X0065938Y0030886D01*
X0065294Y0030241D01*
X0065294Y0025393D01*
X0065938Y0024749D01*
X0068941Y0024749D01*
X0069336Y0024353D01*
X0069336Y0023681D01*
X0069206Y0023681D01*
X0068561Y0023037D01*
X0068561Y0018976D01*
X0069206Y0018331D01*
X0069119Y0018418D02*
X0041414Y0018418D01*
X0042412Y0019417D02*
X0053614Y0019417D01*
X0053881Y0019149D02*
X0058355Y0019149D01*
X0058999Y0019793D01*
X0058999Y0024267D01*
X0058355Y0024911D01*
X0055924Y0024911D01*
X0055656Y0025179D01*
X0054543Y0026292D01*
X0043914Y0026292D01*
X0037743Y0020121D01*
X0038133Y0021063D01*
X0038133Y0022209D01*
X0037694Y0023268D01*
X0037683Y0023280D01*
X0039012Y0023280D01*
X0040868Y0024048D01*
X0042289Y0025469D01*
X0043057Y0027325D01*
X0043057Y0031731D01*
X0042262Y0033652D01*
X0040791Y0035122D01*
X0038870Y0035918D01*
X0038761Y0035918D01*
X0038577Y0036102D01*
X0027666Y0036102D01*
X0027021Y0035458D01*
X0027021Y0032578D01*
X0027666Y0031934D01*
X0038488Y0031934D01*
X0038623Y0031878D01*
X0039017Y0031484D01*
X0039230Y0030970D01*
X0039257Y0030691D01*
X0039257Y0028329D01*
X0039233Y0028085D01*
X0039221Y0028056D01*
X0039221Y0030458D01*
X0038577Y0031102D01*
X0027666Y0031102D01*
X0027486Y0030923D01*
X0026460Y0031051D01*
X0024506Y0031923D01*
X0023033Y0033476D01*
X0022267Y0035474D01*
X0022191Y0036537D01*
X0022191Y0036572D01*
X0022212Y0037333D01*
X0022191Y0037354D01*
X0022191Y0037709D01*
X0022990Y0036910D01*
X0024049Y0036472D01*
X0025195Y0036472D01*
X0026254Y0036910D01*
X0026462Y0037118D01*
X0027481Y0037118D01*
X0027666Y0036934D01*
X0038577Y0036934D01*
X0039221Y0037578D01*
X0039221Y0040458D01*
X0038577Y0041102D01*
X0027666Y0041102D01*
X0027481Y0040918D01*
X0027092Y0040918D01*
X0027065Y0040985D01*
X0026254Y0041795D01*
X0025195Y0042234D01*
X0024049Y0042234D01*
X0022990Y0041795D01*
X0022180Y0040985D01*
X0021741Y0039926D01*
X0021741Y0039777D01*
X0021434Y0040310D01*
X0023736Y0042612D01*
X0025831Y0046241D01*
X0026916Y0050289D01*
X0026916Y0054107D01*
X0027190Y0054382D01*
X0033050Y0054382D01*
X0033050Y0053110D01*
X0033694Y0052465D01*
X0038542Y0052465D01*
X0039187Y0053110D01*
X0039187Y0058352D01*
X0038542Y0058996D01*
X0033694Y0058996D01*
X0033050Y0058352D01*
X0033050Y0058182D01*
X0027190Y0058182D01*
X0026648Y0058724D01*
X0025589Y0059163D01*
X0024443Y0059163D01*
X0023384Y0058724D01*
X0022573Y0057914D01*
X0022135Y0056855D01*
X0022135Y0055709D01*
X0022573Y0054650D01*
X0023116Y0054107D01*
X0023116Y0052384D01*
X0023012Y0050803D01*
X0022193Y0047748D01*
X0020612Y0045009D01*
X0018376Y0042772D01*
X0016486Y0041681D01*
X0016322Y0041844D01*
X0014816Y0042468D01*
X0007184Y0042468D01*
X0005678Y0041844D01*
X0004524Y0040691D01*
X0004105Y0039678D01*
X0003612Y0039678D01*
X0002500Y0039036D01*
X0002500Y0053662D01*
X0002570Y0063050D01*
X0097457Y0063050D01*
X0097457Y0011006D01*
X0079351Y0010931D01*
X0034321Y0010931D01*
X0035183Y0011794D01*
X0035183Y0012188D01*
X0045488Y0022492D01*
X0052969Y0022492D01*
X0053237Y0022224D01*
X0053237Y0019793D01*
X0053881Y0019149D01*
X0053237Y0020415D02*
X0043411Y0020415D01*
X0044409Y0021414D02*
X0053237Y0021414D01*
X0053049Y0022412D02*
X0045408Y0022412D01*
X0042031Y0024409D02*
X0041229Y0024409D01*
X0040868Y0024048D02*
X0040868Y0024048D01*
X0041032Y0023411D02*
X0039329Y0023411D01*
X0040034Y0022412D02*
X0038049Y0022412D01*
X0038133Y0021414D02*
X0039035Y0021414D01*
X0038037Y0020415D02*
X0037865Y0020415D01*
X0036767Y0019145D02*
X0032890Y0015268D01*
X0027897Y0015268D01*
X0027897Y0015605D01*
X0027252Y0016250D01*
X0022779Y0016250D01*
X0022135Y0015605D01*
X0022135Y0011132D01*
X0022335Y0010931D01*
X0002500Y0010931D01*
X0002500Y0020878D01*
X0004477Y0019736D01*
X0004937Y0019736D01*
X0033077Y0019736D01*
X0033620Y0019194D01*
X0034679Y0018755D01*
X0035825Y0018755D01*
X0036767Y0019145D01*
X0036040Y0018418D02*
X0002500Y0018418D01*
X0002500Y0019417D02*
X0033397Y0019417D01*
X0035041Y0017420D02*
X0002500Y0017420D01*
X0002500Y0016421D02*
X0034043Y0016421D01*
X0033044Y0015423D02*
X0027897Y0015423D01*
X0022135Y0015423D02*
X0002500Y0015423D01*
X0002500Y0014424D02*
X0022135Y0014424D01*
X0022135Y0013426D02*
X0002500Y0013426D01*
X0002500Y0012427D02*
X0022135Y0012427D01*
X0022135Y0011429D02*
X0002500Y0011429D01*
X0002500Y0020415D02*
X0003301Y0020415D01*
X0023109Y0033396D02*
X0027021Y0033396D01*
X0027202Y0032397D02*
X0024056Y0032397D01*
X0025681Y0031399D02*
X0039052Y0031399D01*
X0039221Y0030400D02*
X0039257Y0030400D01*
X0039221Y0029402D02*
X0039257Y0029402D01*
X0039221Y0028403D02*
X0039257Y0028403D01*
X0042677Y0026406D02*
X0065294Y0026406D01*
X0065294Y0025408D02*
X0055427Y0025408D01*
X0053266Y0026934D02*
X0064177Y0026934D01*
X0064821Y0027578D01*
X0064821Y0030458D01*
X0064177Y0031102D01*
X0053266Y0031102D01*
X0052621Y0030458D01*
X0052621Y0027578D01*
X0053266Y0026934D01*
X0052795Y0027405D02*
X0043057Y0027405D01*
X0043057Y0028403D02*
X0052621Y0028403D01*
X0052621Y0029402D02*
X0043057Y0029402D01*
X0043057Y0030400D02*
X0052621Y0030400D01*
X0053266Y0031894D02*
X0064177Y0031894D01*
X0064223Y0031941D01*
X0065439Y0031941D01*
X0065938Y0031442D01*
X0071180Y0031442D01*
X0071824Y0032086D01*
X0071824Y0036934D01*
X0071180Y0037579D01*
X0065938Y0037579D01*
X0065294Y0036934D01*
X0065294Y0035861D01*
X0065174Y0035741D01*
X0064499Y0035741D01*
X0064177Y0036063D01*
X0053266Y0036063D01*
X0052621Y0035419D01*
X0052621Y0032539D01*
X0053266Y0031894D01*
X0052763Y0032397D02*
X0042781Y0032397D01*
X0043057Y0031399D02*
X0097457Y0031399D01*
X0097457Y0032397D02*
X0071824Y0032397D01*
X0071824Y0033396D02*
X0089445Y0033396D01*
X0090075Y0033135D02*
X0088803Y0033662D01*
X0087829Y0034636D01*
X0087302Y0035908D01*
X0087302Y0037286D01*
X0087829Y0038558D01*
X0088803Y0039532D01*
X0090075Y0040059D01*
X0091452Y0040059D01*
X0092725Y0039532D01*
X0093699Y0038558D01*
X0094226Y0037286D01*
X0094226Y0035908D01*
X0093699Y0034636D01*
X0092725Y0033662D01*
X0091452Y0033135D01*
X0090075Y0033135D01*
X0092083Y0033396D02*
X0097457Y0033396D01*
X0097457Y0034394D02*
X0093457Y0034394D01*
X0094012Y0035393D02*
X0097457Y0035393D01*
X0097457Y0036391D02*
X0094226Y0036391D01*
X0094183Y0037390D02*
X0097457Y0037390D01*
X0097457Y0038388D02*
X0093769Y0038388D01*
X0092870Y0039387D02*
X0097457Y0039387D01*
X0097457Y0040385D02*
X0086225Y0040385D01*
X0086492Y0040652D02*
X0085338Y0039499D01*
X0083831Y0038875D01*
X0076200Y0038875D01*
X0074693Y0039499D01*
X0073540Y0040652D01*
X0072916Y0042159D01*
X0072916Y0043790D01*
X0073540Y0045297D01*
X0074693Y0046451D01*
X0076200Y0047075D01*
X0083831Y0047075D01*
X0085338Y0046451D01*
X0086492Y0045297D01*
X0087116Y0043790D01*
X0087116Y0042159D01*
X0086492Y0040652D01*
X0086795Y0041384D02*
X0097457Y0041384D01*
X0097457Y0042382D02*
X0087116Y0042382D01*
X0087116Y0043381D02*
X0097457Y0043381D01*
X0097457Y0044379D02*
X0086872Y0044379D01*
X0086411Y0045378D02*
X0097457Y0045378D01*
X0097457Y0046376D02*
X0085412Y0046376D01*
X0083831Y0048875D02*
X0085338Y0049499D01*
X0086492Y0050652D01*
X0087116Y0052159D01*
X0087116Y0053790D01*
X0086492Y0055297D01*
X0085338Y0056451D01*
X0083831Y0057075D01*
X0076200Y0057075D01*
X0074693Y0056451D01*
X0073540Y0055297D01*
X0072916Y0053790D01*
X0072916Y0052159D01*
X0073540Y0050652D01*
X0074693Y0049499D01*
X0076200Y0048875D01*
X0083831Y0048875D01*
X0085031Y0049372D02*
X0097457Y0049372D01*
X0097457Y0048373D02*
X0068054Y0048373D01*
X0068054Y0048709D02*
X0066966Y0050594D01*
X0065081Y0051683D01*
X0062811Y0051683D01*
X0062398Y0051723D01*
X0061634Y0052040D01*
X0061049Y0052624D01*
X0060952Y0052859D01*
X0061416Y0052859D01*
X0062061Y0053503D01*
X0062061Y0058745D01*
X0061416Y0059390D01*
X0056568Y0059390D01*
X0055924Y0058745D01*
X0055924Y0057431D01*
X0045880Y0057431D01*
X0045880Y0058352D01*
X0045235Y0058996D01*
X0040387Y0058996D01*
X0039743Y0058352D01*
X0039743Y0053110D01*
X0040387Y0052465D01*
X0045235Y0052465D01*
X0045880Y0053110D01*
X0045880Y0054031D01*
X0055924Y0054031D01*
X0055924Y0053503D01*
X0056568Y0052859D01*
X0057292Y0052859D01*
X0057292Y0052704D01*
X0058132Y0050675D01*
X0059685Y0049123D01*
X0061713Y0048283D01*
X0063992Y0048283D01*
X0064164Y0048260D01*
X0064460Y0048089D01*
X0064632Y0047792D01*
X0064654Y0047620D01*
X0064654Y0042896D01*
X0064612Y0042463D01*
X0064281Y0041664D01*
X0063679Y0041063D01*
X0053266Y0041063D01*
X0052621Y0040419D01*
X0052621Y0037539D01*
X0053266Y0036894D01*
X0064177Y0036894D01*
X0064821Y0037539D01*
X0064821Y0037804D01*
X0065619Y0038134D01*
X0067199Y0039714D01*
X0067199Y0039714D01*
X0068054Y0041779D01*
X0068054Y0048709D01*
X0067672Y0049372D02*
X0075000Y0049372D01*
X0073822Y0050370D02*
X0067095Y0050370D01*
X0066966Y0050594D02*
X0066966Y0050594D01*
X0065624Y0051369D02*
X0073243Y0051369D01*
X0072916Y0052367D02*
X0061306Y0052367D01*
X0061923Y0053366D02*
X0072916Y0053366D01*
X0073154Y0054365D02*
X0062061Y0054365D01*
X0062061Y0055363D02*
X0073606Y0055363D01*
X0074604Y0056362D02*
X0062061Y0056362D01*
X0062061Y0057360D02*
X0097457Y0057360D01*
X0097457Y0058359D02*
X0062061Y0058359D01*
X0061449Y0059357D02*
X0097457Y0059357D01*
X0097457Y0060356D02*
X0002550Y0060356D01*
X0002542Y0059357D02*
X0056535Y0059357D01*
X0055924Y0058359D02*
X0045873Y0058359D01*
X0039749Y0058359D02*
X0039180Y0058359D01*
X0039187Y0057360D02*
X0039743Y0057360D01*
X0039743Y0056362D02*
X0039187Y0056362D01*
X0039187Y0055363D02*
X0039743Y0055363D01*
X0039743Y0054365D02*
X0039187Y0054365D01*
X0039187Y0053366D02*
X0039743Y0053366D01*
X0045880Y0053366D02*
X0056061Y0053366D01*
X0057431Y0052367D02*
X0026916Y0052367D01*
X0026916Y0053366D02*
X0033050Y0053366D01*
X0033050Y0054365D02*
X0027173Y0054365D01*
X0023116Y0053366D02*
X0002500Y0053366D01*
X0002500Y0052367D02*
X0023115Y0052367D01*
X0023049Y0051369D02*
X0002500Y0051369D01*
X0002500Y0050370D02*
X0022896Y0050370D01*
X0022629Y0049372D02*
X0002500Y0049372D01*
X0002500Y0048373D02*
X0022361Y0048373D01*
X0021978Y0047375D02*
X0002500Y0047375D01*
X0002500Y0046376D02*
X0021402Y0046376D01*
X0020825Y0045378D02*
X0002500Y0045378D01*
X0002500Y0044379D02*
X0019983Y0044379D01*
X0018984Y0043381D02*
X0002500Y0043381D01*
X0002500Y0042382D02*
X0006977Y0042382D01*
X0005217Y0041384D02*
X0002500Y0041384D01*
X0002500Y0040385D02*
X0004398Y0040385D01*
X0003108Y0039387D02*
X0002500Y0039387D01*
X0015023Y0042382D02*
X0017700Y0042382D01*
X0021509Y0040385D02*
X0021931Y0040385D01*
X0022508Y0041384D02*
X0022579Y0041384D01*
X0023506Y0042382D02*
X0027217Y0042382D01*
X0027021Y0042578D02*
X0027666Y0041934D01*
X0038577Y0041934D01*
X0039221Y0042578D01*
X0039221Y0045458D01*
X0038577Y0046102D01*
X0035021Y0046102D01*
X0035021Y0048277D01*
X0034590Y0049024D01*
X0034590Y0049375D01*
X0034151Y0050434D01*
X0033341Y0051244D01*
X0032282Y0051683D01*
X0031136Y0051683D01*
X0030077Y0051244D01*
X0029266Y0050434D01*
X0028828Y0049375D01*
X0028828Y0048228D01*
X0029266Y0047170D01*
X0030077Y0046359D01*
X0030697Y0046102D01*
X0027666Y0046102D01*
X0027021Y0045458D01*
X0027021Y0042578D01*
X0027021Y0043381D02*
X0024180Y0043381D01*
X0023736Y0042612D02*
X0023736Y0042612D01*
X0023736Y0042612D01*
X0024756Y0044379D02*
X0027021Y0044379D01*
X0027021Y0045378D02*
X0025333Y0045378D01*
X0025831Y0046241D02*
X0025831Y0046241D01*
X0025867Y0046376D02*
X0030059Y0046376D01*
X0029181Y0047375D02*
X0026135Y0047375D01*
X0026402Y0048373D02*
X0028828Y0048373D01*
X0028828Y0049372D02*
X0026670Y0049372D01*
X0026916Y0050370D02*
X0029240Y0050370D01*
X0030378Y0051369D02*
X0026916Y0051369D01*
X0022859Y0054365D02*
X0002505Y0054365D01*
X0002513Y0055363D02*
X0022278Y0055363D01*
X0022135Y0056362D02*
X0002520Y0056362D01*
X0002527Y0057360D02*
X0022344Y0057360D01*
X0023018Y0058359D02*
X0002535Y0058359D01*
X0002557Y0061354D02*
X0097457Y0061354D01*
X0097457Y0062353D02*
X0002564Y0062353D01*
X0027014Y0058359D02*
X0033056Y0058359D01*
X0033039Y0051369D02*
X0057845Y0051369D01*
X0058132Y0050675D02*
X0058132Y0050675D01*
X0058437Y0050370D02*
X0034177Y0050370D01*
X0034590Y0049372D02*
X0059436Y0049372D01*
X0059685Y0049123D02*
X0059685Y0049123D01*
X0061494Y0048373D02*
X0034965Y0048373D01*
X0035021Y0047375D02*
X0064654Y0047375D01*
X0064654Y0046376D02*
X0035021Y0046376D01*
X0039221Y0045378D02*
X0064654Y0045378D01*
X0064654Y0044379D02*
X0039221Y0044379D01*
X0039221Y0043381D02*
X0064654Y0043381D01*
X0064578Y0042382D02*
X0039025Y0042382D01*
X0039221Y0040385D02*
X0052621Y0040385D01*
X0052621Y0039387D02*
X0039221Y0039387D01*
X0039221Y0038388D02*
X0052621Y0038388D01*
X0052770Y0037390D02*
X0039033Y0037390D01*
X0040139Y0035393D02*
X0052621Y0035393D01*
X0052621Y0034394D02*
X0041520Y0034394D01*
X0040791Y0035122D02*
X0040791Y0035122D01*
X0042262Y0033652D02*
X0042262Y0033652D01*
X0042368Y0033396D02*
X0052621Y0033396D01*
X0043029Y0025408D02*
X0042228Y0025408D01*
X0042289Y0025469D02*
X0042289Y0025469D01*
X0040415Y0017420D02*
X0097457Y0017420D01*
X0097457Y0016421D02*
X0039417Y0016421D01*
X0038418Y0015423D02*
X0097457Y0015423D01*
X0097457Y0014424D02*
X0037420Y0014424D01*
X0036421Y0013426D02*
X0097457Y0013426D01*
X0097457Y0012427D02*
X0035423Y0012427D01*
X0034818Y0011429D02*
X0097457Y0011429D01*
X0097457Y0018418D02*
X0073353Y0018418D01*
X0073911Y0019417D02*
X0097457Y0019417D01*
X0097457Y0020415D02*
X0084568Y0020415D01*
X0086387Y0021414D02*
X0097457Y0021414D01*
X0097457Y0022412D02*
X0087231Y0022412D01*
X0087644Y0023411D02*
X0097457Y0023411D01*
X0097457Y0024409D02*
X0087746Y0024409D01*
X0087695Y0025408D02*
X0097457Y0025408D01*
X0097457Y0026406D02*
X0087282Y0026406D01*
X0086510Y0027405D02*
X0097457Y0027405D01*
X0097457Y0028403D02*
X0084866Y0028403D01*
X0076425Y0028403D02*
X0071824Y0028403D01*
X0071824Y0027405D02*
X0074781Y0027405D01*
X0074010Y0026406D02*
X0072657Y0026406D01*
X0073136Y0025408D02*
X0073596Y0025408D01*
X0073546Y0024409D02*
X0073136Y0024409D01*
X0073537Y0023411D02*
X0073647Y0023411D01*
X0073911Y0022412D02*
X0074061Y0022412D01*
X0073911Y0021414D02*
X0074905Y0021414D01*
X0073911Y0020415D02*
X0076723Y0020415D01*
X0069280Y0024409D02*
X0058857Y0024409D01*
X0058999Y0023411D02*
X0068935Y0023411D01*
X0068561Y0022412D02*
X0058999Y0022412D01*
X0058999Y0021414D02*
X0068561Y0021414D01*
X0068561Y0020415D02*
X0058999Y0020415D01*
X0058623Y0019417D02*
X0068561Y0019417D01*
X0065294Y0027405D02*
X0064648Y0027405D01*
X0064821Y0028403D02*
X0065294Y0028403D01*
X0065294Y0029402D02*
X0064821Y0029402D01*
X0064821Y0030400D02*
X0065452Y0030400D01*
X0071666Y0030400D02*
X0097457Y0030400D01*
X0097457Y0029402D02*
X0071824Y0029402D01*
X0071824Y0034394D02*
X0088070Y0034394D01*
X0087515Y0035393D02*
X0071824Y0035393D01*
X0071824Y0036391D02*
X0087302Y0036391D01*
X0087345Y0037390D02*
X0071369Y0037390D01*
X0074964Y0039387D02*
X0066872Y0039387D01*
X0067477Y0040385D02*
X0073807Y0040385D01*
X0073237Y0041384D02*
X0067891Y0041384D01*
X0068054Y0042382D02*
X0072916Y0042382D01*
X0072916Y0043381D02*
X0068054Y0043381D01*
X0068054Y0044379D02*
X0073160Y0044379D01*
X0073621Y0045378D02*
X0068054Y0045378D01*
X0068054Y0046376D02*
X0074619Y0046376D01*
X0068054Y0047375D02*
X0097457Y0047375D01*
X0097457Y0050370D02*
X0086210Y0050370D01*
X0086788Y0051369D02*
X0097457Y0051369D01*
X0097457Y0052367D02*
X0087116Y0052367D01*
X0087116Y0053366D02*
X0097457Y0053366D01*
X0097457Y0054365D02*
X0086878Y0054365D01*
X0086426Y0055363D02*
X0097457Y0055363D01*
X0097457Y0056362D02*
X0085427Y0056362D01*
X0065081Y0051683D02*
X0065081Y0051683D01*
X0064000Y0041384D02*
X0026665Y0041384D01*
X0022510Y0037390D02*
X0022191Y0037390D01*
X0022202Y0036391D02*
X0065294Y0036391D01*
X0065749Y0037390D02*
X0064672Y0037390D01*
X0065619Y0038134D02*
X0065619Y0038134D01*
X0065873Y0038388D02*
X0087758Y0038388D01*
X0088657Y0039387D02*
X0085067Y0039387D01*
X0027021Y0035393D02*
X0022299Y0035393D01*
X0022681Y0034394D02*
X0027021Y0034394D01*
D17*
X0024622Y0039353D03*
X0031709Y0048802D03*
X0025016Y0056282D03*
X0005724Y0057857D03*
X0043913Y0040534D03*
X0049031Y0040534D03*
X0049031Y0036203D03*
X0043913Y0036203D03*
X0045488Y0031085D03*
X0035252Y0021636D03*
X0048244Y0019668D03*
X0048244Y0013762D03*
X0065961Y0021243D03*
X0093913Y0014156D03*
X0091551Y0058644D03*
X0006118Y0015731D03*
D18*
X0089583Y0029510D03*
X0090764Y0036597D03*
D19*
X0056118Y0022030D03*
X0025016Y0013369D03*
D20*
X0032496Y0013369D01*
X0033283Y0012581D01*
X0033283Y0012975D01*
X0044701Y0024392D01*
X0053756Y0024392D01*
X0056118Y0022030D01*
X0068559Y0027817D02*
X0071236Y0025140D01*
X0071236Y0021006D01*
X0065961Y0033841D02*
X0058859Y0033841D01*
X0058721Y0033979D01*
X0065961Y0033841D02*
X0066630Y0034510D01*
X0068559Y0034510D01*
X0041157Y0030691D02*
X0041157Y0028329D01*
X0041158Y0028329D02*
X0041156Y0028219D01*
X0041150Y0028109D01*
X0041141Y0028000D01*
X0041127Y0027891D01*
X0041110Y0027782D01*
X0041089Y0027674D01*
X0041064Y0027567D01*
X0041036Y0027461D01*
X0041004Y0027356D01*
X0040968Y0027252D01*
X0040929Y0027149D01*
X0040886Y0027048D01*
X0040839Y0026948D01*
X0040789Y0026850D01*
X0040736Y0026754D01*
X0040679Y0026660D01*
X0040619Y0026568D01*
X0040556Y0026477D01*
X0040490Y0026390D01*
X0040421Y0026304D01*
X0040349Y0026221D01*
X0040274Y0026141D01*
X0040196Y0026063D01*
X0040116Y0025988D01*
X0040033Y0025916D01*
X0039947Y0025847D01*
X0039860Y0025781D01*
X0039769Y0025718D01*
X0039677Y0025658D01*
X0039583Y0025601D01*
X0039487Y0025548D01*
X0039389Y0025498D01*
X0039289Y0025451D01*
X0039188Y0025408D01*
X0039085Y0025369D01*
X0038981Y0025333D01*
X0038876Y0025301D01*
X0038770Y0025273D01*
X0038663Y0025248D01*
X0038555Y0025227D01*
X0038446Y0025210D01*
X0038337Y0025196D01*
X0038228Y0025187D01*
X0038118Y0025181D01*
X0038008Y0025179D01*
X0038008Y0025180D02*
X0014189Y0025180D01*
X0014078Y0025182D01*
X0013967Y0025188D01*
X0013856Y0025197D01*
X0013745Y0025211D01*
X0013635Y0025228D01*
X0013526Y0025250D01*
X0013418Y0025275D01*
X0013310Y0025304D01*
X0013204Y0025336D01*
X0013098Y0025372D01*
X0012994Y0025412D01*
X0012892Y0025456D01*
X0012791Y0025503D01*
X0012692Y0025553D01*
X0012594Y0025607D01*
X0012499Y0025665D01*
X0012406Y0025725D01*
X0012315Y0025789D01*
X0012226Y0025856D01*
X0012139Y0025926D01*
X0012055Y0025999D01*
X0011974Y0026075D01*
X0011895Y0026154D01*
X0011819Y0026235D01*
X0011746Y0026319D01*
X0011676Y0026406D01*
X0011609Y0026495D01*
X0011545Y0026586D01*
X0011485Y0026679D01*
X0011427Y0026775D01*
X0011373Y0026872D01*
X0011323Y0026971D01*
X0011276Y0027072D01*
X0011232Y0027174D01*
X0011192Y0027278D01*
X0011156Y0027384D01*
X0011124Y0027490D01*
X0011095Y0027598D01*
X0011070Y0027706D01*
X0011048Y0027815D01*
X0011031Y0027925D01*
X0011017Y0028036D01*
X0011008Y0028147D01*
X0011002Y0028258D01*
X0011000Y0028369D01*
X0005724Y0021636D02*
X0005621Y0021638D01*
X0005518Y0021644D01*
X0005415Y0021653D01*
X0005313Y0021667D01*
X0005212Y0021684D01*
X0005111Y0021705D01*
X0005011Y0021730D01*
X0004912Y0021758D01*
X0004814Y0021791D01*
X0004717Y0021827D01*
X0004622Y0021866D01*
X0004528Y0021909D01*
X0004436Y0021955D01*
X0004346Y0022005D01*
X0004258Y0022058D01*
X0004171Y0022115D01*
X0004087Y0022175D01*
X0004006Y0022237D01*
X0003926Y0022303D01*
X0003849Y0022372D01*
X0003775Y0022443D01*
X0003704Y0022517D01*
X0003635Y0022594D01*
X0003569Y0022674D01*
X0003507Y0022755D01*
X0003447Y0022839D01*
X0003390Y0022926D01*
X0003337Y0023014D01*
X0003287Y0023104D01*
X0003241Y0023196D01*
X0003198Y0023290D01*
X0003159Y0023385D01*
X0003123Y0023482D01*
X0003090Y0023580D01*
X0003062Y0023679D01*
X0003037Y0023779D01*
X0003016Y0023880D01*
X0002999Y0023981D01*
X0002985Y0024083D01*
X0002976Y0024186D01*
X0002970Y0024289D01*
X0002968Y0024392D01*
X0002969Y0024392D02*
X0002969Y0036203D01*
X0002968Y0036203D02*
X0002970Y0036280D01*
X0002976Y0036357D01*
X0002985Y0036434D01*
X0002998Y0036510D01*
X0003015Y0036586D01*
X0003036Y0036660D01*
X0003060Y0036734D01*
X0003088Y0036806D01*
X0003119Y0036876D01*
X0003154Y0036945D01*
X0003192Y0037013D01*
X0003233Y0037078D01*
X0003278Y0037141D01*
X0003326Y0037202D01*
X0003376Y0037261D01*
X0003429Y0037317D01*
X0003485Y0037370D01*
X0003544Y0037420D01*
X0003605Y0037468D01*
X0003668Y0037513D01*
X0003733Y0037554D01*
X0003801Y0037592D01*
X0003870Y0037627D01*
X0003940Y0037658D01*
X0004012Y0037686D01*
X0004086Y0037710D01*
X0004160Y0037731D01*
X0004236Y0037748D01*
X0004312Y0037761D01*
X0004389Y0037770D01*
X0004466Y0037776D01*
X0004543Y0037778D01*
X0010409Y0037778D01*
X0010455Y0037780D01*
X0010501Y0037785D01*
X0010547Y0037794D01*
X0010592Y0037807D01*
X0010635Y0037823D01*
X0010677Y0037842D01*
X0010718Y0037865D01*
X0010756Y0037891D01*
X0010793Y0037920D01*
X0010827Y0037951D01*
X0010858Y0037985D01*
X0010887Y0038022D01*
X0010913Y0038060D01*
X0010936Y0038101D01*
X0010955Y0038143D01*
X0010971Y0038186D01*
X0010984Y0038231D01*
X0010993Y0038277D01*
X0010998Y0038323D01*
X0011000Y0038369D01*
X0011002Y0038431D01*
X0011008Y0038492D01*
X0011017Y0038553D01*
X0011031Y0038614D01*
X0011048Y0038673D01*
X0011069Y0038731D01*
X0011094Y0038788D01*
X0011122Y0038843D01*
X0011153Y0038896D01*
X0011188Y0038947D01*
X0011226Y0038996D01*
X0011267Y0039043D01*
X0011310Y0039086D01*
X0011357Y0039127D01*
X0011406Y0039165D01*
X0011457Y0039200D01*
X0011510Y0039231D01*
X0011565Y0039259D01*
X0011622Y0039284D01*
X0011680Y0039305D01*
X0011739Y0039322D01*
X0011800Y0039336D01*
X0011861Y0039345D01*
X0011922Y0039351D01*
X0011984Y0039353D01*
X0019110Y0039353D01*
X0019176Y0039351D01*
X0019242Y0039346D01*
X0019308Y0039336D01*
X0019373Y0039323D01*
X0019437Y0039307D01*
X0019500Y0039287D01*
X0019562Y0039263D01*
X0019622Y0039236D01*
X0019681Y0039206D01*
X0019738Y0039172D01*
X0019793Y0039135D01*
X0019846Y0039095D01*
X0019897Y0039053D01*
X0019945Y0039007D01*
X0019991Y0038959D01*
X0020033Y0038908D01*
X0020073Y0038855D01*
X0020110Y0038800D01*
X0020144Y0038743D01*
X0020174Y0038684D01*
X0020201Y0038624D01*
X0020225Y0038562D01*
X0020245Y0038499D01*
X0020261Y0038435D01*
X0020274Y0038370D01*
X0020284Y0038304D01*
X0020289Y0038238D01*
X0020291Y0038172D01*
X0020291Y0036597D01*
X0024957Y0039018D02*
X0033121Y0039018D01*
X0027476Y0029018D02*
X0027295Y0029025D01*
X0027114Y0029036D01*
X0026934Y0029052D01*
X0026753Y0029072D01*
X0026574Y0029097D01*
X0026395Y0029126D01*
X0026217Y0029160D01*
X0026040Y0029198D01*
X0025863Y0029240D01*
X0025688Y0029287D01*
X0025514Y0029338D01*
X0025342Y0029393D01*
X0025170Y0029452D01*
X0025001Y0029515D01*
X0024832Y0029583D01*
X0024666Y0029655D01*
X0024501Y0029731D01*
X0024339Y0029811D01*
X0024178Y0029894D01*
X0024019Y0029982D01*
X0023863Y0030074D01*
X0023709Y0030169D01*
X0023557Y0030268D01*
X0023408Y0030371D01*
X0023261Y0030478D01*
X0023117Y0030588D01*
X0022976Y0030701D01*
X0022837Y0030818D01*
X0022702Y0030939D01*
X0022569Y0031062D01*
X0022440Y0031189D01*
X0022314Y0031319D01*
X0022191Y0031452D01*
X0022071Y0031588D01*
X0021954Y0031727D01*
X0021841Y0031869D01*
X0021732Y0032013D01*
X0021626Y0032160D01*
X0021524Y0032310D01*
X0021425Y0032462D01*
X0021331Y0032617D01*
X0021240Y0032774D01*
X0021153Y0032933D01*
X0021070Y0033094D01*
X0020990Y0033257D01*
X0020915Y0033422D01*
X0020844Y0033588D01*
X0020777Y0033757D01*
X0020714Y0033927D01*
X0020656Y0034098D01*
X0020601Y0034271D01*
X0020551Y0034445D01*
X0020506Y0034621D01*
X0020464Y0034797D01*
X0020427Y0034975D01*
X0020394Y0035153D01*
X0020366Y0035332D01*
X0020342Y0035512D01*
X0020322Y0035692D01*
X0020307Y0035872D01*
X0020296Y0036053D01*
X0020290Y0036234D01*
X0020288Y0036416D01*
X0020291Y0036597D01*
X0024622Y0039353D02*
X0024624Y0039318D01*
X0024629Y0039283D01*
X0024638Y0039249D01*
X0024651Y0039217D01*
X0024667Y0039186D01*
X0024686Y0039156D01*
X0024708Y0039129D01*
X0024733Y0039104D01*
X0024760Y0039082D01*
X0024790Y0039063D01*
X0024821Y0039047D01*
X0024853Y0039034D01*
X0024887Y0039025D01*
X0024922Y0039020D01*
X0024957Y0039018D01*
X0033121Y0034018D02*
X0037831Y0034018D01*
X0037945Y0034016D01*
X0038058Y0034010D01*
X0038171Y0034001D01*
X0038284Y0033987D01*
X0038396Y0033970D01*
X0038508Y0033948D01*
X0038619Y0033923D01*
X0038729Y0033895D01*
X0038837Y0033862D01*
X0038945Y0033826D01*
X0039052Y0033786D01*
X0039156Y0033743D01*
X0039260Y0033696D01*
X0039362Y0033645D01*
X0039462Y0033591D01*
X0039560Y0033534D01*
X0039656Y0033473D01*
X0039750Y0033409D01*
X0039841Y0033342D01*
X0039931Y0033272D01*
X0040018Y0033199D01*
X0040102Y0033122D01*
X0040184Y0033044D01*
X0040262Y0032962D01*
X0040339Y0032878D01*
X0040412Y0032791D01*
X0040482Y0032701D01*
X0040549Y0032610D01*
X0040613Y0032516D01*
X0040674Y0032420D01*
X0040731Y0032322D01*
X0040785Y0032222D01*
X0040836Y0032120D01*
X0040883Y0032016D01*
X0040926Y0031912D01*
X0040966Y0031805D01*
X0041002Y0031697D01*
X0041035Y0031589D01*
X0041063Y0031479D01*
X0041088Y0031368D01*
X0041110Y0031256D01*
X0041127Y0031144D01*
X0041141Y0031031D01*
X0041150Y0030918D01*
X0041156Y0030805D01*
X0041158Y0030691D01*
X0033121Y0029018D02*
X0027476Y0029018D01*
X0035252Y0021636D02*
X0005724Y0021636D01*
X0033121Y0044018D02*
X0033121Y0047389D01*
X0033122Y0047389D02*
X0033120Y0047463D01*
X0033114Y0047537D01*
X0033105Y0047610D01*
X0033091Y0047683D01*
X0033074Y0047755D01*
X0033053Y0047826D01*
X0033028Y0047895D01*
X0033000Y0047964D01*
X0032968Y0048030D01*
X0032933Y0048096D01*
X0032894Y0048159D01*
X0032852Y0048220D01*
X0032807Y0048278D01*
X0032759Y0048334D01*
X0032708Y0048388D01*
X0032654Y0048439D01*
X0032598Y0048487D01*
X0032540Y0048532D01*
X0032479Y0048574D01*
X0032416Y0048613D01*
X0032350Y0048648D01*
X0032284Y0048680D01*
X0032215Y0048708D01*
X0032146Y0048733D01*
X0032075Y0048754D01*
X0032003Y0048771D01*
X0031930Y0048785D01*
X0031857Y0048794D01*
X0031783Y0048800D01*
X0031709Y0048802D01*
X0025016Y0052384D02*
X0025016Y0056282D01*
X0035173Y0056282D01*
X0035227Y0056294D01*
X0035282Y0056302D01*
X0035337Y0056306D01*
X0035392Y0056307D01*
X0035447Y0056303D01*
X0035502Y0056296D01*
X0035556Y0056284D01*
X0035609Y0056269D01*
X0035661Y0056250D01*
X0035711Y0056228D01*
X0035759Y0056202D01*
X0035806Y0056172D01*
X0035851Y0056139D01*
X0035893Y0056104D01*
X0035932Y0056065D01*
X0035968Y0056023D01*
X0036002Y0055980D01*
X0036032Y0055933D01*
X0036059Y0055885D01*
X0036082Y0055835D01*
X0036102Y0055784D01*
X0036118Y0055731D01*
X0025016Y0052384D02*
X0025012Y0052045D01*
X0025000Y0051707D01*
X0024979Y0051369D01*
X0024951Y0051031D01*
X0024914Y0050695D01*
X0024869Y0050359D01*
X0024816Y0050024D01*
X0024755Y0049691D01*
X0024686Y0049360D01*
X0024609Y0049030D01*
X0024524Y0048702D01*
X0024431Y0048376D01*
X0024330Y0048053D01*
X0024221Y0047732D01*
X0024105Y0047414D01*
X0023981Y0047099D01*
X0023850Y0046787D01*
X0023711Y0046478D01*
X0023564Y0046172D01*
X0023411Y0045870D01*
X0023250Y0045572D01*
X0023081Y0045278D01*
X0022906Y0044989D01*
X0022724Y0044703D01*
X0022535Y0044422D01*
X0022339Y0044146D01*
X0022137Y0043874D01*
X0021928Y0043607D01*
X0021713Y0043346D01*
X0021491Y0043090D01*
X0021263Y0042839D01*
X0021030Y0042594D01*
X0020790Y0042354D01*
X0020545Y0042121D01*
X0020294Y0041893D01*
X0020038Y0041671D01*
X0019777Y0041456D01*
X0019510Y0041247D01*
X0019238Y0041045D01*
X0018962Y0040849D01*
X0018681Y0040660D01*
X0018395Y0040478D01*
X0018106Y0040303D01*
X0017812Y0040134D01*
X0017514Y0039973D01*
X0017212Y0039820D01*
X0016906Y0039673D01*
X0016597Y0039534D01*
X0016285Y0039403D01*
X0015970Y0039279D01*
X0015652Y0039163D01*
X0015331Y0039054D01*
X0015008Y0038953D01*
X0014682Y0038860D01*
X0014354Y0038775D01*
X0014024Y0038698D01*
X0013693Y0038629D01*
X0013360Y0038568D01*
X0013025Y0038515D01*
X0012689Y0038470D01*
X0012353Y0038433D01*
X0012015Y0038405D01*
X0011677Y0038384D01*
X0011339Y0038372D01*
X0011000Y0038368D01*
D21*
X0042811Y0055731D02*
X0058598Y0055731D01*
X0058598Y0055730D02*
X0058637Y0055732D01*
X0058675Y0055738D01*
X0058712Y0055747D01*
X0058749Y0055760D01*
X0058784Y0055777D01*
X0058817Y0055796D01*
X0058848Y0055819D01*
X0058877Y0055845D01*
X0058903Y0055874D01*
X0058926Y0055905D01*
X0058945Y0055938D01*
X0058962Y0055973D01*
X0058975Y0056010D01*
X0058984Y0056047D01*
X0058990Y0056085D01*
X0058992Y0056124D01*
X0058992Y0053802D01*
X0058994Y0053680D01*
X0059000Y0053557D01*
X0059010Y0053435D01*
X0059023Y0053314D01*
X0059041Y0053192D01*
X0059062Y0053072D01*
X0059088Y0052952D01*
X0059117Y0052833D01*
X0059150Y0052715D01*
X0059187Y0052599D01*
X0059227Y0052483D01*
X0059271Y0052369D01*
X0059319Y0052256D01*
X0059370Y0052145D01*
X0059425Y0052036D01*
X0059483Y0051928D01*
X0059545Y0051822D01*
X0059610Y0051719D01*
X0059679Y0051617D01*
X0059750Y0051518D01*
X0059825Y0051421D01*
X0059903Y0051326D01*
X0059984Y0051234D01*
X0060068Y0051145D01*
X0060154Y0051059D01*
X0060243Y0050975D01*
X0060335Y0050894D01*
X0060430Y0050816D01*
X0060527Y0050741D01*
X0060626Y0050670D01*
X0060728Y0050601D01*
X0060831Y0050536D01*
X0060937Y0050474D01*
X0061045Y0050416D01*
X0061154Y0050361D01*
X0061265Y0050310D01*
X0061378Y0050262D01*
X0061492Y0050218D01*
X0061608Y0050178D01*
X0061724Y0050141D01*
X0061842Y0050108D01*
X0061961Y0050079D01*
X0062081Y0050053D01*
X0062201Y0050032D01*
X0062323Y0050014D01*
X0062444Y0050001D01*
X0062566Y0049991D01*
X0062689Y0049985D01*
X0062811Y0049983D01*
X0063992Y0049983D01*
X0063992Y0049982D02*
X0064087Y0049980D01*
X0064182Y0049974D01*
X0064277Y0049965D01*
X0064371Y0049951D01*
X0064464Y0049934D01*
X0064557Y0049913D01*
X0064649Y0049889D01*
X0064740Y0049860D01*
X0064830Y0049829D01*
X0064918Y0049793D01*
X0065005Y0049754D01*
X0065090Y0049711D01*
X0065173Y0049666D01*
X0065254Y0049616D01*
X0065334Y0049564D01*
X0065411Y0049508D01*
X0065486Y0049450D01*
X0065558Y0049388D01*
X0065628Y0049323D01*
X0065695Y0049256D01*
X0065760Y0049186D01*
X0065822Y0049114D01*
X0065880Y0049039D01*
X0065936Y0048962D01*
X0065988Y0048882D01*
X0066038Y0048801D01*
X0066083Y0048718D01*
X0066126Y0048633D01*
X0066165Y0048546D01*
X0066201Y0048458D01*
X0066232Y0048368D01*
X0066261Y0048277D01*
X0066285Y0048185D01*
X0066306Y0048092D01*
X0066323Y0047999D01*
X0066337Y0047905D01*
X0066346Y0047810D01*
X0066352Y0047715D01*
X0066354Y0047620D01*
X0066354Y0042896D01*
X0066352Y0042773D01*
X0066346Y0042650D01*
X0066337Y0042527D01*
X0066323Y0042405D01*
X0066306Y0042283D01*
X0066285Y0042162D01*
X0066260Y0042042D01*
X0066231Y0041922D01*
X0066198Y0041803D01*
X0066162Y0041686D01*
X0066122Y0041569D01*
X0066079Y0041454D01*
X0066032Y0041340D01*
X0065981Y0041228D01*
X0065927Y0041118D01*
X0065869Y0041009D01*
X0065809Y0040902D01*
X0065744Y0040797D01*
X0065677Y0040694D01*
X0065606Y0040594D01*
X0065532Y0040495D01*
X0065455Y0040399D01*
X0065375Y0040306D01*
X0065292Y0040215D01*
X0065207Y0040126D01*
X0065118Y0040041D01*
X0065027Y0039958D01*
X0064934Y0039878D01*
X0064838Y0039801D01*
X0064739Y0039727D01*
X0064639Y0039656D01*
X0064536Y0039589D01*
X0064431Y0039524D01*
X0064324Y0039464D01*
X0064215Y0039406D01*
X0064105Y0039352D01*
X0063993Y0039301D01*
X0063879Y0039254D01*
X0063764Y0039211D01*
X0063647Y0039171D01*
X0063530Y0039135D01*
X0063411Y0039102D01*
X0063291Y0039073D01*
X0063171Y0039048D01*
X0063050Y0039027D01*
X0062928Y0039010D01*
X0062806Y0038996D01*
X0062683Y0038987D01*
X0062560Y0038981D01*
X0062437Y0038979D01*
X0058721Y0038979D01*
M02*
