G75*
%MOIN*%
%OFA0B0*%
%FSLAX24Y24*%
%IPPOS*%
%LPD*%
%AMOC8*
5,1,8,0,0,1.08239X$1,22.5*
%
%ADD10C,0.0000*%
%ADD11C,0.0050*%
%ADD12C,0.0060*%
%ADD13C,0.0040*%
%ADD14C,0.0080*%
%ADD15C,0.0020*%
%ADD16R,0.0059X0.0118*%
%ADD17R,0.0118X0.0118*%
D10*
X000100Y000704D02*
X000100Y006216D01*
X010336Y006216D01*
X010336Y000704D01*
X000100Y000704D01*
D11*
X000440Y001067D02*
X000542Y000965D01*
X000745Y000965D01*
X000847Y001067D01*
X000847Y001474D01*
X000745Y001576D01*
X000542Y001576D01*
X000440Y001474D01*
X000440Y001067D01*
X001048Y000965D02*
X001353Y000965D01*
X001455Y001067D01*
X001455Y001271D01*
X001353Y001372D01*
X001048Y001372D01*
X001048Y000762D01*
X001655Y001067D02*
X001655Y001271D01*
X001757Y001372D01*
X001961Y001372D01*
X002062Y001271D01*
X002062Y001169D01*
X001655Y001169D01*
X001655Y001067D02*
X001757Y000965D01*
X001961Y000965D01*
X002263Y000965D02*
X002263Y001372D01*
X002568Y001372D01*
X002670Y001271D01*
X002670Y000965D01*
X002871Y000965D02*
X002871Y001576D01*
X003176Y001576D01*
X003278Y001474D01*
X003278Y001271D01*
X003176Y001169D01*
X002871Y001169D01*
X003479Y000965D02*
X003479Y001576D01*
X003886Y001576D02*
X003886Y000965D01*
X003682Y001169D01*
X003479Y000965D01*
X004086Y000965D02*
X004086Y001576D01*
X004290Y001372D01*
X004493Y001576D01*
X004493Y000965D01*
X004694Y001271D02*
X005101Y001271D01*
X005302Y001576D02*
X005302Y000965D01*
X005709Y000965D02*
X005709Y001576D01*
X005505Y001372D01*
X005302Y001576D01*
X005307Y001813D02*
X005007Y001813D01*
X005157Y001813D02*
X005157Y002263D01*
X005007Y002113D01*
X004847Y002188D02*
X004772Y002263D01*
X004621Y002263D01*
X004546Y002188D01*
X004546Y001888D01*
X004621Y001813D01*
X004772Y001813D01*
X004847Y001888D01*
X004390Y001813D02*
X004239Y001813D01*
X004314Y001813D02*
X004314Y002263D01*
X004239Y002263D02*
X004390Y002263D01*
X002295Y003847D02*
X002220Y003772D01*
X002295Y003847D02*
X002295Y003922D01*
X002220Y003997D01*
X001845Y003997D01*
X001845Y003922D02*
X001845Y004072D01*
X001845Y004232D02*
X001845Y004457D01*
X001920Y004532D01*
X002070Y004532D01*
X002145Y004457D01*
X002145Y004232D01*
X002295Y004232D02*
X001845Y004232D01*
X001995Y004692D02*
X001845Y004843D01*
X002295Y004843D01*
X002295Y004993D02*
X002295Y004692D01*
X007161Y004667D02*
X007236Y004592D01*
X007161Y004667D02*
X007161Y004817D01*
X007236Y004893D01*
X007311Y004893D01*
X007611Y004592D01*
X007611Y004893D01*
X007386Y004432D02*
X007236Y004432D01*
X007161Y004357D01*
X007161Y004132D01*
X007611Y004132D01*
X007461Y004132D02*
X007461Y004357D01*
X007386Y004432D01*
X007161Y003972D02*
X007161Y003822D01*
X007161Y003897D02*
X007536Y003897D01*
X007611Y003822D01*
X007611Y003747D01*
X007536Y003672D01*
X009085Y003488D02*
X009085Y003338D01*
X009160Y003263D01*
X009160Y003103D02*
X009310Y003103D01*
X009385Y003028D01*
X009385Y002803D01*
X009535Y002803D02*
X009085Y002803D01*
X009085Y003028D01*
X009160Y003103D01*
X009460Y003263D02*
X009535Y003338D01*
X009535Y003488D01*
X009460Y003563D01*
X009385Y003563D01*
X009310Y003488D01*
X009310Y003413D01*
X009310Y003488D02*
X009235Y003563D01*
X009160Y003563D01*
X009085Y003488D01*
X009085Y002643D02*
X009085Y002493D01*
X009085Y002568D02*
X009460Y002568D01*
X009535Y002493D01*
X009535Y002418D01*
X009460Y002342D01*
X009216Y001576D02*
X009012Y001576D01*
X008911Y001474D01*
X008911Y001067D01*
X009318Y001474D01*
X009318Y001067D01*
X009216Y000965D01*
X009012Y000965D01*
X008911Y001067D01*
X008708Y001067D02*
X008708Y000965D01*
X008607Y000965D01*
X008607Y001067D01*
X008708Y001067D01*
X008406Y000965D02*
X007999Y000965D01*
X008406Y001372D01*
X008406Y001474D01*
X008304Y001576D01*
X008101Y001576D01*
X007999Y001474D01*
X009216Y001576D02*
X009318Y001474D01*
D12*
X008840Y001919D02*
X008590Y001669D01*
X008090Y001669D01*
X007840Y001919D01*
X007840Y002419D01*
X008090Y002669D01*
X007840Y002919D01*
X007840Y003419D01*
X008090Y003669D01*
X008590Y003669D01*
X008840Y003419D01*
X008840Y002919D01*
X008590Y002669D01*
X008840Y002419D01*
X008840Y001919D01*
X008590Y002669D02*
X008090Y002669D01*
X009028Y003141D02*
X009455Y003141D01*
X008856Y003927D02*
X008606Y003677D01*
X008106Y003677D01*
X007856Y003927D01*
X007856Y004427D01*
X008106Y004677D01*
X007856Y004927D01*
X007856Y005427D01*
X008106Y005677D01*
X008606Y005677D01*
X008856Y005427D01*
X008856Y004927D01*
X008606Y004677D01*
X008856Y004427D01*
X008856Y003927D01*
X008606Y004677D02*
X008106Y004677D01*
X009106Y005188D02*
X009533Y005188D01*
X009320Y005402D02*
X009320Y004975D01*
X005576Y004330D02*
X005576Y004279D01*
X005576Y004338D02*
X005575Y004355D01*
X005570Y004372D01*
X005563Y004387D01*
X005553Y004401D01*
X005541Y004413D01*
X005527Y004423D01*
X005512Y004430D01*
X005495Y004435D01*
X005478Y004436D01*
X003706Y004436D01*
X003689Y004435D01*
X003672Y004430D01*
X003657Y004423D01*
X003643Y004413D01*
X003631Y004401D01*
X003621Y004387D01*
X003614Y004372D01*
X003609Y004355D01*
X003608Y004338D01*
X003608Y004342D02*
X003608Y004283D01*
X003608Y004039D02*
X003608Y003787D01*
X003608Y003539D02*
X003608Y003287D01*
X003608Y003039D02*
X003608Y002787D01*
X003608Y002543D02*
X003608Y002491D01*
X003608Y002488D02*
X003609Y002471D01*
X003614Y002454D01*
X003621Y002439D01*
X003631Y002425D01*
X003643Y002413D01*
X003657Y002403D01*
X003672Y002396D01*
X003689Y002391D01*
X003706Y002390D01*
X003706Y002389D02*
X005474Y002389D01*
X005478Y002390D02*
X005495Y002391D01*
X005512Y002396D01*
X005527Y002403D01*
X005541Y002413D01*
X005553Y002425D01*
X005563Y002439D01*
X005570Y002454D01*
X005575Y002471D01*
X005576Y002488D01*
X005576Y002491D02*
X005576Y002543D01*
X005576Y002787D02*
X005576Y003039D01*
X005576Y003283D02*
X005576Y003539D01*
X005576Y003783D02*
X005576Y004039D01*
X002289Y004676D02*
X001862Y004676D01*
X001600Y004848D02*
X001350Y005098D01*
X000850Y005098D01*
X000600Y004848D01*
X000600Y004348D01*
X000850Y004098D01*
X000600Y003848D01*
X000600Y003348D01*
X000850Y003098D01*
X000600Y002848D01*
X000600Y002348D01*
X000850Y002098D01*
X001350Y002098D01*
X001600Y002348D01*
X001600Y002848D01*
X001350Y003098D01*
X000850Y003098D01*
X001350Y003098D02*
X001600Y003348D01*
X001600Y003848D01*
X001350Y004098D01*
X000850Y004098D01*
X001350Y004098D02*
X001600Y004348D01*
X001600Y004848D01*
D13*
X003616Y006164D02*
X003923Y006164D01*
X003770Y006164D02*
X003770Y005704D01*
X004077Y005704D02*
X004077Y006164D01*
X004077Y005934D02*
X004384Y005934D01*
X004537Y005934D02*
X004691Y005934D01*
X004844Y006164D02*
X004537Y006164D01*
X004537Y005704D01*
X004844Y005704D01*
X004998Y005704D02*
X004998Y006164D01*
X005228Y006164D01*
X005305Y006088D01*
X005305Y005934D01*
X005228Y005857D01*
X004998Y005857D01*
X005151Y005857D02*
X005305Y005704D01*
X005458Y005704D02*
X005458Y006164D01*
X005611Y006011D01*
X005765Y006164D01*
X005765Y005704D01*
X005904Y005743D02*
X005904Y006204D01*
X006134Y006204D01*
X006211Y006127D01*
X006211Y005974D01*
X006134Y005897D01*
X005904Y005897D01*
X005918Y006011D02*
X006072Y006164D01*
X006072Y005704D01*
X006211Y005743D02*
X006057Y005897D01*
X006364Y006050D02*
X006518Y006204D01*
X006518Y005743D01*
X006671Y005743D02*
X006364Y005743D01*
X006225Y005704D02*
X005918Y005704D01*
X004384Y005704D02*
X004384Y006164D01*
X006492Y003866D02*
X006492Y003559D01*
X006262Y003789D01*
X006722Y003789D01*
X006722Y003405D02*
X006569Y003252D01*
X006569Y003329D02*
X006569Y003098D01*
X006722Y003098D02*
X006262Y003098D01*
X006262Y003329D01*
X006338Y003405D01*
X006492Y003405D01*
X006569Y003329D01*
X007775Y002313D02*
X007775Y002006D01*
X007698Y001852D02*
X007391Y001852D01*
X007314Y001776D01*
X007314Y001545D01*
X007775Y001545D01*
X007775Y001776D01*
X007698Y001852D01*
X007468Y002006D02*
X007314Y002159D01*
X007775Y002159D01*
X007775Y001392D02*
X007775Y001085D01*
X007314Y001085D01*
X007314Y001392D01*
X007545Y001238D02*
X007545Y001085D01*
X007775Y000932D02*
X007775Y000625D01*
X007314Y000625D01*
X009096Y001905D02*
X009096Y002366D01*
X009250Y002212D01*
X009403Y002366D01*
X009403Y001905D01*
X009557Y001905D02*
X009864Y002212D01*
X009864Y002289D01*
X009787Y002366D01*
X009634Y002366D01*
X009557Y002289D01*
X009557Y001905D02*
X009864Y001905D01*
X009903Y003952D02*
X009596Y003952D01*
X009443Y003952D02*
X009443Y004413D01*
X009289Y004259D01*
X009136Y004413D01*
X009136Y003952D01*
X009596Y004259D02*
X009750Y004413D01*
X009750Y003952D01*
D14*
X007495Y004261D02*
X007215Y004261D01*
X007425Y004472D01*
X007425Y004051D01*
X007034Y004051D02*
X006894Y004191D01*
X006964Y004191D02*
X006754Y004191D01*
X006754Y004051D02*
X006754Y004472D01*
X006964Y004472D01*
X007034Y004401D01*
X007034Y004261D01*
X006964Y004191D01*
X004941Y005705D02*
X004941Y005915D01*
X004871Y005985D01*
X004801Y005915D01*
X004801Y005705D01*
X004661Y005705D02*
X004661Y005985D01*
X004731Y005985D01*
X004801Y005915D01*
X004487Y005985D02*
X004417Y005985D01*
X004277Y005845D01*
X004097Y005845D02*
X004097Y005915D01*
X004027Y005985D01*
X003887Y005985D01*
X003817Y005915D01*
X003817Y005775D01*
X003887Y005705D01*
X004027Y005705D01*
X004097Y005845D02*
X003817Y005845D01*
X003637Y005915D02*
X003637Y005705D01*
X003356Y005705D02*
X003356Y006125D01*
X003426Y005985D02*
X003566Y005985D01*
X003637Y005915D01*
X003426Y005985D02*
X003356Y005915D01*
X003036Y005705D02*
X003036Y006125D01*
X002896Y006125D02*
X003176Y006125D01*
X004277Y005985D02*
X004277Y005705D01*
X005927Y005744D02*
X005927Y006164D01*
X006138Y006164D01*
X006208Y006094D01*
X006208Y005954D01*
X006138Y005884D01*
X005927Y005884D01*
X006068Y005884D02*
X006208Y005744D01*
X006388Y005744D02*
X006668Y005744D01*
X006528Y005744D02*
X006528Y006164D01*
X006388Y006024D01*
D15*
X004834Y002854D02*
X004836Y002881D01*
X004842Y002908D01*
X004851Y002934D01*
X004864Y002958D01*
X004880Y002981D01*
X004899Y003000D01*
X004921Y003017D01*
X004945Y003031D01*
X004970Y003041D01*
X004997Y003048D01*
X005024Y003051D01*
X005052Y003050D01*
X005079Y003045D01*
X005105Y003037D01*
X005129Y003025D01*
X005152Y003009D01*
X005173Y002991D01*
X005190Y002970D01*
X005205Y002946D01*
X005216Y002921D01*
X005224Y002895D01*
X005228Y002868D01*
X005228Y002840D01*
X005224Y002813D01*
X005216Y002787D01*
X005205Y002762D01*
X005190Y002738D01*
X005173Y002717D01*
X005152Y002699D01*
X005130Y002683D01*
X005105Y002671D01*
X005079Y002663D01*
X005052Y002658D01*
X005024Y002657D01*
X004997Y002660D01*
X004970Y002667D01*
X004945Y002677D01*
X004921Y002691D01*
X004899Y002708D01*
X004880Y002727D01*
X004864Y002750D01*
X004851Y002774D01*
X004842Y002800D01*
X004836Y002827D01*
X004834Y002854D01*
D16*
X006897Y002137D03*
X007193Y002137D03*
D17*
X007045Y002137D03*
M02*
