G75*
%MOIN*%
%OFA0B0*%
%FSLAX24Y24*%
%IPPOS*%
%LPD*%
%AMOC8*
5,1,8,0,0,1.08239X$1,22.5*
%
%ADD10C,0.0000*%
%ADD11C,0.0600*%
%ADD12R,0.1000X0.0197*%
%ADD13R,0.0394X0.0433*%
%ADD14R,0.0433X0.0394*%
%ADD15R,0.0315X0.0315*%
%ADD16C,0.0100*%
%ADD17C,0.0356*%
%ADD18C,0.0472*%
%ADD19R,0.0356X0.0356*%
%ADD20C,0.0160*%
%ADD21C,0.0120*%
D10*
X000100Y000704D02*
X000100Y006216D01*
X010336Y006216D01*
X010336Y000704D01*
X000100Y000704D01*
D11*
X000800Y002598D02*
X001400Y002598D01*
X001400Y003598D02*
X000800Y003598D01*
X000800Y004598D02*
X001400Y004598D01*
X008056Y004177D02*
X008656Y004177D01*
X008656Y005177D02*
X008056Y005177D01*
X008040Y003169D02*
X008640Y003169D01*
X008640Y002169D02*
X008040Y002169D01*
D12*
X005872Y002663D03*
X005872Y003159D03*
X005872Y003659D03*
X005872Y004159D03*
X003312Y004163D03*
X003312Y003663D03*
X003312Y003163D03*
X003312Y002663D03*
D13*
X003612Y005334D03*
X004281Y005334D03*
X005899Y005373D03*
X006569Y005373D03*
D14*
X007092Y003763D03*
X007092Y003094D03*
D15*
X007045Y002491D03*
X007045Y001901D03*
D16*
X006842Y002224D02*
X007248Y002224D01*
X007312Y002288D01*
X007312Y002695D01*
X007262Y002745D01*
X007262Y002787D01*
X007354Y002787D01*
X007419Y002851D01*
X007419Y003336D01*
X007354Y003401D01*
X006830Y003401D01*
X006781Y003352D01*
X006821Y003448D01*
X006830Y003457D01*
X006830Y003456D01*
X007354Y003456D01*
X007419Y003521D01*
X007419Y004006D01*
X007354Y004070D01*
X006830Y004070D01*
X006805Y004045D01*
X006805Y004632D01*
X006697Y004820D01*
X006697Y004820D01*
X006697Y004820D01*
X006508Y004929D01*
X006281Y004929D01*
X006240Y004933D01*
X006163Y004965D01*
X006105Y005023D01*
X006095Y005047D01*
X006142Y005047D01*
X006206Y005111D01*
X006206Y005635D01*
X006142Y005700D01*
X005657Y005700D01*
X005592Y005635D01*
X005592Y005504D01*
X004588Y005504D01*
X004588Y005596D01*
X004524Y005661D01*
X004039Y005661D01*
X003974Y005596D01*
X003974Y005072D01*
X004039Y005007D01*
X004524Y005007D01*
X004588Y005072D01*
X004588Y005164D01*
X005592Y005164D01*
X005592Y005111D01*
X005657Y005047D01*
X005729Y005047D01*
X005729Y005031D01*
X005813Y004828D01*
X005968Y004673D01*
X006171Y004589D01*
X006399Y004589D01*
X006416Y004587D01*
X006446Y004570D01*
X006463Y004540D01*
X006465Y004523D01*
X006465Y004051D01*
X006461Y004007D01*
X006428Y003927D01*
X006368Y003867D01*
X005327Y003867D01*
X005262Y003803D01*
X005262Y003515D01*
X005327Y003450D01*
X006418Y003450D01*
X006468Y003501D01*
X006426Y003400D01*
X006426Y003359D01*
X006418Y003367D01*
X005327Y003367D01*
X005262Y003303D01*
X005262Y003015D01*
X005327Y002950D01*
X006418Y002950D01*
X006456Y002989D01*
X006565Y002989D01*
X006693Y003062D01*
X006693Y003062D01*
X006693Y003062D01*
X006766Y003189D01*
X006766Y002851D01*
X006830Y002787D01*
X006922Y002787D01*
X006922Y002759D01*
X006842Y002759D01*
X006777Y002695D01*
X006777Y002288D01*
X006842Y002224D01*
X006786Y002280D02*
X004201Y002280D01*
X004229Y002308D02*
X004087Y002166D01*
X004087Y002166D01*
X003901Y002089D01*
X003768Y002089D01*
X003769Y002088D01*
X003813Y001982D01*
X003813Y001867D01*
X003769Y001761D01*
X003688Y001680D01*
X003583Y001636D01*
X003468Y001636D01*
X003362Y001680D01*
X003305Y001737D01*
X000571Y001774D01*
X000448Y001774D01*
X000250Y001888D01*
X000250Y000854D01*
X008254Y000854D01*
X010139Y000862D01*
X010139Y006066D01*
X000257Y006066D01*
X000250Y005127D01*
X000250Y003664D01*
X000361Y003729D01*
X000410Y003729D01*
X000452Y003830D01*
X000568Y003945D01*
X000718Y004008D01*
X001482Y004008D01*
X001632Y003945D01*
X001649Y003929D01*
X001838Y004038D01*
X002061Y004262D01*
X002219Y004536D01*
X002219Y004536D01*
X002301Y004841D01*
X000250Y004841D01*
X000250Y004743D02*
X002275Y004743D01*
X002301Y004841D02*
X002312Y004999D01*
X002312Y005172D01*
X002257Y005226D01*
X002213Y005332D01*
X002213Y005446D01*
X002257Y005552D01*
X002338Y005633D01*
X002444Y005677D01*
X002559Y005677D01*
X002665Y005633D01*
X002719Y005579D01*
X003305Y005579D01*
X003305Y005596D01*
X003369Y005661D01*
X003854Y005661D01*
X003919Y005596D01*
X003919Y005072D01*
X003854Y005007D01*
X003369Y005007D01*
X003305Y005072D01*
X003305Y005199D01*
X002719Y005199D01*
X002692Y005172D01*
X002692Y004790D01*
X002583Y004385D01*
X002374Y004022D01*
X002374Y004022D01*
X002143Y003792D01*
X002174Y003739D01*
X002174Y003754D01*
X002218Y003859D01*
X002299Y003940D01*
X002405Y003984D01*
X002520Y003984D01*
X002625Y003940D01*
X002706Y003859D01*
X002709Y003853D01*
X002748Y003853D01*
X002767Y003871D01*
X003858Y003871D01*
X003922Y003807D01*
X003922Y003519D01*
X003858Y003454D01*
X002767Y003454D01*
X002748Y003473D01*
X002646Y003473D01*
X002625Y003452D01*
X002520Y003408D01*
X002405Y003408D01*
X002299Y003452D01*
X002219Y003532D01*
X002219Y003421D01*
X002227Y003319D01*
X002290Y003127D01*
X002409Y002963D01*
X002572Y002844D01*
X002702Y002802D01*
X002702Y002807D01*
X002767Y002871D01*
X003858Y002871D01*
X003918Y002871D01*
X003923Y002858D02*
X003926Y002830D01*
X003926Y002594D01*
X003923Y002569D01*
X003922Y002566D01*
X003922Y002807D01*
X003858Y002871D01*
X003902Y002909D02*
X003923Y002858D01*
X003902Y002909D02*
X003862Y002949D01*
X003849Y002954D01*
X002767Y002954D01*
X002702Y003019D01*
X002702Y003307D01*
X002767Y003371D01*
X003858Y003371D01*
X003876Y003353D01*
X003887Y003353D01*
X004079Y003273D01*
X004079Y003273D01*
X004226Y003126D01*
X004226Y003126D01*
X004306Y002934D01*
X004306Y002493D01*
X004229Y002308D01*
X004229Y002308D01*
X004258Y002379D02*
X006777Y002379D01*
X006777Y002477D02*
X006440Y002477D01*
X006418Y002454D02*
X006482Y002519D01*
X006482Y002807D01*
X006418Y002871D01*
X006766Y002871D01*
X006766Y002970D02*
X006437Y002970D01*
X006418Y002871D02*
X005327Y002871D01*
X005262Y002807D01*
X005262Y002519D01*
X005327Y002454D01*
X006418Y002454D01*
X006482Y002576D02*
X006777Y002576D01*
X006777Y002674D02*
X006482Y002674D01*
X006482Y002773D02*
X006922Y002773D01*
X007262Y002773D02*
X010139Y002773D01*
X010139Y002871D02*
X007419Y002871D01*
X007419Y002970D02*
X010139Y002970D01*
X010139Y003068D02*
X007419Y003068D01*
X007419Y003167D02*
X009234Y003167D01*
X009274Y003127D02*
X009401Y003074D01*
X009539Y003074D01*
X009666Y003127D01*
X009764Y003224D01*
X009816Y003352D01*
X009816Y003489D01*
X009764Y003617D01*
X009666Y003714D01*
X009539Y003767D01*
X009401Y003767D01*
X009274Y003714D01*
X009177Y003617D01*
X009124Y003489D01*
X009124Y003352D01*
X009177Y003224D01*
X009274Y003127D01*
X009160Y003265D02*
X007419Y003265D01*
X007391Y003364D02*
X009124Y003364D01*
X009124Y003462D02*
X007360Y003462D01*
X007419Y003561D02*
X009153Y003561D01*
X009219Y003659D02*
X007419Y003659D01*
X007419Y003758D02*
X009379Y003758D01*
X009561Y003758D02*
X010139Y003758D01*
X010139Y003659D02*
X009721Y003659D01*
X009787Y003561D02*
X010139Y003561D01*
X010139Y003462D02*
X009816Y003462D01*
X009816Y003364D02*
X010139Y003364D01*
X010139Y003265D02*
X009780Y003265D01*
X009706Y003167D02*
X010139Y003167D01*
X010139Y002674D02*
X007312Y002674D01*
X007312Y002576D02*
X007951Y002576D01*
X007959Y002579D02*
X007808Y002516D01*
X007693Y002401D01*
X007630Y002250D01*
X007630Y002087D01*
X007693Y001936D01*
X007808Y001821D01*
X007959Y001759D01*
X008722Y001759D01*
X008872Y001821D01*
X008988Y001936D01*
X009050Y002087D01*
X009050Y002250D01*
X008988Y002401D01*
X008872Y002516D01*
X008722Y002579D01*
X007959Y002579D01*
X007769Y002477D02*
X007312Y002477D01*
X007312Y002379D02*
X007683Y002379D01*
X007643Y002280D02*
X007304Y002280D01*
X007630Y002182D02*
X004103Y002182D01*
X003771Y002083D02*
X007632Y002083D01*
X007673Y001985D02*
X003812Y001985D01*
X003813Y001886D02*
X007743Y001886D01*
X007889Y001788D02*
X003780Y001788D01*
X003697Y001689D02*
X010139Y001689D01*
X010139Y001788D02*
X008792Y001788D01*
X008937Y001886D02*
X010139Y001886D01*
X010139Y001985D02*
X009008Y001985D01*
X009048Y002083D02*
X010139Y002083D01*
X010139Y002182D02*
X009050Y002182D01*
X009038Y002280D02*
X010139Y002280D01*
X010139Y002379D02*
X008997Y002379D01*
X008912Y002477D02*
X010139Y002477D01*
X010139Y002576D02*
X008729Y002576D01*
X010139Y001591D02*
X000250Y001591D01*
X000250Y001492D02*
X010139Y001492D01*
X010139Y001394D02*
X000250Y001394D01*
X000250Y001295D02*
X010139Y001295D01*
X010139Y001197D02*
X000250Y001197D01*
X000250Y001098D02*
X010139Y001098D01*
X010139Y001000D02*
X000250Y001000D01*
X000250Y000901D02*
X010139Y000901D01*
X006766Y003068D02*
X006696Y003068D01*
X006753Y003167D02*
X006766Y003167D01*
X006786Y003364D02*
X006793Y003364D01*
X006452Y003462D02*
X006429Y003462D01*
X006421Y003364D02*
X006426Y003364D01*
X006439Y003955D02*
X003858Y003955D01*
X003858Y003954D02*
X003922Y004019D01*
X003922Y004307D01*
X003858Y004371D01*
X003502Y004371D01*
X003502Y004589D01*
X003459Y004663D01*
X003459Y004698D01*
X003415Y004804D01*
X003334Y004885D01*
X003228Y004929D01*
X003114Y004929D01*
X003008Y004885D01*
X002927Y004804D01*
X002883Y004698D01*
X002883Y004584D01*
X002927Y004478D01*
X003008Y004397D01*
X003070Y004371D01*
X002767Y004371D01*
X002702Y004307D01*
X002702Y004019D01*
X002767Y003954D01*
X003858Y003954D01*
X003873Y003856D02*
X005315Y003856D01*
X005262Y003758D02*
X003922Y003758D01*
X003922Y003659D02*
X005262Y003659D01*
X005262Y003561D02*
X003922Y003561D01*
X003865Y003462D02*
X005315Y003462D01*
X005323Y003364D02*
X003865Y003364D01*
X004087Y003265D02*
X005262Y003265D01*
X005262Y003167D02*
X004186Y003167D01*
X004250Y003068D02*
X005262Y003068D01*
X005307Y002970D02*
X004291Y002970D01*
X004306Y002871D02*
X005326Y002871D01*
X005262Y002773D02*
X004306Y002773D01*
X004306Y002674D02*
X005262Y002674D01*
X005262Y002576D02*
X004306Y002576D01*
X004299Y002477D02*
X005304Y002477D01*
X003924Y002576D02*
X003922Y002576D01*
X003922Y002674D02*
X003926Y002674D01*
X003922Y002773D02*
X003926Y002773D01*
X002766Y002871D02*
X002536Y002871D01*
X002404Y002970D02*
X002751Y002970D01*
X002702Y003068D02*
X002332Y003068D01*
X002277Y003167D02*
X002702Y003167D01*
X002702Y003265D02*
X002245Y003265D01*
X002224Y003364D02*
X002759Y003364D01*
X002759Y003462D02*
X002636Y003462D01*
X002289Y003462D02*
X002219Y003462D01*
X002176Y003758D02*
X002163Y003758D01*
X002208Y003856D02*
X002217Y003856D01*
X002306Y003955D02*
X002333Y003955D01*
X002391Y004053D02*
X002702Y004053D01*
X002702Y004152D02*
X002448Y004152D01*
X002505Y004250D02*
X002702Y004250D01*
X002744Y004349D02*
X002562Y004349D01*
X002600Y004447D02*
X002957Y004447D01*
X002899Y004546D02*
X002626Y004546D01*
X002653Y004644D02*
X002883Y004644D01*
X002901Y004743D02*
X002679Y004743D01*
X002692Y004841D02*
X002963Y004841D01*
X002692Y004940D02*
X005767Y004940D01*
X005729Y005038D02*
X004554Y005038D01*
X004588Y005137D02*
X005592Y005137D01*
X005808Y004841D02*
X003378Y004841D01*
X003441Y004743D02*
X005899Y004743D01*
X005968Y004673D02*
X005968Y004673D01*
X006039Y004644D02*
X003470Y004644D01*
X003502Y004546D02*
X006460Y004546D01*
X006465Y004447D02*
X003502Y004447D01*
X003880Y004349D02*
X006465Y004349D01*
X006465Y004250D02*
X003922Y004250D01*
X003922Y004152D02*
X006465Y004152D01*
X006465Y004053D02*
X003922Y004053D01*
X002766Y003955D02*
X002591Y003955D01*
X002708Y003856D02*
X002751Y003856D01*
X002050Y004250D02*
X000250Y004250D01*
X000250Y004349D02*
X002111Y004349D01*
X002168Y004447D02*
X000250Y004447D01*
X000250Y004546D02*
X002222Y004546D01*
X002248Y004644D02*
X000250Y004644D01*
X000250Y004940D02*
X002308Y004940D01*
X002312Y005038D02*
X000250Y005038D01*
X000250Y005137D02*
X002312Y005137D01*
X002254Y005235D02*
X000251Y005235D01*
X000252Y005334D02*
X002213Y005334D01*
X002213Y005432D02*
X000252Y005432D01*
X000253Y005531D02*
X002248Y005531D01*
X002334Y005629D02*
X000254Y005629D01*
X000254Y005728D02*
X010139Y005728D01*
X010139Y005826D02*
X000255Y005826D01*
X000256Y005925D02*
X010139Y005925D01*
X010139Y006023D02*
X000257Y006023D01*
X002669Y005629D02*
X003338Y005629D01*
X003886Y005629D02*
X004007Y005629D01*
X003974Y005531D02*
X003919Y005531D01*
X003919Y005432D02*
X003974Y005432D01*
X003974Y005334D02*
X003919Y005334D01*
X003919Y005235D02*
X003974Y005235D01*
X003974Y005137D02*
X003919Y005137D01*
X003885Y005038D02*
X004008Y005038D01*
X003339Y005038D02*
X002692Y005038D01*
X002692Y005137D02*
X003305Y005137D01*
X004588Y005531D02*
X005592Y005531D01*
X005592Y005629D02*
X004555Y005629D01*
X005813Y004828D02*
X005813Y004828D01*
X006099Y005038D02*
X007669Y005038D01*
X007646Y005095D02*
X007708Y004944D01*
X007824Y004829D01*
X007974Y004767D01*
X008737Y004767D01*
X008888Y004829D01*
X009003Y004944D01*
X009066Y005095D01*
X009066Y005258D01*
X009003Y005409D01*
X008888Y005524D01*
X008737Y005587D01*
X007974Y005587D01*
X007824Y005524D01*
X007708Y005409D01*
X007646Y005258D01*
X007646Y005095D01*
X007646Y005137D02*
X006206Y005137D01*
X006206Y005235D02*
X007646Y005235D01*
X007677Y005334D02*
X006206Y005334D01*
X006206Y005432D02*
X007732Y005432D01*
X007839Y005531D02*
X006206Y005531D01*
X006206Y005629D02*
X010139Y005629D01*
X010139Y005531D02*
X008872Y005531D01*
X008980Y005432D02*
X010139Y005432D01*
X010139Y005334D02*
X009035Y005334D01*
X009066Y005235D02*
X010139Y005235D01*
X010139Y005137D02*
X009066Y005137D01*
X009042Y005038D02*
X010139Y005038D01*
X010139Y004940D02*
X008999Y004940D01*
X008900Y004841D02*
X010139Y004841D01*
X010139Y004743D02*
X006741Y004743D01*
X006661Y004841D02*
X007812Y004841D01*
X007713Y004940D02*
X006225Y004940D01*
X006798Y004644D02*
X010139Y004644D01*
X010139Y004546D02*
X008836Y004546D01*
X008888Y004524D02*
X008737Y004587D01*
X007974Y004587D01*
X007824Y004524D01*
X007708Y004409D01*
X007646Y004258D01*
X007646Y004095D01*
X007708Y003944D01*
X007824Y003829D01*
X007974Y003767D01*
X008737Y003767D01*
X008888Y003829D01*
X009003Y003944D01*
X009066Y004095D01*
X009066Y004258D01*
X009003Y004409D01*
X008888Y004524D01*
X008965Y004447D02*
X010139Y004447D01*
X010139Y004349D02*
X009028Y004349D01*
X009066Y004250D02*
X010139Y004250D01*
X010139Y004152D02*
X009066Y004152D01*
X009049Y004053D02*
X010139Y004053D01*
X010139Y003955D02*
X009008Y003955D01*
X008915Y003856D02*
X010139Y003856D01*
X007876Y004546D02*
X006805Y004546D01*
X006805Y004447D02*
X007747Y004447D01*
X007683Y004349D02*
X006805Y004349D01*
X006805Y004250D02*
X007646Y004250D01*
X007646Y004152D02*
X006805Y004152D01*
X006805Y004053D02*
X006813Y004053D01*
X007371Y004053D02*
X007663Y004053D01*
X007704Y003955D02*
X007419Y003955D01*
X007419Y003856D02*
X007797Y003856D01*
X003353Y001689D02*
X000250Y001689D01*
X000250Y001788D02*
X000424Y001788D01*
X000253Y001886D02*
X000250Y001886D01*
X000250Y003758D02*
X000422Y003758D01*
X000478Y003856D02*
X000250Y003856D01*
X000250Y003955D02*
X000590Y003955D01*
X000250Y004053D02*
X001853Y004053D01*
X001951Y004152D02*
X000250Y004152D01*
X001610Y003955D02*
X001693Y003955D01*
D17*
X002462Y003696D03*
X003171Y004641D03*
X002502Y005389D03*
X000572Y005547D03*
X004391Y003814D03*
X004903Y003814D03*
X004903Y003381D03*
X004391Y003381D03*
X004549Y002869D03*
X003525Y001925D03*
X004824Y001728D03*
X004824Y001137D03*
X006596Y001885D03*
X009706Y001255D03*
X009628Y005704D03*
X000612Y001334D03*
D18*
X009470Y002673D03*
X009470Y003421D03*
D19*
X004273Y001177D03*
X002974Y001491D03*
D20*
X002974Y001492D02*
X002973Y001458D01*
X002977Y001425D01*
X002984Y001393D01*
X002994Y001362D01*
X003008Y001332D01*
X003026Y001303D01*
X003046Y001277D01*
X003069Y001253D01*
X003095Y001232D01*
X003123Y001214D01*
X003153Y001200D01*
X003184Y001188D01*
X003216Y001181D01*
X003249Y001177D01*
X003250Y001177D02*
X004273Y001177D01*
X004273Y001176D02*
X004304Y001178D01*
X004334Y001183D01*
X004364Y001191D01*
X004393Y001203D01*
X004420Y001218D01*
X004445Y001236D01*
X004468Y001257D01*
X004489Y001280D01*
X004507Y001305D01*
X004522Y001332D01*
X004534Y001361D01*
X004542Y001391D01*
X004547Y001421D01*
X004549Y001452D01*
X004549Y002869D01*
X004116Y002830D02*
X004116Y002594D01*
X004114Y002561D01*
X004109Y002529D01*
X004101Y002497D01*
X004089Y002466D01*
X004074Y002436D01*
X004056Y002409D01*
X004035Y002383D01*
X004012Y002360D01*
X003986Y002339D01*
X003958Y002321D01*
X003929Y002306D01*
X003898Y002294D01*
X003866Y002286D01*
X003834Y002281D01*
X003801Y002279D01*
X001419Y002279D01*
X001386Y002281D01*
X001353Y002286D01*
X001320Y002295D01*
X001289Y002307D01*
X001260Y002322D01*
X001231Y002340D01*
X001206Y002361D01*
X001182Y002385D01*
X001161Y002410D01*
X001143Y002439D01*
X001128Y002468D01*
X001116Y002499D01*
X001107Y002532D01*
X001102Y002565D01*
X001100Y002598D01*
X000572Y001964D02*
X000541Y001966D01*
X000511Y001971D01*
X000481Y001979D01*
X000452Y001991D01*
X000425Y002006D01*
X000400Y002024D01*
X000377Y002045D01*
X000356Y002068D01*
X000338Y002093D01*
X000323Y002120D01*
X000311Y002149D01*
X000303Y002179D01*
X000298Y002209D01*
X000296Y002240D01*
X000297Y002240D02*
X000297Y003381D01*
X000299Y003403D01*
X000303Y003425D01*
X000311Y003446D01*
X000322Y003466D01*
X000335Y003484D01*
X000351Y003500D01*
X000369Y003513D01*
X000389Y003524D01*
X000410Y003532D01*
X000432Y003536D01*
X000454Y003538D01*
X000454Y003539D02*
X001041Y003539D01*
X001054Y003540D01*
X001067Y003545D01*
X001078Y003552D01*
X001087Y003561D01*
X001094Y003572D01*
X001099Y003585D01*
X001100Y003598D01*
X001101Y003615D01*
X001106Y003632D01*
X001113Y003647D01*
X001123Y003661D01*
X001135Y003673D01*
X001149Y003683D01*
X001164Y003690D01*
X001181Y003695D01*
X001198Y003696D01*
X001911Y003696D01*
X001931Y003694D01*
X001951Y003689D01*
X001970Y003680D01*
X001987Y003668D01*
X002001Y003654D01*
X002013Y003637D01*
X002022Y003618D01*
X002027Y003598D01*
X002029Y003578D01*
X002029Y003421D01*
X002496Y003663D02*
X003312Y003663D01*
X002866Y002584D02*
X002809Y002586D01*
X002752Y002592D01*
X002696Y002602D01*
X002640Y002615D01*
X002586Y002632D01*
X002533Y002653D01*
X002481Y002678D01*
X002431Y002706D01*
X002383Y002737D01*
X002338Y002772D01*
X002295Y002809D01*
X002254Y002850D01*
X002217Y002893D01*
X002182Y002938D01*
X002151Y002986D01*
X002123Y003036D01*
X002098Y003088D01*
X002077Y003141D01*
X002060Y003195D01*
X002047Y003251D01*
X002037Y003307D01*
X002031Y003364D01*
X002029Y003421D01*
X002463Y003696D02*
X002465Y003686D01*
X002469Y003677D01*
X002477Y003669D01*
X002486Y003665D01*
X002496Y003663D01*
X003312Y004163D02*
X003312Y004500D01*
X003310Y004522D01*
X003305Y004544D01*
X003297Y004564D01*
X003285Y004583D01*
X003271Y004600D01*
X003254Y004614D01*
X003235Y004626D01*
X003215Y004634D01*
X003193Y004639D01*
X003171Y004641D01*
X002502Y004999D02*
X002502Y005389D01*
X003517Y005389D01*
X003517Y005388D02*
X003532Y005391D01*
X003547Y005390D01*
X003562Y005387D01*
X003576Y005381D01*
X003588Y005372D01*
X003598Y005361D01*
X003606Y005348D01*
X003611Y005334D01*
X002502Y004999D02*
X002500Y004926D01*
X002494Y004852D01*
X002485Y004780D01*
X002471Y004708D01*
X002454Y004636D01*
X002433Y004566D01*
X002409Y004497D01*
X002381Y004429D01*
X002349Y004363D01*
X002314Y004298D01*
X002276Y004235D01*
X002234Y004175D01*
X002190Y004117D01*
X002142Y004061D01*
X002091Y004008D01*
X002038Y003957D01*
X001982Y003909D01*
X001924Y003865D01*
X001864Y003823D01*
X001801Y003785D01*
X001736Y003750D01*
X001670Y003718D01*
X001602Y003690D01*
X001533Y003666D01*
X001463Y003645D01*
X001391Y003628D01*
X001319Y003614D01*
X001247Y003605D01*
X001173Y003599D01*
X001100Y003597D01*
X002866Y002584D02*
X003312Y002663D01*
X003783Y003163D02*
X003818Y003161D01*
X003852Y003156D01*
X003886Y003147D01*
X003918Y003134D01*
X003950Y003118D01*
X003979Y003099D01*
X004006Y003077D01*
X004030Y003053D01*
X004052Y003026D01*
X004071Y002997D01*
X004087Y002965D01*
X004100Y002933D01*
X004109Y002899D01*
X004114Y002865D01*
X004116Y002830D01*
X003783Y003163D02*
X003312Y003163D01*
X003525Y001925D02*
X000572Y001964D01*
D21*
X004281Y005334D02*
X005860Y005334D01*
X005870Y005335D01*
X005880Y005339D01*
X005888Y005345D01*
X005894Y005354D01*
X005898Y005363D01*
X005899Y005373D01*
X005899Y005141D01*
X005901Y005104D01*
X005906Y005066D01*
X005915Y005030D01*
X005928Y004995D01*
X005944Y004961D01*
X005963Y004929D01*
X005986Y004899D01*
X006011Y004871D01*
X006039Y004846D01*
X006069Y004823D01*
X006101Y004804D01*
X006135Y004788D01*
X006170Y004775D01*
X006206Y004766D01*
X006244Y004761D01*
X006281Y004759D01*
X006399Y004759D01*
X006427Y004757D01*
X006455Y004752D01*
X006483Y004744D01*
X006509Y004732D01*
X006533Y004717D01*
X006555Y004700D01*
X006576Y004679D01*
X006593Y004657D01*
X006608Y004633D01*
X006620Y004607D01*
X006628Y004579D01*
X006633Y004551D01*
X006635Y004523D01*
X006635Y004051D01*
X006636Y004051D02*
X006634Y004013D01*
X006628Y003975D01*
X006619Y003937D01*
X006606Y003901D01*
X006590Y003866D01*
X006570Y003833D01*
X006547Y003802D01*
X006521Y003774D01*
X006493Y003748D01*
X006462Y003725D01*
X006429Y003705D01*
X006394Y003689D01*
X006358Y003676D01*
X006320Y003667D01*
X006282Y003661D01*
X006244Y003659D01*
X005872Y003659D01*
X006492Y003159D02*
X006510Y003161D01*
X006528Y003165D01*
X006544Y003173D01*
X006559Y003183D01*
X006572Y003196D01*
X006582Y003211D01*
X006590Y003227D01*
X006594Y003245D01*
X006596Y003263D01*
X006596Y003267D01*
X006492Y003159D02*
X005872Y003159D01*
X007092Y003094D02*
X007092Y002539D01*
X007090Y002527D01*
X007086Y002516D01*
X007078Y002506D01*
X007069Y002498D01*
X007057Y002494D01*
X007045Y002492D01*
X006596Y003267D02*
X006598Y003310D01*
X006604Y003353D01*
X006613Y003395D01*
X006626Y003437D01*
X006642Y003477D01*
X006662Y003515D01*
X006686Y003551D01*
X006712Y003586D01*
X006741Y003618D01*
X006773Y003647D01*
X006808Y003673D01*
X006844Y003697D01*
X006882Y003717D01*
X006922Y003733D01*
X006964Y003746D01*
X007006Y003755D01*
X007049Y003761D01*
X007092Y003763D01*
M02*
