%
M48
M72
T01C0.0236
T02C0.0315
T03C0.0400
%
T01
X612Y1334
X2974Y1491
X3525Y1925
X4273Y1177
X4824Y1137
X4824Y1728
X4549Y2869
X4391Y3381
X4903Y3381
X4903Y3814
X4391Y3814
X3171Y4641
X2502Y5389
X572Y5547
X2462Y3696
X6596Y1885
X9706Y1255
X9628Y5704
T02
X9470Y3421
X9470Y2673
T03
X8340Y3169
X8340Y2169
X8356Y4177
X8356Y5177
X1100Y4598
X1100Y3598
X1100Y2598
M30
