G75*
%MOIN*%
%OFA0B0*%
%FSLAX24Y24*%
%IPPOS*%
%LPD*%
%AMOC8*
5,1,8,0,0,1.08239X$1,22.5*
%
%ADD10C,0.0000*%
%ADD11C,0.0060*%
%ADD12C,0.0040*%
%ADD13C,0.0080*%
%ADD14C,0.0050*%
D10*
X000100Y000704D02*
X000100Y006216D01*
X010336Y006216D01*
X010336Y000704D01*
X000100Y000704D01*
D11*
X001050Y001460D02*
X001106Y001403D01*
X001220Y001403D01*
X001276Y001460D01*
X001276Y001574D01*
X001106Y001574D01*
X001050Y001517D01*
X001050Y001460D01*
X001163Y001687D02*
X001276Y001574D01*
X001418Y001574D02*
X001475Y001517D01*
X001645Y001517D01*
X001531Y001517D02*
X001418Y001403D01*
X001645Y001403D02*
X001645Y001744D01*
X001475Y001744D01*
X001418Y001687D01*
X001418Y001574D01*
X001163Y001687D02*
X001050Y001744D01*
X003172Y001207D02*
X003599Y001207D01*
X003385Y001207D02*
X003385Y001847D01*
X003599Y001634D01*
X003816Y001740D02*
X003923Y001847D01*
X004136Y001847D01*
X004243Y001740D01*
X004243Y001313D01*
X004136Y001207D01*
X003923Y001207D01*
X003816Y001313D01*
X008934Y003259D02*
X009361Y003259D01*
X009423Y004975D02*
X009423Y005402D01*
X009210Y005188D02*
X009637Y005188D01*
X002117Y004676D02*
X001690Y004676D01*
D12*
X001757Y004728D02*
X001834Y004651D01*
X001987Y004651D01*
X002064Y004728D01*
X002064Y005034D01*
X001987Y005111D01*
X001834Y005111D01*
X001757Y005034D01*
X001604Y005034D02*
X001527Y005111D01*
X001374Y005111D01*
X001297Y005034D01*
X001297Y004958D01*
X001374Y004881D01*
X001297Y004804D01*
X001297Y004728D01*
X001374Y004651D01*
X001527Y004651D01*
X001604Y004728D01*
X001450Y004881D02*
X001374Y004881D01*
X002220Y003306D02*
X002143Y003229D01*
X002143Y003153D01*
X002220Y003076D01*
X002143Y002999D01*
X002143Y002922D01*
X002220Y002846D01*
X002373Y002846D01*
X002450Y002922D01*
X002603Y002846D02*
X002757Y002999D01*
X002680Y002999D02*
X002910Y002999D01*
X002910Y002846D02*
X002910Y003306D01*
X002680Y003306D01*
X002603Y003229D01*
X002603Y003076D01*
X002680Y002999D01*
X002450Y003229D02*
X002373Y003306D01*
X002220Y003306D01*
X002220Y003076D02*
X002296Y003076D01*
X001926Y001968D02*
X001696Y001968D01*
X001619Y001891D01*
X001619Y001737D01*
X001696Y001661D01*
X001926Y001661D01*
X001773Y001661D02*
X001619Y001507D01*
X001466Y001584D02*
X001389Y001507D01*
X001235Y001507D01*
X001159Y001584D01*
X001159Y001661D01*
X001235Y001737D01*
X001466Y001737D01*
X001466Y001584D01*
X001466Y001737D02*
X001312Y001891D01*
X001159Y001968D01*
X001926Y001968D02*
X001926Y001507D01*
X002364Y001476D02*
X002671Y001476D01*
X002671Y001246D01*
X002517Y001323D01*
X002441Y001323D01*
X002364Y001246D01*
X002364Y001093D01*
X002441Y001016D01*
X002594Y001016D01*
X002671Y001093D01*
X002824Y001016D02*
X002978Y001169D01*
X002901Y001169D02*
X002824Y001246D01*
X002824Y001399D01*
X002901Y001476D01*
X003131Y001476D01*
X003131Y001016D01*
X003131Y001169D02*
X002901Y001169D01*
X004861Y000287D02*
X005168Y000287D01*
X005014Y000287D02*
X005014Y000747D01*
X005168Y000594D01*
X005321Y000670D02*
X005398Y000747D01*
X005551Y000747D01*
X005628Y000670D01*
X005628Y000363D01*
X005551Y000287D01*
X005398Y000287D01*
X005321Y000363D01*
X009234Y001905D02*
X009541Y001905D01*
X009234Y002212D01*
X009234Y002289D01*
X009311Y002366D01*
X009464Y002366D01*
X009541Y002289D01*
X009694Y002366D02*
X009694Y001905D01*
X010001Y001905D02*
X010001Y002366D01*
X009848Y002212D01*
X009694Y002366D01*
X009616Y003952D02*
X009616Y004413D01*
X009769Y004259D01*
X009923Y004413D01*
X009923Y003952D01*
X009462Y003952D02*
X009155Y003952D01*
X009309Y003952D02*
X009309Y004413D01*
X009462Y004259D01*
X007023Y003986D02*
X007023Y003526D01*
X007023Y003679D02*
X006793Y003679D01*
X006716Y003756D01*
X006716Y003909D01*
X006793Y003986D01*
X007023Y003986D01*
X006869Y003679D02*
X006716Y003526D01*
X006563Y003526D02*
X006256Y003833D01*
X006256Y003909D01*
X006332Y003986D01*
X006486Y003986D01*
X006563Y003909D01*
X006563Y003526D02*
X006256Y003526D01*
D13*
X006288Y003579D02*
X006568Y003579D01*
X006288Y003859D01*
X006288Y003929D01*
X006358Y003999D01*
X006498Y003999D01*
X006568Y003929D01*
X006748Y003929D02*
X006748Y003789D01*
X006818Y003719D01*
X007029Y003719D01*
X006888Y003719D02*
X006748Y003579D01*
X007029Y003579D02*
X007029Y003999D01*
X006818Y003999D01*
X006748Y003929D01*
X003170Y001558D02*
X002960Y001558D01*
X002890Y001488D01*
X002890Y001348D01*
X002960Y001278D01*
X003170Y001278D01*
X003030Y001278D02*
X002890Y001138D01*
X002710Y001208D02*
X002640Y001138D01*
X002500Y001138D01*
X002430Y001208D01*
X002430Y001348D01*
X002500Y001418D01*
X002570Y001418D01*
X002710Y001348D01*
X002710Y001558D01*
X002430Y001558D01*
X003170Y001558D02*
X003170Y001138D01*
X002895Y002870D02*
X002895Y003290D01*
X002684Y003290D01*
X002614Y003220D01*
X002614Y003080D01*
X002684Y003010D01*
X002895Y003010D01*
X002755Y003010D02*
X002614Y002870D01*
X002434Y002940D02*
X002364Y002870D01*
X002224Y002870D01*
X002154Y002940D01*
X002154Y003010D01*
X002224Y003080D01*
X002294Y003080D01*
X002224Y003080D02*
X002154Y003150D01*
X002154Y003220D01*
X002224Y003290D01*
X002364Y003290D01*
X002434Y003220D01*
X002370Y004642D02*
X002299Y004712D01*
X002370Y004642D02*
X002510Y004642D01*
X002580Y004712D01*
X002580Y004992D01*
X002510Y005062D01*
X002370Y005062D01*
X002299Y004992D01*
X002119Y004992D02*
X002049Y005062D01*
X001909Y005062D01*
X001839Y004992D01*
X001839Y004922D01*
X001909Y004852D01*
X001839Y004782D01*
X001839Y004712D01*
X001909Y004642D01*
X002049Y004642D01*
X002119Y004712D01*
X001979Y004852D02*
X001909Y004852D01*
D14*
X003988Y002318D02*
X003990Y002343D01*
X003996Y002368D01*
X004005Y002392D01*
X004018Y002414D01*
X004035Y002434D01*
X004054Y002451D01*
X004075Y002465D01*
X004099Y002475D01*
X004123Y002482D01*
X004149Y002485D01*
X004174Y002484D01*
X004199Y002479D01*
X004223Y002470D01*
X004246Y002458D01*
X004266Y002443D01*
X004284Y002424D01*
X004299Y002403D01*
X004310Y002380D01*
X004318Y002356D01*
X004322Y002331D01*
X004322Y002305D01*
X004318Y002280D01*
X004310Y002256D01*
X004299Y002233D01*
X004284Y002212D01*
X004266Y002193D01*
X004246Y002178D01*
X004223Y002166D01*
X004199Y002157D01*
X004174Y002152D01*
X004149Y002151D01*
X004123Y002154D01*
X004099Y002161D01*
X004075Y002171D01*
X004054Y002185D01*
X004035Y002202D01*
X004018Y002222D01*
X004005Y002244D01*
X003996Y002268D01*
X003990Y002293D01*
X003988Y002318D01*
M02*
