%
M48
M72
T01C0.02362
T02C0.03150
T03C0.04000
%
T01
X6118Y15731
X25016Y13369
X35252Y21636
X48244Y19668
X56118Y22030
X65961Y21243
X48244Y13762
X45488Y31085
X43913Y36203
X49031Y36203
X49031Y40534
X43913Y40534
X31709Y48802
X25016Y56282
X5724Y57857
X24622Y39353
X91551Y58644
X93913Y14156
T02
X89583Y29510
X90764Y36597
T03
X11000Y28369
X11000Y38369
X11000Y48369
X80016Y52975
X80016Y42975
X80646Y34471
X80646Y24471
M30
