G75*
%MOIN*%
%OFA0B0*%
%FSLAX24Y24*%
%IPPOS*%
%LPD*%
%AMOC8*
5,1,8,0,0,1.08239X$1,22.5*
%
%ADD10C,0.0000*%
%ADD11R,0.0670X0.1103*%
%ADD12R,0.0552X0.0631*%
%ADD13C,0.0640*%
%ADD14R,0.0633X0.0356*%
%ADD15R,0.1064X0.1418*%
%ADD16R,0.0631X0.0434*%
%ADD17R,0.0434X0.0473*%
D10*
X000100Y000704D02*
X000100Y006216D01*
X010336Y006216D01*
X010336Y000704D01*
X000100Y000704D01*
D11*
X004726Y001417D03*
X005828Y001417D03*
D12*
X001848Y005531D03*
X001179Y005531D03*
D13*
X001400Y004598D02*
X000800Y004598D01*
X000800Y003598D02*
X001400Y003598D01*
X001400Y002598D02*
X000800Y002598D01*
X008040Y002169D02*
X008640Y002169D01*
X008640Y003169D02*
X008040Y003169D01*
X008056Y004177D02*
X008656Y004177D01*
X008656Y005177D02*
X008056Y005177D01*
D14*
X005594Y004117D03*
X005594Y003617D03*
X005594Y003117D03*
X005594Y002617D03*
X003628Y002617D03*
X003628Y003117D03*
X003628Y003617D03*
X003628Y004117D03*
D15*
X004612Y003365D03*
D16*
X006423Y003106D03*
X007163Y003106D03*
D17*
X002915Y002476D03*
X002246Y002476D03*
X002246Y001846D03*
X002915Y001846D03*
X001931Y001137D03*
X001261Y001137D03*
M02*
