%
M48
M72
T01C0.02362
T02C0.03150
T03C0.04000
%
T01
X6118Y16260
X25016Y13897
X35252Y22165
X48244Y20197
X56118Y22559
X65961Y21771
X48244Y14291
X45488Y31614
X43913Y36732
X49031Y36732
X49031Y41063
X43913Y41063
X31709Y49330
X25016Y56811
X5724Y58386
X24622Y39882
X91551Y59173
X93913Y14685
T02
X89583Y30039
X90764Y37126
T03
X11000Y28897
X11000Y38897
X11000Y48897
X80409Y45078
X80409Y55078
X80646Y35000
X80646Y25000
M30
