G75*
%MOIN*%
%OFA0B0*%
%FSLAX25Y25*%
%IPPOS*%
%LPD*%
%AMOC8*
5,1,8,0,0,1.08239X$1,22.5*
%
%ADD10C,0.00000*%
%ADD11C,0.00600*%
%ADD12C,0.00400*%
%ADD13C,0.00800*%
%ADD14C,0.00500*%
D10*
X0001000Y0009431D02*
X0001000Y0064550D01*
X0099425Y0064550D01*
X0099425Y0009431D01*
X0001000Y0009431D01*
D11*
X0010496Y0016992D02*
X0011063Y0016424D01*
X0012198Y0016424D01*
X0012765Y0016992D01*
X0012765Y0018126D01*
X0011063Y0018126D01*
X0010496Y0017559D01*
X0010496Y0016992D01*
X0011631Y0019260D02*
X0012765Y0018126D01*
X0014179Y0018126D02*
X0014179Y0019260D01*
X0014747Y0019827D01*
X0016448Y0019827D01*
X0016448Y0016424D01*
X0016448Y0017559D02*
X0014747Y0017559D01*
X0014179Y0018126D01*
X0015314Y0017559D02*
X0014179Y0016424D01*
X0011631Y0019260D02*
X0010496Y0019827D01*
X0031716Y0014456D02*
X0035987Y0014456D01*
X0033852Y0014456D02*
X0033852Y0020861D01*
X0035987Y0018726D01*
X0038162Y0019794D02*
X0039230Y0020861D01*
X0041365Y0020861D01*
X0042432Y0019794D01*
X0042432Y0015523D01*
X0041365Y0014456D01*
X0039230Y0014456D01*
X0038162Y0015523D01*
X0021172Y0049155D02*
X0016902Y0049155D01*
X0088162Y0053092D02*
X0092432Y0053092D01*
X0090297Y0055227D02*
X0090297Y0050957D01*
X0089737Y0033800D02*
X0094007Y0033800D01*
D12*
X0093006Y0041128D02*
X0093006Y0045731D01*
X0094541Y0044197D01*
X0096076Y0045731D01*
X0096076Y0041128D01*
X0091472Y0041128D02*
X0088402Y0041128D01*
X0089937Y0041128D02*
X0089937Y0045731D01*
X0091472Y0044197D01*
X0090745Y0026046D02*
X0092279Y0026046D01*
X0093046Y0025279D01*
X0094581Y0026046D02*
X0094581Y0021443D01*
X0093046Y0021443D02*
X0089977Y0024512D01*
X0089977Y0025279D01*
X0090745Y0026046D01*
X0094581Y0026046D02*
X0096116Y0024512D01*
X0097650Y0026046D01*
X0097650Y0021443D01*
X0093046Y0021443D02*
X0089977Y0021443D01*
D13*
X0070285Y0038178D02*
X0070285Y0042382D01*
X0068183Y0042382D01*
X0067483Y0041681D01*
X0067483Y0040280D01*
X0068183Y0039579D01*
X0070285Y0039579D01*
X0068884Y0039579D02*
X0067483Y0038178D01*
X0065681Y0038178D02*
X0062879Y0040980D01*
X0062879Y0041681D01*
X0063579Y0042382D01*
X0064981Y0042382D01*
X0065681Y0041681D01*
X0065681Y0038178D02*
X0062879Y0038178D01*
X0031702Y0017972D02*
X0029601Y0017972D01*
X0028900Y0017271D01*
X0028900Y0015870D01*
X0029601Y0015170D01*
X0031702Y0015170D01*
X0030301Y0015170D02*
X0028900Y0013769D01*
X0027098Y0014469D02*
X0026398Y0013769D01*
X0024997Y0013769D01*
X0024296Y0014469D01*
X0024296Y0015870D01*
X0024997Y0016571D01*
X0025697Y0016571D01*
X0027098Y0015870D01*
X0027098Y0017972D01*
X0024296Y0017972D01*
X0031702Y0017972D02*
X0031702Y0013769D01*
X0028946Y0031091D02*
X0028946Y0035295D01*
X0026845Y0035295D01*
X0026144Y0034594D01*
X0026144Y0033193D01*
X0026845Y0032493D01*
X0028946Y0032493D01*
X0027545Y0032493D02*
X0026144Y0031091D01*
X0024343Y0031792D02*
X0023642Y0031091D01*
X0022241Y0031091D01*
X0021540Y0031792D01*
X0021540Y0032493D01*
X0022241Y0033193D01*
X0022941Y0033193D01*
X0022241Y0033193D02*
X0021540Y0033894D01*
X0021540Y0034594D01*
X0022241Y0035295D01*
X0023642Y0035295D01*
X0024343Y0034594D01*
X0023695Y0048808D02*
X0022994Y0049508D01*
X0023695Y0048808D02*
X0025096Y0048808D01*
X0025797Y0049508D01*
X0025797Y0052311D01*
X0025096Y0053011D01*
X0023695Y0053011D01*
X0022994Y0052311D01*
X0021193Y0052311D02*
X0020492Y0053011D01*
X0019091Y0053011D01*
X0018391Y0052311D01*
X0018391Y0051610D01*
X0019091Y0050910D01*
X0018391Y0050209D01*
X0018391Y0049508D01*
X0019091Y0048808D01*
X0020492Y0048808D01*
X0021193Y0049508D01*
X0019792Y0050910D02*
X0019091Y0050910D01*
D14*
X0039881Y0025573D02*
X0039883Y0025654D01*
X0039889Y0025735D01*
X0039899Y0025816D01*
X0039913Y0025896D01*
X0039930Y0025976D01*
X0039952Y0026054D01*
X0039977Y0026131D01*
X0040006Y0026207D01*
X0040039Y0026282D01*
X0040075Y0026355D01*
X0040115Y0026426D01*
X0040158Y0026494D01*
X0040205Y0026561D01*
X0040254Y0026626D01*
X0040307Y0026687D01*
X0040363Y0026747D01*
X0040422Y0026803D01*
X0040483Y0026857D01*
X0040547Y0026907D01*
X0040613Y0026954D01*
X0040681Y0026999D01*
X0040751Y0027039D01*
X0040824Y0027076D01*
X0040898Y0027110D01*
X0040973Y0027140D01*
X0041050Y0027166D01*
X0041129Y0027189D01*
X0041208Y0027207D01*
X0041288Y0027222D01*
X0041368Y0027233D01*
X0041449Y0027240D01*
X0041531Y0027243D01*
X0041612Y0027242D01*
X0041693Y0027237D01*
X0041774Y0027228D01*
X0041854Y0027215D01*
X0041934Y0027199D01*
X0042013Y0027178D01*
X0042090Y0027154D01*
X0042167Y0027125D01*
X0042241Y0027094D01*
X0042315Y0027058D01*
X0042386Y0027019D01*
X0042455Y0026977D01*
X0042523Y0026931D01*
X0042588Y0026882D01*
X0042650Y0026830D01*
X0042710Y0026775D01*
X0042767Y0026717D01*
X0042822Y0026657D01*
X0042873Y0026594D01*
X0042921Y0026528D01*
X0042966Y0026460D01*
X0043007Y0026390D01*
X0043045Y0026318D01*
X0043080Y0026245D01*
X0043111Y0026170D01*
X0043138Y0026093D01*
X0043161Y0026015D01*
X0043181Y0025936D01*
X0043197Y0025856D01*
X0043209Y0025776D01*
X0043217Y0025695D01*
X0043221Y0025614D01*
X0043221Y0025532D01*
X0043217Y0025451D01*
X0043209Y0025370D01*
X0043197Y0025290D01*
X0043181Y0025210D01*
X0043161Y0025131D01*
X0043138Y0025053D01*
X0043111Y0024976D01*
X0043080Y0024901D01*
X0043045Y0024828D01*
X0043007Y0024756D01*
X0042966Y0024686D01*
X0042921Y0024618D01*
X0042873Y0024552D01*
X0042822Y0024489D01*
X0042767Y0024429D01*
X0042710Y0024371D01*
X0042650Y0024316D01*
X0042588Y0024264D01*
X0042523Y0024215D01*
X0042455Y0024169D01*
X0042386Y0024127D01*
X0042315Y0024088D01*
X0042241Y0024052D01*
X0042167Y0024021D01*
X0042090Y0023992D01*
X0042013Y0023968D01*
X0041934Y0023947D01*
X0041854Y0023931D01*
X0041774Y0023918D01*
X0041693Y0023909D01*
X0041612Y0023904D01*
X0041531Y0023903D01*
X0041449Y0023906D01*
X0041368Y0023913D01*
X0041288Y0023924D01*
X0041208Y0023939D01*
X0041129Y0023957D01*
X0041050Y0023980D01*
X0040973Y0024006D01*
X0040898Y0024036D01*
X0040824Y0024070D01*
X0040751Y0024107D01*
X0040681Y0024147D01*
X0040613Y0024192D01*
X0040547Y0024239D01*
X0040483Y0024289D01*
X0040422Y0024343D01*
X0040363Y0024399D01*
X0040307Y0024459D01*
X0040254Y0024520D01*
X0040205Y0024585D01*
X0040158Y0024652D01*
X0040115Y0024720D01*
X0040075Y0024791D01*
X0040039Y0024864D01*
X0040006Y0024939D01*
X0039977Y0025015D01*
X0039952Y0025092D01*
X0039930Y0025170D01*
X0039913Y0025250D01*
X0039899Y0025330D01*
X0039889Y0025411D01*
X0039883Y0025492D01*
X0039881Y0025573D01*
M02*
