G75*
%MOIN*%
%OFA0B0*%
%FSLAX24Y24*%
%IPPOS*%
%LPD*%
%AMOC8*
5,1,8,0,0,1.08239X$1,22.5*
%
%ADD10C,0.0000*%
%ADD11C,0.0040*%
D10*
X000100Y000665D02*
X000100Y006177D01*
X010730Y006177D01*
X010730Y000665D01*
X000100Y000665D01*
D11*
X001534Y003075D02*
X001994Y003075D01*
X001994Y003305D01*
X001917Y003381D01*
X001764Y003381D01*
X001687Y003305D01*
X001687Y003075D01*
X001687Y003228D02*
X001534Y003381D01*
X001611Y003535D02*
X001534Y003612D01*
X001534Y003765D01*
X001611Y003842D01*
X001687Y003842D01*
X001764Y003765D01*
X001764Y003688D01*
X001764Y003765D02*
X001841Y003842D01*
X001917Y003842D01*
X001994Y003765D01*
X001994Y003612D01*
X001917Y003535D01*
X001955Y004244D02*
X001494Y004244D01*
X001648Y004244D02*
X001648Y004474D01*
X001725Y004551D01*
X001878Y004551D01*
X001955Y004474D01*
X001955Y004244D01*
X002194Y004488D02*
X002118Y004565D01*
X002118Y004718D01*
X002194Y004795D01*
X001955Y004781D02*
X001955Y004934D01*
X001878Y005011D01*
X001801Y005011D01*
X001494Y004704D01*
X001494Y005011D01*
X001878Y004704D02*
X001955Y004781D01*
X002194Y004948D02*
X002118Y005025D01*
X002118Y005179D01*
X002194Y005255D01*
X002271Y005255D01*
X002348Y005179D01*
X002348Y005102D01*
X002348Y005179D02*
X002425Y005255D01*
X002501Y005255D01*
X002578Y005179D01*
X002578Y005025D01*
X002501Y004948D01*
X002501Y004795D02*
X002578Y004718D01*
X002578Y004565D01*
X002501Y004488D01*
X002194Y004488D01*
X001648Y004397D02*
X001494Y004551D01*
X005014Y000747D02*
X005014Y000287D01*
X004861Y000287D02*
X005168Y000287D01*
X005321Y000363D02*
X005398Y000287D01*
X005551Y000287D01*
X005628Y000363D01*
X005628Y000670D01*
X005551Y000747D01*
X005398Y000747D01*
X005321Y000670D01*
X005168Y000594D02*
X005014Y000747D01*
M02*
