G75*
%MOIN*%
%OFA0B0*%
%FSLAX25Y25*%
%IPPOS*%
%LPD*%
%AMOC8*
5,1,8,0,0,1.08239X$1,22.5*
%
%ADD10C,0.00000*%
%ADD11C,0.00500*%
%ADD12C,0.00600*%
%ADD13C,0.00400*%
%ADD14C,0.00800*%
%ADD15C,0.00200*%
%ADD16R,0.00591X0.01181*%
%ADD17R,0.01181X0.01181*%
D10*
X0001000Y0009960D02*
X0001000Y0065078D01*
X0099425Y0065078D01*
X0099425Y0009960D01*
X0001000Y0009960D01*
D11*
X0004400Y0013590D02*
X0005417Y0012573D01*
X0007452Y0012573D01*
X0008470Y0013590D01*
X0008470Y0017660D01*
X0007452Y0018678D01*
X0005417Y0018678D01*
X0004400Y0017660D01*
X0004400Y0013590D01*
X0010477Y0012573D02*
X0013529Y0012573D01*
X0014547Y0013590D01*
X0014547Y0015625D01*
X0013529Y0016643D01*
X0010477Y0016643D01*
X0010477Y0010537D01*
X0016554Y0013590D02*
X0016554Y0015625D01*
X0017572Y0016643D01*
X0019607Y0016643D01*
X0020624Y0015625D01*
X0020624Y0014608D01*
X0016554Y0014608D01*
X0016554Y0013590D02*
X0017572Y0012573D01*
X0019607Y0012573D01*
X0022631Y0012573D02*
X0022631Y0016643D01*
X0025684Y0016643D01*
X0026701Y0015625D01*
X0026701Y0012573D01*
X0028708Y0012573D02*
X0028708Y0018678D01*
X0031761Y0018678D01*
X0032779Y0017660D01*
X0032779Y0015625D01*
X0031761Y0014608D01*
X0028708Y0014608D01*
X0034786Y0012573D02*
X0034786Y0018678D01*
X0038856Y0018678D02*
X0038856Y0012573D01*
X0036821Y0014608D01*
X0034786Y0012573D01*
X0040863Y0012573D02*
X0040863Y0018678D01*
X0042898Y0016643D01*
X0044933Y0018678D01*
X0044933Y0012573D01*
X0046940Y0015625D02*
X0051010Y0015625D01*
X0053017Y0012573D02*
X0053017Y0018678D01*
X0055052Y0016643D01*
X0057087Y0018678D01*
X0057087Y0012573D01*
X0083927Y0012573D02*
X0087997Y0016643D01*
X0087997Y0017660D01*
X0086980Y0018678D01*
X0084945Y0018678D01*
X0083927Y0017660D01*
X0090004Y0013590D02*
X0091022Y0013590D01*
X0091022Y0012573D01*
X0090004Y0012573D01*
X0090004Y0013590D01*
X0087997Y0012573D02*
X0083927Y0012573D01*
X0093043Y0013590D02*
X0097113Y0017660D01*
X0097113Y0013590D01*
X0096096Y0012573D01*
X0094060Y0012573D01*
X0093043Y0013590D01*
X0093043Y0017660D01*
X0094060Y0018678D01*
X0096096Y0018678D01*
X0097113Y0017660D01*
D12*
X0085646Y0022500D02*
X0083146Y0020000D01*
X0078146Y0020000D01*
X0075646Y0022500D01*
X0075646Y0027500D01*
X0078146Y0030000D01*
X0075646Y0032500D01*
X0075646Y0037500D01*
X0078146Y0040000D01*
X0083146Y0040000D01*
X0085646Y0037500D01*
X0085646Y0032500D01*
X0083146Y0030000D01*
X0085646Y0027500D01*
X0085646Y0022500D01*
X0078558Y0018388D02*
X0078558Y0014985D01*
X0077424Y0014985D02*
X0079693Y0014985D01*
X0077424Y0017253D02*
X0078558Y0018388D01*
X0076010Y0017821D02*
X0075442Y0018388D01*
X0073741Y0018388D01*
X0073741Y0014985D01*
X0075442Y0014985D01*
X0076010Y0015552D01*
X0076010Y0017821D01*
X0078146Y0030000D02*
X0083146Y0030000D01*
X0091851Y0034329D02*
X0096121Y0034329D01*
X0085409Y0042578D02*
X0085409Y0047578D01*
X0082909Y0050078D01*
X0085409Y0052578D01*
X0085409Y0057578D01*
X0082909Y0060078D01*
X0077909Y0060078D01*
X0075409Y0057578D01*
X0075409Y0052578D01*
X0077909Y0050078D01*
X0082909Y0050078D01*
X0077909Y0050078D02*
X0075409Y0047578D01*
X0075409Y0042578D01*
X0077909Y0040078D01*
X0082909Y0040078D01*
X0085409Y0042578D01*
X0090049Y0051879D02*
X0090049Y0056149D01*
X0087914Y0054014D02*
X0092184Y0054014D01*
X0071645Y0042403D02*
X0069944Y0040702D01*
X0072212Y0040702D01*
X0071645Y0039001D02*
X0071645Y0042403D01*
X0068529Y0041836D02*
X0068529Y0040702D01*
X0067962Y0040135D01*
X0066261Y0040135D01*
X0067395Y0040135D02*
X0068529Y0039001D01*
X0066261Y0039001D02*
X0066261Y0042403D01*
X0067962Y0042403D01*
X0068529Y0041836D01*
X0055764Y0040748D02*
X0055764Y0043307D01*
X0055764Y0045708D02*
X0055764Y0046220D01*
X0055764Y0046299D02*
X0055762Y0046361D01*
X0055756Y0046422D01*
X0055747Y0046483D01*
X0055733Y0046544D01*
X0055716Y0046603D01*
X0055695Y0046661D01*
X0055670Y0046718D01*
X0055642Y0046773D01*
X0055611Y0046826D01*
X0055576Y0046877D01*
X0055538Y0046926D01*
X0055497Y0046973D01*
X0055454Y0047016D01*
X0055407Y0047057D01*
X0055358Y0047095D01*
X0055307Y0047130D01*
X0055254Y0047161D01*
X0055199Y0047189D01*
X0055142Y0047214D01*
X0055084Y0047235D01*
X0055025Y0047252D01*
X0054964Y0047266D01*
X0054903Y0047275D01*
X0054842Y0047281D01*
X0054780Y0047283D01*
X0037063Y0047283D01*
X0037001Y0047281D01*
X0036940Y0047275D01*
X0036879Y0047266D01*
X0036818Y0047252D01*
X0036759Y0047235D01*
X0036701Y0047214D01*
X0036644Y0047189D01*
X0036589Y0047161D01*
X0036536Y0047130D01*
X0036485Y0047095D01*
X0036436Y0047057D01*
X0036389Y0047016D01*
X0036346Y0046973D01*
X0036305Y0046926D01*
X0036267Y0046877D01*
X0036232Y0046826D01*
X0036201Y0046773D01*
X0036173Y0046718D01*
X0036148Y0046661D01*
X0036127Y0046603D01*
X0036110Y0046544D01*
X0036096Y0046483D01*
X0036087Y0046422D01*
X0036081Y0046361D01*
X0036079Y0046299D01*
X0036079Y0046338D02*
X0036079Y0045748D01*
X0036079Y0043307D02*
X0036079Y0040787D01*
X0036079Y0038307D02*
X0036079Y0035787D01*
X0036079Y0033307D02*
X0036079Y0030787D01*
X0036079Y0028346D02*
X0036079Y0027834D01*
X0036079Y0027795D02*
X0036081Y0027733D01*
X0036087Y0027672D01*
X0036096Y0027611D01*
X0036110Y0027550D01*
X0036127Y0027491D01*
X0036148Y0027433D01*
X0036173Y0027376D01*
X0036201Y0027321D01*
X0036232Y0027268D01*
X0036267Y0027217D01*
X0036305Y0027168D01*
X0036346Y0027121D01*
X0036389Y0027078D01*
X0036436Y0027037D01*
X0036485Y0026999D01*
X0036536Y0026964D01*
X0036589Y0026933D01*
X0036644Y0026905D01*
X0036701Y0026880D01*
X0036759Y0026859D01*
X0036818Y0026842D01*
X0036879Y0026828D01*
X0036940Y0026819D01*
X0037001Y0026813D01*
X0037063Y0026811D01*
X0054740Y0026811D01*
X0054780Y0026811D02*
X0054842Y0026813D01*
X0054903Y0026819D01*
X0054964Y0026828D01*
X0055025Y0026842D01*
X0055084Y0026859D01*
X0055142Y0026880D01*
X0055199Y0026905D01*
X0055254Y0026933D01*
X0055307Y0026964D01*
X0055358Y0026999D01*
X0055407Y0027037D01*
X0055454Y0027078D01*
X0055497Y0027121D01*
X0055538Y0027168D01*
X0055576Y0027217D01*
X0055611Y0027268D01*
X0055642Y0027321D01*
X0055670Y0027376D01*
X0055695Y0027433D01*
X0055716Y0027491D01*
X0055733Y0027550D01*
X0055747Y0027611D01*
X0055756Y0027672D01*
X0055762Y0027733D01*
X0055764Y0027795D01*
X0055764Y0027834D02*
X0055764Y0028346D01*
X0055764Y0030787D02*
X0055764Y0033307D01*
X0055764Y0035748D02*
X0055764Y0038307D01*
X0020891Y0048229D02*
X0020891Y0049363D01*
X0019757Y0049363D01*
X0018623Y0048229D02*
X0018623Y0050498D01*
X0019190Y0051065D01*
X0020324Y0051065D01*
X0020891Y0050498D01*
X0020891Y0048229D02*
X0020324Y0047662D01*
X0019190Y0047662D01*
X0018623Y0048229D01*
X0016000Y0046397D02*
X0013500Y0043897D01*
X0016000Y0041397D01*
X0016000Y0036397D01*
X0013500Y0033897D01*
X0016000Y0031397D01*
X0016000Y0026397D01*
X0013500Y0023897D01*
X0008500Y0023897D01*
X0006000Y0026397D01*
X0006000Y0031397D01*
X0008500Y0033897D01*
X0006000Y0036397D01*
X0006000Y0041397D01*
X0008500Y0043897D01*
X0006000Y0046397D01*
X0006000Y0051397D01*
X0008500Y0053897D01*
X0013500Y0053897D01*
X0016000Y0051397D01*
X0016000Y0046397D01*
X0013500Y0043897D02*
X0008500Y0043897D01*
X0008500Y0033897D02*
X0013500Y0033897D01*
D13*
X0088208Y0041656D02*
X0088208Y0046260D01*
X0089743Y0044726D01*
X0091277Y0046260D01*
X0091277Y0041656D01*
X0092812Y0041656D02*
X0095881Y0041656D01*
X0094346Y0041656D02*
X0094346Y0046260D01*
X0092812Y0044726D01*
X0092458Y0026575D02*
X0092458Y0021971D01*
X0093993Y0021971D02*
X0097062Y0025041D01*
X0097062Y0025808D01*
X0096295Y0026575D01*
X0094760Y0026575D01*
X0093993Y0025808D01*
X0092458Y0026575D02*
X0090924Y0025041D01*
X0089389Y0026575D01*
X0089389Y0021971D01*
X0093993Y0021971D02*
X0097062Y0021971D01*
D14*
X0066680Y0060360D02*
X0063878Y0060360D01*
X0065279Y0060360D02*
X0065279Y0064564D01*
X0063878Y0063163D01*
X0062076Y0063863D02*
X0061376Y0064564D01*
X0059274Y0064564D01*
X0059274Y0060360D01*
X0059274Y0061762D02*
X0061376Y0061762D01*
X0062076Y0062462D01*
X0062076Y0063863D01*
X0060675Y0061762D02*
X0062076Y0060360D01*
X0049410Y0059967D02*
X0049410Y0062068D01*
X0048709Y0062769D01*
X0048009Y0062068D01*
X0048009Y0059967D01*
X0046607Y0059967D02*
X0046607Y0062769D01*
X0047308Y0062769D01*
X0048009Y0062068D01*
X0044873Y0062769D02*
X0044172Y0062769D01*
X0042771Y0061368D01*
X0040969Y0061368D02*
X0040969Y0062068D01*
X0040269Y0062769D01*
X0038867Y0062769D01*
X0038167Y0062068D01*
X0038167Y0060667D01*
X0038867Y0059967D01*
X0040269Y0059967D01*
X0040969Y0061368D02*
X0038167Y0061368D01*
X0036365Y0062068D02*
X0036365Y0059967D01*
X0036365Y0062068D02*
X0035665Y0062769D01*
X0034264Y0062769D01*
X0033563Y0062068D01*
X0033563Y0059967D02*
X0033563Y0064170D01*
X0031761Y0064170D02*
X0028959Y0064170D01*
X0030360Y0064170D02*
X0030360Y0059967D01*
X0042771Y0059967D02*
X0042771Y0062769D01*
D15*
X0048342Y0031456D02*
X0048344Y0031544D01*
X0048350Y0031632D01*
X0048360Y0031720D01*
X0048374Y0031808D01*
X0048391Y0031894D01*
X0048413Y0031980D01*
X0048438Y0032064D01*
X0048468Y0032148D01*
X0048500Y0032230D01*
X0048537Y0032310D01*
X0048577Y0032389D01*
X0048621Y0032466D01*
X0048668Y0032541D01*
X0048718Y0032613D01*
X0048772Y0032684D01*
X0048828Y0032751D01*
X0048888Y0032817D01*
X0048950Y0032879D01*
X0049016Y0032939D01*
X0049083Y0032995D01*
X0049154Y0033049D01*
X0049226Y0033099D01*
X0049301Y0033146D01*
X0049378Y0033190D01*
X0049457Y0033230D01*
X0049537Y0033267D01*
X0049619Y0033299D01*
X0049703Y0033329D01*
X0049787Y0033354D01*
X0049873Y0033376D01*
X0049959Y0033393D01*
X0050047Y0033407D01*
X0050135Y0033417D01*
X0050223Y0033423D01*
X0050311Y0033425D01*
X0050399Y0033423D01*
X0050487Y0033417D01*
X0050575Y0033407D01*
X0050663Y0033393D01*
X0050749Y0033376D01*
X0050835Y0033354D01*
X0050919Y0033329D01*
X0051003Y0033299D01*
X0051085Y0033267D01*
X0051165Y0033230D01*
X0051244Y0033190D01*
X0051321Y0033146D01*
X0051396Y0033099D01*
X0051468Y0033049D01*
X0051539Y0032995D01*
X0051606Y0032939D01*
X0051672Y0032879D01*
X0051734Y0032817D01*
X0051794Y0032751D01*
X0051850Y0032684D01*
X0051904Y0032613D01*
X0051954Y0032541D01*
X0052001Y0032466D01*
X0052045Y0032389D01*
X0052085Y0032310D01*
X0052122Y0032230D01*
X0052154Y0032148D01*
X0052184Y0032064D01*
X0052209Y0031980D01*
X0052231Y0031894D01*
X0052248Y0031808D01*
X0052262Y0031720D01*
X0052272Y0031632D01*
X0052278Y0031544D01*
X0052280Y0031456D01*
X0052278Y0031368D01*
X0052272Y0031280D01*
X0052262Y0031192D01*
X0052248Y0031104D01*
X0052231Y0031018D01*
X0052209Y0030932D01*
X0052184Y0030848D01*
X0052154Y0030764D01*
X0052122Y0030682D01*
X0052085Y0030602D01*
X0052045Y0030523D01*
X0052001Y0030446D01*
X0051954Y0030371D01*
X0051904Y0030299D01*
X0051850Y0030228D01*
X0051794Y0030161D01*
X0051734Y0030095D01*
X0051672Y0030033D01*
X0051606Y0029973D01*
X0051539Y0029917D01*
X0051468Y0029863D01*
X0051396Y0029813D01*
X0051321Y0029766D01*
X0051244Y0029722D01*
X0051165Y0029682D01*
X0051085Y0029645D01*
X0051003Y0029613D01*
X0050919Y0029583D01*
X0050835Y0029558D01*
X0050749Y0029536D01*
X0050663Y0029519D01*
X0050575Y0029505D01*
X0050487Y0029495D01*
X0050399Y0029489D01*
X0050311Y0029487D01*
X0050223Y0029489D01*
X0050135Y0029495D01*
X0050047Y0029505D01*
X0049959Y0029519D01*
X0049873Y0029536D01*
X0049787Y0029558D01*
X0049703Y0029583D01*
X0049619Y0029613D01*
X0049537Y0029645D01*
X0049457Y0029682D01*
X0049378Y0029722D01*
X0049301Y0029766D01*
X0049226Y0029813D01*
X0049154Y0029863D01*
X0049083Y0029917D01*
X0049016Y0029973D01*
X0048950Y0030033D01*
X0048888Y0030095D01*
X0048828Y0030161D01*
X0048772Y0030228D01*
X0048718Y0030299D01*
X0048668Y0030371D01*
X0048621Y0030446D01*
X0048577Y0030523D01*
X0048537Y0030602D01*
X0048500Y0030682D01*
X0048468Y0030764D01*
X0048438Y0030848D01*
X0048413Y0030932D01*
X0048391Y0031018D01*
X0048374Y0031104D01*
X0048360Y0031192D01*
X0048350Y0031280D01*
X0048344Y0031368D01*
X0048342Y0031456D01*
D16*
X0069760Y0017992D03*
X0072713Y0017992D03*
D17*
X0071236Y0017992D03*
M02*
