%
M48
M72
T01C0.0236
T02C0.0240
T03C0.0400
%
T01
X1580Y1373
X2446Y2082
X2918Y2948
X2918Y4129
X4808Y3814
X6540Y3972
X4729Y1295
X1855Y5822
X2249Y6925
T02
X4291Y4535
X3639Y2093
T03
X1163Y2558
X1163Y3558
X1163Y4558
X3493Y6621
X4493Y6621
X5493Y6621
X5493Y7621
X4493Y7621
X3493Y7621
X9009Y5216
X9009Y4216
X9009Y3216
X9009Y2216
M30
