G75*
%MOIN*%
%OFA0B0*%
%FSLAX24Y24*%
%IPPOS*%
%LPD*%
%AMOC8*
5,1,8,0,0,1.08239X$1,22.5*
%
%ADD10C,0.0000*%
%ADD11C,0.0600*%
%ADD12R,0.1000X0.0197*%
%ADD13R,0.0394X0.0433*%
%ADD14R,0.0433X0.0394*%
%ADD15R,0.0315X0.0315*%
%ADD16OC8,0.0600*%
%ADD17C,0.0100*%
%ADD18C,0.0356*%
%ADD19C,0.0160*%
%ADD20C,0.0120*%
%ADD21C,0.0360*%
D10*
X000163Y000665D02*
X000163Y008814D01*
X010792Y008814D01*
X010792Y000665D01*
X000163Y000665D01*
D11*
X000863Y002558D02*
X001463Y002558D01*
X001463Y003558D02*
X000863Y003558D01*
X000863Y004558D02*
X001463Y004558D01*
X008709Y004216D02*
X009309Y004216D01*
X009309Y005216D02*
X008709Y005216D01*
X008709Y003216D02*
X009309Y003216D01*
X009309Y002216D02*
X008709Y002216D01*
D12*
X006289Y002466D03*
X006289Y002962D03*
X006289Y003462D03*
X006289Y003962D03*
X003729Y003966D03*
X003729Y003466D03*
X003729Y002966D03*
X003729Y002466D03*
D13*
X003674Y005216D03*
X004344Y005216D03*
D14*
X005462Y005495D03*
X005462Y004826D03*
X007509Y004551D03*
X007509Y003881D03*
D15*
X007540Y003003D03*
X007540Y002413D03*
D16*
X005493Y006621D03*
X004493Y006621D03*
X003493Y006621D03*
X003493Y007621D03*
X004493Y007621D03*
X005493Y007621D03*
D17*
X004943Y007658D02*
X010477Y007658D01*
X010477Y007560D02*
X004943Y007560D01*
X004943Y007461D02*
X010477Y007461D01*
X010477Y007363D02*
X004871Y007363D01*
X004943Y007435D02*
X004680Y007171D01*
X004307Y007171D01*
X004043Y007435D01*
X004043Y007808D01*
X004307Y008071D01*
X004680Y008071D01*
X004943Y007808D01*
X004943Y007435D01*
X004772Y007264D02*
X010477Y007264D01*
X010477Y007166D02*
X004181Y007166D01*
X004181Y007195D02*
X004185Y007273D01*
X004181Y007277D01*
X004181Y007283D01*
X004126Y007338D01*
X003943Y007540D01*
X003943Y007808D01*
X003680Y008071D01*
X003307Y008071D01*
X003043Y007808D01*
X003043Y007435D01*
X003307Y007171D01*
X003680Y007171D01*
X003710Y007202D01*
X003781Y007123D01*
X003781Y006970D01*
X003680Y007071D01*
X003307Y007071D01*
X003043Y006808D01*
X003043Y006435D01*
X003293Y006185D01*
X003293Y006007D01*
X001536Y004251D01*
X000355Y004251D01*
X000320Y004215D01*
X000320Y008539D01*
X010477Y008539D01*
X010477Y000822D01*
X000320Y000901D01*
X000320Y002941D01*
X000434Y002827D01*
X000495Y002827D01*
X000481Y002813D01*
X000413Y002648D01*
X000413Y002469D01*
X000481Y002303D01*
X000608Y002177D01*
X000773Y002108D01*
X001552Y002108D01*
X001717Y002177D01*
X001844Y002303D01*
X001867Y002358D01*
X002258Y002358D01*
X002168Y002268D01*
X002118Y002147D01*
X002118Y002017D01*
X002168Y001896D01*
X002260Y001804D01*
X002381Y001754D01*
X002511Y001754D01*
X002632Y001804D01*
X002724Y001896D01*
X002774Y002017D01*
X002774Y002127D01*
X002913Y002266D01*
X003118Y002266D01*
X003167Y002217D01*
X003333Y002217D01*
X003309Y002159D01*
X003309Y002028D01*
X003359Y001907D01*
X003452Y001814D01*
X003573Y001763D01*
X003705Y001763D01*
X003826Y001814D01*
X003879Y001867D01*
X004290Y001823D01*
X004299Y001815D01*
X004371Y001815D01*
X004443Y001807D01*
X004452Y001815D01*
X004464Y001815D01*
X004515Y001866D01*
X004572Y001911D01*
X004573Y001923D01*
X004644Y001995D01*
X004761Y002112D01*
X004761Y003268D01*
X004491Y003538D01*
X004374Y003655D01*
X004351Y003655D01*
X004291Y003714D01*
X003844Y003714D01*
X003847Y003717D01*
X004291Y003717D01*
X004379Y003805D01*
X004379Y004126D01*
X004301Y004205D01*
X004357Y004205D01*
X004478Y004255D01*
X004571Y004348D01*
X004621Y004469D01*
X004621Y004600D01*
X004571Y004722D01*
X004478Y004814D01*
X004394Y004849D01*
X004603Y004849D01*
X004690Y004937D01*
X004690Y005285D01*
X005095Y005285D01*
X005095Y005236D01*
X005183Y005149D01*
X005740Y005149D01*
X005828Y005236D01*
X005828Y005285D01*
X006119Y005285D01*
X006133Y005284D01*
X006158Y005274D01*
X006177Y005255D01*
X006187Y005229D01*
X006189Y005216D01*
X006189Y005129D01*
X006312Y005006D01*
X006399Y005006D01*
X006462Y005000D01*
X006580Y004951D01*
X006669Y004861D01*
X006718Y004744D01*
X006724Y004680D01*
X006724Y003710D01*
X005727Y003710D01*
X005639Y003622D01*
X005639Y003301D01*
X005727Y003214D01*
X006851Y003214D01*
X006931Y003293D01*
X006931Y003149D01*
X006930Y003148D01*
X006913Y003148D01*
X006851Y003210D01*
X005727Y003210D01*
X005639Y003122D01*
X005639Y002801D01*
X005726Y002714D01*
X005639Y002626D01*
X005639Y002305D01*
X005727Y002217D01*
X006095Y002217D01*
X006203Y001885D01*
X006438Y001562D01*
X006438Y001562D01*
X006762Y001326D01*
X007142Y001203D01*
X009394Y001203D01*
X009730Y001312D01*
X009730Y001312D01*
X010016Y001520D01*
X010224Y001805D01*
X010224Y001805D01*
X010333Y002142D01*
X010477Y002142D01*
X010477Y002044D02*
X010301Y002044D01*
X010333Y002142D02*
X010333Y005883D01*
X010223Y006222D01*
X010013Y006511D01*
X010013Y006511D01*
X010013Y006511D01*
X009724Y006721D01*
X009384Y006831D01*
X005920Y006831D01*
X005680Y007071D01*
X005307Y007071D01*
X005043Y006808D01*
X005043Y006435D01*
X005307Y006171D01*
X005680Y006171D01*
X005920Y006411D01*
X009206Y006411D01*
X009316Y006403D01*
X009527Y006334D01*
X009706Y006204D01*
X009836Y006025D01*
X009904Y005815D01*
X009913Y005704D01*
X009913Y002318D01*
X009905Y002209D01*
X009837Y002002D01*
X009709Y001826D01*
X009533Y001699D01*
X009326Y001631D01*
X009218Y001623D01*
X007342Y001623D01*
X007210Y001633D01*
X006959Y001715D01*
X006746Y001870D01*
X006591Y002083D01*
X006547Y002217D01*
X006851Y002217D01*
X006939Y002305D01*
X006939Y002626D01*
X006852Y002714D01*
X006886Y002748D01*
X007096Y002748D01*
X007213Y002865D01*
X007233Y002885D01*
X007233Y002784D01*
X007321Y002696D01*
X007760Y002696D01*
X007848Y002784D01*
X007848Y003223D01*
X007760Y003311D01*
X007740Y003311D01*
X007740Y003534D01*
X007788Y003534D01*
X007876Y003622D01*
X007876Y004140D01*
X007800Y004216D01*
X007876Y004292D01*
X007876Y004810D01*
X007788Y004897D01*
X007230Y004897D01*
X007144Y004811D01*
X007144Y004829D01*
X007031Y005103D01*
X006821Y005312D01*
X006565Y005418D01*
X006534Y005493D01*
X006534Y005493D01*
X006397Y005631D01*
X006397Y005631D01*
X006217Y005705D01*
X005828Y005705D01*
X005828Y005754D01*
X005740Y005842D01*
X005183Y005842D01*
X005095Y005754D01*
X005095Y005705D01*
X004526Y005705D01*
X004346Y005631D01*
X004297Y005582D01*
X004181Y005582D01*
X004181Y006297D01*
X004307Y006171D01*
X004680Y006171D01*
X004943Y006435D01*
X004943Y006808D01*
X004680Y007071D01*
X004307Y007071D01*
X004181Y006946D01*
X004181Y007195D01*
X004185Y007264D02*
X004214Y007264D01*
X004116Y007363D02*
X004104Y007363D01*
X004043Y007461D02*
X004015Y007461D01*
X004043Y007560D02*
X003943Y007560D01*
X003943Y007658D02*
X004043Y007658D01*
X004043Y007757D02*
X003943Y007757D01*
X003896Y007855D02*
X004091Y007855D01*
X004189Y007954D02*
X003797Y007954D01*
X003699Y008052D02*
X004288Y008052D01*
X004699Y008052D02*
X010477Y008052D01*
X010477Y007954D02*
X004797Y007954D01*
X004896Y007855D02*
X010477Y007855D01*
X010477Y007757D02*
X004943Y007757D01*
X004684Y007067D02*
X005303Y007067D01*
X005204Y006969D02*
X004782Y006969D01*
X004881Y006870D02*
X005106Y006870D01*
X005043Y006772D02*
X004943Y006772D01*
X004943Y006673D02*
X005043Y006673D01*
X005043Y006575D02*
X004943Y006575D01*
X004943Y006476D02*
X005043Y006476D01*
X005101Y006378D02*
X004886Y006378D01*
X004787Y006279D02*
X005199Y006279D01*
X005298Y006181D02*
X004689Y006181D01*
X004298Y006181D02*
X004181Y006181D01*
X004181Y006279D02*
X004199Y006279D01*
X004181Y006082D02*
X009795Y006082D01*
X009850Y005984D02*
X004181Y005984D01*
X004181Y005885D02*
X009882Y005885D01*
X009907Y005787D02*
X005796Y005787D01*
X005689Y006181D02*
X009723Y006181D01*
X009603Y006279D02*
X005787Y006279D01*
X005886Y006378D02*
X009393Y006378D01*
X009724Y006721D02*
X009724Y006721D01*
X009790Y006673D02*
X010477Y006673D01*
X010477Y006772D02*
X009568Y006772D01*
X009925Y006575D02*
X010477Y006575D01*
X010477Y006476D02*
X010038Y006476D01*
X010110Y006378D02*
X010477Y006378D01*
X010477Y006279D02*
X010181Y006279D01*
X010223Y006222D02*
X010223Y006222D01*
X010236Y006181D02*
X010477Y006181D01*
X010477Y006082D02*
X010268Y006082D01*
X010300Y005984D02*
X010477Y005984D01*
X010477Y005885D02*
X010332Y005885D01*
X010333Y005787D02*
X010477Y005787D01*
X010477Y005688D02*
X010333Y005688D01*
X010333Y005590D02*
X010477Y005590D01*
X010477Y005491D02*
X010333Y005491D01*
X010333Y005393D02*
X010477Y005393D01*
X010477Y005294D02*
X010333Y005294D01*
X010333Y005196D02*
X010477Y005196D01*
X010477Y005097D02*
X010333Y005097D01*
X010333Y004999D02*
X010477Y004999D01*
X010477Y004900D02*
X010333Y004900D01*
X010333Y004802D02*
X010477Y004802D01*
X010477Y004703D02*
X010333Y004703D01*
X010333Y004605D02*
X010477Y004605D01*
X010477Y004506D02*
X010333Y004506D01*
X010333Y004408D02*
X010477Y004408D01*
X010477Y004309D02*
X010333Y004309D01*
X010333Y004211D02*
X010477Y004211D01*
X010477Y004112D02*
X010333Y004112D01*
X010333Y004014D02*
X010477Y004014D01*
X010477Y003915D02*
X010333Y003915D01*
X010333Y003817D02*
X010477Y003817D01*
X010477Y003718D02*
X010333Y003718D01*
X010333Y003620D02*
X010477Y003620D01*
X010477Y003521D02*
X010333Y003521D01*
X010333Y003423D02*
X010477Y003423D01*
X010477Y003324D02*
X010333Y003324D01*
X010333Y003226D02*
X010477Y003226D01*
X010477Y003127D02*
X010333Y003127D01*
X010333Y003029D02*
X010477Y003029D01*
X010477Y002930D02*
X010333Y002930D01*
X010333Y002832D02*
X010477Y002832D01*
X010477Y002733D02*
X010333Y002733D01*
X010333Y002635D02*
X010477Y002635D01*
X010477Y002536D02*
X010333Y002536D01*
X010333Y002438D02*
X010477Y002438D01*
X010477Y002339D02*
X010333Y002339D01*
X010333Y002241D02*
X010477Y002241D01*
X010477Y001945D02*
X010269Y001945D01*
X010237Y001847D02*
X010477Y001847D01*
X010477Y001748D02*
X010182Y001748D01*
X010111Y001650D02*
X010477Y001650D01*
X010477Y001551D02*
X010039Y001551D01*
X010016Y001520D02*
X010016Y001520D01*
X010016Y001520D01*
X009924Y001453D02*
X010477Y001453D01*
X010477Y001354D02*
X009789Y001354D01*
X009557Y001256D02*
X010477Y001256D01*
X010477Y001157D02*
X000320Y001157D01*
X000320Y001059D02*
X010477Y001059D01*
X010477Y000960D02*
X000320Y000960D01*
X000320Y001256D02*
X006979Y001256D01*
X006723Y001354D02*
X000320Y001354D01*
X000320Y001453D02*
X006588Y001453D01*
X006452Y001551D02*
X000320Y001551D01*
X000320Y001650D02*
X006374Y001650D01*
X006302Y001748D02*
X000320Y001748D01*
X000320Y001847D02*
X002217Y001847D01*
X002148Y001945D02*
X000320Y001945D01*
X000320Y002044D02*
X002118Y002044D01*
X002118Y002142D02*
X001634Y002142D01*
X001781Y002241D02*
X002157Y002241D01*
X002239Y002339D02*
X001859Y002339D01*
X002450Y002558D02*
X002840Y002948D01*
X002918Y002948D01*
X003711Y002948D01*
X003729Y002966D01*
X003751Y003455D02*
X003729Y003466D01*
X003751Y003455D02*
X003942Y003455D01*
X003937Y003460D01*
X002800Y003460D01*
X002367Y003027D01*
X000517Y003027D01*
X000359Y003184D01*
X000359Y003972D01*
X000438Y004051D01*
X001619Y004051D01*
X003493Y005925D01*
X003493Y006621D01*
X003199Y006279D02*
X002231Y006279D01*
X002196Y006181D02*
X003293Y006181D01*
X003293Y006082D02*
X002161Y006082D01*
X002134Y006007D02*
X002350Y006611D01*
X002435Y006646D01*
X002527Y006739D01*
X002577Y006859D01*
X002577Y006990D01*
X002527Y007110D01*
X002435Y007203D01*
X002314Y007253D01*
X002184Y007253D01*
X002063Y007203D01*
X001971Y007110D01*
X001921Y006990D01*
X001921Y006859D01*
X001971Y006739D01*
X001755Y006136D01*
X001670Y006100D01*
X001577Y006008D01*
X001527Y005887D01*
X001527Y005757D01*
X001577Y005636D01*
X001670Y005544D01*
X001790Y005494D01*
X001921Y005494D01*
X002041Y005544D01*
X002134Y005636D01*
X002184Y005757D01*
X002184Y005887D01*
X002134Y006007D01*
X002144Y005984D02*
X003270Y005984D01*
X003171Y005885D02*
X002184Y005885D01*
X002184Y005787D02*
X003073Y005787D01*
X002974Y005688D02*
X002155Y005688D01*
X002087Y005590D02*
X002876Y005590D01*
X002777Y005491D02*
X000320Y005491D01*
X000320Y005393D02*
X002679Y005393D01*
X002580Y005294D02*
X000320Y005294D01*
X000320Y005196D02*
X002482Y005196D01*
X002383Y005097D02*
X000320Y005097D01*
X000320Y004999D02*
X002285Y004999D01*
X002186Y004900D02*
X000320Y004900D01*
X000320Y004802D02*
X002088Y004802D01*
X001989Y004703D02*
X000320Y004703D01*
X000320Y004605D02*
X001891Y004605D01*
X001792Y004506D02*
X000320Y004506D01*
X000320Y004408D02*
X001694Y004408D01*
X001595Y004309D02*
X000320Y004309D01*
X001163Y003558D02*
X001222Y003499D01*
X002289Y003499D01*
X002918Y004129D01*
X003611Y004822D01*
X003611Y005153D01*
X003674Y005216D02*
X003981Y005562D01*
X003981Y007200D01*
X003600Y007621D01*
X003493Y007621D01*
X003189Y007954D02*
X000320Y007954D01*
X000320Y008052D02*
X003288Y008052D01*
X003091Y007855D02*
X000320Y007855D01*
X000320Y007757D02*
X003043Y007757D01*
X003043Y007658D02*
X000320Y007658D01*
X000320Y007560D02*
X003043Y007560D01*
X003043Y007461D02*
X000320Y007461D01*
X000320Y007363D02*
X003116Y007363D01*
X003214Y007264D02*
X000320Y007264D01*
X000320Y007166D02*
X002026Y007166D01*
X001953Y007067D02*
X000320Y007067D01*
X000320Y006969D02*
X001921Y006969D01*
X001921Y006870D02*
X000320Y006870D01*
X000320Y006772D02*
X001957Y006772D01*
X001947Y006673D02*
X000320Y006673D01*
X000320Y006575D02*
X001912Y006575D01*
X001877Y006476D02*
X000320Y006476D01*
X000320Y006378D02*
X001841Y006378D01*
X001806Y006279D02*
X000320Y006279D01*
X000320Y006181D02*
X001771Y006181D01*
X001651Y006082D02*
X000320Y006082D01*
X000320Y005984D02*
X001567Y005984D01*
X001527Y005885D02*
X000320Y005885D01*
X000320Y005787D02*
X001527Y005787D01*
X001556Y005688D02*
X000320Y005688D01*
X000320Y005590D02*
X001624Y005590D01*
X001855Y005822D02*
X002249Y006925D01*
X002462Y006673D02*
X003043Y006673D01*
X003043Y006772D02*
X002541Y006772D01*
X002577Y006870D02*
X003106Y006870D01*
X003204Y006969D02*
X002577Y006969D01*
X002545Y007067D02*
X003303Y007067D01*
X003684Y007067D02*
X003781Y007067D01*
X003743Y007166D02*
X002472Y007166D01*
X002337Y006575D02*
X003043Y006575D01*
X003043Y006476D02*
X002301Y006476D01*
X002266Y006378D02*
X003101Y006378D01*
X004181Y006969D02*
X004204Y006969D01*
X004181Y007067D02*
X004303Y007067D01*
X005684Y007067D02*
X010477Y007067D01*
X010477Y006969D02*
X005782Y006969D01*
X005881Y006870D02*
X010477Y006870D01*
X009913Y005688D02*
X006258Y005688D01*
X006438Y005590D02*
X009913Y005590D01*
X009913Y005491D02*
X006535Y005491D01*
X006627Y005393D02*
X009913Y005393D01*
X009913Y005294D02*
X006839Y005294D01*
X006821Y005312D02*
X006821Y005312D01*
X006938Y005196D02*
X009913Y005196D01*
X009913Y005097D02*
X007033Y005097D01*
X007031Y005103D02*
X007031Y005103D01*
X007074Y004999D02*
X009913Y004999D01*
X009913Y004900D02*
X007115Y004900D01*
X007277Y004551D02*
X007131Y004405D01*
X007131Y003066D01*
X007013Y002948D01*
X006303Y002948D01*
X006289Y002962D01*
X005707Y002733D02*
X004761Y002733D01*
X004761Y002635D02*
X005647Y002635D01*
X005639Y002536D02*
X004761Y002536D01*
X004761Y002438D02*
X005639Y002438D01*
X005639Y002339D02*
X004761Y002339D01*
X004761Y002241D02*
X005704Y002241D01*
X006119Y002142D02*
X004761Y002142D01*
X004693Y002044D02*
X006151Y002044D01*
X006183Y001945D02*
X004595Y001945D01*
X004496Y001847D02*
X006231Y001847D01*
X006619Y002044D02*
X008293Y002044D01*
X008259Y002126D02*
X008327Y001961D01*
X008454Y001834D01*
X008619Y001766D01*
X009398Y001766D01*
X009564Y001834D01*
X009690Y001961D01*
X009759Y002126D01*
X009759Y002305D01*
X009690Y002471D01*
X009564Y002597D01*
X009398Y002666D01*
X008619Y002666D01*
X008454Y002597D01*
X008327Y002471D01*
X008259Y002305D01*
X008259Y002126D01*
X008259Y002142D02*
X006572Y002142D01*
X006691Y001945D02*
X008343Y001945D01*
X008442Y001847D02*
X006778Y001847D01*
X006913Y001748D02*
X009602Y001748D01*
X009576Y001847D02*
X009724Y001847D01*
X009675Y001945D02*
X009796Y001945D01*
X009851Y002044D02*
X009725Y002044D01*
X009759Y002142D02*
X009883Y002142D01*
X009907Y002241D02*
X009759Y002241D01*
X009745Y002339D02*
X009913Y002339D01*
X009913Y002438D02*
X009704Y002438D01*
X009625Y002536D02*
X009913Y002536D01*
X009913Y002635D02*
X009474Y002635D01*
X009398Y002766D02*
X009564Y002834D01*
X009690Y002961D01*
X009759Y003126D01*
X009759Y003305D01*
X009690Y003471D01*
X009564Y003597D01*
X009398Y003666D01*
X008619Y003666D01*
X008454Y003597D01*
X008327Y003471D01*
X008259Y003305D01*
X008259Y003126D01*
X008327Y002961D01*
X008454Y002834D01*
X008619Y002766D01*
X009398Y002766D01*
X009557Y002832D02*
X009913Y002832D01*
X009913Y002733D02*
X007797Y002733D01*
X007848Y002832D02*
X008461Y002832D01*
X008358Y002930D02*
X007848Y002930D01*
X007848Y003029D02*
X008299Y003029D01*
X008259Y003127D02*
X007848Y003127D01*
X007845Y003226D02*
X008259Y003226D01*
X008267Y003324D02*
X007740Y003324D01*
X007740Y003423D02*
X008308Y003423D01*
X008378Y003521D02*
X007740Y003521D01*
X007873Y003620D02*
X008508Y003620D01*
X008619Y003766D02*
X008454Y003834D01*
X008327Y003961D01*
X008259Y004126D01*
X008259Y004305D01*
X008327Y004471D01*
X008454Y004597D01*
X008619Y004666D01*
X009398Y004666D01*
X009564Y004597D01*
X009690Y004471D01*
X009759Y004305D01*
X009759Y004126D01*
X009690Y003961D01*
X009564Y003834D01*
X009398Y003766D01*
X008619Y003766D01*
X008497Y003817D02*
X007876Y003817D01*
X007876Y003915D02*
X008373Y003915D01*
X008306Y004014D02*
X007876Y004014D01*
X007876Y004112D02*
X008265Y004112D01*
X008259Y004211D02*
X007805Y004211D01*
X007876Y004309D02*
X008261Y004309D01*
X008301Y004408D02*
X007876Y004408D01*
X007876Y004506D02*
X008363Y004506D01*
X008472Y004605D02*
X007876Y004605D01*
X007876Y004703D02*
X009913Y004703D01*
X009913Y004605D02*
X009546Y004605D01*
X009655Y004506D02*
X009913Y004506D01*
X009913Y004408D02*
X009717Y004408D01*
X009757Y004309D02*
X009913Y004309D01*
X009913Y004211D02*
X009759Y004211D01*
X009753Y004112D02*
X009913Y004112D01*
X009913Y004014D02*
X009712Y004014D01*
X009645Y003915D02*
X009913Y003915D01*
X009913Y003817D02*
X009521Y003817D01*
X009510Y003620D02*
X009913Y003620D01*
X009913Y003718D02*
X007876Y003718D01*
X007540Y003850D02*
X007509Y003881D01*
X007540Y003850D02*
X007540Y003003D01*
X007233Y002832D02*
X007179Y002832D01*
X007283Y002733D02*
X006871Y002733D01*
X006931Y002635D02*
X008544Y002635D01*
X008393Y002536D02*
X006939Y002536D01*
X006939Y002438D02*
X008314Y002438D01*
X008273Y002339D02*
X006939Y002339D01*
X006874Y002241D02*
X008259Y002241D01*
X007159Y001650D02*
X009383Y001650D01*
X010477Y000862D02*
X005379Y000862D01*
X004069Y001847D02*
X003859Y001847D01*
X003639Y002093D02*
X004381Y002015D01*
X004561Y002195D01*
X004561Y003185D01*
X004291Y003455D01*
X003942Y003455D01*
X004292Y003718D02*
X006724Y003718D01*
X006724Y003817D02*
X004379Y003817D01*
X004379Y003915D02*
X006724Y003915D01*
X006724Y004014D02*
X004379Y004014D01*
X004379Y004112D02*
X006724Y004112D01*
X006724Y004211D02*
X004372Y004211D01*
X004533Y004309D02*
X006724Y004309D01*
X006724Y004408D02*
X004596Y004408D01*
X004621Y004506D02*
X006724Y004506D01*
X006724Y004605D02*
X004620Y004605D01*
X004579Y004703D02*
X006722Y004703D01*
X006694Y004802D02*
X004491Y004802D01*
X004653Y004900D02*
X006630Y004900D01*
X006464Y004999D02*
X004690Y004999D01*
X004690Y005097D02*
X006220Y005097D01*
X006189Y005196D02*
X005788Y005196D01*
X005136Y005196D02*
X004690Y005196D01*
X004305Y005590D02*
X004181Y005590D01*
X004181Y005688D02*
X004484Y005688D01*
X004346Y005631D02*
X004346Y005631D01*
X004181Y005787D02*
X005128Y005787D01*
X004291Y004535D02*
X003841Y004085D01*
X003841Y003995D01*
X003751Y003905D01*
X003729Y003966D01*
X004409Y003620D02*
X005639Y003620D01*
X005639Y003521D02*
X004508Y003521D01*
X004606Y003423D02*
X005639Y003423D01*
X005639Y003324D02*
X004705Y003324D01*
X004761Y003226D02*
X005715Y003226D01*
X005644Y003127D02*
X004761Y003127D01*
X004761Y003029D02*
X005639Y003029D01*
X005639Y002930D02*
X004761Y002930D01*
X004761Y002832D02*
X005639Y002832D01*
X006863Y003226D02*
X006931Y003226D01*
X007277Y004551D02*
X007509Y004551D01*
X007876Y004802D02*
X009913Y004802D01*
X009913Y003521D02*
X009640Y003521D01*
X009710Y003423D02*
X009913Y003423D01*
X009913Y003324D02*
X009751Y003324D01*
X009759Y003226D02*
X009913Y003226D01*
X009913Y003127D02*
X009759Y003127D01*
X009719Y003029D02*
X009913Y003029D01*
X009913Y002930D02*
X009660Y002930D01*
X003729Y002466D02*
X002830Y002466D01*
X002446Y002082D01*
X002675Y001847D02*
X003419Y001847D01*
X003343Y001945D02*
X002744Y001945D01*
X002774Y002044D02*
X003309Y002044D01*
X003309Y002142D02*
X002789Y002142D01*
X002888Y002241D02*
X003144Y002241D01*
X002450Y002558D02*
X001163Y002558D01*
X000691Y002142D02*
X000320Y002142D01*
X000320Y002241D02*
X000544Y002241D01*
X000466Y002339D02*
X000320Y002339D01*
X000320Y002438D02*
X000425Y002438D01*
X000413Y002536D02*
X000320Y002536D01*
X000320Y002635D02*
X000413Y002635D01*
X000448Y002733D02*
X000320Y002733D01*
X000320Y002832D02*
X000429Y002832D01*
X000331Y002930D02*
X000320Y002930D01*
X000320Y008151D02*
X010477Y008151D01*
X010477Y008249D02*
X000320Y008249D01*
X000320Y008348D02*
X010477Y008348D01*
X010477Y008446D02*
X000320Y008446D01*
D18*
X002249Y006925D03*
X001855Y005822D03*
X002918Y004129D03*
X002918Y002948D03*
X002446Y002082D03*
X001580Y001373D03*
X004729Y001295D03*
X004808Y003814D03*
X006540Y003972D03*
D19*
X003674Y005216D02*
X003611Y005153D01*
D20*
X003674Y005216D02*
X003470Y005216D01*
X004343Y005216D02*
X004345Y005247D01*
X004350Y005278D01*
X004359Y005308D01*
X004371Y005337D01*
X004386Y005365D01*
X004404Y005391D01*
X004425Y005414D01*
X004448Y005435D01*
X004474Y005453D01*
X004502Y005468D01*
X004531Y005480D01*
X004561Y005489D01*
X004592Y005494D01*
X004623Y005496D01*
X004623Y005495D02*
X005462Y005495D01*
X006119Y005495D01*
X006119Y005496D02*
X006150Y005494D01*
X006181Y005489D01*
X006211Y005480D01*
X006240Y005468D01*
X006268Y005453D01*
X006294Y005435D01*
X006317Y005414D01*
X006338Y005391D01*
X006356Y005365D01*
X006371Y005337D01*
X006383Y005308D01*
X006392Y005278D01*
X006397Y005247D01*
X006399Y005216D01*
X006399Y005215D02*
X006443Y005213D01*
X006487Y005208D01*
X006530Y005199D01*
X006573Y005186D01*
X006614Y005170D01*
X006654Y005151D01*
X006692Y005128D01*
X006728Y005102D01*
X006761Y005074D01*
X006793Y005042D01*
X006821Y005009D01*
X006847Y004973D01*
X006870Y004935D01*
X006889Y004895D01*
X006905Y004854D01*
X006918Y004811D01*
X006927Y004768D01*
X006932Y004724D01*
X006934Y004680D01*
X006934Y003657D01*
X006932Y003635D01*
X006928Y003613D01*
X006920Y003592D01*
X006909Y003572D01*
X006896Y003554D01*
X006880Y003538D01*
X006862Y003525D01*
X006842Y003514D01*
X006821Y003506D01*
X006799Y003502D01*
X006777Y003500D01*
X006777Y003499D02*
X006326Y003499D01*
X006316Y003498D01*
X006308Y003494D01*
X006300Y003488D01*
X006294Y003481D01*
X006290Y003472D01*
X006289Y003462D01*
X006289Y002466D02*
X006291Y002402D01*
X006297Y002339D01*
X006306Y002276D01*
X006320Y002214D01*
X006337Y002153D01*
X006357Y002093D01*
X006382Y002034D01*
X006410Y001977D01*
X006441Y001921D01*
X006475Y001868D01*
X006513Y001817D01*
X006554Y001768D01*
X006597Y001721D01*
X006644Y001678D01*
X006693Y001637D01*
X006744Y001599D01*
X006797Y001565D01*
X006853Y001534D01*
X006910Y001506D01*
X006969Y001481D01*
X007029Y001461D01*
X007090Y001444D01*
X007152Y001430D01*
X007215Y001421D01*
X007278Y001415D01*
X007342Y001413D01*
X009218Y001413D01*
X009218Y001412D02*
X009277Y001414D01*
X009336Y001420D01*
X009395Y001429D01*
X009452Y001443D01*
X009509Y001460D01*
X009565Y001481D01*
X009619Y001505D01*
X009671Y001533D01*
X009721Y001565D01*
X009770Y001599D01*
X009815Y001637D01*
X009859Y001677D01*
X009899Y001721D01*
X009937Y001766D01*
X009971Y001815D01*
X010003Y001865D01*
X010031Y001917D01*
X010055Y001971D01*
X010076Y002027D01*
X010093Y002084D01*
X010107Y002141D01*
X010116Y002200D01*
X010122Y002259D01*
X010124Y002318D01*
X010123Y002318D02*
X010123Y005704D01*
X010121Y005762D01*
X010116Y005819D01*
X010107Y005876D01*
X010094Y005932D01*
X010078Y005987D01*
X010059Y006042D01*
X010036Y006094D01*
X010010Y006146D01*
X009980Y006195D01*
X009948Y006243D01*
X009913Y006289D01*
X009874Y006332D01*
X009834Y006372D01*
X009791Y006411D01*
X009745Y006446D01*
X009697Y006478D01*
X009648Y006508D01*
X009596Y006534D01*
X009544Y006557D01*
X009489Y006576D01*
X009434Y006592D01*
X009378Y006605D01*
X009321Y006614D01*
X009264Y006619D01*
X009206Y006621D01*
X005493Y006621D01*
D21*
X004291Y004535D03*
X003639Y002093D03*
M02*
