G75*
%MOIN*%
%OFA0B0*%
%FSLAX24Y24*%
%IPPOS*%
%LPD*%
%AMOC8*
5,1,8,0,0,1.08239X$1,22.5*
%
%ADD10C,0.0000*%
%ADD11R,0.0670X0.1103*%
%ADD12R,0.0631X0.0552*%
%ADD13C,0.0640*%
%ADD14R,0.0356X0.0633*%
%ADD15R,0.1418X0.1064*%
%ADD16R,0.0473X0.0434*%
%ADD17OC8,0.0640*%
D10*
X000163Y000665D02*
X000163Y008814D01*
X010792Y008814D01*
X010792Y000665D01*
X000163Y000665D01*
D11*
X004789Y001417D03*
X005891Y001417D03*
D12*
X003060Y004704D03*
X003060Y005373D03*
D13*
X001463Y004558D02*
X000863Y004558D01*
X000863Y003558D02*
X001463Y003558D01*
X001463Y002558D02*
X000863Y002558D01*
X008709Y002216D02*
X009309Y002216D01*
X009309Y003216D02*
X008709Y003216D01*
X008709Y004216D02*
X009309Y004216D01*
X009309Y005216D02*
X008709Y005216D01*
D14*
X006229Y004722D03*
X005729Y004722D03*
X005229Y004722D03*
X004729Y004722D03*
X004729Y002755D03*
X005229Y002755D03*
X005729Y002755D03*
X006229Y002755D03*
D15*
X005481Y003740D03*
D16*
X002426Y003960D03*
X002387Y004460D03*
X002387Y005129D03*
X002426Y003291D03*
D17*
X003493Y006621D03*
X004493Y006621D03*
X005493Y006621D03*
X005493Y007621D03*
X004493Y007621D03*
X003493Y007621D03*
M02*
